# Blender v3.1.2 OBJ File: 'all_building_objects_amy_positioned.blend'
# www.blender.org
mtllib redhills_tower_buildingchunk_piramid2.mtl
o redhills_tower_buildingchunk_piramid2_Hexoganal_module_03.013_Cylinder.002
v -13.689239 -0.040085 8.462160
v -13.640777 -0.110026 8.472224
v -13.608011 -0.036001 8.536905
v -13.608011 -0.035999 -8.536911
v -13.640777 -0.110024 -8.472230
v -13.689239 -0.040084 -8.462166
v 9.683517 -0.110024 -8.472230
v 9.680820 -0.035999 -8.536911
v 9.755546 -0.035372 -8.461446
v 9.680820 -0.036001 8.536905
v 9.683517 -0.110026 8.472224
v 9.755545 -0.035374 8.461440
v -10.649378 8.063004 -7.365406
v -10.683403 8.177086 -7.392536
v -10.589273 8.180887 -7.488523
v -10.571214 8.058920 -7.441256
v -10.649378 8.063003 7.365404
v -10.571214 8.058918 7.441255
v -10.589273 8.180885 7.488521
v -10.683403 8.177084 7.392534
v 9.391070 8.058920 -7.441256
v 9.430020 8.151090 -7.503700
v 9.535315 8.152310 -7.401052
v 9.465840 8.058292 -7.365961
v 9.465840 8.058290 7.365959
v 9.535315 8.152308 7.401051
v 9.430020 8.151087 7.503699
v 9.391070 8.058917 7.441255
v -8.432008 13.768840 6.668414
v -8.510644 13.764031 6.596620
v -8.598487 13.731650 6.648378
v -8.499132 13.723959 6.740907
v -8.499132 13.723962 -6.740905
v -8.598487 13.731653 -6.648377
v -8.510644 13.764034 -6.596619
v -8.432008 13.768843 -6.668413
v 9.340888 13.702827 -6.750062
v 9.191300 13.768877 -6.668408
v 9.261395 13.770038 -6.597148
v 9.340888 13.702825 6.750063
v 9.261395 13.770035 6.597150
v 9.191300 13.768874 6.668409
v -8.691027 13.715247 -6.769780
v -8.606428 13.738080 -6.658368
v -8.525826 13.745371 -6.774615
v -8.612877 13.710821 -6.845527
v -10.710803 8.197155 -7.416517
v -10.744533 8.311125 -7.476319
v -10.663238 8.314997 -7.551138
v -10.606125 8.192966 -7.503489
v 9.349441 13.648283 -6.834557
v 9.345333 13.703884 -6.754148
v 9.424212 13.647378 -6.759196
v 9.531469 8.246280 -7.576991
v 9.606198 8.246671 -7.501597
v 9.536568 8.152647 -7.402395
v 9.440309 8.154203 -7.514639
v 9.424212 13.647376 6.759197
v 9.345333 13.703881 6.754149
v 9.349441 13.648281 6.834558
v 9.606198 8.246669 7.501596
v 9.531469 8.246278 7.576989
v 9.440309 8.154201 7.514638
v 9.536568 8.152644 7.402394
v -10.710803 8.197154 7.416515
v -10.606124 8.192965 7.503488
v -10.663238 8.314996 7.551136
v -10.744532 8.311124 7.476317
v -8.691027 13.715245 6.769781
v -8.612877 13.710819 6.845529
v -8.525826 13.745369 6.774617
v -8.606428 13.738078 6.658370
v -8.229768 14.725376 5.691638
v -8.255364 14.654824 5.626433
v -8.219874 14.539113 5.784322
v -5.292754 22.341675 4.728607
v -5.381790 22.314653 4.589671
v -5.408827 22.244904 4.673867
v -5.292754 22.341679 -4.728602
v -5.408827 22.244907 -4.673862
v -5.381790 22.314657 -4.589666
v -8.255364 14.654825 -5.626432
v -8.229768 14.725377 -5.691637
v -8.219874 14.539114 -5.784321
v -7.209728 14.781949 -6.606651
v -7.161104 14.712414 -6.615928
v -7.344219 14.613520 -6.554085
v -4.473145 22.267635 -5.518094
v -4.346962 22.213820 -5.600606
v -4.447739 22.144337 -5.610145
v 8.184091 22.267666 -5.518090
v 8.118703 22.139719 -5.610789
v 8.041349 22.213820 -5.600606
v 8.309855 14.712414 -6.615928
v 8.381902 14.786572 -6.606043
v 8.457705 14.613484 -6.554090
v 9.299693 14.788360 -5.676743
v 9.302331 14.714370 -5.612057
v 9.230792 14.625027 -5.769416
v 8.957644 22.256102 -4.736898
v 9.034735 22.190371 -4.600174
v 9.037394 22.116383 -4.684889
v 8.957644 22.256098 4.736902
v 9.037394 22.116379 4.684893
v 9.034735 22.190367 4.600178
v 9.302331 14.714368 5.612059
v 9.299693 14.788358 5.676744
v 9.230792 14.625025 5.769418
v 8.381902 14.786571 6.606045
v 8.309855 14.712412 6.615930
v 8.457705 14.613482 6.554091
v 8.184091 22.267664 5.518095
v 8.041349 22.213818 5.600611
v 8.118703 22.139719 5.610793
v -4.473145 22.267633 5.518098
v -4.447739 22.144335 5.610150
v -4.346962 22.213818 5.600611
v -7.161104 14.712413 6.615930
v -7.209728 14.781949 6.606652
v -7.344219 14.613519 6.554086
v -8.422559 14.832700 5.691638
v -8.488626 14.869224 5.616369
v -8.449596 14.762949 5.626433
v -5.601618 22.352228 4.673866
v -5.576023 22.422781 4.589671
v -5.667528 22.389174 4.598540
v -5.576021 22.422783 -4.589666
v -5.601618 22.352230 -4.673862
v -5.667528 22.389175 -4.598536
v -8.422559 14.832701 -5.691637
v -8.449596 14.762950 -5.626432
v -8.488626 14.869225 -5.616368
v -7.209728 14.823240 -6.812232
v -7.128338 14.842492 -6.884989
v -7.161104 14.753757 -6.821770
v -4.447739 22.185625 -5.815726
v -4.346962 22.255161 -5.806448
v -4.369738 22.195845 -5.889706
v 8.041349 22.255161 -5.806448
v 8.118703 22.181002 -5.816333
v 8.043952 22.195845 -5.889706
v 8.381902 14.827855 -6.811588
v 8.309855 14.753757 -6.821770
v 8.307158 14.842491 -6.884989
v 9.507216 14.799382 -5.676743
v 9.581799 14.804008 -5.601272
v 9.509875 14.725392 -5.612057
v 9.244917 22.127405 -4.684889
v 9.242279 22.201395 -4.600174
v 9.319547 22.130705 -4.609598
v 9.242279 22.201391 4.600178
v 9.244917 22.127401 4.684893
v 9.319547 22.130701 4.609602
v 9.507216 14.799380 5.676744
v 9.509875 14.725390 5.612059
v 9.581799 14.804006 5.601274
v 8.381902 14.827853 6.811590
v 8.307158 14.842489 6.884990
v 8.309855 14.753755 6.821772
v 8.118703 22.181002 5.816338
v 8.041349 22.255161 5.806453
v 8.043952 22.195845 5.889710
v -4.346962 22.255161 5.806453
v -4.447739 22.185625 5.815731
v -4.369738 22.195845 5.889710
v -7.209727 14.823238 6.812232
v -7.161104 14.753755 6.821772
v -7.128338 14.842489 6.884990
v -4.874012 23.073143 5.363873
v -4.980462 23.067169 5.281754
v -5.062081 22.956558 5.352042
v -4.986832 22.951385 5.425552
v -4.768999 23.158922 5.279429
v -4.728261 23.212156 5.152323
v -4.860814 23.164900 5.185543
v -4.980461 23.067171 -5.281748
v -4.874012 23.073145 -5.363867
v -4.986831 22.951387 -5.425547
v -5.062081 22.956560 -5.352037
v -4.860814 23.164902 -5.185537
v -4.728261 23.212158 -5.152318
v -4.768999 23.158924 -5.279424
v 8.685491 23.212158 -5.152318
v 8.809642 23.156168 -5.189266
v 8.718961 23.158880 -5.279379
v 8.880869 23.075525 -5.268520
v 8.932814 22.949842 -5.354300
v 8.862280 22.950981 -5.425602
v 8.794973 23.072817 -5.363962
v 8.862280 22.950981 5.425607
v 8.932814 22.949842 5.354304
v 8.880868 23.075523 5.268525
v 8.794973 23.072817 5.363966
v 8.809642 23.156168 5.189269
v 8.685491 23.212156 5.152323
v 8.718961 23.158878 5.279384
vt 0.174574 0.521397
vt 0.174559 0.542641
vt 0.123473 0.542640
vt 0.123459 0.521397
vt 0.122970 0.556030
vt 0.122969 0.644375
vt 0.119946 0.638224
vt 0.119944 0.571334
vt 0.076919 0.521397
vt 0.076901 0.542640
vt 0.014166 0.542641
vt 0.014148 0.521397
vt 0.014253 0.544893
vt 0.076829 0.544798
vt 0.076829 0.545305
vt 0.014253 0.545209
vt 0.229188 0.521398
vt 0.229168 0.542639
vt 0.175011 0.542639
vt 0.174991 0.521398
vt 0.076938 0.521000
vt 0.014139 0.521000
vt 0.013862 0.475109
vt 0.077042 0.475101
vt 0.077541 0.644375
vt 0.077539 0.556031
vt 0.081448 0.571334
vt 0.081446 0.638224
vt 0.123643 0.555995
vt 0.174426 0.555996
vt 0.171238 0.571368
vt 0.127288 0.571369
vt 0.123532 0.544797
vt 0.174488 0.544893
vt 0.174488 0.545209
vt 0.123532 0.545305
vt 0.014346 0.644389
vt 0.014344 0.555996
vt 0.018408 0.571368
vt 0.018406 0.638211
vt 0.118980 0.635009
vt 0.117068 0.629082
vt 0.117068 0.576825
vt 0.118980 0.574325
vt 0.174549 0.547330
vt 0.174537 0.551830
vt 0.123497 0.551830
vt 0.123485 0.547330
vt 0.229158 0.547331
vt 0.229143 0.551829
vt 0.175037 0.551829
vt 0.175021 0.547331
vt 0.076887 0.547330
vt 0.076872 0.551830
vt 0.014192 0.551830
vt 0.014178 0.547330
vt 0.077419 0.544641
vt 0.123000 0.544641
vt 0.123000 0.545462
vt 0.077419 0.545462
vt 0.174744 0.553213
vt 0.123537 0.553455
vt 0.123537 0.552901
vt 0.174744 0.553140
vt 0.175133 0.545033
vt 0.229047 0.545033
vt 0.229047 0.545071
vt 0.175133 0.545071
vt 0.128231 0.574349
vt 0.129856 0.576806
vt 0.129856 0.629123
vt 0.128231 0.634947
vt 0.075081 0.646434
vt 0.015973 0.646555
vt 0.014963 0.645600
vt 0.076074 0.645554
vt 0.076823 0.553455
vt 0.013939 0.553213
vt 0.013939 0.553140
vt 0.076823 0.552901
vt 0.123645 0.644390
vt 0.127287 0.638210
vt 0.178873 0.574388
vt 0.180310 0.576834
vt 0.180310 0.629095
vt 0.178873 0.634898
vt 0.229436 0.553213
vt 0.229436 0.553140
vt 0.175046 0.644388
vt 0.175044 0.555998
vt 0.178055 0.571367
vt 0.178053 0.638211
vt 0.076807 0.555995
vt 0.076805 0.644390
vt 0.073478 0.638210
vt 0.073477 0.571369
vt 0.123046 0.547327
vt 0.123033 0.551833
vt 0.077386 0.551833
vt 0.077373 0.547327
vt 0.228894 0.555998
vt 0.223465 0.571366
vt 0.228891 0.644388
vt 0.223468 0.638211
vt 0.174424 0.644389
vt 0.171239 0.638211
vt 0.019503 0.574386
vt 0.021436 0.576840
vt 0.021436 0.629090
vt 0.019503 0.634910
vt 0.122925 0.553259
vt 0.077493 0.553259
vt 0.077493 0.553095
vt 0.122926 0.553095
vt 0.069056 0.577678
vt 0.069025 0.627042
vt 0.022394 0.627042
vt 0.022363 0.577678
vt 0.118754 0.573761
vt 0.116840 0.576321
vt 0.084483 0.576321
vt 0.082689 0.573761
vt 0.082462 0.574325
vt 0.084255 0.576825
vt 0.084255 0.629082
vt 0.082462 0.635009
vt 0.072345 0.634947
vt 0.070104 0.629123
vt 0.070104 0.576806
vt 0.072345 0.574349
vt 0.219629 0.577684
vt 0.219596 0.627036
vt 0.181128 0.627036
vt 0.181095 0.577684
vt 0.072099 0.573791
vt 0.069865 0.576292
vt 0.021675 0.576292
vt 0.019750 0.573791
vt 0.222290 0.634898
vt 0.220530 0.629095
vt 0.220530 0.576835
vt 0.222290 0.574388
vt 0.019811 0.635501
vt 0.021733 0.629628
vt 0.069806 0.629629
vt 0.072038 0.635501
vt 0.167893 0.577678
vt 0.167869 0.627042
vt 0.130658 0.627042
vt 0.130633 0.577678
vt 0.222010 0.573796
vt 0.220261 0.576286
vt 0.180580 0.576286
vt 0.179153 0.573796
vt 0.170329 0.634910
vt 0.168674 0.629090
vt 0.168674 0.576840
vt 0.170329 0.574386
vt 0.179213 0.635489
vt 0.180638 0.629641
vt 0.220203 0.629641
vt 0.221949 0.635489
vt 0.075921 0.693305
vt 0.015020 0.693316
vt 0.015873 0.692414
vt 0.074923 0.692393
vt 0.170133 0.573791
vt 0.168483 0.576292
vt 0.130046 0.576292
vt 0.128428 0.573791
vt 0.116198 0.577641
vt 0.116169 0.627079
vt 0.085112 0.627079
vt 0.085084 0.577641
vt 0.128476 0.635501
vt 0.130093 0.629629
vt 0.168436 0.629629
vt 0.170084 0.635501
vt 0.015549 0.646936
vt 0.015454 0.692032
vt 0.014651 0.692873
vt 0.014599 0.646045
vt 0.016530 0.647465
vt 0.074580 0.647300
vt 0.074420 0.691507
vt 0.016337 0.691536
vt 0.075295 0.691941
vt 0.075452 0.646883
vt 0.076588 0.645887
vt 0.076436 0.692975
vt 0.082741 0.635571
vt 0.084532 0.629559
vt 0.116791 0.629559
vt 0.118702 0.635571
vt 0.077173 0.475128
vt 0.077244 0.475100
vt 0.076953 0.474898
vt 0.076849 0.521175
vt 0.077139 0.521000
vt 0.077139 0.520973
vt 0.014147 0.521202
vt 0.013938 0.520971
vt 0.013868 0.474934
vt 0.013861 0.474906
vt 0.013660 0.475138
vt 0.077364 0.542651
vt 0.123054 0.542651
vt 0.229437 0.542648
vt 0.229436 0.542835
vt 0.229325 0.542835
vt 0.229436 0.542665
vt 0.229389 0.554463
vt 0.229098 0.554463
vt 0.229438 0.551832
vt 0.229155 0.551891
vt 0.229436 0.551838
vt 0.229606 0.545640
vt 0.229127 0.547269
vt 0.228770 0.547269
vt 0.229436 0.543826
vt 0.123114 0.645867
vt 0.123127 0.644698
vt 0.123280 0.644587
vt 0.077837 0.645480
vt 0.077139 0.645009
vt 0.077139 0.644587
vt 0.014209 0.645696
vt 0.013939 0.644425
vt 0.014158 0.644675
vt 0.174744 0.644425
vt 0.174744 0.645009
vt 0.174572 0.644675
vt 0.077347 0.521386
vt 0.229436 0.521403
vt 0.123071 0.521386
vt 0.229436 0.547333
vt 0.229436 0.543512
vt 0.122707 0.645009
vt 0.077712 0.645009
vt 0.174245 0.645009
vt 0.123885 0.645009
vt 0.228690 0.645009
vt 0.175490 0.645009
vt 0.013939 0.555383
vn 0.0000 0.1341 0.9910
vn -0.9363 0.3512 0.0000
vn 0.0000 0.1341 -0.9910
vn -0.0018 -0.8628 -0.5055
vn 0.9994 0.0358 0.0000
vn 0.0000 -1.0000 -0.0000
vn -0.0018 -0.8628 0.5055
vn 0.0618 0.1111 0.9919
vn 0.0001 0.1329 0.9911
vn 0.9994 0.0337 0.0000
vn 0.0001 0.1329 -0.9911
vn -0.5909 -0.8067 -0.0000
vn 0.0013 0.8600 -0.5104
vn 0.2591 -0.9659 -0.0000
vn -0.9371 0.3422 -0.0687
vn 0.0000 0.7012 -0.7129
vn 0.0013 0.8599 0.5104
vn -0.0071 0.1339 0.9910
vn -0.2313 0.9729 0.0000
vn -0.9348 0.3552 0.0000
vn 0.9994 0.0348 0.0070
vn 0.6291 0.7773 0.0000
vn -0.4864 -0.8737 0.0000
vn 0.0618 0.1111 -0.9919
vn -0.9371 0.3422 0.0687
vn -0.0000 -0.9804 -0.1969
vn -0.0071 0.1339 -0.9910
vn 0.0000 0.9804 0.1969
vn 0.0530 -0.9986 -0.0000
vn 0.9994 0.0348 -0.0070
vn -0.0530 0.9986 0.0000
vn 0.0000 0.7012 0.7129
vn -0.0000 -0.9804 0.1969
vn 0.0000 0.9804 -0.1969
vn 0.7495 0.6620 0.0000
vn 0.0000 1.0000 0.0000
vn -0.6326 0.7745 0.0000
vn 0.4864 0.8737 0.0000
vn 0.0001 0.1341 0.9910
vn -0.0000 -1.0000 -0.0001
vn -0.0001 -1.0000 0.0000
vn -0.0018 -0.8628 -0.5056
vn -0.0018 -0.8628 0.5056
vn 0.0000 0.1342 -0.9910
vn 0.2591 -0.9658 0.0000
vn 0.9994 0.0357 -0.0000
vn 0.0000 0.1342 0.9910
vn 0.0014 0.8599 -0.5104
vn 0.0014 0.8599 0.5104
vn 0.0013 0.8600 0.5103
vn -0.5909 -0.8068 0.0000
vn -0.9348 0.3553 -0.0000
vn 0.0000 0.1329 -0.9911
vn 0.9994 0.0337 0.0001
vn 0.0000 0.1329 0.9911
vn 0.9994 0.0337 -0.0001
vn 0.0013 0.8599 -0.5104
vn 0.0618 0.1110 0.9919
vn -0.9363 0.3513 -0.0000
vn 0.4865 0.8737 0.0001
vn 0.4865 0.8737 -0.0000
vn 0.0618 0.1110 -0.9919
vn -0.9371 0.3423 0.0687
vn -0.0001 0.9804 0.1969
vn -0.9371 0.3423 0.0688
vn -0.0071 0.1338 -0.9910
vn -0.0071 0.1338 0.9910
vn -0.9371 0.3423 -0.0687
vn -0.0001 0.9804 -0.1969
vn 0.4864 0.8738 -0.0000
vn -0.9371 0.3422 0.0688
vn 0.0000 -0.9804 -0.1970
vn -0.0072 0.1338 -0.9910
vn -0.0530 0.9986 0.0001
vn 0.9994 0.0358 0.0001
vn -0.9371 0.3422 -0.0688
vn 0.0000 -0.9804 0.1970
vn 0.0000 0.7012 -0.7130
vn 0.9994 0.0357 0.0001
vn -0.0000 0.7013 0.7129
vn 0.0013 0.8600 0.5104
vn 0.9994 0.0336 -0.0000
vn 0.0000 0.1330 -0.9911
vn 0.0000 0.1330 0.9911
vn 0.0014 0.8600 -0.5104
vn -0.2312 0.9729 0.0000
vn 0.0014 0.8600 0.5104
vn -0.9363 0.3513 -0.0001
vn -0.9363 0.3513 0.0001
vn -0.9363 0.3512 -0.0001
vn -0.9363 0.3512 0.0001
vn 0.0619 0.1111 -0.9919
vn 0.0619 0.1110 0.9919
vn 0.0000 0.9804 0.1970
vn 0.9994 0.0349 0.0070
vn -0.0531 0.9986 0.0000
vn 0.9994 0.0349 -0.0070
vn 0.0000 0.9804 -0.1970
vn -0.9371 0.3423 -0.0688
vn -0.6326 0.7744 0.0000
vn 0.0000 0.7013 -0.7129
usemtl Material
s off
f 10/1/1 28/2/1 18/3/1 3/4/1
f 30/5/2 171/6/2 76/7/2 75/8/2
f 4/9/3 16/10/3 21/11/3 8/12/3
f 22/13/4 15/14/4 50/15/4 57/16/4
f 9/17/5 24/18/5 25/19/5 12/20/5
f 5/21/6 7/22/6 11/23/6 2/24/6
f 179/25/2 35/26/2 84/27/2 79/28/2
f 29/29/1 42/30/1 111/31/1 120/32/1
f 19/33/7 27/34/7 63/35/7 66/36/7
f 188/37/3 38/38/3 96/39/3 91/40/3
f 78/41/8 124/42/8 121/43/8 73/44/8
f 62/45/9 60/46/9 70/47/9 67/48/9
f 55/49/10 53/50/10 58/51/10 61/52/10
f 49/53/11 46/54/11 51/55/11 54/56/11
f 35/26/2 30/5/2 75/8/2 84/27/2
f 14/57/12 20/58/12 65/59/12 47/60/12
f 40/61/13 32/62/13 71/63/13 59/64/13
f 26/65/14 23/66/14 56/67/14 64/68/14
f 119/69/15 166/70/15 164/71/15 116/72/15
f 182/73/16 185/74/16 189/75/16 177/76/16
f 33/77/17 37/78/17 52/79/17 45/80/17
f 172/81/1 29/29/1 120/32/1 115/82/1
f 107/83/18 154/84/18 152/85/18 104/86/18
f 37/87/19 40/61/19 59/64/19 52/88/19
f 191/89/5 41/90/5 108/91/5 103/92/5
f 36/93/3 178/94/3 88/95/3 87/96/3
f 68/97/20 69/98/20 43/99/20 48/100/20
f 41/90/5 39/101/5 99/102/5 108/91/5
f 39/101/5 187/103/5 100/104/5 99/102/5
f 42/30/1 190/105/1 112/106/1 111/31/1
f 95/107/21 142/108/21 140/109/21 92/110/21
f 38/38/3 36/93/3 87/96/3 96/39/3
f 31/111/22 34/112/22 44/113/22 72/114/22
f 134/115/3 138/116/3 141/117/3 144/118/3
f 74/119/23 123/120/23 131/121/23 82/122/23
f 83/123/24 130/124/24 128/125/24 80/126/24
f 90/127/25 136/128/25 133/129/25 85/130/25
f 171/6/2 179/25/2 79/28/2 76/7/2
f 146/131/5 150/132/5 153/133/5 156/134/5
f 86/135/26 135/136/26 143/137/26 94/138/26
f 178/94/3 188/37/3 91/40/3 88/95/3
f 102/139/27 148/140/27 145/141/27 97/142/27
f 93/143/28 139/144/28 137/145/28 89/146/28
f 158/147/1 162/148/1 165/149/1 168/150/1
f 98/151/29 147/152/29 155/153/29 106/154/29
f 187/103/5 191/89/5 103/92/5 100/104/5
f 114/155/30 160/156/30 157/157/30 109/158/30
f 105/159/31 151/160/31 149/161/31 101/162/31
f 169/163/32 193/164/32 196/165/32 173/166/32
f 110/167/33 159/168/33 167/169/33 118/170/33
f 190/105/1 172/81/1 115/82/1 112/106/1
f 122/171/2 126/172/2 129/173/2 132/174/2
f 117/175/34 163/176/34 161/177/34 113/178/34
f 184/179/35 194/180/35 192/181/35 186/182/35
f 183/183/36 181/184/36 174/185/36 195/186/36
f 175/187/37 180/188/37 176/189/37 170/190/37
f 81/191/38 127/192/38 125/193/38 77/194/38
f 1/195/2 2/196/6 3/197/39
f 4/198/3 5/199/6 6/200/2
f 7/22/40 8/201/3 9/202/5
f 10/203/1 11/204/41 12/205/5
f 13/206/2 14/57/12 15/14/42 16/10/3
f 17/207/2 18/3/1 19/33/43 20/58/12
f 21/208/44 22/209/4 23/210/45 24/211/46
f 25/19/5 26/65/45 27/34/7 28/2/47
f 29/29/1 30/5/2 31/111/22 32/62/48
f 33/77/49 34/112/22 35/26/2 36/93/3
f 37/87/50 38/212/3 39/213/5
f 40/61/19 41/90/5 42/30/47
f 43/99/20 44/113/22 45/80/17 46/54/11
f 47/60/51 48/100/52 49/53/11 50/15/4
f 51/214/53 52/215/19 53/216/10
f 54/217/11 55/218/54 56/219/14 57/220/42
f 58/51/10 59/64/48 60/46/55
f 61/52/56 62/45/9 63/35/43 64/68/14
f 65/59/12 66/36/7 67/48/9 68/97/52
f 69/98/20 70/47/9 71/63/57 72/114/22
f 73/44/58 74/119/23 75/8/2
f 76/7/59 77/194/60 78/41/8
f 79/28/59 80/126/24 81/191/61
f 82/122/23 83/123/62 84/27/2
f 85/130/63 86/135/26 87/96/3
f 88/95/3 89/146/64 90/127/65
f 91/40/3 92/110/21 93/143/28
f 94/138/26 95/107/21 96/39/3
f 97/142/27 98/151/29 99/102/5
f 100/104/5 101/162/31 102/139/66
f 103/92/5 104/86/67 105/159/31
f 106/154/29 107/83/18 108/91/5
f 109/158/30 110/167/33 111/31/1
f 112/106/1 113/178/34 114/155/30
f 115/82/1 116/72/68 117/175/69
f 118/170/33 119/69/68 120/32/1
f 121/43/8 122/171/59 123/120/23
f 124/42/58 125/193/70 126/172/59
f 127/192/38 128/125/24 129/173/59
f 130/124/24 131/121/23 132/174/59
f 133/129/71 134/115/3 135/136/72
f 136/128/25 137/145/64 138/116/3
f 139/144/28 140/109/21 141/117/3
f 142/108/21 143/137/26 144/118/3
f 145/141/73 146/131/46 147/152/29
f 148/140/27 149/161/74 150/132/75
f 151/160/31 152/85/67 153/133/5
f 154/84/67 155/153/29 156/134/46
f 157/157/30 158/147/1 159/168/33
f 160/156/30 161/177/34 162/148/1
f 163/176/34 164/71/15 165/149/1
f 166/70/76 167/169/77 168/150/1
f 169/221/32 170/222/37 171/6/59 172/223/1
f 173/166/32 174/185/36 175/187/37
f 176/224/37 177/225/78 178/226/3 179/25/59
f 180/188/37 181/184/36 182/73/16
f 183/183/36 184/179/35 185/74/16
f 186/227/35 187/228/5 188/37/3 189/229/16
f 190/105/1 191/230/79 192/231/35 193/232/80
f 194/180/35 195/186/36 196/165/32
f 16/10/44 4/9/3 6/233/2 13/206/2
f 1/195/59 6/200/59 5/21/6 2/24/6
f 2/24/6 11/23/6 10/203/1 3/197/1
f 9/202/5 12/205/5 11/23/6 7/22/6
f 24/18/46 9/17/5 8/234/44 21/208/3
f 4/9/3 8/12/3 7/22/6 5/21/6
f 28/2/1 10/1/47 12/20/5 25/19/46
f 50/15/4 15/14/42 14/57/12 47/60/12
f 3/4/1 18/3/47 17/207/2 1/235/2
f 19/33/43 66/36/7 65/59/51 20/58/12
f 27/34/43 19/33/7 18/3/1 28/2/1
f 23/66/14 26/65/14 25/19/5 24/18/46
f 15/14/4 22/13/42 21/11/3 16/10/3
f 20/58/12 14/57/12 13/206/2 17/207/2
f 42/30/1 29/29/1 32/62/57 40/61/13
f 39/101/5 41/90/5 40/61/19 37/87/19
f 36/93/3 38/38/3 37/78/81 33/77/50
f 30/5/59 35/26/59 34/112/22 31/111/22
f 46/54/11 49/53/11 48/100/20 43/99/20
f 53/50/82 55/49/10 54/236/53 51/214/83
f 60/46/84 62/45/55 61/52/10 58/51/82
f 62/45/9 67/48/9 66/36/7 63/35/7
f 55/49/10 61/52/10 64/68/45 56/67/45
f 49/53/11 54/56/11 57/16/42 50/15/4
f 68/97/20 48/100/20 47/60/12 65/59/12
f 67/48/9 70/47/9 69/98/20 68/97/20
f 59/64/48 71/63/85 70/47/55 60/46/9
f 52/88/86 59/64/19 58/51/10 53/50/10
f 45/80/87 52/79/87 51/55/11 46/54/53
f 72/114/22 44/113/22 43/99/20 69/98/20
f 22/237/42 57/220/42 56/67/45 23/66/45
f 63/35/43 27/34/7 26/65/45 64/68/45
f 44/113/22 34/112/22 33/77/81 45/80/50
f 31/111/22 72/114/22 71/63/13 32/62/85
f 75/8/59 76/7/2 78/41/8 73/44/8
f 74/119/23 82/122/23 84/27/88 75/8/89
f 76/7/90 79/28/91 81/191/38 77/194/38
f 79/28/2 84/27/59 83/123/92 80/126/24
f 90/127/25 85/130/25 87/96/44 88/95/3
f 86/135/26 94/138/26 96/39/3 87/96/3
f 88/95/3 91/40/3 93/143/28 89/146/28
f 91/40/44 96/39/44 95/107/21 92/110/21
f 102/139/27 97/142/27 99/102/46 100/104/46
f 98/151/29 106/154/29 108/91/5 99/102/5
f 100/104/5 103/92/5 105/159/31 101/162/31
f 103/92/46 108/91/46 107/83/18 104/86/18
f 114/155/30 109/158/30 111/31/47 112/106/47
f 110/167/33 118/170/33 120/32/1 111/31/1
f 117/175/34 113/178/34 112/106/1 115/82/1
f 119/69/15 116/72/15 115/82/1 120/32/47
f 126/172/2 122/171/2 121/43/8 124/42/58
f 129/173/2 126/172/2 125/193/38 127/192/38
f 132/174/2 129/173/2 128/125/62 130/124/24
f 122/171/59 132/174/59 131/121/23 123/120/23
f 77/194/38 125/193/70 124/42/8 78/41/8
f 123/120/23 74/119/23 73/44/8 121/43/93
f 80/126/24 128/125/24 127/192/70 81/191/38
f 82/122/23 131/121/23 130/124/92 83/123/24
f 138/116/3 134/115/3 133/129/25 136/128/25
f 141/117/3 138/116/3 137/145/94 139/144/94
f 144/118/3 141/117/3 140/109/95 142/108/95
f 134/115/3 144/118/3 143/137/26 135/136/26
f 89/146/28 137/145/28 136/128/63 90/127/63
f 135/136/26 86/135/26 85/130/71 133/129/63
f 92/110/21 140/109/21 139/144/28 93/143/94
f 94/138/26 143/137/26 142/108/21 95/107/21
f 150/132/5 146/131/5 145/141/27 148/140/27
f 153/133/5 150/132/5 149/161/96 151/160/96
f 156/134/5 153/133/5 152/85/18 154/84/18
f 146/131/5 156/134/5 155/153/29 147/152/29
f 101/162/96 149/161/31 148/140/27 102/139/27
f 147/152/29 98/151/29 97/142/27 145/141/27
f 104/86/18 152/85/18 151/160/31 105/159/96
f 106/154/29 155/153/29 154/84/18 107/83/18
f 162/148/1 158/147/1 157/157/97 160/156/97
f 165/149/1 162/148/1 161/177/34 163/176/34
f 168/150/1 165/149/1 164/71/15 166/70/15
f 158/147/1 168/150/1 167/169/33 159/168/33
f 113/178/98 161/177/34 160/156/30 114/155/30
f 159/168/33 110/167/33 109/158/30 157/157/30
f 116/72/68 164/71/68 163/176/34 117/175/34
f 118/170/33 167/169/33 166/70/68 119/69/99
f 176/189/100 180/188/37 182/73/101 177/76/16
f 181/184/36 183/183/36 185/74/16 182/73/16
f 184/179/35 186/182/35 189/75/101 185/74/16
f 188/37/3 178/94/3 177/76/16 189/75/16
f 169/163/32 173/166/32 175/187/37 170/190/100
f 174/185/36 181/184/36 180/188/37 175/187/37
f 179/25/59 171/6/59 170/238/37 176/239/37
f 172/81/1 190/105/1 193/240/32 169/241/80
f 192/181/35 194/180/35 196/165/32 193/164/80
f 195/186/36 174/185/36 173/166/80 196/165/80
f 183/183/36 195/186/36 194/180/35 184/179/35
f 191/89/5 187/103/5 186/242/35 192/243/35
f 171/6/59 30/5/2 29/29/1 172/81/1
f 178/94/3 36/93/3 35/26/2 179/25/59
f 187/228/5 39/244/46 38/38/3 188/37/3
f 41/90/46 191/89/5 190/105/1 42/30/1
f 1/235/2 17/207/2 13/206/2 6/233/2
