# Blender v3.1.2 OBJ File: 'all_building_objects_amy_positioned.blend'
# www.blender.org
mtllib redhills_tower_buildingchunk_container2.mtl
o redhills_tower_buildingchunk_container2_Hexoganal_module_03.013_Cylinder.018
v 5.851305 33.556362 4.251222
v 5.851305 2.746925 4.251217
v 6.878619 2.746925 2.234996
v 6.878619 33.556362 2.235001
v 4.251223 33.556362 5.851305
v 4.251223 2.746924 5.851299
v 2.235003 33.556362 6.878621
v 2.235003 2.746924 6.878615
v 0.000002 33.556358 7.232609
v 0.000002 2.746924 7.232604
v -6.878614 33.556362 2.235002
v -6.878614 2.746925 2.234997
v -5.851301 2.746925 4.251219
v -5.851301 33.556362 4.251224
v -4.251218 33.556362 5.851305
v -4.251218 2.746924 5.851300
v -2.234998 2.746924 6.878614
v -2.234998 33.556362 6.878620
v -7.232603 33.556362 0.000004
v -7.232603 2.746925 -0.000001
v -6.878614 33.556362 -2.234993
v -6.878614 2.746926 -2.234998
v -5.851301 33.556362 -4.251215
v -5.851301 2.746926 -4.251220
v -4.251218 33.556362 -5.851296
v -4.251218 2.746926 -5.851301
v -2.234998 33.556362 -6.878611
v -2.234998 2.746926 -6.878616
v 0.000002 33.556362 -7.232602
v 0.000002 2.746926 -7.232606
v 2.235003 33.556362 -6.878611
v 2.235003 2.746926 -6.878616
v 4.251223 33.556362 -5.851298
v 4.251223 2.746926 -5.851303
v 5.851305 33.556362 -4.251215
v 5.851305 2.746926 -4.251221
v 6.878619 33.556362 -2.234994
v 6.878619 2.746926 -2.234999
v 7.232607 33.556362 0.000003
v 7.232607 2.746925 -0.000002
v -2.065855 35.145615 6.358050
v -3.929487 35.145615 5.408482
v 6.358050 35.145615 2.065857
v 5.408480 35.145615 3.929491
v 5.408480 35.145615 -3.929484
v 6.358050 35.145615 -2.065850
v -3.929487 35.145618 -5.408472
v -2.065855 35.145618 -6.358041
v -5.408475 35.145615 3.929492
v -6.358045 35.145615 2.065859
v 3.929492 35.145615 5.408481
v 2.065859 35.145615 6.358050
v 0.000002 35.145618 -6.685241
v 2.065859 35.145618 -6.358041
v -6.685239 35.145615 0.000004
v -6.358045 35.145615 -2.065850
v 0.000002 35.145615 6.685250
v 3.353594 36.037636 4.615833
v 1.763094 36.037636 5.426236
v -5.705488 36.037636 0.000004
v -5.426237 36.037636 -1.763085
v 3.929492 35.145618 -5.408473
v 3.353594 36.037636 -4.615825
v 4.615832 36.037636 -3.353593
v 4.615832 36.037636 3.353599
v -5.426237 36.037636 1.763094
v 1.763094 36.037636 -5.426227
v 5.426226 36.037636 1.763093
v -4.615827 36.037636 3.353599
v 0.000002 36.037636 -5.705473
v -5.408475 35.145615 -3.929483
v 6.685244 35.145615 0.000003
v 5.426226 36.037636 -1.763086
v 3.779009 36.394600 -2.745605
v 4.442492 36.394600 -1.443449
v 2.745608 36.394600 3.779011
v 1.443453 36.394600 4.442494
v -4.671110 36.394600 0.000004
v -4.442487 36.394600 -1.443448
v 2.745608 36.394600 -3.779005
v 3.779009 36.394600 2.745612
v -4.442487 36.394600 1.443456
v 1.443453 36.394600 -4.442485
v 4.442492 36.394600 1.443456
v -3.779005 36.394600 2.745612
v -4.615827 36.037636 -3.353593
v 0.000002 36.037636 5.705483
v 5.705477 36.037636 0.000003
v -3.353605 36.037636 -4.615825
v -1.763090 36.037636 5.426236
v -1.763090 36.037636 -5.426227
v -3.353605 36.037636 4.615833
v -3.779005 36.394600 -2.745605
v 0.000002 36.394600 4.671114
v -2.745603 36.394600 3.779011
v -1.443449 36.394600 4.442494
v -2.745603 36.394600 -3.779004
v 4.671114 36.394600 0.000003
v -1.443449 36.394600 -4.442485
v 0.000002 36.394600 -4.671105
v -3.929487 1.157667 5.408476
v -2.065855 1.157667 6.358045
v 5.408480 1.157669 3.929486
v 6.358050 1.157669 2.065852
v 6.358050 1.157669 -2.065856
v 5.408480 1.157669 -3.929490
v -2.065855 1.157669 -6.358047
v -3.929487 1.157669 -5.408478
v -6.358045 1.157669 2.065854
v -5.408475 1.157669 3.929487
v 2.065859 1.157667 6.358045
v 3.929492 1.157667 5.408475
v 2.065859 1.157669 -6.358047
v 0.000002 1.157669 -6.685247
v -6.358045 1.157669 -2.065856
v -6.685239 1.157669 -0.000001
v 0.000002 1.157667 6.685245
v 1.763094 0.265654 5.426230
v 3.353594 0.265654 4.615827
v -5.426237 0.265656 -1.763091
v -5.705488 0.265656 -0.000002
v 4.615832 0.265656 -3.353599
v 3.353594 0.265656 -4.615830
v 3.929492 1.157669 -5.408479
v 4.615832 0.265656 3.353593
v -5.426237 0.265656 1.763088
v 1.763094 0.265656 -5.426232
v 5.426226 0.265656 1.763088
v -4.615827 0.265656 3.353593
v 0.000002 0.265656 -5.705479
v -5.408475 1.157669 -3.929489
v 6.685244 1.157669 -0.000002
v 5.426226 0.265656 -1.763092
v 4.442492 -0.091309 -1.443455
v 3.779009 -0.091309 -2.745612
v 1.443453 -0.091309 4.442488
v 2.745608 -0.091309 3.779005
v -4.442487 -0.091309 -1.443454
v -4.671110 -0.091309 -0.000002
v 2.745608 -0.091309 -3.779011
v 3.779009 -0.091309 2.745606
v -4.442487 -0.091309 1.443450
v 1.443453 -0.091309 -4.442491
v 4.442492 -0.091309 1.443450
v -3.779005 -0.091309 2.745606
v -4.615827 0.265656 -3.353599
v 0.000002 0.265654 5.705478
v 5.705477 0.265656 -0.000003
v -3.353605 0.265656 -4.615830
v -1.763090 0.265654 5.426230
v -1.763090 0.265656 -5.426232
v -3.353605 0.265654 4.615827
v -3.779005 -0.091309 -2.745612
v 0.000002 -0.091309 4.671108
v -1.443449 -0.091309 4.442488
v -2.745603 -0.091309 3.779005
v -2.745603 -0.091309 -3.779010
v 4.671114 -0.091309 -0.000003
v -1.443449 -0.091309 -4.442491
v 0.000002 -0.091307 -4.671112
vt 0.107624 0.666800
vt 0.226019 0.666803
vt 0.226019 0.675499
vt 0.107624 0.675495
vt 0.107621 0.832018
vt 0.226015 0.832021
vt 0.226015 0.840716
vt 0.107621 0.840714
vt 0.107621 0.823322
vt 0.226015 0.823325
vt 0.107621 0.814627
vt 0.226015 0.814630
vt 0.107622 0.779844
vt 0.226016 0.779847
vt 0.226016 0.788542
vt 0.107621 0.788539
vt 0.107621 0.797236
vt 0.226016 0.797238
vt 0.226015 0.805934
vt 0.107621 0.805931
vt 0.107622 0.771148
vt 0.226017 0.771151
vt 0.107622 0.762453
vt 0.226017 0.762455
vt 0.107622 0.753757
vt 0.226017 0.753759
vt 0.107623 0.745061
vt 0.226017 0.745064
vt 0.107623 0.736365
vt 0.226018 0.736368
vt 0.107623 0.727669
vt 0.226018 0.727673
vt 0.107623 0.718974
vt 0.226018 0.718977
vt 0.107624 0.710278
vt 0.226018 0.710281
vt 0.107624 0.701582
vt 0.226018 0.701585
vt 0.107624 0.692886
vt 0.226018 0.692889
vt 0.107624 0.684191
vt 0.226018 0.684194
vt 0.101720 0.805932
vt 0.101720 0.797236
vt 0.101717 0.675495
vt 0.101716 0.666800
vt 0.101718 0.701582
vt 0.101717 0.692887
vt 0.101719 0.745061
vt 0.101719 0.736365
vt 0.101719 0.788540
vt 0.101719 0.779844
vt 0.101721 0.832018
vt 0.101721 0.823323
vt 0.101718 0.727669
vt 0.101718 0.718974
vt 0.101719 0.771148
vt 0.101719 0.762453
vt 0.101720 0.814627
vt 0.097067 0.832018
vt 0.097066 0.823323
vt 0.097065 0.771148
vt 0.097065 0.762453
vt 0.101718 0.710278
vt 0.097064 0.710279
vt 0.097064 0.701583
vt 0.101721 0.840714
vt 0.097067 0.840714
vt 0.097065 0.779844
vt 0.097064 0.718974
vt 0.097063 0.675495
vt 0.097063 0.666800
vt 0.097065 0.788540
vt 0.097065 0.727669
vt 0.101719 0.753757
vt 0.101717 0.684192
vt 0.097063 0.692887
vt 0.093220 0.701583
vt 0.093219 0.692887
vt 0.093224 0.832019
vt 0.093223 0.823323
vt 0.093222 0.771148
vt 0.093222 0.762453
vt 0.093220 0.710279
vt 0.093224 0.840715
vt 0.093222 0.779844
vt 0.093220 0.718974
vt 0.093219 0.675495
vt 0.093219 0.666800
vt 0.093223 0.788540
vt 0.097065 0.753757
vt 0.097066 0.814627
vt 0.097063 0.684192
vt 0.097065 0.745061
vt 0.097066 0.805932
vt 0.097065 0.736365
vt 0.097066 0.797236
vt 0.303434 0.654048
vt 0.306757 0.658622
vt 0.277880 0.679602
vt 0.274558 0.675028
vt 0.308504 0.663999
vt 0.282454 0.682925
vt 0.308504 0.669651
vt 0.287831 0.684672
vt 0.306757 0.675028
vt 0.293484 0.684672
vt 0.303434 0.679602
vt 0.298861 0.682925
vt 0.298861 0.650725
vt 0.272811 0.669651
vt 0.272811 0.663999
vt 0.293484 0.648979
vt 0.274558 0.658622
vt 0.287831 0.648979
vt 0.277880 0.654048
vt 0.282454 0.650725
vt 0.093221 0.753757
vt 0.093223 0.814627
vt 0.093219 0.684192
vt 0.093221 0.745061
vt 0.093223 0.805932
vt 0.093221 0.736365
vt 0.093223 0.797236
vt 0.093221 0.727669
vt 0.231993 0.797238
vt 0.231993 0.805934
vt 0.231993 0.666803
vt 0.231993 0.675499
vt 0.231993 0.692889
vt 0.231993 0.701585
vt 0.231993 0.736368
vt 0.231993 0.745064
vt 0.231993 0.779847
vt 0.231993 0.788542
vt 0.231993 0.823325
vt 0.231993 0.832021
vt 0.231993 0.718977
vt 0.231993 0.727673
vt 0.231993 0.762455
vt 0.231993 0.771151
vt 0.231993 0.814630
vt 0.236704 0.823325
vt 0.236704 0.832021
vt 0.236704 0.762455
vt 0.236704 0.771151
vt 0.236704 0.701585
vt 0.236704 0.710281
vt 0.231993 0.710281
vt 0.236704 0.840716
vt 0.231993 0.840716
vt 0.236704 0.779847
vt 0.236704 0.718977
vt 0.236704 0.666803
vt 0.236704 0.675499
vt 0.236704 0.788542
vt 0.236704 0.727673
vt 0.231993 0.753759
vt 0.231993 0.684194
vt 0.236704 0.692889
vt 0.240595 0.692890
vt 0.240595 0.701585
vt 0.240595 0.823325
vt 0.240595 0.832021
vt 0.240595 0.762455
vt 0.240595 0.771151
vt 0.240595 0.710281
vt 0.240595 0.840716
vt 0.240595 0.779847
vt 0.240595 0.718977
vt 0.240595 0.666803
vt 0.240595 0.675499
vt 0.240595 0.788542
vt 0.236704 0.753759
vt 0.236704 0.814630
vt 0.236704 0.684194
vt 0.236704 0.745064
vt 0.236704 0.805934
vt 0.236704 0.736368
vt 0.236704 0.797238
vt 0.287791 0.648165
vt 0.287791 0.612472
vt 0.293443 0.612472
vt 0.293443 0.648165
vt 0.298820 0.614218
vt 0.298820 0.646418
vt 0.303394 0.617542
vt 0.303394 0.643095
vt 0.306717 0.622115
vt 0.306717 0.638521
vt 0.308464 0.627492
vt 0.308464 0.633145
vt 0.282414 0.646418
vt 0.282414 0.614218
vt 0.277840 0.643095
vt 0.277840 0.617542
vt 0.274518 0.638521
vt 0.274518 0.622115
vt 0.272770 0.633145
vt 0.272770 0.627492
vt 0.240595 0.753759
vt 0.240595 0.814630
vt 0.240595 0.684194
vt 0.240595 0.745064
vt 0.240595 0.805934
vt 0.240595 0.736368
vt 0.240595 0.797238
vt 0.240595 0.727673
vn 0.7983 0.1625 0.5800
vn 0.7983 -0.1625 0.5800
vn 0.9384 -0.1625 0.3049
vn 0.9384 0.1625 0.3049
vn 0.5800 0.1625 0.7983
vn 0.5800 -0.1625 0.7983
vn 0.3049 0.1625 0.9384
vn 0.3049 -0.1625 0.9384
vn -0.0000 0.1625 0.9867
vn -0.0000 -0.1625 0.9867
vn -0.9384 0.1625 0.3049
vn -0.9384 -0.1625 0.3049
vn -0.7983 -0.1625 0.5800
vn -0.7983 0.1625 0.5800
vn -0.5800 0.1625 0.7983
vn -0.5800 -0.1625 0.7983
vn -0.3049 -0.1625 0.9384
vn -0.3049 0.1625 0.9384
vn -0.9867 0.1625 0.0000
vn -0.9867 -0.1625 -0.0000
vn -0.9384 0.1625 -0.3049
vn -0.9384 -0.1625 -0.3049
vn -0.7983 0.1625 -0.5800
vn -0.7983 -0.1625 -0.5800
vn -0.5800 0.1625 -0.7983
vn -0.5800 -0.1625 -0.7983
vn -0.3049 0.1625 -0.9384
vn -0.3049 -0.1625 -0.9384
vn 0.0000 0.1625 -0.9867
vn 0.0000 -0.1625 -0.9867
vn 0.3049 0.1625 -0.9384
vn 0.3049 -0.1625 -0.9384
vn 0.5800 0.1625 -0.7983
vn 0.5800 -0.1625 -0.7983
vn 0.7983 0.1625 -0.5800
vn 0.7983 -0.1625 -0.5800
vn 0.9384 0.1625 -0.3049
vn 0.9384 -0.1625 -0.3049
vn 0.9867 0.1625 -0.0000
vn 0.9867 -0.1625 -0.0000
vn -0.2604 0.5386 0.8013
vn -0.4952 0.5386 0.6816
vn 0.8013 0.5386 0.2604
vn 0.6816 0.5386 0.4952
vn 0.6816 0.5386 -0.4952
vn 0.8013 0.5386 -0.2604
vn -0.4952 0.5386 -0.6816
vn -0.2604 0.5386 -0.8013
vn -0.6816 0.5386 0.4952
vn -0.8013 0.5386 0.2604
vn 0.4952 0.5386 0.6816
vn 0.2604 0.5386 0.8013
vn 0.0000 0.5386 -0.8426
vn 0.2604 0.5386 -0.8013
vn -0.8426 0.5386 0.0000
vn -0.8013 0.5386 -0.2604
vn -0.0000 0.5386 0.8426
vn 0.3085 0.8512 0.4246
vn 0.1622 0.8512 0.4991
vn -0.5248 0.8512 -0.0000
vn -0.4991 0.8512 -0.1622
vn 0.4952 0.5386 -0.6816
vn 0.3085 0.8512 -0.4246
vn 0.4246 0.8512 -0.3085
vn 0.4246 0.8512 0.3085
vn -0.4991 0.8512 0.1622
vn 0.1622 0.8512 -0.4991
vn 0.4991 0.8512 0.1622
vn -0.4246 0.8512 0.3085
vn 0.0000 0.8512 -0.5248
vn -0.6816 0.5386 -0.4952
vn 0.8426 0.5386 -0.0000
vn 0.4991 0.8512 -0.1622
vn 0.1467 0.9834 -0.1066
vn 0.1725 0.9834 -0.0561
vn 0.1066 0.9834 0.1467
vn 0.0561 0.9834 0.1725
vn -0.1814 0.9834 0.0000
vn -0.1725 0.9834 -0.0561
vn 0.1066 0.9834 -0.1467
vn 0.1467 0.9834 0.1066
vn -0.1725 0.9834 0.0561
vn 0.0561 0.9834 -0.1725
vn 0.1725 0.9834 0.0561
vn -0.1467 0.9834 0.1066
vn -0.4246 0.8512 -0.3085
vn 0.0000 0.8512 0.5248
vn 0.5248 0.8512 -0.0000
vn -0.3085 0.8512 -0.4246
vn -0.1622 0.8512 0.4991
vn -0.1622 0.8512 -0.4991
vn -0.3085 0.8512 0.4246
vn -0.1467 0.9834 -0.1066
vn 0.0000 0.9834 0.1814
vn -0.1066 0.9834 0.1467
vn -0.0561 0.9834 0.1725
vn -0.1066 0.9834 -0.1467
vn 0.1814 0.9834 -0.0000
vn -0.0561 0.9834 -0.1725
vn 0.0000 0.9834 -0.1814
vn -0.4952 -0.5386 0.6816
vn -0.2604 -0.5386 0.8013
vn 0.6816 -0.5386 0.4952
vn 0.8013 -0.5386 0.2604
vn 0.8013 -0.5386 -0.2604
vn 0.6816 -0.5386 -0.4952
vn -0.2604 -0.5386 -0.8013
vn -0.4952 -0.5386 -0.6816
vn -0.8013 -0.5386 0.2604
vn -0.6816 -0.5386 0.4952
vn 0.2604 -0.5386 0.8013
vn 0.4952 -0.5386 0.6816
vn 0.2604 -0.5386 -0.8013
vn 0.0000 -0.5386 -0.8426
vn -0.8013 -0.5386 -0.2604
vn -0.8426 -0.5386 -0.0000
vn 0.0000 -0.5386 0.8426
vn 0.1622 -0.8512 0.4991
vn 0.3085 -0.8512 0.4246
vn -0.4991 -0.8512 -0.1622
vn -0.5248 -0.8512 -0.0000
vn 0.4246 -0.8512 -0.3085
vn 0.3085 -0.8512 -0.4246
vn 0.4952 -0.5386 -0.6816
vn 0.4246 -0.8512 0.3085
vn -0.4991 -0.8512 0.1622
vn 0.1622 -0.8512 -0.4991
vn 0.4991 -0.8512 0.1622
vn -0.4246 -0.8512 0.3085
vn 0.0000 -0.8512 -0.5248
vn -0.6816 -0.5386 -0.4952
vn 0.8426 -0.5386 -0.0000
vn 0.4991 -0.8512 -0.1622
vn 0.1725 -0.9834 -0.0561
vn 0.1467 -0.9834 -0.1066
vn 0.0561 -0.9834 0.1725
vn 0.1066 -0.9834 0.1467
vn -0.1725 -0.9834 -0.0561
vn -0.1814 -0.9834 -0.0000
vn 0.1066 -0.9834 -0.1467
vn 0.1467 -0.9834 0.1066
vn -0.1725 -0.9834 0.0561
vn 0.0561 -0.9834 -0.1725
vn 0.1725 -0.9834 0.0561
vn -0.1467 -0.9834 0.1066
vn -0.4246 -0.8512 -0.3085
vn 0.0000 -0.8512 0.5248
vn 0.5248 -0.8512 -0.0000
vn -0.3085 -0.8512 -0.4246
vn -0.1622 -0.8512 0.4991
vn -0.1622 -0.8512 -0.4991
vn -0.3085 -0.8512 0.4246
vn -0.1467 -0.9834 -0.1066
vn 0.0000 -0.9834 0.1814
vn -0.0561 -0.9834 0.1725
vn -0.1066 -0.9834 0.1467
vn -0.1066 -0.9834 -0.1467
vn 0.1814 -0.9834 -0.0000
vn -0.0561 -0.9834 -0.1725
vn 0.0000 -0.9834 -0.1814
usemtl Material
s 1
f 1/1/1 2/2/2 3/3/3 4/4/4
f 5/5/5 6/6/6 2/7/2 1/8/1
f 7/9/7 8/10/8 6/6/6 5/5/5
f 9/11/9 10/12/10 8/10/8 7/9/7
f 11/13/11 12/14/12 13/15/13 14/16/14
f 15/17/15 16/18/16 17/19/17 18/20/18
f 14/16/14 13/15/13 16/18/16 15/17/15
f 19/21/19 20/22/20 12/14/12 11/13/11
f 21/23/21 22/24/22 20/22/20 19/21/19
f 23/25/23 24/26/24 22/24/22 21/23/21
f 25/27/25 26/28/26 24/26/24 23/25/23
f 27/29/27 28/30/28 26/28/26 25/27/25
f 29/31/29 30/32/30 28/30/28 27/29/27
f 31/33/31 32/34/32 30/32/30 29/31/29
f 33/35/33 34/36/34 32/34/32 31/33/31
f 35/37/35 36/38/36 34/36/34 33/35/33
f 37/39/37 38/40/38 36/38/36 35/37/35
f 39/41/39 40/42/40 38/40/38 37/39/37
f 15/17/15 18/20/18 41/43/41 42/44/42
f 1/1/1 4/4/4 43/45/43 44/46/44
f 37/39/37 35/37/35 45/47/45 46/48/46
f 27/29/27 25/27/25 47/49/47 48/50/48
f 11/13/11 14/16/14 49/51/49 50/52/50
f 7/9/7 5/5/5 51/53/51 52/54/52
f 31/33/31 29/31/29 53/55/53 54/56/54
f 21/23/21 19/21/19 55/57/55 56/58/56
f 18/20/18 9/11/9 57/59/57 41/43/41
f 18/20/18 17/19/17 10/12/10 9/11/9
f 4/4/4 3/3/3 40/42/40 39/41/39
f 52/54/52 51/53/51 58/60/58 59/61/59
f 56/58/56 55/57/55 60/62/60 61/63/61
f 45/47/45 62/64/62 63/65/63 64/66/64
f 51/53/51 44/67/44 65/68/65 58/60/58
f 55/57/55 50/52/50 66/69/66 60/62/60
f 62/64/62 54/56/54 67/70/67 63/65/63
f 44/46/44 43/45/43 68/71/68 65/72/65
f 50/52/50 49/51/49 69/73/69 66/69/66
f 54/56/54 53/55/53 70/74/70 67/70/67
f 23/25/23 21/23/21 56/58/56 71/75/71
f 33/35/33 31/33/31 54/56/54 62/64/62
f 9/11/9 7/9/7 52/54/52 57/59/57
f 19/21/19 11/13/11 50/52/50 55/57/55
f 29/31/29 27/29/27 48/50/48 53/55/53
f 39/41/39 37/39/37 46/48/46 72/76/72
f 5/5/5 1/8/1 44/67/44 51/53/51
f 14/16/14 15/17/15 42/44/42 49/51/49
f 4/4/4 39/41/39 72/76/72 43/45/43
f 25/27/25 23/25/23 71/75/71 47/49/47
f 35/37/35 33/35/33 62/64/62 45/47/45
f 73/77/73 64/66/64 74/78/74 75/79/75
f 59/61/59 58/60/58 76/80/76 77/81/77
f 61/63/61 60/62/60 78/82/78 79/83/79
f 64/66/64 63/65/63 80/84/80 74/78/74
f 58/60/58 65/68/65 81/85/81 76/80/76
f 60/62/60 66/69/66 82/86/82 78/82/78
f 63/65/63 67/70/67 83/87/83 80/84/80
f 65/72/65 68/71/68 84/88/84 81/89/81
f 66/69/66 69/73/69 85/90/85 82/86/82
f 46/48/46 45/47/45 64/66/64 73/77/73
f 71/75/71 56/58/56 61/63/61 86/91/86
f 57/59/57 52/54/52 59/61/59 87/92/87
f 72/76/72 46/48/46 73/77/73 88/93/88
f 47/49/47 71/75/71 86/91/86 89/94/89
f 41/43/41 57/59/57 87/92/87 90/95/90
f 48/50/48 47/49/47 89/94/89 91/96/91
f 42/44/42 41/43/41 90/95/90 92/97/92
f 53/55/53 48/50/48 91/96/91 70/74/70
f 49/51/49 42/44/42 92/97/92 69/73/69
f 43/45/43 72/76/72 88/93/88 68/71/68
f 93/98/93 79/99/79 81/100/81 84/101/84
f 79/99/79 78/102/78 76/103/76 81/100/81
f 78/102/78 82/104/82 77/105/77 76/103/76
f 82/104/82 85/106/85 94/107/94 77/105/77
f 94/107/94 85/106/85 95/108/95 96/109/96
f 97/110/97 93/98/93 84/101/84 98/111/98
f 98/111/98 75/112/75 99/113/99 97/110/97
f 75/112/75 74/114/74 100/115/100 99/113/99
f 100/115/100 74/114/74 80/116/80 83/117/83
f 86/91/86 61/63/61 79/83/79 93/118/93
f 87/92/87 59/61/59 77/81/77 94/119/94
f 88/93/88 73/77/73 75/79/75 98/120/98
f 89/94/89 86/91/86 93/118/93 97/121/97
f 90/95/90 87/92/87 94/119/94 96/122/96
f 91/96/91 89/94/89 97/121/97 99/123/99
f 92/97/92 90/95/90 96/122/96 95/124/95
f 70/74/70 91/96/91 99/123/99 100/125/100
f 69/73/69 92/97/92 95/124/95 85/90/85
f 68/71/68 88/93/88 98/120/98 84/88/84
f 67/70/67 70/74/70 100/125/100 83/87/83
f 16/18/16 101/126/101 102/127/102 17/19/17
f 2/2/2 103/128/103 104/129/104 3/3/3
f 38/40/38 105/130/105 106/131/106 36/38/36
f 28/30/28 107/132/107 108/133/108 26/28/26
f 12/14/12 109/134/109 110/135/110 13/15/13
f 8/10/8 111/136/111 112/137/112 6/6/6
f 32/34/32 113/138/113 114/139/114 30/32/30
f 22/24/22 115/140/115 116/141/116 20/22/20
f 17/19/17 102/127/102 117/142/117 10/12/10
f 111/136/111 118/143/118 119/144/119 112/137/112
f 115/140/115 120/145/120 121/146/121 116/141/116
f 106/131/106 122/147/122 123/148/123 124/149/124
f 112/137/112 119/144/119 125/150/125 103/151/103
f 116/141/116 121/146/121 126/152/126 109/134/109
f 124/149/124 123/148/123 127/153/127 113/138/113
f 103/128/103 125/154/125 128/155/128 104/129/104
f 109/134/109 126/152/126 129/156/129 110/135/110
f 113/138/113 127/153/127 130/157/130 114/139/114
f 24/26/24 131/158/131 115/140/115 22/24/22
f 34/36/34 124/149/124 113/138/113 32/34/32
f 10/12/10 117/142/117 111/136/111 8/10/8
f 20/22/20 116/141/116 109/134/109 12/14/12
f 30/32/30 114/139/114 107/132/107 28/30/28
f 40/42/40 132/159/132 105/130/105 38/40/38
f 6/6/6 112/137/112 103/151/103 2/7/2
f 13/15/13 110/135/110 101/126/101 16/18/16
f 3/3/3 104/129/104 132/159/132 40/42/40
f 26/28/26 108/133/108 131/158/131 24/26/24
f 36/38/36 106/131/106 124/149/124 34/36/34
f 133/160/133 134/161/134 135/162/135 122/147/122
f 118/143/118 136/163/136 137/164/137 119/144/119
f 120/145/120 138/165/138 139/166/139 121/146/121
f 122/147/122 135/162/135 140/167/140 123/148/123
f 119/144/119 137/164/137 141/168/141 125/150/125
f 121/146/121 139/166/139 142/169/142 126/152/126
f 123/148/123 140/167/140 143/170/143 127/153/127
f 125/154/125 141/171/141 144/172/144 128/155/128
f 126/152/126 142/169/142 145/173/145 129/156/129
f 105/130/105 133/160/133 122/147/122 106/131/106
f 131/158/131 146/174/146 120/145/120 115/140/115
f 117/142/117 147/175/147 118/143/118 111/136/111
f 132/159/132 148/176/148 133/160/133 105/130/105
f 108/133/108 149/177/149 146/174/146 131/158/131
f 102/127/102 150/178/150 147/175/147 117/142/117
f 107/132/107 151/179/151 149/177/149 108/133/108
f 101/126/101 152/180/152 150/178/150 102/127/102
f 114/139/114 130/157/130 151/179/151 107/132/107
f 110/135/110 129/156/129 152/180/152 101/126/101
f 104/129/104 128/155/128 148/176/148 132/159/132
f 153/181/153 144/182/144 141/183/141 138/184/138
f 138/184/138 141/183/141 137/185/137 139/186/139
f 139/186/139 137/185/137 136/187/136 142/188/142
f 142/188/142 136/187/136 154/189/154 145/190/145
f 154/189/154 155/191/155 156/192/156 145/190/145
f 157/193/157 158/194/158 144/182/144 153/181/153
f 158/194/158 157/193/157 159/195/159 134/196/134
f 134/196/134 159/195/159 160/197/160 135/198/135
f 160/197/160 143/199/143 140/200/140 135/198/135
f 146/174/146 153/201/153 138/165/138 120/145/120
f 147/175/147 154/202/154 136/163/136 118/143/118
f 148/176/148 158/203/158 134/161/134 133/160/133
f 149/177/149 157/204/157 153/201/153 146/174/146
f 150/178/150 155/205/155 154/202/154 147/175/147
f 151/179/151 159/206/159 157/204/157 149/177/149
f 152/180/152 156/207/156 155/205/155 150/178/150
f 130/157/130 160/208/160 159/206/159 151/179/151
f 129/156/129 145/173/145 156/207/156 152/180/152
f 128/155/128 144/172/144 158/203/158 148/176/148
f 127/153/127 143/170/143 160/208/160 130/157/130
