# Blender v3.1.2 OBJ File: 'all_building_objects_amy_positioned.blend'
# www.blender.org
mtllib redhills_tower_buildingchunk_Antenna.mtl
o redhills_tower_buildingchunk_Antenna_Hexoganal_module_03.013_Cylinder.004
v 2.084058 4.439085 0.139441
v 2.084058 4.439085 2.139442
v 2.079450 4.490536 2.139442
v 2.079450 4.490536 0.139441
v 3.062482 4.578552 2.139442
v 3.062482 4.578552 0.139441
v 3.067090 4.527103 2.139442
v 3.067090 4.527103 0.139441
v -2.170337 4.439085 0.139441
v -2.165698 4.490536 0.139441
v -2.165698 4.490536 2.139442
v -2.170337 4.439085 2.139442
v -3.148730 4.578552 0.139441
v -3.148730 4.578552 2.139442
v -3.153369 4.527103 0.139441
v -3.153369 4.527103 2.139442
v 2.084058 4.439085 -0.139440
v 2.079450 4.490536 -0.139440
v 2.079450 4.490537 -2.139440
v 2.084058 4.439086 -2.139440
v 3.062482 4.578552 -0.139440
v 3.062482 4.578553 -2.139440
v 3.067090 4.527103 -0.139440
v 3.067090 4.527104 -2.139440
v -2.170337 4.439085 -0.139440
v -2.170337 4.439086 -2.139440
v -2.165698 4.490537 -2.139440
v -2.165698 4.490536 -0.139440
v -3.148730 4.578553 -2.139440
v -3.148730 4.578552 -0.139440
v -3.153369 4.527104 -2.139440
v -3.153369 4.527103 -0.139440
v 0.809216 4.371868 0.151987
v 0.809216 4.371868 2.151988
v 0.810437 4.423512 2.151988
v 0.810437 4.423512 0.151987
v 1.797132 4.400326 2.151988
v 1.797132 4.400326 0.151987
v 1.795911 4.348682 2.151988
v 1.795911 4.348682 0.151987
v -0.895495 4.371868 0.151987
v -0.896716 4.423512 0.151987
v -0.896716 4.423512 2.151988
v -0.895495 4.371868 2.151988
v -1.883410 4.400326 0.151987
v -1.883410 4.400326 2.151988
v -1.882190 4.348682 0.151987
v -1.882190 4.348682 2.151988
v 0.809216 4.371868 -0.151987
v 0.810437 4.423512 -0.151987
v 0.810437 4.423512 -2.151987
v 0.809216 4.371869 -2.151987
v 1.797132 4.400326 -0.151987
v 1.797132 4.400327 -2.151987
v 1.795911 4.348682 -0.151987
v 1.795911 4.348683 -2.151987
v -0.895495 4.371868 -0.151987
v -0.895495 4.371869 -2.151987
v -0.896716 4.423512 -2.151987
v -0.896716 4.423512 -0.151987
v -1.883410 4.400327 -2.151987
v -1.883410 4.400326 -0.151987
v -1.882190 4.348683 -2.151987
v -1.882190 4.348682 -0.151987
v -0.495349 -0.027684 -0.196456
v 0.085736 1.566014 -0.196456
v 0.183972 1.566014 -0.170135
v -0.397143 -0.027684 -0.170135
v 0.255872 1.566014 -0.098228
v -0.325244 -0.027684 -0.098228
v 0.282178 1.566014 -0.000000
v -0.298938 -0.027684 -0.000000
v 0.255872 1.566014 0.098228
v -0.325244 -0.027684 0.098228
v 0.183972 1.566014 0.170136
v -0.397143 -0.027684 0.170136
v 0.085736 1.566014 0.196456
v -0.495349 -0.027684 0.196456
v -0.012500 1.566014 0.170136
v -0.593616 -0.027684 0.170136
v -0.084399 1.566014 0.098228
v -0.665515 -0.027684 0.098228
v -0.110705 1.566014 -0.000000
v -0.691821 -0.027684 -0.000000
v -0.084399 1.566014 -0.098228
v -0.665515 -0.027684 -0.098228
v -0.012500 1.566014 -0.170135
v -0.593616 -0.027684 -0.170135
v -0.048755 3.881660 -0.077639
v 0.008100 3.881660 -0.134474
v 0.220227 3.881660 -0.077639
v 0.241040 3.881660 0.000000
v 0.085736 3.881660 -0.155277
v 0.163404 3.881660 -0.134474
v 0.220227 3.881660 0.077639
v -0.048755 3.881660 0.077639
v 0.008100 3.881660 0.134475
v 0.030530 4.196619 0.095662
v -0.009936 4.196619 0.055230
v 0.085736 4.196619 -0.110460
v 0.140973 4.196619 -0.095662
v -0.009936 4.196619 -0.055230
v 0.030530 4.196619 -0.095662
v 0.196179 4.196619 0.000000
v 0.181409 4.196619 0.055230
v 0.085736 3.881660 0.155278
v 0.085736 4.196619 0.110461
v -0.069537 3.881660 0.000000
v 0.163404 3.881660 0.134475
v 0.140973 4.196619 0.095662
v 0.181409 4.196619 -0.055230
v -0.024707 4.196619 0.000000
v 0.066907 4.203835 -0.136904
v 0.863721 4.203835 -0.136904
v 0.886609 4.137842 -0.118562
v 0.066907 4.135382 -0.118562
v 0.903333 4.089531 -0.068452
v 0.066907 4.085272 -0.068452
v 0.909436 4.071850 0.000000
v 0.066907 4.066929 0.000000
v 0.903333 4.089531 0.068452
v 0.066907 4.085272 0.068452
v 0.886609 4.137842 0.118563
v 0.066907 4.135382 0.118563
v 0.863721 4.203835 0.136904
v 0.066907 4.203835 0.136904
v 0.840894 4.269825 0.118563
v 0.066907 4.272285 0.118563
v 0.824140 4.318134 0.068452
v 0.066907 4.322395 0.068452
v 0.818006 4.335819 0.000000
v 0.066907 4.340738 0.000000
v 0.824140 4.318134 -0.068452
v 0.066907 4.322395 -0.068452
v 0.840894 4.269825 -0.118562
v 0.066907 4.272285 -0.118562
v 1.196546 4.341541 -0.118562
v 1.202100 4.291626 -0.068452
v 1.175702 4.527821 -0.068452
v 1.181287 4.477905 -0.118562
v 1.204144 4.273357 0.000000
v 1.188916 4.409723 -0.136904
v 1.196546 4.341541 0.118563
v 1.202100 4.291626 0.068452
v 3.187268 4.380169 0.068452
v 3.181714 4.430080 0.118562
v 1.175702 4.527821 0.068452
v 1.181287 4.477905 0.118563
v 3.166455 4.566448 0.118562
v 3.160901 4.616360 0.068452
v 3.174085 4.498264 -0.136904
v 3.181714 4.430080 -0.118563
v 3.160901 4.616360 -0.068452
v 3.166455 4.566448 -0.118563
v 3.189343 4.361898 0.000000
v 1.173657 4.546089 0.000000
v 1.188916 4.409723 0.136904
v 3.174085 4.498264 0.136904
v 3.187268 4.380169 -0.068452
v 3.158826 4.634632 0.000000
v -0.752826 4.137842 -0.118562
v -0.729968 4.203835 -0.136904
v -0.769580 4.089531 -0.068452
v -0.775683 4.071850 0.000000
v -0.769580 4.089531 0.068452
v -0.752826 4.137842 0.118563
v -0.729968 4.203835 0.136904
v -0.707080 4.269825 0.118563
v -0.690356 4.318134 0.068452
v -0.684253 4.335819 0.000000
v -0.690356 4.318134 -0.068452
v -0.707080 4.269825 -0.118562
v -1.068347 4.291626 -0.068452
v -1.062732 4.341541 -0.118562
v -1.047534 4.477905 -0.118562
v -1.041919 4.527821 -0.068452
v -1.070361 4.273357 0.000000
v -1.055133 4.409723 -0.136904
v -1.062732 4.341541 0.118563
v -3.047961 4.430080 0.118562
v -3.053515 4.380169 0.068452
v -1.068347 4.291626 0.068452
v -1.041919 4.527821 0.068452
v -3.027118 4.616360 0.068452
v -3.032702 4.566448 0.118562
v -1.047534 4.477905 0.118563
v -3.047961 4.430080 -0.118563
v -3.040332 4.498264 -0.136904
v -3.032702 4.566448 -0.118563
v -3.027118 4.616360 -0.068452
v -3.055560 4.361898 0.000000
v -1.039905 4.546089 0.000000
v -1.055133 4.409723 0.136904
v -3.040332 4.498264 0.136904
v -3.053515 4.380169 -0.068452
v -3.025073 4.634632 0.000000
vt 0.151811 0.502338
vt 0.144074 0.502338
vt 0.144074 0.502138
vt 0.151811 0.502138
vt 0.144074 0.498320
vt 0.151810 0.498320
vt 0.144074 0.498120
vt 0.151810 0.498120
vt 0.136138 0.498320
vt 0.143874 0.498320
vt 0.143874 0.502138
vt 0.136138 0.502138
vt 0.152011 0.498320
vt 0.152011 0.502138
vt 0.151811 0.502338
vt 0.151811 0.502138
vt 0.144074 0.502138
vt 0.144074 0.502338
vt 0.151810 0.498320
vt 0.144074 0.498320
vt 0.151810 0.498120
vt 0.144074 0.498120
vt 0.136138 0.498320
vt 0.136138 0.502138
vt 0.143874 0.502138
vt 0.143874 0.498320
vt 0.152011 0.502138
vt 0.152011 0.498320
vt 0.151811 0.502338
vt 0.151811 0.502138
vt 0.144074 0.502138
vt 0.144074 0.502338
vt 0.151810 0.498320
vt 0.144074 0.498320
vt 0.151810 0.498120
vt 0.144074 0.498120
vt 0.136138 0.498320
vt 0.136138 0.502138
vt 0.143874 0.502138
vt 0.143874 0.498320
vt 0.152011 0.502138
vt 0.152011 0.498320
vt 0.151811 0.502338
vt 0.144074 0.502338
vt 0.144074 0.502138
vt 0.151811 0.502138
vt 0.144074 0.498320
vt 0.151810 0.498320
vt 0.144074 0.498120
vt 0.151810 0.498120
vt 0.136138 0.498320
vt 0.143874 0.498320
vt 0.143874 0.502138
vt 0.136138 0.502138
vt 0.152011 0.498320
vt 0.152011 0.502138
vt 0.151811 0.502338
vt 0.144074 0.502338
vt 0.144074 0.502138
vt 0.151810 0.502138
vt 0.144074 0.498320
vt 0.151810 0.498320
vt 0.144074 0.498120
vt 0.151810 0.498120
vt 0.136138 0.498320
vt 0.143874 0.498320
vt 0.143874 0.502138
vt 0.136138 0.502138
vt 0.152011 0.498320
vt 0.152011 0.502138
vt 0.151811 0.502338
vt 0.151810 0.502138
vt 0.144074 0.502138
vt 0.144074 0.502338
vt 0.151810 0.498320
vt 0.144074 0.498320
vt 0.151810 0.498120
vt 0.144074 0.498120
vt 0.136138 0.498320
vt 0.136138 0.502138
vt 0.143874 0.502138
vt 0.143874 0.498320
vt 0.152011 0.502138
vt 0.152011 0.498320
vt 0.151811 0.502338
vt 0.151810 0.502138
vt 0.144074 0.502138
vt 0.144074 0.502338
vt 0.151810 0.498320
vt 0.144074 0.498320
vt 0.151810 0.498120
vt 0.144074 0.498120
vt 0.136138 0.498320
vt 0.136138 0.502138
vt 0.143874 0.502138
vt 0.143874 0.498320
vt 0.152011 0.502138
vt 0.152011 0.498320
vt 0.151811 0.502338
vt 0.144074 0.502338
vt 0.144074 0.502138
vt 0.151810 0.502138
vt 0.144074 0.498320
vt 0.151810 0.498320
vt 0.144074 0.498120
vt 0.151810 0.498120
vt 0.136138 0.498320
vt 0.143874 0.498320
vt 0.143874 0.502138
vt 0.136138 0.502138
vt 0.152011 0.498320
vt 0.152011 0.502138
vt 0.156062 0.511355
vt 0.149128 0.511355
vt 0.149128 0.511039
vt 0.156062 0.511039
vt 0.149128 0.510723
vt 0.156062 0.510723
vt 0.149128 0.510407
vt 0.156061 0.510407
vt 0.149128 0.509969
vt 0.156062 0.509969
vt 0.149128 0.509653
vt 0.156062 0.509653
vt 0.149128 0.509337
vt 0.156062 0.509337
vt 0.149128 0.509021
vt 0.156062 0.509021
vt 0.149128 0.508705
vt 0.156062 0.508705
vt 0.149128 0.508389
vt 0.156061 0.508389
vt 0.156061 0.512425
vt 0.149128 0.512425
vt 0.149128 0.511986
vt 0.156062 0.511986
vt 0.149128 0.511670
vt 0.156062 0.511671
vt 0.139367 0.511769
vt 0.139367 0.511497
vt 0.139367 0.510680
vt 0.139367 0.510407
vt 0.139367 0.511225
vt 0.139367 0.510952
vt 0.139367 0.510029
vt 0.139367 0.508939
vt 0.139367 0.509211
vt 0.137618 0.509209
vt 0.137618 0.508936
vt 0.137618 0.511226
vt 0.137618 0.510953
vt 0.137618 0.511772
vt 0.137618 0.511499
vt 0.137618 0.510407
vt 0.137618 0.510028
vt 0.139367 0.509484
vt 0.137618 0.509482
vt 0.139367 0.512148
vt 0.139367 0.508667
vt 0.139367 0.509756
vt 0.137101 0.512672
vt 0.136721 0.512674
vt 0.136716 0.511257
vt 0.137095 0.511255
vt 0.136392 0.512485
vt 0.136387 0.511448
vt 0.137425 0.511444
vt 0.137429 0.512481
vt 0.137618 0.512151
vt 0.136199 0.511778
vt 0.136200 0.512157
vt 0.137618 0.509755
vt 0.137618 0.510680
vt 0.137618 0.508663
vt 0.147114 0.493477
vt 0.144722 0.493477
vt 0.144722 0.493169
vt 0.147114 0.493169
vt 0.144722 0.492861
vt 0.147114 0.492861
vt 0.144722 0.492552
vt 0.147114 0.492552
vt 0.147114 0.496252
vt 0.144722 0.496252
vt 0.144722 0.495943
vt 0.147114 0.495943
vt 0.144722 0.495635
vt 0.147114 0.495635
vt 0.144722 0.495327
vt 0.147114 0.495327
vt 0.144722 0.495019
vt 0.147114 0.495019
vt 0.144722 0.494711
vt 0.147114 0.494711
vt 0.144722 0.494402
vt 0.147114 0.494402
vt 0.144722 0.494093
vt 0.147114 0.494093
vt 0.144722 0.493785
vt 0.147114 0.493785
vt 0.143229 0.493169
vt 0.143229 0.492861
vt 0.143229 0.494093
vt 0.143229 0.493785
vt 0.143229 0.492552
vt 0.143229 0.493477
vt 0.143229 0.495635
vt 0.143229 0.495943
vt 0.136274 0.495943
vt 0.136274 0.495635
vt 0.143229 0.494711
vt 0.143229 0.495019
vt 0.136274 0.495019
vt 0.136274 0.494711
vt 0.136274 0.493477
vt 0.136274 0.493169
vt 0.136274 0.494093
vt 0.136274 0.493785
vt 0.143229 0.496252
vt 0.136274 0.496252
vt 0.143229 0.494402
vt 0.143229 0.495327
vt 0.149480 0.494715
vt 0.149753 0.494715
vt 0.149751 0.495742
vt 0.149476 0.495741
vt 0.149990 0.494853
vt 0.149988 0.495604
vt 0.149240 0.495603
vt 0.149242 0.494852
vt 0.149103 0.495365
vt 0.149104 0.495090
vt 0.150126 0.495367
vt 0.150127 0.495092
vt 0.136274 0.492861
vt 0.136274 0.494402
vt 0.136274 0.495327
vt 0.136274 0.492552
vt 0.144722 0.493169
vt 0.144722 0.493477
vt 0.144722 0.492861
vt 0.144722 0.492552
vt 0.144722 0.495943
vt 0.144722 0.496252
vt 0.144722 0.495635
vt 0.144722 0.495327
vt 0.144722 0.495019
vt 0.144722 0.494711
vt 0.144722 0.494402
vt 0.144722 0.494093
vt 0.144722 0.493785
vt 0.143229 0.492861
vt 0.143229 0.493169
vt 0.143229 0.493785
vt 0.143229 0.494093
vt 0.143229 0.492552
vt 0.143229 0.493477
vt 0.143229 0.495635
vt 0.136274 0.495635
vt 0.136274 0.495943
vt 0.143229 0.495943
vt 0.143229 0.494711
vt 0.136274 0.494711
vt 0.136274 0.495019
vt 0.143229 0.495019
vt 0.136274 0.493169
vt 0.136274 0.493477
vt 0.136274 0.493785
vt 0.136274 0.494093
vt 0.136274 0.496252
vt 0.143229 0.496252
vt 0.143229 0.494402
vt 0.143229 0.495327
vt 0.149480 0.494715
vt 0.149476 0.495741
vt 0.149751 0.495742
vt 0.149753 0.494715
vt 0.149988 0.495604
vt 0.149990 0.494853
vt 0.149242 0.494852
vt 0.149240 0.495603
vt 0.149104 0.495090
vt 0.149103 0.495365
vt 0.150126 0.495367
vt 0.150127 0.495092
vt 0.136274 0.492861
vt 0.136274 0.494402
vt 0.136274 0.495327
vt 0.136274 0.492552
vn -0.9960 -0.0892 0.0000
vn -0.0892 0.9960 0.0000
vn 0.9960 0.0892 0.0000
vn 0.0892 -0.9960 0.0000
vn -0.0000 0.0000 -1.0000
vn 0.0000 0.0000 1.0000
vn 0.9960 -0.0892 0.0000
vn 0.0892 0.9960 0.0000
vn -0.9960 0.0892 0.0000
vn -0.0892 -0.9960 0.0000
vn 0.9960 -0.0898 -0.0000
vn -0.9960 0.0898 0.0000
vn -0.9997 0.0236 0.0000
vn 0.0235 0.9997 0.0000
vn 0.9997 -0.0236 0.0000
vn -0.0235 -0.9997 0.0000
vn 0.9997 0.0236 0.0000
vn -0.0235 0.9997 0.0000
vn -0.9997 -0.0236 0.0000
vn 0.0235 -0.9997 0.0000
vn -0.0574 0.0209 -0.9981
vn 0.0287 -0.0016 -0.9996
vn 0.5180 -0.0869 -0.8509
vn 0.4484 -0.1635 -0.8787
vn 0.8635 -0.1420 -0.4840
vn 0.8122 -0.2962 -0.5025
vn 0.9870 -0.1605 -0.0000
vn 0.9395 -0.3426 -0.0000
vn 0.8635 -0.1420 0.4840
vn 0.8122 -0.2962 0.5025
vn 0.5180 -0.0869 0.8509
vn 0.4484 -0.1635 0.8787
vn 0.0287 -0.0016 0.9996
vn -0.0574 0.0209 0.9981
vn -0.4752 0.0921 0.8751
vn -0.5304 0.1934 0.8254
vn -0.8469 0.1624 0.5063
vn -0.8370 0.3052 0.4541
vn -0.9822 0.1878 -0.0000
vn -0.9395 0.3426 -0.0000
vn -0.8469 0.1624 -0.5064
vn -0.8370 0.3052 -0.4541
vn -0.4752 0.0921 -0.8751
vn -0.5304 0.1934 -0.8254
vn -0.8634 0.0787 -0.4984
vn -0.4984 0.0787 -0.8634
vn 0.8634 0.0787 -0.4984
vn 0.9969 0.0787 0.0000
vn -0.0000 0.0787 -0.9969
vn 0.4985 0.0787 -0.8633
vn 0.8634 0.0787 0.4984
vn -0.8634 0.0787 0.4984
vn -0.4984 0.0787 0.8634
vn -0.3546 0.7048 0.6144
vn -0.6145 0.7047 0.3547
vn -0.0000 0.7048 -0.7095
vn 0.3547 0.7048 -0.6144
vn -0.6145 0.7047 -0.3547
vn -0.3546 0.7048 -0.6144
vn 0.7093 0.7049 0.0000
vn 0.6145 0.7047 0.3547
vn -0.0000 0.0787 0.9969
vn -0.0000 0.7047 0.7095
vn -0.9969 0.0787 -0.0000
vn 0.4985 0.0787 0.8633
vn 0.3547 0.7048 0.6144
vn 0.6145 0.7047 -0.3547
vn -0.7094 0.7049 -0.0000
vn 0.0000 0.0001 -1.0000
vn 0.0121 -0.0446 -0.9989
vn 0.1555 -0.5098 -0.8461
vn 0.0000 -0.5061 -0.8625
vn 0.2607 -0.8371 -0.4809
vn 0.0000 -0.8695 -0.4940
vn 0.2987 -0.9543 0.0000
vn 0.0000 -1.0000 0.0000
vn 0.2607 -0.8371 0.4809
vn 0.0000 -0.8695 0.4940
vn 0.1555 -0.5098 0.8461
vn 0.0000 -0.5061 0.8625
vn 0.0121 -0.0446 0.9989
vn 0.0000 0.0001 1.0000
vn -0.1269 0.4452 0.8864
vn 0.0000 0.5065 0.8623
vn -0.2243 0.8228 0.5221
vn 0.0000 0.8698 0.4935
vn -0.2591 0.9659 0.0000
vn 0.0000 1.0000 0.0000
vn -0.2243 0.8228 -0.5222
vn 0.0000 0.8698 -0.4935
vn -0.1269 0.4452 -0.8864
vn 0.0000 0.5065 -0.8623
vn 0.1412 -0.4415 -0.8861
vn 0.2736 -0.8081 -0.5217
vn -0.2485 0.8377 -0.4864
vn -0.1588 0.5028 -0.8497
vn 0.3246 -0.9459 0.0000
vn -0.0201 0.0389 -0.9990
vn 0.1412 -0.4415 0.8861
vn 0.2736 -0.8081 0.5217
vn 0.7022 -0.5990 0.3847
vn 0.6799 -0.3161 0.6616
vn -0.2485 0.8377 0.4864
vn -0.1588 0.5028 0.8497
vn 0.6205 0.4382 0.6504
vn 0.5996 0.7079 0.3732
vn 0.6499 0.0643 -0.7573
vn 0.6800 -0.3160 -0.6617
vn 0.5996 0.7080 -0.3732
vn 0.6206 0.4381 -0.6504
vn 0.7107 -0.7035 0.0000
vn -0.2794 0.9602 0.0000
vn -0.0201 0.0389 0.9990
vn 0.6499 0.0643 0.7573
vn 0.7022 -0.5991 -0.3847
vn 0.5917 0.8062 0.0000
vn -0.1554 -0.5098 -0.8462
vn -0.0121 -0.0446 -0.9989
vn -0.2607 -0.8371 -0.4810
vn -0.2987 -0.9543 0.0000
vn -0.2607 -0.8371 0.4810
vn -0.1554 -0.5098 0.8462
vn -0.0121 -0.0446 0.9989
vn 0.1268 0.4452 0.8864
vn 0.2243 0.8229 0.5221
vn 0.2592 0.9658 0.0000
vn 0.2243 0.8228 -0.5221
vn 0.1268 0.4452 -0.8864
vn -0.2735 -0.8081 -0.5218
vn -0.1412 -0.4414 -0.8861
vn 0.1587 0.5028 -0.8497
vn 0.2486 0.8377 -0.4863
vn -0.3246 -0.9458 0.0000
vn 0.0201 0.0389 -0.9990
vn -0.1412 -0.4414 0.8861
vn -0.6799 -0.3161 0.6616
vn -0.7022 -0.5992 0.3846
vn -0.2735 -0.8081 0.5218
vn 0.2486 0.8377 0.4863
vn -0.5995 0.7080 0.3733
vn -0.6206 0.4382 0.6503
vn 0.1587 0.5028 0.8497
vn -0.6799 -0.3160 -0.6617
vn -0.6499 0.0643 -0.7573
vn -0.6206 0.4382 -0.6503
vn -0.5995 0.7080 -0.3733
vn -0.7105 -0.7037 0.0000
vn 0.2793 0.9602 0.0000
vn 0.0201 0.0389 0.9990
vn -0.6499 0.0643 0.7573
vn -0.7022 -0.5991 -0.3846
vn -0.5918 0.8061 0.0000
usemtl Material
s off
f 1/1/1 2/2/1 3/3/1 4/4/1
f 4/4/2 3/3/2 5/5/2 6/6/2
f 6/6/3 5/5/3 7/7/3 8/8/3
f 8/9/4 7/10/4 2/11/4 1/12/4
f 4/4/5 6/6/5 8/13/5 1/14/5
f 5/5/6 3/3/6 2/11/6 7/10/6
f 9/15/7 10/16/7 11/17/7 12/18/7
f 10/16/8 13/19/8 14/20/8 11/17/8
f 13/19/9 15/21/9 16/22/9 14/20/9
f 15/23/10 9/24/10 12/25/10 16/26/10
f 10/16/5 9/27/5 15/28/5 13/19/5
f 14/20/6 16/26/6 12/25/6 11/17/6
f 17/29/1 18/30/1 19/31/1 20/32/1
f 18/30/2 21/33/2 22/34/2 19/31/2
f 21/33/3 23/35/3 24/36/3 22/34/3
f 23/37/4 17/38/4 20/39/4 24/40/4
f 18/30/6 17/41/6 23/42/6 21/33/6
f 22/34/5 24/40/5 20/39/5 19/31/5
f 25/43/11 26/44/11 27/45/11 28/46/11
f 28/46/8 27/45/8 29/47/8 30/48/8
f 30/48/12 29/47/12 31/49/12 32/50/12
f 32/51/10 31/52/10 26/53/10 25/54/10
f 28/46/6 30/48/6 32/55/6 25/56/6
f 29/47/5 27/45/5 26/53/5 31/52/5
f 33/57/13 34/58/13 35/59/13 36/60/13
f 36/60/14 35/59/14 37/61/14 38/62/14
f 38/62/15 37/61/15 39/63/15 40/64/15
f 40/65/16 39/66/16 34/67/16 33/68/16
f 36/60/5 38/62/5 40/69/5 33/70/5
f 37/61/6 35/59/6 34/67/6 39/66/6
f 41/71/17 42/72/17 43/73/17 44/74/17
f 42/72/18 45/75/18 46/76/18 43/73/18
f 45/75/19 47/77/19 48/78/19 46/76/19
f 47/79/20 41/80/20 44/81/20 48/82/20
f 42/72/5 41/83/5 47/84/5 45/75/5
f 46/76/6 48/82/6 44/81/6 43/73/6
f 49/85/13 50/86/13 51/87/13 52/88/13
f 50/86/14 53/89/14 54/90/14 51/87/14
f 53/89/15 55/91/15 56/92/15 54/90/15
f 55/93/16 49/94/16 52/95/16 56/96/16
f 50/86/6 49/97/6 55/98/6 53/89/6
f 54/90/5 56/96/5 52/95/5 51/87/5
f 57/99/17 58/100/17 59/101/17 60/102/17
f 60/102/18 59/101/18 61/103/18 62/104/18
f 62/104/19 61/103/19 63/105/19 64/106/19
f 64/107/20 63/108/20 58/109/20 57/110/20
f 60/102/6 62/104/6 64/111/6 57/112/6
f 61/103/5 59/101/5 58/109/5 63/108/5
s 1
f 65/113/21 66/114/22 67/115/23 68/116/24
f 68/116/24 67/115/23 69/117/25 70/118/26
f 70/118/26 69/117/25 71/119/27 72/120/28
f 72/120/28 71/119/27 73/121/29 74/122/30
f 74/122/30 73/121/29 75/123/31 76/124/32
f 76/124/32 75/123/31 77/125/33 78/126/34
f 78/126/34 77/125/33 79/127/35 80/128/36
f 80/128/36 79/127/35 81/129/37 82/130/38
f 82/130/38 81/129/37 83/131/39 84/132/40
f 84/133/40 83/134/39 85/135/41 86/136/42
f 86/136/42 85/135/41 87/137/43 88/138/44
f 88/138/44 87/137/43 66/114/22 65/113/21
f 87/137/43 85/135/41 89/139/45 90/140/46
f 71/119/27 69/117/25 91/141/47 92/142/48
f 67/115/23 66/114/22 93/143/49 94/144/50
f 66/114/22 87/137/43 90/140/46 93/143/49
f 73/121/29 71/119/27 92/142/48 95/145/51
f 96/146/52 97/147/53 98/148/54 99/149/55
f 94/144/50 93/143/49 100/150/56 101/151/57
f 90/140/46 89/139/45 102/152/58 103/153/59
f 95/145/51 92/142/48 104/154/60 105/155/61
f 97/147/53 106/156/62 107/157/63 98/148/54
f 69/117/25 67/115/23 94/144/50 91/141/47
f 85/135/41 83/134/39 108/158/64 89/139/45
f 83/131/39 81/129/37 96/146/52 108/159/64
f 81/129/37 79/127/35 97/147/53 96/146/52
f 79/127/35 77/125/33 106/156/62 97/147/53
f 77/125/33 75/123/31 109/160/65 106/156/62
f 75/123/31 73/121/29 95/145/51 109/160/65
f 98/161/54 107/162/63 101/163/57 100/164/56
f 107/162/63 110/165/66 111/166/67 101/163/57
f 100/164/56 103/167/59 99/168/55 98/161/54
f 99/168/55 103/167/59 102/152/58 112/169/68
f 104/170/60 111/166/67 110/165/66 105/171/61
f 109/160/65 95/145/51 105/155/61 110/172/66
f 93/143/49 90/140/46 103/153/59 100/150/56
f 91/141/47 94/144/50 101/151/57 111/173/67
f 108/159/64 96/146/52 99/149/55 112/174/68
f 106/156/62 109/160/65 110/172/66 107/157/63
f 92/142/48 91/141/47 111/173/67 104/154/60
f 89/139/45 108/158/64 112/169/68 102/152/58
f 113/175/69 114/176/70 115/177/71 116/178/72
f 116/178/72 115/177/71 117/179/73 118/180/74
f 118/180/74 117/179/73 119/181/75 120/182/76
f 120/183/76 119/184/75 121/185/77 122/186/78
f 122/186/78 121/185/77 123/187/79 124/188/80
f 124/188/80 123/187/79 125/189/81 126/190/82
f 126/190/82 125/189/81 127/191/83 128/192/84
f 128/192/84 127/191/83 129/193/85 130/194/86
f 130/194/86 129/193/85 131/195/87 132/196/88
f 132/196/88 131/195/87 133/197/89 134/198/90
f 134/198/90 133/197/89 135/199/91 136/200/92
f 136/200/92 135/199/91 114/176/70 113/175/69
f 117/179/73 115/177/71 137/201/93 138/202/94
f 135/199/91 133/197/89 139/203/95 140/204/96
f 119/181/75 117/179/73 138/202/94 141/205/97
f 115/177/71 114/176/70 142/206/98 137/201/93
f 114/176/70 135/199/91 140/204/96 142/206/98
f 143/207/99 144/208/100 145/209/101 146/210/102
f 147/211/103 148/212/104 149/213/105 150/214/106
f 137/201/93 142/206/98 151/215/107 152/216/108
f 140/204/96 139/203/95 153/217/109 154/218/110
f 144/208/100 141/219/97 155/220/111 145/209/101
f 133/197/89 131/195/87 156/221/112 139/203/95
f 131/195/87 129/193/85 147/211/103 156/221/112
f 129/193/85 127/191/83 148/212/104 147/211/103
f 127/191/83 125/189/81 157/222/113 148/212/104
f 125/189/81 123/187/79 143/207/99 157/222/113
f 123/187/79 121/185/77 144/208/100 143/207/99
f 121/185/77 119/184/75 141/219/97 144/208/100
f 149/223/105 158/224/114 152/225/108 151/226/107
f 158/224/114 146/227/102 159/228/115 152/225/108
f 151/226/107 154/229/110 150/230/106 149/223/105
f 150/230/106 154/229/110 153/231/109 160/232/116
f 155/233/111 159/228/115 146/227/102 145/234/101
f 142/206/98 140/204/96 154/218/110 151/215/107
f 138/202/94 137/201/93 152/216/108 159/235/115
f 156/221/112 147/211/103 150/214/106 160/236/116
f 157/222/113 143/207/99 146/210/102 158/237/114
f 141/205/97 138/202/94 159/235/115 155/238/111
f 139/203/95 156/221/112 160/236/116 153/217/109
f 148/212/104 157/222/113 158/237/114 149/213/105
f 113/175/69 116/178/72 161/239/117 162/240/118
f 116/178/72 118/180/74 163/241/119 161/239/117
f 118/180/74 120/182/76 164/242/120 163/241/119
f 120/183/76 122/186/78 165/243/121 164/244/120
f 122/186/78 124/188/80 166/245/122 165/243/121
f 124/188/80 126/190/82 167/246/123 166/245/122
f 126/190/82 128/192/84 168/247/124 167/246/123
f 128/192/84 130/194/86 169/248/125 168/247/124
f 130/194/86 132/196/88 170/249/126 169/248/125
f 132/196/88 134/198/90 171/250/127 170/249/126
f 134/198/90 136/200/92 172/251/128 171/250/127
f 136/200/92 113/175/69 162/240/118 172/251/128
f 163/241/119 173/252/129 174/253/130 161/239/117
f 172/251/128 175/254/131 176/255/132 171/250/127
f 164/242/120 177/256/133 173/252/129 163/241/119
f 161/239/117 174/253/130 178/257/134 162/240/118
f 162/240/118 178/257/134 175/254/131 172/251/128
f 179/258/135 180/259/136 181/260/137 182/261/138
f 183/262/139 184/263/140 185/264/141 186/265/142
f 174/253/130 187/266/143 188/267/144 178/257/134
f 175/254/131 189/268/145 190/269/146 176/255/132
f 182/261/138 181/260/137 191/270/147 177/271/133
f 171/250/127 176/255/132 192/272/148 170/249/126
f 170/249/126 192/272/148 183/262/139 169/248/125
f 169/248/125 183/262/139 186/265/142 168/247/124
f 168/247/124 186/265/142 193/273/149 167/246/123
f 167/246/123 193/273/149 179/258/135 166/245/122
f 166/245/122 179/258/135 182/261/138 165/243/121
f 165/243/121 182/261/138 177/271/133 164/244/120
f 185/274/141 188/275/144 187/276/143 194/277/150
f 194/277/150 187/276/143 195/278/151 180/279/136
f 188/275/144 185/274/141 184/280/140 189/281/145
f 184/280/140 196/282/152 190/283/146 189/281/145
f 191/284/147 181/285/137 180/279/136 195/278/151
f 178/257/134 188/267/144 189/268/145 175/254/131
f 173/252/129 195/286/151 187/266/143 174/253/130
f 192/272/148 196/287/152 184/263/140 183/262/139
f 193/273/149 194/288/150 180/259/136 179/258/135
f 177/256/133 191/289/147 195/286/151 173/252/129
f 176/255/132 190/269/146 196/287/152 192/272/148
f 186/265/142 185/264/141 194/288/150 193/273/149
