# Blender v3.1.2 OBJ File: 'all_building_objects_amy_positioned.blend'
# www.blender.org
mtllib redhills_tower_buildingchunk_pillar.mtl
o redhills_tower_buildingchunk_pillar_Hexoganal_module_03.013_Cylinder.022
v 0.369179 9.409218 -1.136206
v 0.702217 9.409218 -0.966514
v 0.702217 0.765376 -0.966516
v 0.369179 0.765376 -1.136209
v 0.966515 9.409218 -0.702213
v 0.966515 0.765376 -0.702215
v 1.136208 9.409218 -0.369175
v 1.136208 0.765372 -0.369177
v 1.194679 9.409218 0.000001
v 1.194679 0.765372 -0.000001
v 1.136208 9.409218 0.369177
v 1.136208 0.765371 0.369175
v 0.966515 9.409218 0.702215
v 0.966515 0.765371 0.702213
v 0.702217 9.409218 0.966516
v 0.702217 0.765371 0.966514
v 0.369179 9.409218 1.136208
v 0.369179 0.765371 1.136206
v 0.000008 9.409218 1.194680
v 0.000008 0.765371 1.194678
v -0.369179 9.409218 1.136208
v -0.369179 0.765371 1.136206
v -0.702217 9.409218 0.966516
v -0.702217 0.765371 0.966514
v -0.966515 9.409218 0.702215
v -0.966515 0.765371 0.702213
v -1.136208 9.409218 0.369177
v -1.136208 0.765371 0.369175
v -1.194679 9.409218 0.000001
v -1.194679 0.765372 -0.000001
v -1.136208 9.409218 -0.369175
v -1.136208 0.765372 -0.369177
v -0.966515 9.409218 -0.702213
v -0.966515 0.765376 -0.702215
v -0.702217 9.409218 -0.966514
v -0.702217 0.765376 -0.966516
v -0.369179 9.409218 -1.136206
v -0.369179 0.765376 -1.136209
v 0.000008 9.409218 -1.194677
v 0.000008 0.765376 -1.194679
v 0.000008 -0.025585 -2.251462
v 0.000008 0.765376 -2.251462
v 0.695747 0.765376 -2.141267
v 0.695747 -0.025585 -2.141267
v 1.323380 0.765376 -1.821471
v 1.323380 -0.025585 -1.821471
v 1.821472 0.765376 -1.323376
v 1.821472 -0.025585 -1.323377
v 2.141273 0.765376 -0.695740
v 2.141273 -0.025585 -0.695740
v 2.251457 0.765372 -0.000001
v 2.251457 -0.025585 -0.000001
v 2.141273 0.765371 0.695739
v 2.141273 -0.025592 0.695739
v 1.821472 0.765371 1.323374
v 1.821472 -0.025592 1.323374
v 1.323380 0.765371 1.821469
v 1.323380 -0.025592 1.821468
v 0.695747 0.765371 2.141266
v 0.695747 -0.025592 2.141266
v 0.000008 0.765371 2.251460
v 0.000008 -0.025592 2.251460
v -0.695732 0.765371 2.141266
v -0.695732 -0.025592 2.141266
v -1.323372 0.765371 1.821469
v -1.323372 -0.025592 1.821468
v -1.821465 0.765371 1.323374
v -1.821465 -0.025592 1.323374
v -2.141258 0.765371 0.695739
v -2.141258 -0.025592 0.695739
v -2.251457 0.765372 -0.000001
v -2.251457 -0.025585 -0.000001
v -2.141258 0.765376 -0.695741
v -2.141258 -0.025585 -0.695741
v -1.821465 0.765376 -1.323376
v -1.821465 -0.025585 -1.323377
v -1.323372 0.765376 -1.821470
v -1.323372 -0.025585 -1.821470
v -0.695732 0.765376 -2.141267
v -0.695732 -0.025585 -2.141267
v 0.000008 10.200177 -2.251460
v 0.695747 10.200177 -2.141264
v 0.695747 9.409218 -2.141265
v 0.000008 9.409218 -2.251460
v 1.323380 10.200177 -1.821469
v 1.323380 9.409218 -1.821469
v 1.821472 10.200177 -1.323374
v 1.821472 9.409218 -1.323374
v 2.141273 10.200177 -0.695738
v 2.141273 9.409218 -0.695738
v 2.251457 10.200177 0.000001
v 2.251457 9.409218 0.000001
v 2.141273 10.200171 0.695741
v 2.141273 9.409218 0.695741
v 1.821472 10.200171 1.323376
v 1.821472 9.409218 1.323376
v 1.323380 10.200171 1.821472
v 1.323380 9.409218 1.821472
v 0.695747 10.200171 2.141268
v 0.695747 9.409218 2.141268
v 0.000008 10.200171 2.251462
v 0.000008 9.409218 2.251462
v -0.695732 10.200171 2.141268
v -0.695732 9.409218 2.141268
v -1.323372 10.200171 1.821472
v -1.323372 9.409218 1.821472
v -1.821465 10.200171 1.323376
v -1.821465 9.409218 1.323376
v -2.141258 10.200171 0.695741
v -2.141258 9.409218 0.695741
v -2.251457 10.200177 0.000001
v -2.251457 9.409218 0.000001
v -2.141258 10.200177 -0.695739
v -2.141258 9.409218 -0.695739
v -1.821465 10.200177 -1.323374
v -1.821465 9.409218 -1.323374
v -1.323372 10.200177 -1.821468
v -1.323372 9.409218 -1.821468
v -0.695732 10.200177 -2.141264
v -0.695732 9.409218 -2.141265
vt 0.382751 0.847597
vt 0.381133 0.847597
vt 0.381133 0.809234
vt 0.382751 0.809234
vt 0.379516 0.847597
vt 0.379516 0.809234
vt 0.377898 0.847597
vt 0.377898 0.809234
vt 0.376281 0.847597
vt 0.376281 0.809234
vt 0.374664 0.847597
vt 0.374664 0.809234
vt 0.373046 0.847597
vt 0.373046 0.809234
vt 0.371429 0.847597
vt 0.371429 0.809234
vt 0.369811 0.847597
vt 0.369811 0.809234
vt 0.368194 0.847597
vt 0.368194 0.809234
vt 0.366576 0.847597
vt 0.366576 0.809234
vt 0.364959 0.847597
vt 0.364959 0.809234
vt 0.363342 0.847597
vt 0.363342 0.809234
vt 0.361724 0.847597
vt 0.361724 0.809234
vt 0.360107 0.847597
vt 0.360107 0.809234
vt 0.358489 0.847597
vt 0.358490 0.809234
vt 0.356872 0.847597
vt 0.356872 0.809234
vt 0.355254 0.847597
vt 0.355254 0.809234
vt 0.353637 0.847597
vt 0.353637 0.809234
vt 0.352020 0.847597
vt 0.352020 0.809234
vt 0.350491 0.803552
vt 0.350491 0.806290
vt 0.348704 0.806290
vt 0.348704 0.803552
vt 0.384449 0.803552
vt 0.384449 0.806290
vt 0.382662 0.806290
vt 0.382662 0.803552
vt 0.380875 0.806290
vt 0.380874 0.803552
vt 0.379087 0.806290
vt 0.379087 0.803552
vt 0.377300 0.806290
vt 0.377300 0.803552
vt 0.375513 0.806290
vt 0.375513 0.803552
vt 0.373726 0.806290
vt 0.373726 0.803552
vt 0.371938 0.806290
vt 0.371938 0.803552
vt 0.370151 0.806290
vt 0.370151 0.803552
vt 0.368364 0.806290
vt 0.368364 0.803552
vt 0.366576 0.806290
vt 0.366576 0.803552
vt 0.364789 0.806290
vt 0.364789 0.803552
vt 0.363002 0.806290
vt 0.363002 0.803552
vt 0.361215 0.806290
vt 0.361215 0.803552
vt 0.359427 0.806290
vt 0.359427 0.803552
vt 0.357640 0.806290
vt 0.357640 0.803552
vt 0.355853 0.806290
vt 0.355853 0.803552
vt 0.354065 0.806290
vt 0.354065 0.803552
vt 0.352278 0.806290
vt 0.352278 0.803552
vt 0.350402 0.809234
vt 0.350491 0.853279
vt 0.348704 0.853279
vt 0.348704 0.850541
vt 0.350491 0.850541
vt 0.384449 0.853279
vt 0.382662 0.853279
vt 0.382662 0.850541
vt 0.384449 0.850541
vt 0.380874 0.853279
vt 0.380875 0.850541
vt 0.379087 0.853279
vt 0.379087 0.850541
vt 0.377300 0.853279
vt 0.377300 0.850541
vt 0.375513 0.853279
vt 0.375513 0.850541
vt 0.373726 0.853279
vt 0.373726 0.850541
vt 0.371938 0.853279
vt 0.371938 0.850541
vt 0.370151 0.853279
vt 0.370151 0.850541
vt 0.368364 0.853279
vt 0.368364 0.850541
vt 0.366576 0.853279
vt 0.366576 0.850541
vt 0.364789 0.853279
vt 0.364789 0.850541
vt 0.363002 0.853279
vt 0.363002 0.850541
vt 0.361215 0.853279
vt 0.361215 0.850541
vt 0.359427 0.853279
vt 0.359427 0.850541
vt 0.357640 0.853279
vt 0.357640 0.850541
vt 0.355853 0.853279
vt 0.355853 0.850541
vt 0.354065 0.853279
vt 0.354065 0.850541
vt 0.352278 0.853279
vt 0.352278 0.850541
vt 0.350402 0.847597
vn 0.3090 0.0000 -0.9511
vn 0.5878 0.0000 -0.8090
vn 0.8090 0.0000 -0.5878
vn 0.9511 0.0000 -0.3090
vn 1.0000 -0.0000 0.0000
vn 0.9511 -0.0000 0.3090
vn 0.8090 -0.0000 0.5878
vn 0.5878 -0.0000 0.8090
vn 0.3090 -0.0000 0.9511
vn 0.0000 -0.0000 1.0000
vn -0.3090 -0.0000 0.9511
vn -0.5878 -0.0000 0.8090
vn -0.8090 -0.0000 0.5878
vn -0.9511 -0.0000 0.3090
vn -1.0000 -0.0000 0.0000
vn -0.9511 0.0000 -0.3090
vn -0.8090 0.0000 -0.5878
vn -0.5878 0.0000 -0.8090
vn -0.3090 0.0000 -0.9511
vn 0.0000 0.0000 -1.0000
vn 0.0000 1.0000 -0.0000
vn 0.0000 -1.0000 0.0000
usemtl Material
s 1
f 1/1/1 2/2/2 3/3/2 4/4/1
f 2/2/2 5/5/3 6/6/3 3/3/2
f 5/5/3 7/7/4 8/8/4 6/6/3
f 7/7/4 9/9/5 10/10/5 8/8/4
f 9/9/5 11/11/6 12/12/6 10/10/5
f 11/11/6 13/13/7 14/14/7 12/12/6
f 13/13/7 15/15/8 16/16/8 14/14/7
f 15/15/8 17/17/9 18/18/9 16/16/8
f 17/17/9 19/19/10 20/20/10 18/18/9
f 19/19/10 21/21/11 22/22/11 20/20/10
f 21/21/11 23/23/12 24/24/12 22/22/11
f 23/23/12 25/25/13 26/26/13 24/24/12
f 25/25/13 27/27/14 28/28/14 26/26/13
f 27/27/14 29/29/15 30/30/15 28/28/14
f 29/29/15 31/31/16 32/32/16 30/30/15
f 31/31/16 33/33/17 34/34/17 32/32/16
f 33/33/17 35/35/18 36/36/18 34/34/17
f 35/35/18 37/37/19 38/38/19 36/36/18
f 37/37/19 39/39/20 40/40/20 38/38/19
f 41/41/20 42/42/20 43/43/1 44/44/1
f 44/45/1 43/46/1 45/47/2 46/48/2
f 46/48/2 45/47/2 47/49/3 48/50/3
f 48/50/3 47/49/3 49/51/4 50/52/4
f 50/52/4 49/51/4 51/53/5 52/54/5
f 52/54/5 51/53/5 53/55/6 54/56/6
f 54/56/6 53/55/6 55/57/7 56/58/7
f 56/58/7 55/57/7 57/59/8 58/60/8
f 58/60/8 57/59/8 59/61/9 60/62/9
f 60/62/9 59/61/9 61/63/10 62/64/10
f 62/64/10 61/63/10 63/65/11 64/66/11
f 64/66/11 63/65/11 65/67/12 66/68/12
f 66/68/12 65/67/12 67/69/13 68/70/13
f 68/70/13 67/69/13 69/71/14 70/72/14
f 70/72/14 69/71/14 71/73/15 72/74/15
f 72/74/15 71/73/15 73/75/16 74/76/16
f 74/76/16 73/75/16 75/77/17 76/78/17
f 76/78/17 75/77/17 77/79/18 78/80/18
f 78/80/18 77/79/18 79/81/19 80/82/19
f 80/82/19 79/81/19 42/42/20 41/41/20
f 42/42/21 79/81/21 38/38/21 40/40/21
f 79/81/21 77/79/21 36/36/21 38/38/21
f 77/79/21 75/77/21 34/34/21 36/36/21
f 75/77/21 73/75/21 32/32/21 34/34/21
f 73/75/21 71/73/21 30/30/21 32/32/21
f 71/73/21 69/71/21 28/28/21 30/30/21
f 69/71/21 67/69/21 26/26/21 28/28/21
f 67/69/21 65/67/21 24/24/21 26/26/21
f 65/67/21 63/65/21 22/22/21 24/24/21
f 63/65/21 61/63/21 20/20/21 22/22/21
f 61/63/21 59/61/21 18/18/21 20/20/21
f 59/61/21 57/59/21 16/16/21 18/18/21
f 57/59/21 55/57/21 14/14/21 16/16/21
f 55/57/21 53/55/21 12/12/21 14/14/21
f 53/55/21 51/53/21 10/10/21 12/12/21
f 51/53/21 49/51/21 8/8/21 10/10/21
f 49/51/21 47/49/21 6/6/21 8/8/21
f 47/49/21 45/47/21 3/3/21 6/6/21
f 45/47/21 43/46/21 4/4/21 3/3/21
f 43/43/21 42/42/21 40/40/21 4/83/21
f 81/84/20 82/85/1 83/86/1 84/87/20
f 82/88/1 85/89/2 86/90/2 83/91/1
f 85/89/2 87/92/3 88/93/3 86/90/2
f 87/92/3 89/94/4 90/95/4 88/93/3
f 89/94/4 91/96/5 92/97/5 90/95/4
f 91/96/5 93/98/6 94/99/6 92/97/5
f 93/98/6 95/100/7 96/101/7 94/99/6
f 95/100/7 97/102/8 98/103/8 96/101/7
f 97/102/8 99/104/9 100/105/9 98/103/8
f 99/104/9 101/106/10 102/107/10 100/105/9
f 101/106/10 103/108/11 104/109/11 102/107/10
f 103/108/11 105/110/12 106/111/12 104/109/11
f 105/110/12 107/112/13 108/113/13 106/111/12
f 107/112/13 109/114/14 110/115/14 108/113/13
f 109/114/14 111/116/15 112/117/15 110/115/14
f 111/116/15 113/118/16 114/119/16 112/117/15
f 113/118/16 115/120/17 116/121/17 114/119/16
f 115/120/17 117/122/18 118/123/18 116/121/17
f 117/122/18 119/124/19 120/125/19 118/123/18
f 119/124/19 81/84/20 84/87/20 120/125/19
f 84/87/22 39/39/22 37/37/22 120/125/22
f 120/125/22 37/37/22 35/35/22 118/123/22
f 118/123/22 35/35/22 33/33/22 116/121/22
f 116/121/22 33/33/22 31/31/22 114/119/22
f 114/119/22 31/31/22 29/29/22 112/117/22
f 112/117/22 29/29/22 27/27/22 110/115/22
f 110/115/22 27/27/22 25/25/22 108/113/22
f 108/113/22 25/25/22 23/23/22 106/111/22
f 106/111/22 23/23/22 21/21/22 104/109/22
f 104/109/22 21/21/22 19/19/22 102/107/22
f 102/107/22 19/19/22 17/17/22 100/105/22
f 100/105/22 17/17/22 15/15/22 98/103/22
f 98/103/22 15/15/22 13/13/22 96/101/22
f 96/101/22 13/13/22 11/11/22 94/99/22
f 94/99/22 11/11/22 9/9/22 92/97/22
f 92/97/22 9/9/22 7/7/22 90/95/22
f 90/95/22 7/7/22 5/5/22 88/93/22
f 88/93/22 5/5/22 2/2/22 86/90/22
f 86/90/22 2/2/22 1/1/22 83/91/22
f 83/86/22 1/126/22 39/39/22 84/87/22
f 39/39/20 1/126/1 4/83/1 40/40/20
