# Blender v3.1.2 OBJ File: 'all_building_objects_amy_positioned.blend'
# www.blender.org
mtllib redhills_tower_buildingchunk_container3.mtl
o redhills_tower_buildingchunk_container3_Hexoganal_module_03.013_Cylinder.008
v 6.596756 11.416164 -0.001085
v 5.181681 13.810152 -0.001084
v 2.591199 13.810150 4.485763
v 3.298737 11.416162 5.711262
v -2.589765 13.810150 4.485763
v -3.297318 11.416162 5.711261
v -5.180246 13.810152 -0.001084
v -6.595322 11.416164 -0.001085
v -2.589765 13.810152 -4.487930
v -3.297318 11.416164 -5.713428
v 2.591199 13.810152 -4.487930
v 3.298737 11.416164 -5.713428
v 7.174545 0.944316 -0.001086
v -7.173111 0.944316 -0.001086
v -2.589765 0.135382 -4.487932
v 2.591199 0.135382 -4.487932
v -2.589765 0.135381 4.485761
v 2.591199 0.135381 4.485761
v 6.596756 2.921520 -0.001086
v 3.298737 2.921519 5.711260
v -3.297318 2.921519 5.711259
v -6.611862 2.862262 0.024890
v -3.297318 2.921521 -5.713429
v 3.298737 2.921521 -5.713429
v -3.032700 3.262288 -5.918349
v -3.032700 11.075405 -5.918347
v 3.034134 11.075405 -5.918347
v 3.034134 3.262288 -5.918349
v -6.657028 3.203029 -0.306721
v -6.640488 11.075405 -0.332696
v -3.607071 11.075405 -5.586734
v -3.607071 3.262288 -5.586735
v -3.607071 3.262286 5.584567
v -3.607071 11.075403 5.584568
v -6.640488 11.075405 0.330527
v -6.640488 3.262287 0.330526
v 6.641922 3.262287 0.330526
v 6.641922 11.075405 0.330527
v 3.608505 11.075403 5.584568
v 3.608505 3.262286 5.584567
v 3.608505 3.262288 -5.586735
v 3.608505 11.075405 -5.586734
v 6.641922 11.075405 -0.332696
v 6.641922 3.262287 -0.332698
v -3.032700 3.262286 5.916177
v 3.034134 3.262286 5.916178
v 3.034134 11.075403 5.916180
v -3.032700 11.075403 5.916179
v -7.173111 13.001217 -0.001084
v -3.586197 13.001217 -6.213801
v 3.587631 13.001217 -6.213801
v 5.181681 0.135381 -0.001086
v 3.587631 0.944317 -6.213803
v 3.587631 0.944315 6.211632
v -5.180246 0.135381 -0.001086
v -3.586197 0.944317 -6.213803
v -3.586197 0.944315 6.211632
v 7.174545 13.001217 -0.001084
v 3.587631 13.001215 6.211634
v -3.586197 13.001215 6.211634
v -5.289198 13.714088 -0.222276
v -2.835798 13.714090 -4.471689
v -3.595574 13.097281 -5.787659
v -6.808749 13.097279 -0.222276
v -2.452682 13.714090 -4.692881
v 2.454117 13.714090 -4.692881
v 3.213892 13.097281 -6.008851
v -3.212458 13.097281 -6.008851
v 5.290632 0.231444 -0.222278
v 2.837233 0.231445 -4.471691
v 3.597008 0.848255 -5.787661
v 6.810183 0.848254 -0.222278
v 2.837233 0.231443 4.469520
v 5.290632 0.231444 0.220106
v 6.810183 0.848254 0.220106
v 3.597008 0.848253 5.785489
v -2.835798 0.231445 -4.471691
v -5.289198 0.231444 -0.222278
v -6.808749 0.848254 -0.222278
v -3.595574 0.848255 -5.787661
v -5.289198 0.231444 0.220106
v -2.835798 0.231443 4.469520
v -3.595574 0.848253 5.785489
v -6.808749 0.848254 0.220106
v 2.454117 0.231445 -4.692883
v -2.452682 0.231445 -4.692883
v -3.212458 0.848255 -6.008852
v 3.213892 0.848255 -6.008852
v -2.452682 0.231443 4.690711
v 2.454117 0.231443 4.690711
v 3.213892 0.848253 6.006681
v -3.212458 0.848253 6.006681
v 5.290632 13.714088 0.220108
v 2.837233 13.714088 4.469522
v 3.597008 13.097279 5.785491
v 6.810183 13.097279 0.220108
v 2.837233 13.714090 -4.471689
v 5.290632 13.714088 -0.222276
v 6.810183 13.097279 -0.222276
v 3.597008 13.097281 -5.787659
v 2.454117 13.714088 4.690713
v -2.452682 13.714088 4.690713
v -3.212458 13.097279 6.006683
v 3.213892 13.097279 6.006683
v -2.835798 13.714088 4.469522
v -5.289198 13.714088 0.220108
v -6.808749 13.097279 0.220108
v -3.595574 13.097279 5.785491
v -5.299946 13.915461 -0.606745
v -3.174132 13.915462 -4.288763
v -6.616602 13.381010 -0.606745
v -3.832460 13.381012 -5.429020
v -2.125097 13.915462 -4.894423
v 2.126531 13.915462 -4.894424
v -2.783425 13.381012 -6.034681
v 2.784859 13.381012 -6.034681
v 5.301381 0.030072 -0.606747
v 3.175567 0.030072 -4.288764
v 6.618036 0.564523 -0.606747
v 3.833894 0.564524 -5.429022
v 5.301381 0.030072 0.604575
v 3.175567 0.030071 4.286593
v 3.833894 0.564522 5.426850
v 6.618036 0.564523 0.604575
v -5.299946 0.030072 -0.606747
v -3.174132 0.030072 -4.288764
v -3.832460 0.564524 -5.429022
v -6.616602 0.564523 -0.606747
v -5.299946 0.030072 0.604575
v -3.174132 0.030071 4.286593
v -6.616602 0.564523 0.604575
v -3.832460 0.564522 5.426850
v -2.125097 0.030073 -4.894425
v 2.126531 0.030072 -4.894425
v 2.784859 0.564524 -6.034683
v -2.783425 0.564524 -6.034683
v -2.125097 0.030071 4.892254
v 2.126531 0.030071 4.892254
v -2.783425 0.564522 6.032511
v 2.784859 0.564522 6.032511
v 5.301381 13.915461 0.604577
v 3.175567 13.915461 4.286595
v 6.618036 13.381010 0.604577
v 3.833894 13.381010 5.426852
v 5.301381 13.915461 -0.606745
v 3.175567 13.915462 -4.288763
v 3.833894 13.381012 -5.429020
v 6.618036 13.381010 -0.606745
v 2.126531 13.915461 4.892256
v -2.125097 13.915461 4.892256
v 2.784859 13.381010 6.032513
v -2.783425 13.381010 6.032513
v -3.174132 13.915461 4.286595
v -5.299946 13.915461 0.604577
v -3.832460 13.381010 5.426852
v -6.616602 13.381010 0.604577
vt 0.325052 0.300410
vt 0.331267 0.300410
vt 0.331267 0.326303
vt 0.325052 0.326303
vt 0.331267 0.351818
vt 0.325052 0.351818
vt 0.325052 0.192750
vt 0.331267 0.192750
vt 0.331267 0.219559
vt 0.325052 0.219559
vt 0.331267 0.246827
vt 0.325052 0.246827
vt 0.331267 0.273813
vt 0.325052 0.273812
vt 0.249306 0.178357
vt 0.267241 0.188327
vt 0.231887 0.209351
vt 0.231676 0.188828
vt 0.231508 0.126171
vt 0.266877 0.147169
vt 0.248949 0.157153
vt 0.231312 0.146694
vt 0.267059 0.126651
vt 0.249433 0.116173
vt 0.284210 0.300410
vt 0.291915 0.300410
vt 0.291915 0.326303
vt 0.284210 0.326303
vt 0.291915 0.351818
vt 0.284210 0.351818
vt 0.284210 0.192750
vt 0.291915 0.192750
vt 0.291915 0.219559
vt 0.284210 0.219559
vt 0.291915 0.246827
vt 0.284210 0.246827
vt 0.291915 0.273813
vt 0.284210 0.273813
vt 0.267437 0.208847
vt 0.249818 0.219336
vt 0.293259 0.248016
vt 0.323713 0.248016
vt 0.323713 0.272497
vt 0.293259 0.272497
vt 0.293259 0.220925
vt 0.323713 0.220925
vt 0.323713 0.245554
vt 0.293259 0.245554
vt 0.293259 0.194717
vt 0.323713 0.194717
vt 0.323713 0.218579
vt 0.293259 0.218579
vt 0.293259 0.301481
vt 0.323713 0.301481
vt 0.323713 0.325039
vt 0.293259 0.325039
vt 0.293259 0.274933
vt 0.323713 0.274933
vt 0.323713 0.299127
vt 0.293259 0.299127
vt 0.293259 0.350009
vt 0.293259 0.327281
vt 0.323713 0.327281
vt 0.323713 0.350009
vt 0.250145 0.177820
vt 0.250223 0.170764
vt 0.251708 0.172267
vt 0.251785 0.177809
vt 0.248529 0.108582
vt 0.248595 0.115634
vt 0.246956 0.115621
vt 0.247043 0.110083
vt 0.273415 0.183429
vt 0.267300 0.187312
vt 0.266471 0.185895
vt 0.271283 0.182981
vt 0.273500 0.213503
vt 0.250999 0.226885
vt 0.252422 0.225329
vt 0.271452 0.214007
vt 0.247758 0.164703
vt 0.225247 0.151339
vt 0.227294 0.151845
vt 0.246337 0.163146
vt 0.231449 0.125154
vt 0.232279 0.123738
vt 0.224623 0.212422
vt 0.224577 0.185992
vt 0.225185 0.188015
vt 0.225252 0.210337
vt 0.267476 0.209847
vt 0.266657 0.211266
vt 0.248089 0.157664
vt 0.246451 0.157624
vt 0.230966 0.208917
vt 0.230119 0.207511
vt 0.250677 0.219848
vt 0.252315 0.219811
vt 0.248980 0.219873
vt 0.231828 0.210369
vt 0.249982 0.228494
vt 0.248902 0.226928
vt 0.223726 0.214192
vt 0.225710 0.214253
vt 0.275398 0.213380
vt 0.230440 0.146214
vt 0.230586 0.126605
vt 0.223346 0.151216
vt 0.224206 0.149519
vt 0.223354 0.121318
vt 0.224250 0.123089
vt 0.225337 0.121259
vt 0.249610 0.107015
vt 0.266935 0.148185
vt 0.249787 0.157693
vt 0.275026 0.152020
vt 0.273044 0.152079
vt 0.248773 0.166312
vt 0.249853 0.164745
vt 0.267932 0.127130
vt 0.267797 0.146735
vt 0.275026 0.122129
vt 0.274166 0.123826
vt 0.274131 0.150250
vt 0.231273 0.147693
vt 0.250292 0.115662
vt 0.267098 0.125650
vt 0.250625 0.108624
vt 0.273127 0.122006
vt 0.249145 0.169198
vt 0.275398 0.183489
vt 0.268160 0.188762
vt 0.268312 0.208368
vt 0.274502 0.185259
vt 0.274538 0.211683
vt 0.231639 0.187829
vt 0.248447 0.177844
vt 0.223718 0.184294
vt 0.225617 0.184171
vt 0.248128 0.170807
vt 0.230803 0.189306
vt 0.232657 0.211787
vt 0.247342 0.219883
vt 0.247418 0.225425
vt 0.227842 0.214700
vt 0.229736 0.128011
vt 0.229648 0.144780
vt 0.224816 0.147497
vt 0.224876 0.125175
vt 0.227471 0.120814
vt 0.251426 0.157707
vt 0.266104 0.149599
vt 0.270911 0.152523
vt 0.251339 0.163245
vt 0.268645 0.145329
vt 0.268725 0.128565
vt 0.273556 0.125847
vt 0.273505 0.148163
vt 0.232089 0.149113
vt 0.266282 0.124228
vt 0.251929 0.115704
vt 0.252046 0.110182
vt 0.271080 0.121499
vt 0.269108 0.206935
vt 0.269006 0.190168
vt 0.273872 0.187344
vt 0.273930 0.209660
vt 0.246808 0.177881
vt 0.232458 0.186411
vt 0.227665 0.183668
vt 0.246705 0.172362
vt 0.230008 0.190739
vn 0.8259 -0.3010 0.4768
vn -0.0000 -0.3010 0.9536
vn -0.8259 -0.3010 0.4768
vn -0.8259 -0.3010 -0.4768
vn 0.0000 -0.3010 -0.9536
vn 0.8259 -0.3010 -0.4768
vn 0.0000 1.0000 0.0000
vn 0.0000 -1.0000 -0.0000
vn 0.8396 0.2453 0.4847
vn 0.0000 0.2453 0.9694
vn -0.8397 0.2424 0.4858
vn -0.8393 0.2485 -0.4835
vn 0.0000 0.2453 -0.9694
vn 0.8396 0.2453 -0.4847
vn 0.0000 0.0000 -1.0000
vn -0.6123 0.0000 -0.7906
vn 0.0000 0.5154 -0.8570
vn 0.6123 0.0000 -0.7906
vn 0.0000 -0.5153 -0.8570
vn -0.8660 0.0001 -0.5001
vn -0.9908 0.0024 0.1350
vn -0.7422 0.5153 -0.4285
vn -0.3786 0.0000 -0.9256
vn -0.7397 -0.5153 -0.4328
vn -0.8660 -0.0000 0.5000
vn -0.3786 -0.0000 0.9256
vn -0.7422 0.5153 0.4285
vn -0.9934 0.0008 -0.1151
vn -0.7675 -0.4587 0.4478
vn 0.8660 -0.0000 0.5000
vn 0.9909 0.0000 -0.1350
vn 0.7422 0.5154 0.4285
vn 0.3786 -0.0000 0.9256
vn 0.7422 -0.5153 0.4285
vn 0.8660 0.0000 -0.5000
vn 0.3786 0.0000 -0.9256
vn 0.7422 0.5154 -0.4285
vn 0.9909 -0.0000 0.1350
vn 0.7422 -0.5153 -0.4285
vn -0.0000 -0.0000 1.0000
vn -0.0000 -0.5153 0.8570
vn 0.6123 -0.0000 0.7906
vn -0.0000 0.5154 0.8570
vn -0.6123 -0.0000 0.7906
vn -0.2162 0.8301 0.5139
vn -0.2162 -0.8301 0.5139
vn 0.3370 0.8301 -0.4442
vn 0.0000 -0.0907 -0.9959
vn 0.0000 0.0907 -0.9959
vn -0.6121 -0.7074 -0.3534
vn -0.8625 -0.0907 0.4979
vn -0.6121 0.7074 -0.3534
vn 0.5532 0.8301 -0.0697
vn -0.5532 -0.8301 -0.0697
vn -0.3370 0.8301 -0.4442
vn -0.5532 0.8301 -0.0697
vn -0.3675 0.9055 -0.2122
vn 0.0000 0.9055 -0.4244
vn 0.3675 -0.9055 -0.2122
vn 0.3675 -0.9055 0.2122
vn -0.3675 -0.9055 -0.2122
vn -0.3675 -0.9055 0.2122
vn -0.0000 -0.9055 -0.4244
vn 0.0000 -0.9055 0.4244
vn 0.3675 0.9055 0.2122
vn 0.3675 0.9055 -0.2122
vn 0.0000 0.9055 0.4244
vn -0.3675 0.9055 0.2122
vn 0.3370 -0.8301 -0.4442
vn 0.0000 0.7074 -0.7068
vn 0.6121 -0.7074 -0.3534
vn 0.8625 -0.0907 0.4979
vn 0.6121 0.7074 0.3534
vn 0.8625 0.0907 0.4979
vn 0.5532 0.8301 0.0697
vn -0.3370 -0.8301 -0.4442
vn -0.3370 0.8301 0.4442
vn -0.5532 0.8301 0.0697
vn 0.2162 -0.8301 0.5139
vn 0.2162 0.8301 -0.5139
vn 0.0000 -0.7074 -0.7068
vn 0.0000 -0.0907 0.9959
vn -0.6121 -0.7074 0.3534
vn -0.8625 0.0907 0.4979
vn -0.8625 -0.0907 -0.4979
vn -0.5532 -0.8301 0.0697
vn 0.3370 -0.8301 0.4442
vn 0.5532 -0.8301 0.0697
vn -0.2162 -0.8301 -0.5139
vn -0.6121 0.7074 0.3534
vn 0.6121 -0.7074 0.3534
vn 0.0000 0.0907 0.9959
vn 0.8625 0.0907 -0.4979
vn -0.2162 0.8301 -0.5139
vn 0.2162 -0.8301 -0.5139
vn 0.3370 0.8301 0.4442
vn -0.3370 -0.8301 0.4442
vn 0.6121 0.7074 -0.3534
vn 0.0000 -0.7074 0.7068
vn 0.8625 -0.0907 -0.4979
vn 0.0000 0.7074 0.7068
vn -0.8625 0.0907 -0.4979
vn 0.2162 0.8301 0.5139
vn 0.5532 -0.8301 -0.0697
usemtl Material
s off
f 1/1/1 58/2/1 59/3/1 4/4/1
f 4/4/2 59/3/2 60/5/2 6/6/2
f 6/7/3 60/8/3 49/9/3 8/10/3
f 8/10/4 49/9/4 50/11/4 10/12/4
f 10/12/5 50/11/5 51/13/5 12/14/5
f 12/14/6 51/13/6 58/2/6 1/1/6
f 3/15/7 2/16/7 7/17/7 5/18/7
f 52/19/8 55/20/8 15/21/8 16/22/8
f 17/23/8 55/20/8 52/19/8 18/24/8
f 13/25/9 19/26/9 20/27/9 54/28/9
f 54/28/10 20/27/10 21/29/10 57/30/10
f 57/31/11 21/32/11 22/33/11 14/34/11
f 14/34/12 22/33/12 23/35/12 56/36/12
f 56/36/13 23/35/13 24/37/13 53/38/13
f 53/38/14 24/37/14 19/26/14 13/25/14
f 7/17/7 2/16/7 11/39/7 9/40/7
f 25/41/15 26/42/15 27/43/15 28/44/15
f 10/12/16 26/42/16 25/41/16 23/35/16
f 12/14/17 27/43/17 26/42/17 10/12/17
f 24/37/18 28/44/18 27/43/18 12/14/18
f 23/35/19 25/41/19 28/44/19 24/37/19
f 29/45/20 30/46/20 31/47/20 32/48/20
f 8/10/21 30/46/21 29/45/21 22/33/21
f 10/12/22 31/47/22 30/46/22 8/10/22
f 23/35/23 32/48/23 31/47/23 10/12/23
f 22/33/24 29/45/24 32/48/24 23/35/24
f 33/49/25 34/50/25 35/51/25 36/52/25
f 6/7/26 34/50/26 33/49/26 21/32/26
f 8/10/27 35/51/27 34/50/27 6/7/27
f 22/33/28 36/52/28 35/51/28 8/10/28
f 21/32/29 33/49/29 36/52/29 22/33/29
f 37/53/30 38/54/30 39/55/30 40/56/30
f 1/1/31 38/54/31 37/53/31 19/26/31
f 4/4/32 39/55/32 38/54/32 1/1/32
f 20/27/33 40/56/33 39/55/33 4/4/33
f 19/26/34 37/53/34 40/56/34 20/27/34
f 41/57/35 42/58/35 43/59/35 44/60/35
f 12/14/36 42/58/36 41/57/36 24/37/36
f 1/1/37 43/59/37 42/58/37 12/14/37
f 19/26/38 44/60/38 43/59/38 1/1/38
f 24/37/39 41/57/39 44/60/39 19/26/39
f 45/61/40 46/62/40 47/63/40 48/64/40
f 20/27/41 46/62/41 45/61/41 21/29/41
f 4/4/42 47/63/42 46/62/42 20/27/42
f 6/6/43 48/64/43 47/63/43 4/4/43
f 21/29/44 45/61/44 48/64/44 6/6/44
f 94/65/45 95/66/45 144/67/45 142/68/45
f 76/69/46 73/70/46 122/71/46 123/72/46
f 96/73/47 93/74/47 141/75/47 143/76/47
f 67/77/48 68/78/48 115/79/48 116/80/48
f 87/81/49 88/82/49 135/83/49 136/84/49
f 73/70/50 74/85/50 121/86/50 122/71/50
f 107/87/51 108/88/51 155/89/51 156/90/51
f 93/74/52 94/65/52 142/68/52 141/75/52
f 66/91/53 67/77/53 116/80/53 114/92/53
f 86/93/54 87/81/54 136/84/54 133/94/54
f 106/95/55 107/87/55 156/90/55 154/96/55
f 68/78/56 65/97/56 113/98/56 115/79/56
f 7/17/57 9/40/57 62/99/57 61/100/57
f 9/40/57 50/101/57 63/102/57 62/99/57
f 50/101/57 49/103/57 64/104/57 63/102/57
f 49/103/57 7/17/57 61/100/57 64/104/57
f 9/40/58 11/39/58 66/91/58 65/97/58
f 11/39/58 51/105/58 67/77/58 66/91/58
f 51/105/58 50/101/58 68/78/58 67/77/58
f 50/101/58 9/40/58 65/97/58 68/78/58
f 52/19/59 16/22/59 70/106/59 69/107/59
f 16/22/59 53/108/59 71/109/59 70/106/59
f 53/108/59 13/110/59 72/111/59 71/109/59
f 13/110/59 52/19/59 69/107/59 72/111/59
f 18/24/60 52/19/60 74/85/60 73/70/60
f 52/19/60 13/110/60 75/112/60 74/85/60
f 13/110/60 54/113/60 76/69/60 75/112/60
f 54/113/60 18/24/60 73/70/60 76/69/60
f 15/21/61 55/20/61 78/114/61 77/115/61
f 55/20/61 14/116/61 79/117/61 78/114/61
f 14/116/61 56/118/61 80/119/61 79/117/61
f 56/118/61 15/21/61 77/115/61 80/119/61
f 55/20/62 17/23/62 82/120/62 81/121/62
f 17/23/62 57/122/62 83/123/62 82/120/62
f 57/122/62 14/116/62 84/124/62 83/123/62
f 14/116/62 55/20/62 81/121/62 84/124/62
f 16/22/63 15/21/63 86/93/63 85/125/63
f 15/21/63 56/118/63 87/81/63 86/93/63
f 56/118/63 53/108/63 88/82/63 87/81/63
f 53/108/63 16/22/63 85/125/63 88/82/63
f 17/23/64 18/24/64 90/126/64 89/127/64
f 18/24/64 54/113/64 91/128/64 90/126/64
f 54/113/64 57/122/64 92/129/64 91/128/64
f 57/122/64 17/23/64 89/127/64 92/129/64
f 2/16/65 3/15/65 94/65/65 93/74/65
f 3/15/65 59/130/65 95/66/65 94/65/65
f 59/130/65 58/131/65 96/73/65 95/66/65
f 58/131/65 2/16/65 93/74/65 96/73/65
f 11/39/66 2/16/66 98/132/66 97/133/66
f 2/16/66 58/131/66 99/134/66 98/132/66
f 58/131/66 51/105/66 100/135/66 99/134/66
f 51/105/66 11/39/66 97/133/66 100/135/66
f 3/15/67 5/18/67 102/136/67 101/137/67
f 5/18/67 60/138/67 103/139/67 102/136/67
f 60/138/67 59/130/67 104/140/67 103/139/67
f 59/130/67 3/15/67 101/137/67 104/140/67
f 5/18/68 7/17/68 106/95/68 105/141/68
f 7/17/68 49/103/68 107/87/68 106/95/68
f 49/103/68 60/138/68 108/88/68 107/87/68
f 60/138/68 5/18/68 105/141/68 108/88/68
f 109/142/57 110/143/57 112/144/57 111/145/57
f 113/98/58 114/92/58 116/80/58 115/79/58
f 117/146/59 118/147/59 120/148/59 119/149/59
f 122/71/60 121/86/60 124/150/60 123/72/60
f 126/151/61 125/152/61 128/153/61 127/154/61
f 129/155/62 130/156/62 132/157/62 131/158/62
f 134/159/63 133/94/63 136/84/63 135/83/63
f 137/160/64 138/161/64 140/162/64 139/163/64
f 141/75/65 142/68/65 144/67/65 143/76/65
f 146/164/66 145/165/66 148/166/66 147/167/66
f 149/168/67 150/169/67 152/170/67 151/171/67
f 153/172/68 154/96/68 156/90/68 155/89/68
f 74/85/69 75/112/69 124/150/69 121/86/69
f 101/137/70 102/136/70 150/169/70 149/168/70
f 81/121/71 82/120/71 130/156/71 129/155/71
f 95/66/72 96/73/72 143/76/72 144/67/72
f 61/100/73 62/99/73 110/143/73 109/142/73
f 75/112/74 76/69/74 123/72/74 124/150/74
f 104/140/75 101/137/75 149/168/75 151/171/75
f 84/124/76 81/121/76 129/155/76 131/158/76
f 64/104/77 61/100/77 109/142/77 111/145/77
f 102/136/78 103/139/78 152/170/78 150/169/78
f 82/120/79 83/123/79 132/157/79 130/156/79
f 62/99/80 63/102/80 112/144/80 110/143/80
f 89/127/81 90/126/81 138/161/81 137/160/81
f 103/139/82 104/140/82 151/171/82 152/170/82
f 69/107/83 70/106/83 118/147/83 117/146/83
f 83/123/84 84/124/84 131/158/84 132/157/84
f 63/102/85 64/104/85 111/145/85 112/144/85
f 92/129/86 89/127/86 137/160/86 139/163/86
f 72/111/87 69/107/87 117/146/87 119/149/87
f 90/126/88 91/128/88 140/162/88 138/161/88
f 70/106/89 71/109/89 120/148/89 118/147/89
f 97/133/90 98/132/90 145/165/90 146/164/90
f 77/115/91 78/114/91 125/152/91 126/151/91
f 91/128/92 92/129/92 139/163/92 140/162/92
f 71/109/93 72/111/93 119/149/93 120/148/93
f 100/135/94 97/133/94 146/164/94 147/167/94
f 80/119/95 77/115/95 126/151/95 127/154/95
f 98/132/96 99/134/96 148/166/96 145/165/96
f 78/114/97 79/117/97 128/153/97 125/152/97
f 105/141/98 106/95/98 154/96/98 153/172/98
f 85/125/99 86/93/99 133/94/99 134/159/99
f 99/134/100 100/135/100 147/167/100 148/166/100
f 65/97/101 66/91/101 114/92/101 113/98/101
f 79/117/102 80/119/102 127/154/102 128/153/102
f 108/88/103 105/141/103 153/172/103 155/89/103
f 88/82/104 85/125/104 134/159/104 135/83/104
