# Blender v3.1.2 OBJ File: 'all_building_objects_amy_positioned.blend'
# www.blender.org
mtllib redhills_tower_buildingchunk_platformchunk.mtl
o redhills_tower_buildingchunk_platformchunk_Hexoganal_module_03.013_Cylinder.016
v -3.237343 0.695235 1.063874
v -3.237343 0.715235 1.043874
v -3.257343 0.695235 1.043874
v -3.237343 0.715235 -1.064098
v -3.237343 0.695235 -1.084098
v -3.257343 0.695235 -1.064098
v -3.237343 0.021181 -1.084098
v -3.237343 0.001181 -1.064098
v -3.257343 0.021181 -1.064098
v -3.237343 0.021181 1.063873
v -3.257343 0.021181 1.043873
v -3.237343 0.001181 1.043873
v 3.237336 0.695235 -1.084098
v 3.237336 0.715235 -1.064098
v 3.257336 0.695235 -1.064098
v 3.237336 0.715235 1.043874
v 3.237336 0.695235 1.063874
v 3.257336 0.695235 1.043874
v 3.237336 0.021181 1.063873
v 3.237336 0.001181 1.043873
v 3.257336 0.021181 1.043873
v 3.237336 0.021181 -1.084098
v 3.257336 0.021181 -1.064098
v 3.237336 0.001181 -1.064098
v 2.960441 2.280195 1.063874
v 2.940441 2.280195 1.042303
v 2.951035 2.243231 1.030295
v 2.973569 2.243339 1.053109
v 2.960441 2.510443 1.063874
v 2.960441 2.530443 1.043875
v 2.940441 2.512403 1.042240
v 3.237336 2.530443 1.043875
v 3.237336 2.510443 1.063874
v 3.257336 2.512403 1.042240
v 3.224208 2.243339 1.053110
v 3.246742 2.243232 1.030295
v 3.257336 2.280195 1.042303
v 3.237336 2.280195 1.063874
v 3.019172 2.134127 0.960614
v 3.029766 2.097163 0.952526
v 3.049766 2.097163 0.972526
v 3.041841 2.134019 0.983291
v 3.155936 2.134019 0.983291
v 3.148011 2.097163 0.972526
v 3.168011 2.097163 0.952526
v 3.178605 2.134127 0.960614
v 3.178605 2.134127 0.843049
v 3.168011 2.097163 0.851137
v 3.148011 2.097163 0.831137
v 3.155936 2.134019 0.820372
v 3.246742 2.243231 0.773368
v 3.224208 2.243339 0.750553
v 3.237336 2.260195 0.719788
v 3.257336 2.280195 0.763773
v 2.960441 2.260195 0.719788
v 2.973569 2.243339 0.750553
v 2.951035 2.243232 0.773368
v 2.940441 2.280195 0.763773
v 3.029766 2.097163 0.851137
v 3.019172 2.134127 0.843049
v 3.041841 2.134019 0.820372
v 3.049766 2.097163 0.831137
v 3.237336 2.530444 -1.084097
v 3.257336 2.512328 -1.084097
v 3.257336 2.280195 -1.084097
v 3.237336 2.260195 -1.084097
v 2.960441 2.260195 -1.084097
v 2.940441 2.280195 -1.084097
v 2.940441 2.512328 -1.084097
v 2.960441 2.530444 -1.084097
v 3.257336 0.715235 1.041128
v 3.234735 0.715235 1.063874
v 3.148011 0.878267 0.972525
v 3.155936 0.841411 0.983290
v 3.178605 0.841303 0.960613
v 3.168011 0.878267 0.952525
v 3.148011 0.878267 0.831137
v 3.168011 0.878267 0.851137
v 3.178605 0.841303 0.843049
v 3.155936 0.841411 0.820372
v 3.234735 0.715235 0.739788
v 3.257336 0.715235 0.762534
v 2.940441 0.715235 0.762534
v 2.963042 0.715235 0.739788
v 3.041841 0.841411 0.820372
v 3.019172 0.841303 0.843049
v 3.029766 0.878267 0.851137
v 3.049766 0.878267 0.831137
v 3.019172 0.841303 0.960613
v 3.041841 0.841411 0.983290
v 3.049766 0.878267 0.972525
v 3.029766 0.878267 0.952525
v 2.963042 0.715235 1.063874
v 2.940441 0.715235 1.041128
v -2.960449 2.280195 1.063874
v -2.973576 2.243339 1.053110
v -2.951043 2.243232 1.030295
v -2.940449 2.280195 1.042303
v -3.237343 2.280195 1.063874
v -3.257343 2.280195 1.042303
v -3.246749 2.243231 1.030295
v -3.224216 2.243339 1.053109
v -3.237343 2.510443 1.063874
v -3.237343 2.530443 1.043875
v -3.257343 2.512403 1.042240
v -2.940449 2.512403 1.042240
v -2.960449 2.530443 1.043875
v -2.960449 2.510443 1.063874
v -3.019180 2.134127 0.960614
v -3.041848 2.134019 0.983291
v -3.049774 2.097163 0.972526
v -3.029774 2.097163 0.952526
v -3.178612 2.134127 0.960614
v -3.168018 2.097163 0.952526
v -3.148018 2.097163 0.972526
v -3.155944 2.134019 0.983291
v -3.148018 2.097163 0.831137
v -3.168018 2.097163 0.851137
v -3.178612 2.134127 0.843049
v -3.155944 2.134019 0.820372
v -3.041848 2.134019 0.820372
v -3.019180 2.134127 0.843049
v -3.029774 2.097163 0.851137
v -3.049774 2.097163 0.831137
v -2.973576 2.243339 0.750553
v -2.960449 2.260195 0.719788
v -2.940449 2.280195 0.763773
v -2.951043 2.243231 0.773368
v -3.246749 2.243232 0.773368
v -3.257343 2.280195 0.763773
v -3.237343 2.260195 0.719788
v -3.224216 2.243339 0.750553
v -3.237343 2.260195 -1.084097
v -3.257343 2.280195 -1.084097
v -3.257343 2.512328 -1.084097
v -3.237343 2.530444 -1.084097
v -2.940449 2.280195 -1.084097
v -2.960449 2.260195 -1.084097
v -2.960449 2.530444 -1.084097
v -2.940449 2.512328 -1.084097
v -3.234742 0.715235 1.063874
v -3.257343 0.715235 1.041128
v -3.257343 0.715235 0.762534
v -3.234742 0.715235 0.739788
v -3.148018 0.878267 0.831137
v -3.155944 0.841411 0.820372
v -3.178612 0.841303 0.843049
v -3.168018 0.878267 0.851137
v -3.155944 0.841411 0.983290
v -3.148018 0.878267 0.972525
v -3.168018 0.878267 0.952525
v -3.178612 0.841303 0.960613
v -2.963050 0.715235 0.739788
v -2.940449 0.715235 0.762534
v -2.940449 0.715235 1.041128
v -2.963050 0.715235 1.063874
v -3.049774 0.878267 0.972525
v -3.041848 0.841411 0.983290
v -3.019180 0.841303 0.960613
v -3.029774 0.878267 0.952525
v -3.029774 0.878267 0.851137
v -3.019180 0.841303 0.843049
v -3.041848 0.841411 0.820372
v -3.049774 0.878267 0.831137
vt 0.300583 0.524617
vt 0.300583 0.549541
vt 0.303216 0.549508
vt 0.303224 0.524648
vt 0.289747 0.579957
vt 0.290370 0.579206
vt 0.290373 0.579954
vt 0.292312 0.552291
vt 0.300427 0.552291
vt 0.300428 0.549696
vt 0.292312 0.549696
vt 0.300428 0.521867
vt 0.292312 0.521867
vt 0.292312 0.524462
vt 0.300428 0.524462
vt 0.288899 0.579963
vt 0.288888 0.574236
vt 0.289633 0.574235
vt 0.289644 0.579962
vt 0.291531 0.579330
vt 0.291531 0.579919
vt 0.290576 0.579951
vt 0.290576 0.579298
vt 0.288062 0.579092
vt 0.287317 0.579094
vt 0.287307 0.574240
vt 0.288052 0.574238
vt 0.290373 0.580066
vt 0.290373 0.580813
vt 0.289753 0.580814
vt 0.289752 0.580069
vt 0.299776 0.579347
vt 0.299776 0.579902
vt 0.291811 0.579902
vt 0.291811 0.579347
vt 0.291531 0.580959
vt 0.291531 0.581548
vt 0.290575 0.581580
vt 0.290576 0.580927
vt 0.288797 0.579959
vt 0.288170 0.579211
vt 0.288160 0.574238
vt 0.288785 0.574237
vt 0.301160 0.580921
vt 0.301160 0.581586
vt 0.300055 0.581548
vt 0.300055 0.580959
vt 0.288172 0.579960
vt 0.301160 0.580072
vt 0.301160 0.580806
vt 0.300054 0.580762
vt 0.300054 0.580115
vt 0.299776 0.581758
vt 0.299776 0.582338
vt 0.291811 0.582338
vt 0.291811 0.581758
vt 0.291532 0.580115
vt 0.290575 0.580079
vt 0.290575 0.580799
vt 0.291532 0.580762
vt 0.299776 0.580135
vt 0.299776 0.580743
vt 0.291811 0.580743
vt 0.291811 0.580135
vt 0.301160 0.579292
vt 0.301160 0.579957
vt 0.300055 0.579919
vt 0.300055 0.579330
vt 0.291532 0.581740
vt 0.291532 0.582356
vt 0.290575 0.582391
vt 0.290574 0.581705
vt 0.301160 0.581698
vt 0.301160 0.582398
vt 0.300054 0.582356
vt 0.300054 0.581740
vt 0.299776 0.580976
vt 0.299776 0.581531
vt 0.291811 0.581531
vt 0.291811 0.580976
vt 0.289735 0.574235
vt 0.290360 0.574233
vt 0.291532 0.580115
vt 0.291532 0.580762
vt 0.290575 0.580799
vt 0.290575 0.580079
vt 0.289747 0.579957
vt 0.290373 0.579954
vt 0.290370 0.579206
vt 0.291531 0.579330
vt 0.290576 0.579298
vt 0.290576 0.579951
vt 0.291532 0.579919
vt 0.288062 0.579092
vt 0.288052 0.574238
vt 0.287307 0.574240
vt 0.287317 0.579094
vt 0.290373 0.580065
vt 0.289752 0.580069
vt 0.289753 0.580814
vt 0.290373 0.580813
vt 0.288172 0.579960
vt 0.288797 0.579959
vt 0.288170 0.579211
vt 0.290360 0.574233
vt 0.289735 0.574235
vt 0.288899 0.579963
vt 0.289644 0.579962
vt 0.289633 0.574235
vt 0.288888 0.574236
vt 0.301160 0.580921
vt 0.300055 0.580959
vt 0.300055 0.581548
vt 0.301160 0.581586
vt 0.299776 0.580135
vt 0.291811 0.580135
vt 0.291811 0.580743
vt 0.299776 0.580743
vt 0.301160 0.580072
vt 0.300054 0.580115
vt 0.300054 0.580762
vt 0.301160 0.580806
vt 0.299776 0.581758
vt 0.291811 0.581758
vt 0.291811 0.582338
vt 0.299776 0.582338
vt 0.299776 0.580976
vt 0.291811 0.580976
vt 0.291811 0.581531
vt 0.299776 0.581531
vt 0.301160 0.579292
vt 0.300055 0.579330
vt 0.300055 0.579919
vt 0.301160 0.579957
vt 0.291532 0.581740
vt 0.290574 0.581705
vt 0.290575 0.582391
vt 0.291532 0.582356
vt 0.301160 0.581698
vt 0.300054 0.581740
vt 0.300054 0.582356
vt 0.301160 0.582398
vt 0.299776 0.579347
vt 0.291811 0.579347
vt 0.291811 0.579902
vt 0.299776 0.579902
vt 0.288785 0.574237
vt 0.288160 0.574238
vt 0.291532 0.580959
vt 0.290576 0.580927
vt 0.290575 0.581580
vt 0.291531 0.581548
vt 0.300427 0.552445
vt 0.292312 0.552445
vt 0.292312 0.577372
vt 0.300428 0.577372
vt 0.300428 0.524616
vt 0.292312 0.524616
vt 0.292312 0.549542
vt 0.300428 0.549542
vt 0.289381 0.549508
vt 0.289299 0.549507
vt 0.289381 0.549585
vt 0.303294 0.549507
vt 0.303294 0.549507
vt 0.303216 0.549585
vt 0.300505 0.549542
vt 0.300505 0.549542
vt 0.300428 0.549619
vt 0.292153 0.549541
vt 0.292153 0.549618
vt 0.292235 0.549542
vt 0.303303 0.524649
vt 0.303224 0.524571
vt 0.289290 0.524649
vt 0.289290 0.524649
vt 0.289373 0.524571
vt 0.292235 0.524616
vt 0.292235 0.524616
vt 0.300505 0.524462
vt 0.300505 0.524462
vt 0.300428 0.524539
vt 0.290427 0.580867
vt 0.290666 0.581620
vt 0.290643 0.581640
vt 0.290426 0.581692
vt 0.290426 0.581640
vt 0.290506 0.579151
vt 0.290643 0.579238
vt 0.290427 0.579318
vt 0.290427 0.579295
vt 0.291680 0.579303
vt 0.291680 0.579238
vt 0.291811 0.579238
vt 0.300016 0.579179
vt 0.299906 0.579303
vt 0.299776 0.579238
vt 0.299776 0.579238
vt 0.290380 0.580868
vt 0.290427 0.580918
vt 0.290427 0.580947
vt 0.290643 0.580867
vt 0.291570 0.582384
vt 0.291680 0.582456
vt 0.291811 0.582456
vt 0.291811 0.582456
vt 0.290427 0.582404
vt 0.290427 0.582456
vt 0.290646 0.582456
vt 0.290426 0.581583
vt 0.290426 0.581640
vt 0.290643 0.581640
vt 0.299776 0.582456
vt 0.299906 0.582456
vt 0.299906 0.582384
vt 0.299906 0.582338
vt 0.300505 0.521867
vt 0.300428 0.521790
vt 0.292312 0.521790
vt 0.289373 0.524648
vt 0.292153 0.524540
vt 0.291602 0.582456
vt 0.290426 0.581692
vt 0.290427 0.582404
vt 0.299984 0.582456
vt 0.301089 0.582456
vt 0.291601 0.579238
vt 0.300504 0.552291
vt 0.300505 0.549696
vt 0.301091 0.579238
vn 0.0000 0.0000 -1.0000
vn -1.0000 0.0000 0.0000
vn 1.0000 0.0000 0.0000
vn 0.0000 1.0000 0.0000
vn -0.8482 -0.5297 -0.0000
vn 0.0000 -1.0000 -0.0000
vn 0.0000 0.0000 1.0000
vn 0.8482 -0.5297 0.0000
vn 0.8482 0.5297 -0.0000
vn 0.0000 0.5383 0.8428
vn 0.0000 -0.5382 0.8428
vn -0.8482 0.5297 -0.0000
vn 0.0000 -0.5383 -0.8428
vn 0.0000 0.5383 -0.8428
vn -0.0000 -0.5383 0.8428
vn 1.0000 -0.0000 0.0001
usemtl Material
s 1
f 22/1/1 7/2/1 5/3/1 13/4/1
f 31/5/2 58/6/2 26/7/2
f 3/8/2 6/9/2 9/10/2 11/11/2
f 15/12/3 18/13/3 21/14/3 23/15/3
f 32/16/4 63/17/4 70/18/4 30/19/4
f 60/20/5 39/21/5 27/22/5 57/23/5
f 53/24/6 55/25/6 67/26/6 66/27/6
f 25/28/7 38/29/7 33/30/7 29/31/7
f 87/32/2 92/33/2 40/34/2 59/35/2
f 46/36/8 47/37/8 51/38/8 36/39/8
f 34/40/3 54/41/3 65/42/3 64/43/3
f 71/44/9 82/45/9 79/46/9 75/47/9
f 37/48/3 54/41/3 34/40/3
f 93/49/10 72/50/10 74/51/10 90/52/10
f 77/53/1 88/54/1 62/55/1 49/56/1
f 110/57/11 96/58/11 102/59/11 116/60/11
f 91/61/7 73/62/7 44/63/7 41/64/7
f 83/65/12 94/66/12 89/67/12 86/68/12
f 50/69/13 61/70/13 56/71/13 52/72/13
f 81/73/14 84/74/14 85/75/14 80/76/14
f 76/77/3 78/78/3 48/79/3 45/80/3
f 58/6/2 31/5/2 69/81/2 68/82/2
f 42/83/11 43/84/11 35/85/11 28/86/11
f 106/87/3 98/88/3 127/89/3
f 122/90/8 128/91/8 97/92/8 109/93/8
f 131/94/6 133/95/6 138/96/6 126/97/6
f 95/98/7 108/99/7 103/100/7 99/101/7
f 100/102/2 105/103/2 130/104/2
f 127/89/3 137/105/3 140/106/3 106/87/3
f 104/107/4 107/108/4 139/109/4 136/110/4
f 142/111/12 152/112/12 147/113/12 143/114/12
f 157/115/7 111/116/7 115/117/7 150/118/7
f 156/119/10 158/120/10 149/121/10 141/122/10
f 145/123/1 117/124/1 124/125/1 164/126/1
f 151/127/2 114/128/2 118/129/2 148/130/2
f 154/131/9 162/132/9 159/133/9 155/134/9
f 120/135/13 132/136/13 125/137/13 121/138/13
f 144/139/14 146/140/14 163/141/14 153/142/14
f 161/143/3 123/144/3 112/145/3 160/146/3
f 105/103/2 135/147/2 134/148/2 130/104/2
f 113/149/5 101/150/5 129/151/5 119/152/5
f 4/153/4 2/154/4 16/155/4 14/156/4
f 24/157/6 20/158/6 12/159/6 8/160/6
f 1/161/7 2/162/4 3/163/2
f 4/164/4 5/165/1 6/166/2
f 7/167/1 8/168/6 9/169/2
f 10/170/7 11/171/2 12/172/6
f 13/4/1 14/173/4 15/174/3
f 16/175/4 17/176/7 18/177/3
f 19/178/7 20/179/6 21/14/3
f 22/180/1 23/181/3 24/182/6
f 25/28/7 26/7/2 27/22/5 28/86/15
f 29/31/7 30/19/4 31/5/2
f 32/16/4 33/30/7 34/40/3
f 35/85/15 36/39/8 37/183/3 38/29/7
f 39/21/5 40/34/2 41/64/7 42/83/15
f 43/84/15 44/63/7 45/80/3 46/36/8
f 47/37/8 48/79/3 49/56/1 50/69/13
f 51/184/8 52/185/13 53/186/6 54/187/3
f 55/188/6 56/189/13 57/190/5 58/191/2
f 59/35/2 60/192/5 61/193/13 62/194/1
f 73/62/7 74/51/10 75/47/9 76/77/3
f 77/53/1 78/78/3 79/46/9 80/76/14
f 85/195/14 86/196/12 87/197/2 88/198/1
f 89/67/12 90/52/10 91/61/7 92/33/2
f 95/98/7 96/58/15 97/92/8 98/88/3
f 99/199/7 100/200/2 101/201/5 102/202/15
f 103/100/7 104/107/4 105/103/2
f 106/87/3 107/108/4 108/99/7
f 109/93/8 110/57/15 111/116/7 112/145/3
f 113/149/5 114/128/2 115/117/7 116/60/15
f 117/124/1 118/129/2 119/152/5 120/135/13
f 121/203/13 122/204/8 123/205/3 124/206/1
f 125/137/13 126/207/6 127/208/16 128/209/8
f 129/151/5 130/210/2 131/211/6 132/212/13
f 145/123/1 146/140/14 147/113/12 148/130/2
f 149/121/10 150/118/7 151/127/2 152/112/12
f 157/115/7 158/120/10 159/133/9 160/146/3
f 161/213/3 162/214/9 163/215/14 164/216/1
f 120/135/13 121/138/13 124/125/1 117/124/1
f 119/152/5 129/151/5 132/136/13 120/135/13
f 117/124/1 145/123/1 148/130/2 118/129/2
f 89/67/12 94/66/12 93/49/10 90/52/10
f 39/21/5 60/20/5 59/35/2 40/34/2
f 40/34/2 92/33/2 91/61/7 41/64/7
f 41/64/7 44/63/7 43/84/15 42/83/15
f 15/12/3 23/15/3 22/180/1 13/217/1
f 141/122/10 149/121/10 152/112/12 142/111/12
f 14/218/4 16/219/4 18/13/3 15/12/3
f 44/63/7 73/62/7 76/77/3 45/80/3
f 123/205/3 161/213/3 164/126/1 124/125/1
f 45/80/3 48/79/3 47/37/8 46/36/8
f 17/220/7 19/178/7 21/221/3 18/177/3
f 121/138/13 125/137/13 128/209/8 122/222/8
f 143/114/12 147/113/12 146/140/14 144/139/14
f 147/113/12 152/112/12 151/127/2 148/130/2
f 145/123/1 164/126/1 163/141/14 146/140/14
f 95/98/7 99/101/7 102/59/15 96/58/15
f 96/58/15 110/57/15 109/93/8 97/92/8
f 71/44/9 75/47/9 74/51/10 72/50/10
f 126/97/6 138/96/6 137/105/3 127/89/16
f 20/158/6 24/157/6 23/15/3 21/14/3
f 49/56/1 62/55/1 61/70/13 50/69/13
f 48/79/3 78/78/3 77/53/1 49/56/1
f 98/88/3 106/87/3 108/99/7 95/98/7
f 97/92/8 128/91/8 127/89/16 98/88/3
f 50/69/13 52/72/13 51/38/8 47/37/8
f 125/137/13 132/136/13 131/223/6 126/207/6
f 53/24/6 66/27/6 65/42/3 54/41/3
f 149/121/10 158/120/10 157/115/7 150/118/7
f 101/150/5 113/149/5 116/60/15 102/59/15
f 52/72/13 56/71/13 55/224/6 53/186/6
f 75/47/9 79/46/9 78/78/3 76/77/3
f 73/62/7 91/61/7 90/52/10 74/51/10
f 99/101/7 103/100/7 105/103/2 100/102/2
f 100/200/2 130/210/2 129/151/5 101/150/5
f 130/104/2 134/148/2 133/95/6 131/94/6
f 153/142/14 163/141/14 162/225/9 154/226/9
f 25/28/7 29/31/7 31/5/2 26/7/2
f 27/22/5 39/21/5 42/83/15 28/86/15
f 26/7/2 58/6/2 57/23/5 27/22/5
f 28/86/15 35/85/15 38/29/7 25/28/7
f 103/100/7 108/99/7 107/108/4 104/107/4
f 80/76/14 85/75/14 88/54/1 77/53/1
f 79/46/9 82/45/9 81/73/14 80/76/14
f 56/189/13 61/227/13 60/20/5 57/23/5
f 104/107/4 136/110/4 135/147/2 105/103/2
f 58/6/2 68/82/2 67/26/6 55/25/6
f 1/161/7 17/220/7 16/175/4 2/162/4
f 2/154/4 4/153/4 6/9/2 3/8/2
f 3/163/2 11/171/2 10/170/7 1/161/7
f 29/31/7 33/30/7 32/16/4 30/19/4
f 5/228/1 7/229/1 9/10/2 6/9/2
f 155/134/9 159/133/9 158/120/10 156/119/10
f 4/164/4 14/173/4 13/4/1 5/3/1
f 30/19/4 70/18/4 69/81/2 31/5/2
f 62/194/1 88/198/1 87/32/2 59/35/2
f 106/87/3 140/106/3 139/109/4 107/108/4
f 83/65/12 86/68/12 85/195/14 84/230/14
f 33/30/7 38/29/7 37/48/3 34/40/3
f 8/160/6 12/159/6 11/11/2 9/10/2
f 34/40/3 64/43/3 63/17/4 32/16/4
f 159/133/9 162/132/9 161/143/3 160/146/3
f 110/57/15 116/60/15 115/117/7 111/116/7
f 7/2/1 22/1/1 24/157/6 8/160/6
f 112/145/3 123/144/3 122/90/8 109/93/8
f 111/116/7 157/115/7 160/146/3 112/145/3
f 86/68/12 89/67/12 92/33/2 87/32/2
f 12/159/6 20/158/6 19/178/7 10/170/7
f 35/85/15 43/84/15 46/36/8 36/39/8
f 36/39/8 51/38/8 54/187/3 37/183/3
f 113/149/5 119/152/5 118/129/2 114/128/2
f 114/128/2 151/127/2 150/118/7 115/117/7
f 10/170/7 19/178/7 17/220/7 1/161/7
