# Blender v3.1.2 OBJ File: 'all_building_objects_amy_positioned.blend'
# www.blender.org
mtllib redhills_tower_buildingchunk_stairchunk.mtl
o redhills_tower_buildingchunk_stairchunk_Hexoganal_module_03.013_Cylinder.015
v -1.321801 0.277968 -0.387221
v -1.325527 0.244134 -0.372778
v -1.341801 0.264134 -0.349893
v -1.321801 0.425688 -0.541444
v -1.341801 0.419522 -0.511890
v -1.321801 0.439522 -0.535887
v -1.195419 0.439522 -0.535887
v -1.175419 0.419522 -0.506093
v -1.195419 0.425688 -0.541444
v -1.195419 0.277968 -0.387221
v -1.175419 0.284134 -0.364745
v -1.155419 0.264134 -0.352778
v -1.188361 0.244134 -0.372778
v 1.350215 0.027012 -0.350004
v 1.330215 0.007012 -0.352778
v 1.334093 0.031931 -0.372778
v -1.341801 0.027012 -0.350004
v -1.325676 0.031931 -0.372778
v -1.321801 0.007012 -0.352778
v 1.163864 0.264134 -0.352778
v 1.183864 0.284134 -0.364745
v 1.203864 0.277968 -0.387221
v 1.196804 0.244134 -0.372778
v -1.341801 0.419522 0.191041
v -1.321801 0.425688 0.207720
v -1.321801 0.439522 0.173277
v -1.195419 0.425688 0.207720
v -1.175419 0.419522 0.185244
v -1.195419 0.439522 0.173277
v -1.175419 0.284134 0.326592
v -1.195419 0.277968 0.361942
v -1.188361 0.244134 0.376386
v -1.155419 0.264134 0.356386
v 1.163864 0.264134 0.356386
v 1.196804 0.244134 0.376386
v 1.203864 0.277968 0.361942
v 1.183864 0.284134 0.326592
v -1.341801 0.027012 0.353612
v -1.321801 0.007012 0.356386
v -1.325676 0.031931 0.376386
v -1.321801 0.277968 0.361942
v -1.341801 0.264134 0.353501
v -1.325527 0.244134 0.376386
v 1.333944 0.244134 -0.372778
v 1.330215 0.277968 -0.387221
v 1.350215 0.264134 -0.349893
v 1.330215 0.277968 0.361942
v 1.333944 0.244134 0.376386
v 1.350215 0.264134 0.353501
v 1.330215 0.007012 0.356386
v 1.350215 0.027012 0.353612
v 1.334093 0.031931 0.376386
v 1.203864 0.425688 0.207720
v 1.203864 0.439522 0.173277
v 1.183864 0.419522 0.185244
v 1.330215 0.425688 0.207720
v 1.350215 0.419522 0.191041
v 1.330215 0.439522 0.173277
v 1.350215 0.419522 -0.511890
v 1.330215 0.425688 -0.541444
v 1.330215 0.439522 -0.535887
v 1.183864 0.419522 -0.506093
v 1.203864 0.439522 -0.535887
v 1.203864 0.425688 -0.541444
vt 0.297602 0.454832
vt 0.298231 0.454231
vt 0.300953 0.454230
vt 0.300326 0.454832
vt 0.287685 0.459647
vt 0.287153 0.459647
vt 0.287152 0.458825
vt 0.296290 0.461120
vt 0.296795 0.460593
vt 0.296795 0.463270
vt 0.296290 0.463796
vt 0.297451 0.458825
vt 0.296920 0.459647
vt 0.297436 0.459777
vt 0.297436 0.460350
vt 0.296947 0.460350
vt 0.296947 0.459778
vt 0.297451 0.455731
vt 0.287152 0.455731
vt 0.287684 0.454910
vt 0.296920 0.454910
vt 0.288313 0.463796
vt 0.287809 0.463270
vt 0.287809 0.460593
vt 0.288313 0.461119
vt 0.287167 0.455905
vt 0.297436 0.455905
vt 0.297436 0.458651
vt 0.287167 0.458651
vt 0.287153 0.454910
vt 0.296947 0.460481
vt 0.297436 0.460481
vt 0.297436 0.463226
vt 0.296947 0.463226
vt 0.297450 0.454910
vt 0.287812 0.452009
vt 0.296792 0.452009
vt 0.296792 0.454755
vt 0.287812 0.454755
vt 0.284278 0.454832
vt 0.283651 0.454231
vt 0.286373 0.454231
vt 0.287001 0.454832
vt 0.287657 0.463226
vt 0.287167 0.463226
vt 0.287167 0.460481
vt 0.287657 0.460481
vt 0.296947 0.464462
vt 0.296947 0.463403
vt 0.297436 0.463403
vt 0.297436 0.464462
vt 0.287657 0.459778
vt 0.287657 0.460350
vt 0.287167 0.460350
vt 0.287168 0.459778
vt 0.287167 0.464462
vt 0.287167 0.463403
vt 0.287657 0.463403
vt 0.287657 0.464462
vt 0.284278 0.455750
vt 0.287002 0.455750
vt 0.297601 0.455750
vt 0.300326 0.455750
vt 0.300470 0.454779
vt 0.300414 0.454910
vt 0.301068 0.454207
vt 0.300996 0.454275
vt 0.301046 0.454153
vt 0.296870 0.459724
vt 0.296870 0.459724
vt 0.287090 0.458806
vt 0.287113 0.458764
vt 0.300414 0.455731
vt 0.300337 0.455828
vt 0.287812 0.459724
vt 0.287735 0.459724
vt 0.287735 0.459724
vt 0.298166 0.454207
vt 0.298300 0.454153
vt 0.296870 0.454755
vt 0.296947 0.454832
vt 0.296870 0.454832
vt 0.287734 0.454832
vt 0.287734 0.454832
vt 0.297513 0.455916
vt 0.297513 0.455905
vt 0.297451 0.455828
vt 0.297436 0.454779
vt 0.297513 0.454832
vt 0.287168 0.459724
vt 0.287090 0.459724
vt 0.287167 0.454779
vt 0.287090 0.454910
vt 0.287090 0.454832
vt 0.287167 0.455828
vt 0.287090 0.455750
vt 0.287090 0.463364
vt 0.287167 0.463304
vt 0.283536 0.454207
vt 0.283558 0.454153
vt 0.297450 0.459647
vt 0.286304 0.454153
vt 0.296792 0.459724
vt 0.296870 0.451962
vt 0.296870 0.454639
vt 0.287090 0.458640
vt 0.287090 0.455916
vt 0.297513 0.458640
vt 0.287090 0.460281
vt 0.287090 0.464479
vt 0.287734 0.454639
vt 0.287734 0.451962
vt 0.297569 0.454779
vn -1.0000 -0.0000 0.0000
vn 0.0000 0.0000 -1.0000
vn 1.0000 0.0000 0.0000
vn 0.0000 -0.7222 -0.6917
vn -0.0000 0.0000 1.0000
vn 0.0000 -1.0000 0.0000
vn 0.0000 1.0000 0.0000
vn 0.0000 0.7222 0.6917
vn -0.0000 -0.7221 -0.6917
vn -0.0001 1.0000 0.0000
usemtl Material
s 1
f 42/1/1 24/2/1 5/3/1 3/4/1
f 23/5/2 44/6/2 16/7/2
f 11/8/3 8/9/3 28/10/3 30/11/3
f 16/7/2 18/12/2 13/13/2 23/5/2
f 1/14/4 4/15/4 9/16/4 10/17/4
f 40/18/5 52/19/5 35/20/5 32/21/5
f 37/22/1 55/23/1 62/24/1 21/25/1
f 50/26/6 39/27/6 19/28/6 15/29/6
f 35/20/5 52/19/5 48/30/5
f 7/31/7 6/32/7 26/33/7 29/34/7
f 32/21/5 43/35/5 40/18/5
f 20/36/7 12/37/7 33/38/7 34/39/7
f 46/40/3 59/41/3 57/42/3 49/43/3
f 54/44/7 58/45/7 61/46/7 63/47/7
f 31/48/8 27/49/8 25/50/8 41/51/8
f 22/52/4 64/53/4 60/54/4 45/55/4
f 47/56/8 56/57/8 53/58/8 36/59/8
f 14/60/3 46/40/3 49/43/3 51/61/3
f 38/62/1 42/1/1 3/4/1 17/63/1
f 1/64/4 2/65/2 3/4/1
f 4/66/4 5/67/1 6/68/7
f 7/31/7 8/9/3 9/16/4
f 10/17/9 11/69/3 12/70/7 13/13/2
f 14/71/3 15/72/6 16/7/2
f 17/63/1 18/73/2 19/74/6
f 20/75/7 21/76/1 22/77/4 23/5/2
f 24/2/1 25/78/8 26/79/7
f 27/49/8 28/10/3 29/34/7
f 30/80/3 31/81/8 32/21/5 33/82/7
f 34/39/10 35/20/5 36/83/8 37/84/1
f 38/85/1 39/86/6 40/87/5
f 41/88/8 42/89/1 43/35/5
f 44/6/2 45/90/9 46/91/3
f 47/92/8 48/93/5 49/94/3
f 50/95/6 51/96/3 52/19/5
f 53/58/8 54/44/7 55/23/1
f 56/57/8 57/97/3 58/98/7
f 59/41/3 60/99/4 61/100/7
f 62/24/1 63/47/7 64/53/4
f 27/49/8 31/48/8 30/11/3 28/10/3
f 1/14/4 10/17/9 13/13/2 2/101/2
f 2/65/2 18/73/2 17/63/1 3/4/1
f 3/4/1 5/3/1 4/66/4 1/64/4
f 53/58/8 56/57/8 58/45/7 54/44/7
f 54/44/7 63/47/7 62/24/1 55/23/1
f 5/3/1 24/2/1 26/79/7 6/68/7
f 31/81/8 41/88/8 43/35/5 32/21/5
f 6/32/7 7/31/7 9/16/4 4/15/4
f 32/21/5 35/20/5 34/39/10 33/38/7
f 57/42/3 59/41/3 61/100/7 58/102/7
f 36/59/8 53/58/8 55/23/1 37/22/1
f 8/9/3 11/8/3 10/17/9 9/16/4
f 60/54/4 64/53/4 63/47/7 61/46/7
f 7/31/7 29/34/7 28/10/3 8/9/3
f 35/20/5 48/30/5 47/92/8 36/83/8
f 12/103/7 20/75/7 23/5/2 13/13/2
f 11/104/3 30/105/3 33/38/7 12/37/7
f 40/18/5 43/35/5 42/1/1 38/62/1
f 39/27/6 50/26/6 52/19/5 40/18/5
f 16/7/2 44/6/2 46/91/3 14/71/3
f 15/29/6 19/28/6 18/12/2 16/7/2
f 14/106/3 51/107/3 50/26/6 15/29/6
f 19/28/6 39/27/6 38/85/1 17/108/1
f 45/55/9 60/54/4 59/109/3 46/91/3
f 48/30/5 52/19/5 51/61/3 49/43/3
f 49/110/3 57/97/3 56/57/8 47/56/8
f 20/36/7 34/39/10 37/111/1 21/112/1
f 22/52/4 45/55/9 44/6/2 23/5/2
f 21/25/1 62/24/1 64/53/4 22/52/4
f 25/50/8 27/49/8 29/34/7 26/33/7
f 24/2/1 42/1/1 41/113/8 25/78/8
f 13/13/2 18/12/2 2/101/2
