# Blender v3.1.2 OBJ File: 'all_building_objects_amy_positioned.blend'
# www.blender.org
mtllib redhills_tower_buildingchunk_piramid1.mtl
o redhills_tower_buildingchunk_piramid1_Hexoganal_module_03.013_Cylinder.006
v -11.613108 1.064755 8.245128
v -11.489166 1.309634 8.312938
v -11.754815 1.294369 8.218575
v -11.936122 1.019228 8.081702
v -13.005014 1.209178 7.116064
v -13.117649 1.198667 6.876832
v -13.100164 0.953548 6.918714
v -12.973983 0.948507 7.166447
v -12.205859 -0.002781 7.339191
v -12.438323 0.114773 7.314161
v -12.492833 0.008261 7.086191
v -12.277158 -0.109525 7.108606
v -5.388047 17.930853 4.120094
v -5.564021 17.727844 4.151545
v -5.401360 17.847588 4.372869
v -4.036961 17.616877 5.624244
v -4.174173 17.815168 5.472046
v -3.785660 18.960361 3.963008
v -3.702624 18.939167 4.206085
v -3.527875 19.036036 3.951937
v -5.388046 17.930855 -4.120090
v -5.401360 17.847588 -4.372864
v -5.564021 17.727844 -4.151541
v -3.785660 18.960363 -3.963004
v -3.527875 19.036037 -3.951933
v -3.702624 18.939169 -4.206081
v -4.036961 17.616877 -5.624239
v -4.174173 17.815168 -5.472042
v -11.754816 1.294370 -8.218578
v -11.489167 1.309636 -8.312943
v -11.613109 1.064757 -8.245131
v -11.936123 1.019230 -8.081707
v -12.205859 -0.002779 -7.339196
v -12.277158 -0.109523 -7.108611
v -12.492833 0.008262 -7.086196
v -12.438323 0.114775 -7.314166
v -13.005014 1.209180 -7.116068
v -12.973983 0.948509 -7.166452
v -13.100164 0.953550 -6.918718
v -13.117649 1.198669 -6.876836
v 7.489174 18.939409 -4.205796
v 7.485105 19.036037 -3.951933
v 7.726233 18.939222 -3.965824
v 7.749578 18.813362 -4.236475
v 8.878852 17.835766 -4.132876
v 8.986078 17.599083 -4.169473
v 8.887224 17.601757 -4.410894
v 8.758595 17.847382 -4.382715
v 7.535841 17.845598 -5.494721
v 7.790282 17.859343 -5.360670
v 7.784585 17.615377 -5.524512
v 7.545653 17.616877 -5.624240
v 8.556713 -0.008395 -7.089416
v 8.319898 -0.109523 -7.108611
v 8.315063 -0.002779 -7.339196
v 8.561535 0.120971 -7.329506
v 8.267515 1.064757 -8.245131
v 8.256689 1.309636 -8.312942
v 8.495481 1.311345 -8.212685
v 8.520093 1.051438 -8.119122
v 9.604846 1.086436 -6.894135
v 9.463485 1.063105 -7.161461
v 9.596932 1.324967 -7.094575
v 9.695562 1.327431 -6.852307
v 7.535842 17.845598 5.494723
v 7.545653 17.616877 5.624243
v 7.784585 17.615377 5.524515
v 7.790282 17.859343 5.360673
v 8.887225 17.601755 4.410897
v 8.986079 17.599081 4.169476
v 8.878852 17.835764 4.132880
v 8.758595 17.847380 4.382718
v 7.489174 18.939409 4.205800
v 7.749579 18.813360 4.236479
v 7.726233 18.939220 3.965828
v 7.485105 19.036036 3.951937
v 8.495481 1.311343 8.212681
v 8.256689 1.309634 8.312938
v 8.267515 1.064755 8.245128
v 8.520092 1.051436 8.119118
v 8.315063 -0.002781 7.339191
v 8.319898 -0.109525 7.108606
v 8.556713 -0.008397 7.089411
v 8.561535 0.120969 7.329501
v 9.596932 1.324965 7.094571
v 9.463485 1.063103 7.161456
v 9.604846 1.086433 6.894130
v 9.695562 1.327429 6.852302
vt 0.339352 0.861236
vt 0.338985 0.903058
vt 0.331549 0.903007
vt 0.331916 0.861157
vt 0.263084 0.741240
vt 0.262712 0.783668
vt 0.256766 0.783621
vt 0.257138 0.741183
vt 0.256279 0.902649
vt 0.194776 0.902109
vt 0.195149 0.859657
vt 0.256651 0.860196
vt 0.331210 0.910609
vt 0.262692 0.909992
vt 0.262745 0.903685
vt 0.330991 0.904284
vt 0.261743 0.909245
vt 0.259108 0.905897
vt 0.261789 0.904009
vt 0.263192 0.852966
vt 0.331711 0.853551
vt 0.331380 0.859871
vt 0.263134 0.859273
vt 0.331980 0.853439
vt 0.332523 0.792516
vt 0.339189 0.792588
vt 0.338658 0.853081
vt 0.338148 0.911200
vt 0.337619 0.971694
vt 0.330953 0.971649
vt 0.331477 0.910725
vt 0.261577 0.910985
vt 0.261048 0.971350
vt 0.255365 0.971306
vt 0.255894 0.910928
vt 0.339202 0.742211
vt 0.338836 0.784031
vt 0.332593 0.783992
vt 0.332960 0.742141
vt 0.332404 0.790837
vt 0.332450 0.785572
vt 0.336200 0.788017
vt 0.331407 0.791233
vt 0.263775 0.790640
vt 0.263828 0.784645
vt 0.331460 0.785238
vt 0.336134 0.908241
vt 0.262718 0.911030
vt 0.330352 0.911826
vt 0.329827 0.971708
vt 0.262190 0.971315
vt 0.331678 0.853515
vt 0.336592 0.856005
vt 0.401097 0.903595
vt 0.340304 0.903062
vt 0.340671 0.861255
vt 0.401464 0.861788
vt 0.263764 0.791644
vt 0.331398 0.792437
vt 0.330874 0.852319
vt 0.263236 0.851929
vt 0.263112 0.860294
vt 0.330848 0.861094
vt 0.330480 0.903051
vt 0.262740 0.902664
vt 0.262229 0.853696
vt 0.262184 0.858932
vt 0.259537 0.856997
vt 0.257964 0.974957
vt 0.261187 0.972683
vt 0.261142 0.977817
vt 0.264214 0.741283
vt 0.331832 0.742073
vt 0.331464 0.784040
vt 0.263843 0.783645
vt 0.329762 0.978907
vt 0.262131 0.978314
vt 0.262184 0.972319
vt 0.329815 0.972912
vt 0.334550 0.976211
vt 0.330758 0.978590
vt 0.330804 0.973325
vt 0.262785 0.790259
vt 0.259603 0.787928
vt 0.262830 0.785125
vt 0.262039 0.860256
vt 0.261668 0.902683
vt 0.257247 0.902649
vt 0.257619 0.860213
vt 0.262246 0.852366
vt 0.262659 0.852414
vt 0.262655 0.852822
vt 0.262647 0.853729
vt 0.262689 0.859592
vt 0.262590 0.860330
vt 0.262124 0.859826
vt 0.261703 0.859822
vt 0.256444 0.859506
vt 0.257072 0.859782
vt 0.257068 0.860267
vt 0.256654 0.859778
vt 0.331808 0.861209
vt 0.330931 0.860429
vt 0.331375 0.860433
vt 0.336865 0.856902
vt 0.337013 0.856250
vt 0.331442 0.902953
vt 0.330996 0.903722
vt 0.330552 0.903718
vt 0.336423 0.907349
vt 0.336559 0.908004
vt 0.262477 0.910107
vt 0.262149 0.910534
vt 0.261960 0.910293
vt 0.262161 0.909219
vt 0.256060 0.903335
vt 0.256275 0.903067
vt 0.256697 0.902585
vt 0.256693 0.903070
vt 0.262305 0.903358
vt 0.261324 0.903111
vt 0.262218 0.902748
vt 0.262219 0.902619
vt 0.335240 0.975584
vt 0.335425 0.976254
vt 0.335084 0.976468
vt 0.334770 0.975750
vt 0.330833 0.979565
vt 0.329846 0.979445
vt 0.330337 0.978871
vt 0.330340 0.978593
vt 0.330839 0.971559
vt 0.330395 0.972379
vt 0.329865 0.972375
vt 0.329846 0.972375
vt 0.194070 0.902046
vt 0.194773 0.902528
vt 0.194787 0.902528
vt 0.194355 0.902524
vt 0.261617 0.971332
vt 0.261613 0.971777
vt 0.260657 0.971768
vt 0.262583 0.740805
vt 0.263637 0.740814
vt 0.263632 0.741323
vt 0.332407 0.792603
vt 0.331429 0.791770
vt 0.331447 0.791771
vt 0.331977 0.791775
vt 0.331553 0.784701
vt 0.332039 0.784706
vt 0.332032 0.785562
vt 0.336878 0.788656
vt 0.336412 0.788481
vt 0.336738 0.787769
vt 0.337075 0.787989
vt 0.263308 0.790900
vt 0.263192 0.791617
vt 0.262646 0.791167
vt 0.262240 0.791164
vt 0.195169 0.858969
vt 0.195152 0.859239
vt 0.194730 0.859711
vt 0.194734 0.859236
vt 0.263584 0.784600
vt 0.262592 0.784681
vt 0.262955 0.784366
vt 0.263257 0.784103
vt 0.259287 0.856548
vt 0.262465 0.852652
vt 0.257805 0.859788
vt 0.336681 0.856496
vt 0.331766 0.860143
vt 0.331382 0.904019
vt 0.336232 0.907752
vt 0.258850 0.906342
vt 0.257426 0.903077
vt 0.330760 0.972661
vt 0.335055 0.975970
vt 0.330752 0.979186
vt 0.257466 0.740761
vt 0.255704 0.971725
vt 0.336700 0.788267
vt 0.332348 0.791500
vt 0.332454 0.784976
vt 0.262623 0.791589
vt 0.256940 0.791533
vt 0.257286 0.791121
vt 0.259205 0.787624
vt 0.338732 0.911965
vt 0.338208 0.971689
vt 0.339778 0.792603
vt 0.339255 0.852327
vt 0.195167 0.859239
vt 0.256441 0.859776
vt 0.262094 0.851954
vt 0.194359 0.902048
vt 0.262227 0.978852
vt 0.339750 0.742223
vt 0.339384 0.784029
vt 0.256062 0.903065
vt 0.256411 0.851911
vn -0.4931 0.8700 0.0054
vn -0.5218 0.8517 -0.0474
vn -0.5816 0.8134 -0.0102
vn -0.5552 0.8306 0.0435
vn 0.7840 -0.6206 -0.0127
vn 0.7412 -0.6656 0.0867
vn 0.6648 -0.7467 0.0226
vn 0.7023 -0.7080 -0.0746
vn -0.0346 -0.9942 -0.1014
vn 0.0862 -0.9959 -0.0280
vn 0.0210 -0.9957 0.0904
vn -0.1084 -0.9939 0.0227
vn -0.4489 0.5447 -0.7083
vn -0.6362 0.2966 -0.7122
vn -0.6756 0.3779 -0.6330
vn -0.7075 0.4688 -0.5288
vn -0.5952 -0.2724 -0.7560
vn -0.6475 -0.3375 -0.6833
vn -0.6676 -0.2335 -0.7070
vn -0.5542 0.3582 0.7514
vn -0.4316 0.5067 0.7463
vn -0.5961 0.5468 0.5880
vn -0.6576 0.3292 0.6776
vn 0.0662 0.7439 0.6650
vn 0.0130 0.8033 0.5955
vn -0.0629 0.8615 0.5038
vn -0.1762 0.8006 -0.5727
vn 0.0691 0.7701 -0.6342
vn 0.0214 0.7121 -0.7018
vn 0.0005 -0.5543 -0.8323
vn 0.0821 -0.6191 -0.7810
vn 0.0163 -0.7124 -0.7016
vn -0.0693 -0.6612 -0.7470
vn 0.6284 0.7779 -0.0077
vn 0.6665 0.7420 0.0728
vn 0.7428 0.6694 0.0142
vn 0.7099 0.7014 -0.0630
vn 0.5381 0.6240 0.5667
vn 0.5821 0.6418 0.4993
vn 0.5152 0.6795 0.5223
vn 0.6422 0.1586 0.7500
vn 0.6875 0.0714 0.7226
vn 0.7659 0.1215 0.6314
vn 0.7206 0.2052 0.6623
vn -0.0652 0.1480 -0.9868
vn -0.0063 0.2654 -0.9641
vn 0.0809 0.1851 -0.9794
vn 0.0209 0.0764 -0.9969
vn 0.0233 0.9970 -0.0736
vn -0.0484 0.9985 -0.0255
vn -0.0048 0.9981 0.0609
vn 0.0763 0.9969 0.0187
vn 0.0816 0.1347 0.9875
vn 0.0204 0.2426 0.9699
vn -0.0965 0.2064 0.9737
vn -0.0357 0.1050 0.9938
vn -0.9207 0.3821 0.0794
vn -0.8845 0.4660 0.0224
vn -0.9042 0.4218 -0.0675
vn -0.9441 0.3290 -0.0193
vn -0.6044 -0.2534 0.7553
vn -0.6743 -0.2759 0.6850
vn -0.5933 -0.3468 0.7265
vn 0.5873 -0.5338 -0.6084
vn 0.6140 -0.4517 -0.6473
vn 0.6580 -0.4829 -0.5778
vn 0.9970 0.0240 -0.0742
vn 0.9913 0.1308 -0.0148
vn 0.9939 0.0702 0.0853
vn 0.9992 -0.0290 0.0281
vn 0.7554 0.1502 -0.6378
vn 0.7254 0.0579 -0.6859
vn 0.6459 0.1289 -0.7525
vn 0.6758 0.2169 -0.7045
vn 0.5363 0.6787 -0.5018
vn 0.5828 0.6176 -0.5282
vn 0.5149 0.6451 -0.5645
vn 0.5879 -0.4821 0.6495
vn 0.6172 -0.5359 0.5761
vn 0.6575 -0.4591 0.5974
vn -0.8977 -0.4405 0.0108
vn -0.8581 -0.5030 -0.1031
vn -0.7852 -0.6187 -0.0265
vn -0.8204 -0.5649 0.0886
vn -0.3026 -0.5802 0.7562
vn -0.0208 -0.8026 0.5962
vn -0.0305 -0.4194 0.9073
vn 0.2370 -0.6309 0.7388
usemtl Material
s 1
f 18/1/1 24/2/2 21/3/3 13/4/4
f 61/5/5 87/6/6 83/7/7 53/8/8
f 34/9/9 54/10/10 82/11/11 12/12/12
f 28/13/13 29/14/14 37/15/15 22/16/16
f 32/17/17 36/18/18 38/19/19
f 3/20/20 17/21/21 15/22/22 5/23/23
f 17/24/21 65/25/24 73/26/25 19/27/26
f 26/28/27 41/29/28 49/30/29 28/31/13
f 31/32/30 57/33/31 55/34/32 33/35/33
f 43/36/34 75/37/35 71/38/36 45/39/37
f 68/40/38 72/41/39 74/42/40
f 67/43/41 77/44/42 85/45/43 69/46/44
f 22/16/16 26/47/27 28/13/13
f 30/48/45 27/49/46 52/50/47 58/51/48
f 15/22/22 17/52/21 19/53/26
f 42/54/49 25/55/50 20/56/51 76/57/52
f 78/58/53 66/59/54 16/60/55 2/61/56
f 6/62/57 14/63/58 23/64/59 40/65/60
f 4/66/61 8/67/62 10/68/63
f 56/69/64 60/70/65 62/71/66
f 64/72/67 46/73/68 70/74/69 88/75/70
f 47/76/71 63/77/72 59/78/73 51/79/74
f 44/80/75 48/81/76 50/82/77
f 80/83/78 84/84/79 86/85/80
f 7/86/81 39/87/82 35/88/83 11/89/84
f 1/90/85 2/91/56 3/92/20 4/93/61
f 5/94/23 6/95/57 7/96/81 8/97/62
f 9/98/86 10/99/63 11/100/84 12/101/12
f 13/102/4 14/103/58 15/104/22
f 18/105/1 19/53/26 20/106/51
f 21/107/3 22/108/16 23/109/59
f 24/110/2 25/111/50 26/47/27
f 29/112/14 30/113/45 31/114/30 32/115/17
f 33/116/33 34/117/9 35/118/83 36/119/18
f 37/120/15 38/121/19 39/122/82 40/123/60
f 41/124/28 42/125/49 43/126/34 44/127/75
f 45/128/37 46/129/68 47/130/71 48/131/76
f 49/132/29 50/133/77 51/134/74 52/135/47
f 53/136/8 54/137/10 55/138/32 56/139/64
f 57/33/31 58/140/48 59/141/73 60/142/65
f 61/5/5 62/143/66 63/144/72 64/145/67
f 65/146/24 66/147/54 67/148/41 68/149/38
f 69/46/44 70/150/69 71/151/36 72/152/39
f 73/153/25 74/154/40 75/155/35 76/156/52
f 77/157/42 78/158/53 79/159/87 80/160/78
f 81/161/88 82/162/11 83/163/7 84/164/79
f 85/165/43 86/166/80 87/167/6 88/168/70
f 9/169/86 1/170/85 4/66/61 10/68/63
f 3/20/20 5/23/23 8/67/62 4/66/61
f 7/86/81 11/89/84 10/171/63 8/97/62
f 18/172/1 13/173/4 15/22/22 19/53/26
f 21/174/3 24/175/2 26/47/27 22/16/16
f 37/15/15 29/14/14 32/17/17 38/19/19
f 31/114/30 33/176/33 36/18/18 32/17/17
f 35/88/83 39/87/82 38/121/19 36/177/18
f 49/178/29 41/179/28 44/80/75 50/82/77
f 43/126/34 45/180/37 48/81/76 44/80/75
f 47/76/71 51/79/74 50/82/77 48/81/76
f 61/5/5 53/8/8 56/181/64 62/143/66
f 55/34/32 57/33/31 60/142/65 56/182/64
f 59/78/73 63/77/72 62/71/66 60/70/65
f 73/183/25 65/184/24 68/40/38 74/42/40
f 67/43/41 69/46/44 72/41/39 68/40/38
f 71/185/36 75/155/35 74/42/40 72/41/39
f 85/45/43 77/44/42 80/83/78 86/85/80
f 79/186/87 81/187/88 84/188/79 80/160/78
f 83/189/7 87/167/6 86/85/80 84/84/79
f 27/49/46 30/48/45 29/14/14 28/13/13
f 40/65/60 23/64/59 22/16/16 37/15/15
f 25/190/50 42/191/49 41/29/28 26/28/27
f 52/50/47 27/49/46 28/31/13 49/30/29
f 20/56/51 25/55/50 24/2/2 18/1/1
f 23/64/59 14/63/58 13/4/4 21/3/3
f 16/60/55 66/59/54 65/25/24 17/24/21
f 76/192/52 20/193/51 19/27/26 73/26/25
f 2/61/56 16/60/55 17/21/21 3/20/20
f 14/63/58 6/62/57 5/23/23 15/22/22
f 6/62/57 40/65/60 39/87/82 7/86/81
f 34/9/9 12/12/12 11/89/84 35/88/83
f 12/12/12 82/11/11 81/194/88 9/195/86
f 78/58/53 2/61/56 1/196/85 79/186/87
f 64/72/67 88/75/70 87/6/6 61/5/5
f 82/11/11 54/10/10 53/197/8 83/163/7
f 46/129/68 64/198/67 63/77/72 47/76/71
f 58/51/48 52/50/47 51/79/74 59/78/73
f 42/199/49 76/200/52 75/37/35 43/36/34
f 70/74/69 46/73/68 45/39/37 71/38/36
f 30/48/45 58/51/48 57/33/31 31/32/30
f 54/10/10 34/9/9 33/201/33 55/138/32
f 66/59/54 78/58/53 77/44/42 67/43/41
f 88/75/70 70/74/69 69/46/44 85/45/43
f 9/202/86 81/187/88 79/186/87 1/196/85
