# Blender v3.0.1 OBJ File: 'miscellaneous_uv_03.blend'
# www.blender.org
mtllib antenna.mtl
o Antenna_Cube.001_Cube
v 0.880363 1.016016 1.070292
v 0.880363 1.016016 0.000000
v 0.506648 1.317825 0.389395
v 0.506648 1.317825 0.954797
v 0.880363 -1.179981 1.070292
v 0.880363 -1.179980 0.000000
v -0.880363 -1.179981 1.070292
v -0.880363 -1.179980 -0.000000
v -0.880363 1.016015 1.070292
v -0.880363 1.016015 -0.000000
v 0.698927 -0.953692 1.246501
v -0.698927 -0.953693 1.246501
v 0.698927 0.789727 1.246501
v -0.698927 0.789727 1.246501
v -0.506648 1.317825 0.389395
v -0.506648 1.317825 0.954797
v -0.083859 1.129175 0.810348
v -0.083859 2.893818 0.810348
v -0.083322 2.893818 0.828837
v -0.083321 1.129175 0.828837
v -0.092101 2.893818 0.845118
v -0.092101 1.129175 0.845118
v -0.107845 2.893818 0.854827
v -0.107844 1.129175 0.854827
v -0.126334 2.893818 0.855364
v -0.126334 1.129175 0.855364
v -0.142614 2.893818 0.846584
v -0.142614 1.129175 0.846584
v -0.152324 2.893818 0.830841
v -0.152323 1.129175 0.830841
v -0.152861 2.893818 0.812352
v -0.152861 1.129175 0.812352
v -0.144082 2.893818 0.796072
v -0.144081 1.129175 0.796072
v -0.128338 2.893818 0.786362
v -0.128338 1.129175 0.786362
v -0.109848 2.893818 0.785825
v -0.109848 1.129175 0.785825
v -0.182119 2.931632 0.888452
v -0.207470 2.931632 0.847347
v -0.093568 2.893818 0.794604
v -0.093568 1.129175 0.794604
v -0.208872 2.931632 0.799074
v -0.185949 2.931632 0.756566
v -0.144844 2.931632 0.731216
v -0.096571 2.931632 0.729813
v -0.054064 2.931632 0.752736
v -0.096571 3.125846 0.729813
v -0.054064 3.125846 0.752736
v -0.139612 2.931632 0.911374
v -0.091339 2.931632 0.909972
v -0.091339 3.125846 0.909972
v -0.139612 3.125846 0.911374
v -0.207470 3.125846 0.847347
v -0.208872 3.125846 0.799074
v -0.144844 3.125846 0.731216
v -0.050234 2.931632 0.884622
v -0.050234 3.125846 0.884622
v -0.028714 2.931632 0.793841
v -0.027311 2.931632 0.842114
v -0.028714 3.125846 0.793841
v -0.182119 3.125846 0.888452
v -0.027311 3.125846 0.842114
v -0.185949 3.125846 0.756566
v 0.135686 1.216418 0.744634
v 0.135685 2.352725 0.744634
v 0.136032 2.352725 0.756539
v 0.136032 1.216418 0.756539
v 0.130377 2.352725 0.767022
v 0.130378 1.216418 0.767022
v 0.120241 2.352725 0.773275
v 0.120241 1.216418 0.773275
v 0.108335 2.352725 0.773620
v 0.108335 1.216418 0.773620
v 0.097851 2.352725 0.767967
v 0.097852 1.216418 0.767967
v 0.091599 2.352725 0.757830
v 0.091599 1.216418 0.757830
v 0.091253 2.352725 0.745924
v 0.091254 1.216418 0.745924
v 0.096907 2.352725 0.735441
v 0.096907 1.216418 0.735440
v 0.107044 2.352725 0.729188
v 0.107045 1.216418 0.729188
v 0.118949 2.352725 0.728843
v 0.118950 1.216418 0.728843
v 0.072413 2.377074 0.794926
v 0.056088 2.377074 0.768458
v 0.129434 2.352725 0.734496
v 0.129434 1.216418 0.734496
v 0.055186 2.377074 0.737373
v 0.069946 2.377074 0.710002
v 0.096416 2.377074 0.693678
v 0.127500 2.377074 0.692774
v 0.154871 2.377074 0.707535
v 0.127500 2.502135 0.692774
v 0.154871 2.502135 0.707535
v 0.099784 2.377074 0.809687
v 0.130869 2.377074 0.808784
v 0.130869 2.502135 0.808784
v 0.099784 2.502135 0.809687
v 0.056088 2.502135 0.768458
v 0.055186 2.502135 0.737373
v 0.096416 2.502135 0.693678
v 0.157338 2.377074 0.792460
v 0.157338 2.502135 0.792460
v 0.171195 2.377074 0.734004
v 0.172098 2.377074 0.765088
v 0.171195 2.502135 0.734004
v 0.072413 2.502135 0.794926
v 0.172098 2.502135 0.765088
v 0.069946 2.502135 0.710002
vt 0.539158 0.390417
vt 0.459413 0.390417
vt 0.484867 0.352202
vt 0.526993 0.352201
vt 0.555674 0.433234
vt 0.555674 0.368457
vt 0.661420 0.368457
vt 0.661420 0.433234
vt 0.722208 0.365167
vt 0.671043 0.365167
vt 0.671042 0.275835
vt 0.722208 0.275835
vt 0.661418 0.207769
vt 0.661418 0.272545
vt 0.555674 0.272545
vt 0.555674 0.207769
vt 0.650523 0.354598
vt 0.650523 0.286404
vt 0.566571 0.354598
vt 0.566571 0.286404
vt 0.546383 0.364797
vt 0.546383 0.276206
vt 0.484867 0.288801
vt 0.526993 0.288800
vt 0.459413 0.250586
vt 0.539158 0.250586
vt 0.447730 0.375585
vt 0.447730 0.265418
vt 0.995802 0.982452
vt 0.732746 0.982452
vt 0.732746 0.977844
vt 0.995802 0.977844
vt 0.732746 0.973236
vt 0.995802 0.973236
vt 0.732746 0.968629
vt 0.995802 0.968629
vt 0.732746 0.964021
vt 0.995802 0.964021
vt 0.732746 0.959413
vt 0.995802 0.959413
vt 0.732746 0.954805
vt 0.995802 0.954805
vt 0.732746 0.950198
vt 0.995802 0.950198
vt 0.732746 0.945590
vt 0.995802 0.945590
vt 0.732746 0.940982
vt 0.995802 0.940982
vt 0.995802 0.996275
vt 0.732746 0.996275
vt 0.732746 0.991667
vt 0.995802 0.991667
vt 0.717700 0.959413
vt 0.717700 0.954805
vt 0.732746 0.987059
vt 0.995802 0.987059
vt 0.717700 0.950198
vt 0.717700 0.945590
vt 0.717700 0.940982
vt 0.717700 0.996275
vt 0.717700 0.991667
vt 0.717700 0.987059
vt 0.697146 0.991667
vt 0.697146 0.987059
vt 0.717700 0.964021
vt 0.717700 0.968629
vt 0.697146 0.968629
vt 0.697146 0.964021
vt 0.697146 0.954805
vt 0.697146 0.950198
vt 0.697146 0.996275
vt 0.717700 0.973236
vt 0.697146 0.973236
vt 0.717700 0.982452
vt 0.717700 0.977844
vt 0.686307 0.934720
vt 0.690889 0.934721
vt 0.690883 0.951822
vt 0.686301 0.951821
vt 0.682334 0.949528
vt 0.682337 0.937009
vt 0.694857 0.937013
vt 0.694852 0.949532
vt 0.697146 0.945590
vt 0.697146 0.940982
vt 0.680043 0.945559
vt 0.680045 0.940977
vt 0.697146 0.982452
vt 0.697146 0.977844
vt 0.697146 0.959413
vt 0.995802 0.982452
vt 0.732746 0.982452
vt 0.732746 0.977844
vt 0.995802 0.977844
vt 0.732746 0.973236
vt 0.995802 0.973236
vt 0.732746 0.968629
vt 0.995802 0.968629
vt 0.732746 0.964021
vt 0.995802 0.964021
vt 0.732746 0.959413
vt 0.995802 0.959413
vt 0.732746 0.954805
vt 0.995802 0.954805
vt 0.732746 0.950198
vt 0.995802 0.950198
vt 0.732746 0.945590
vt 0.995802 0.945590
vt 0.732746 0.940982
vt 0.995802 0.940982
vt 0.995802 0.996275
vt 0.732746 0.996275
vt 0.732746 0.991667
vt 0.995802 0.991667
vt 0.717700 0.959413
vt 0.717700 0.954805
vt 0.732746 0.987059
vt 0.995802 0.987059
vt 0.717700 0.950198
vt 0.717700 0.945590
vt 0.717700 0.940982
vt 0.717700 0.996275
vt 0.717700 0.991667
vt 0.717700 0.987059
vt 0.697146 0.991667
vt 0.697146 0.987059
vt 0.717700 0.964021
vt 0.717700 0.968629
vt 0.697146 0.968629
vt 0.697146 0.964021
vt 0.697146 0.954805
vt 0.697146 0.950198
vt 0.697146 0.996275
vt 0.717700 0.973236
vt 0.697146 0.973236
vt 0.717700 0.982452
vt 0.717700 0.977844
vt 0.686307 0.934720
vt 0.690889 0.934721
vt 0.690883 0.951822
vt 0.686301 0.951821
vt 0.682334 0.949528
vt 0.682337 0.937009
vt 0.694857 0.937013
vt 0.694852 0.949532
vt 0.697146 0.945590
vt 0.697146 0.940982
vt 0.680043 0.945559
vt 0.680045 0.940977
vt 0.697146 0.982452
vt 0.697146 0.977844
vt 0.697146 0.959413
vn 0.6283 0.7780 0.0000
vn 1.0000 0.0000 0.0000
vn 0.0000 -1.0000 -0.0000
vn -1.0000 -0.0000 -0.0000
vn 0.0000 -0.6144 0.7890
vn 0.0000 0.0000 1.0000
vn -0.0000 0.6144 0.7890
vn -0.6967 -0.0000 0.7174
vn 0.6967 0.0000 0.7174
vn -0.0000 1.0000 0.0000
vn -0.6283 0.7780 0.0000
vn -0.0000 0.3574 0.9340
vn -0.0000 0.7904 -0.6126
vn 0.9580 0.0000 -0.2867
vn 0.9730 0.0000 0.2307
vn 0.7273 0.0000 0.6863
vn 0.2868 -0.0000 0.9580
vn -0.2307 -0.0000 0.9730
vn -0.6863 -0.0000 0.7273
vn -0.9580 -0.0000 0.2868
vn -0.9730 -0.0000 -0.2307
vn -0.7273 -0.0000 -0.6863
vn -0.2868 0.0000 -0.9580
vn 0.2307 0.0000 -0.9730
vn -0.5260 -0.8358 0.1574
vn -0.3768 -0.8358 0.3993
vn 0.6863 0.0000 -0.7273
vn -0.5342 -0.8358 -0.1266
vn -0.3993 -0.8358 -0.3768
vn -0.1574 -0.8358 -0.5260
vn 0.1266 -0.8358 -0.5342
vn -0.1266 -0.8358 0.5342
vn 0.1574 -0.8358 0.5260
vn 0.5260 -0.8358 -0.1574
vn 0.3768 -0.8358 -0.3993
vn 0.5342 -0.8358 0.1266
vn 0.3993 -0.8358 0.3768
vn 0.9580 0.0000 -0.2868
vn -0.6863 -0.0000 0.7274
vn -0.2867 0.0000 -0.9580
usemtl UV
s off
f 1/1/1 2/2/1 3/3/1 4/4/1
f 2/5/2 1/6/2 5/7/2 6/8/2
f 6/9/3 5/10/3 7/11/3 8/12/3
f 8/13/4 7/14/4 9/15/4 10/16/4
f 7/11/5 5/10/5 11/17/5 12/18/5
f 11/17/6 13/19/6 14/20/6 12/18/6
f 1/21/7 9/22/7 14/20/7 13/19/7
f 9/15/8 7/14/8 12/18/8 14/20/8
f 5/7/9 1/6/9 13/19/9 11/17/9
f 15/23/10 16/24/10 4/4/10 3/3/10
f 10/25/11 9/26/11 16/24/11 15/23/11
f 9/22/12 1/21/12 4/4/12 16/24/12
f 2/27/13 10/28/13 15/23/13 3/3/13
s 1
f 17/29/14 18/30/14 19/31/15 20/32/15
f 20/32/15 19/31/15 21/33/16 22/34/16
f 22/34/16 21/33/16 23/35/17 24/36/17
f 24/36/17 23/35/17 25/37/18 26/38/18
f 26/38/18 25/37/18 27/39/19 28/40/19
f 28/40/19 27/39/19 29/41/20 30/42/20
f 30/42/20 29/41/20 31/43/21 32/44/21
f 32/44/21 31/43/21 33/45/22 34/46/22
f 34/46/22 33/45/22 35/47/23 36/48/23
f 36/49/23 35/50/23 37/51/24 38/52/24
f 29/41/25 27/39/26 39/53/26 40/54/25
f 38/52/24 37/51/24 41/55/27 42/56/27
f 42/56/27 41/55/27 18/30/14 17/29/14
f 31/43/28 29/41/25 40/54/25 43/57/28
f 33/45/29 31/43/28 43/57/28 44/58/29
f 35/47/30 33/45/29 44/58/29 45/59/30
f 37/51/31 35/50/30 45/60/30 46/61/31
f 47/62/27 46/61/24 48/63/24 49/64/27
f 50/65/18 51/66/17 52/67/17 53/68/18
f 43/57/21 40/54/20 54/69/20 55/70/21
f 46/61/24 45/60/23 56/71/23 48/63/24
f 51/66/17 57/72/16 58/73/16 52/67/17
f 27/39/26 25/37/32 50/65/32 39/53/26
f 25/37/32 23/35/33 51/66/33 50/65/32
f 18/30/34 41/55/35 47/62/35 59/74/34
f 19/31/36 18/30/34 59/74/34 60/75/36
f 23/35/33 21/33/37 57/72/37 51/66/33
f 41/55/35 37/51/31 46/61/31 47/62/35
f 21/33/37 19/31/36 60/75/36 57/72/37
f 61/76/10 49/77/10 54/78/10 62/79/10
f 62/79/10 53/80/10 63/81/10 61/76/10
f 49/77/10 48/82/10 55/83/10 54/78/10
f 64/84/10 55/83/10 48/82/10 56/85/10
f 63/81/10 53/80/10 52/86/10 58/87/10
f 60/75/15 59/74/38 61/88/38 63/89/15
f 44/58/22 43/57/21 55/70/21 64/84/22
f 39/53/19 50/65/18 53/68/18 62/90/19
f 59/74/38 47/62/27 49/64/27 61/88/38
f 57/72/16 60/75/15 63/89/15 58/73/16
f 45/59/23 44/58/22 64/84/22 56/85/23
f 40/54/20 39/53/19 62/90/19 54/69/20
f 65/91/14 66/92/14 67/93/15 68/94/15
f 68/94/15 67/93/15 69/95/16 70/96/16
f 70/96/16 69/95/16 71/97/17 72/98/17
f 72/98/17 71/97/17 73/99/18 74/100/18
f 74/100/18 73/99/18 75/101/39 76/102/39
f 76/102/39 75/101/39 77/103/20 78/104/20
f 78/104/20 77/103/20 79/105/21 80/106/21
f 80/106/21 79/105/21 81/107/22 82/108/22
f 82/108/22 81/107/22 83/109/40 84/110/40
f 84/111/40 83/112/40 85/113/24 86/114/24
f 77/103/25 75/101/26 87/115/26 88/116/25
f 86/114/24 85/113/24 89/117/27 90/118/27
f 90/118/27 89/117/27 66/92/14 65/91/14
f 79/105/28 77/103/25 88/116/25 91/119/28
f 81/107/29 79/105/28 91/119/28 92/120/29
f 83/109/30 81/107/29 92/120/29 93/121/30
f 85/113/31 83/112/30 93/122/30 94/123/31
f 95/124/27 94/123/24 96/125/24 97/126/27
f 98/127/18 99/128/17 100/129/17 101/130/18
f 91/119/21 88/116/20 102/131/20 103/132/21
f 94/123/24 93/122/40 104/133/40 96/125/24
f 99/128/17 105/134/16 106/135/16 100/129/17
f 75/101/26 73/99/32 98/127/32 87/115/26
f 73/99/32 71/97/33 99/128/33 98/127/32
f 66/92/34 89/117/35 95/124/35 107/136/34
f 67/93/36 66/92/34 107/136/34 108/137/36
f 71/97/33 69/95/37 105/134/37 99/128/33
f 89/117/35 85/113/31 94/123/31 95/124/35
f 69/95/37 67/93/36 108/137/36 105/134/37
f 109/138/10 97/139/10 102/140/10 110/141/10
f 110/141/10 101/142/10 111/143/10 109/138/10
f 97/139/10 96/144/10 103/145/10 102/140/10
f 112/146/10 103/145/10 96/144/10 104/147/10
f 111/143/10 101/142/10 100/148/10 106/149/10
f 108/137/15 107/136/38 109/150/38 111/151/15
f 92/120/22 91/119/21 103/132/21 112/146/22
f 87/115/19 98/127/18 101/130/18 110/152/19
f 107/136/38 95/124/27 97/126/27 109/150/38
f 105/134/16 108/137/15 111/151/15 106/135/16
f 93/121/40 92/120/22 112/146/22 104/147/40
f 88/116/20 87/115/19 110/152/19 102/131/20
