# Blender v3.0.1 OBJ File: 'miscellaneous_uv_03.blend'
# www.blender.org
mtllib brandtrap_segment_01.mtl
o Cube.010_Cube.001
v 0.946686 -0.952784 0.288209
v 0.946686 0.188407 0.288209
v 0.946686 0.869584 -0.396997
v 0.946686 -0.274687 -0.396998
v 1.142988 -0.952784 0.288209
v 1.142988 0.188407 0.288209
v 1.142988 0.869584 -0.396997
v 1.142988 -0.274687 -0.396998
v -1.142987 -0.952784 0.288209
v -1.142987 0.188407 0.288209
v -1.142987 0.869584 -0.396997
v -1.142987 -0.274687 -0.396998
v -0.946684 -0.952784 0.288209
v -0.946684 0.188407 0.288209
v -0.946684 0.869584 -0.396997
v -0.946684 -0.274687 -0.396998
v 0.946686 0.185382 -0.205994
v -0.946684 0.185382 -0.205994
v -0.946684 0.185382 0.288209
v 0.946686 0.185382 0.288209
v -0.946684 0.146776 -0.205994
v 0.946686 0.146776 -0.205994
v 0.946686 0.146776 0.288209
v -0.946684 0.146776 0.288209
vt 0.082614 0.424403
vt 0.082614 0.458666
vt 0.062041 0.479118
vt 0.062041 0.444762
vt 0.088508 0.424402
vt 0.088508 0.458666
vt 0.088508 0.487675
vt 0.082614 0.487675
vt 0.082614 0.395458
vt 0.088508 0.395458
vt 0.109081 0.444762
vt 0.109081 0.479118
vt 0.082614 0.424403
vt 0.082614 0.458666
vt 0.062041 0.479118
vt 0.062041 0.444762
vt 0.088508 0.424402
vt 0.088508 0.458666
vt 0.088508 0.487675
vt 0.082614 0.487675
vt 0.082614 0.395458
vt 0.088508 0.395458
vt 0.109081 0.444762
vt 0.109081 0.479118
vt 0.113783 0.422546
vt 0.170630 0.422546
vt 0.170630 0.437384
vt 0.113783 0.437384
vt 0.170630 0.453381
vt 0.113783 0.453381
vt 0.113783 0.438543
vt 0.170630 0.438543
vt 0.170630 0.421387
vt 0.113783 0.421387
vn -1.0000 -0.0000 0.0000
vn 0.0000 0.0000 1.0000
vn 0.0000 0.7092 0.7050
vn 0.0000 -0.7108 -0.7034
vn 1.0000 -0.0000 0.0000
vn 0.0000 1.0000 0.0000
vn 0.0000 -1.0000 -0.0000
vn 0.0000 0.0000 -1.0000
usemtl UV
s 1
f 1/1/1 2/2/1 3/3/1 4/4/1
f 5/5/2 6/6/2 2/2/2 1/1/2
f 7/7/3 3/8/3 2/2/3 6/6/3
f 4/9/4 8/10/4 5/5/4 1/1/4
f 5/5/5 8/11/5 7/12/5 6/6/5
f 9/13/1 10/14/1 11/15/1 12/16/1
f 13/17/2 14/18/2 10/14/2 9/13/2
f 15/19/3 11/20/3 10/14/3 14/18/3
f 12/21/4 16/22/4 13/17/4 9/13/4
f 13/17/5 16/23/5 15/24/5 14/18/5
f 17/25/6 18/26/6 19/27/6 20/28/6
f 21/29/7 22/30/7 23/31/7 24/32/7
f 23/31/2 20/28/2 19/27/2 24/32/2
f 21/33/8 18/26/8 17/25/8 22/34/8
