# Blender v3.0.1 OBJ File: 'miscellaneous_uv_03.blend'
# www.blender.org
mtllib brandtrap_segment_04.mtl
o Cube.012_Cube.001
v -2.783412 0.122811 -5.470321
v 2.611343 0.122811 -5.470321
v 2.611343 -0.122809 -5.470321
v -2.783412 -0.122809 -5.470321
v -2.783412 0.122808 5.470326
v -2.695661 0.122810 5.256101
v -2.695661 0.122811 -5.256096
v 2.611343 -0.122811 5.470326
v 2.510077 -0.122811 5.256101
v 2.510077 -0.122809 -5.256096
v 2.611343 0.122808 5.470326
v -2.695661 -0.122811 5.256101
v -2.783412 -0.122811 5.470326
v -2.695661 -0.122809 -5.256096
v 2.510077 0.122810 5.256101
v 2.510077 0.122811 -5.256096
vt 0.056109 0.257685
vt 0.176063 0.257685
vt 0.176063 0.252223
vt 0.056109 0.252223
vt 0.056109 0.500954
vt 0.058060 0.496190
vt 0.058060 0.262449
vt 0.181524 0.500954
vt 0.183776 0.496190
vt 0.183776 0.262449
vt 0.181524 0.257685
vt 0.176063 0.500954
vt 0.299527 0.496190
vt 0.301478 0.500954
vt 0.301478 0.257685
vt 0.299527 0.262449
vt 0.173811 0.496190
vt 0.173811 0.262449
vt 0.030181 0.414437
vt 0.030181 0.287135
vt 0.024174 0.287135
vt 0.024174 0.414437
vt 0.050648 0.257685
vt 0.050648 0.500954
vt 0.011489 0.287132
vt 0.011489 0.030067
vt 0.017496 0.030067
vt 0.017496 0.287132
vt 0.011489 0.414437
vt 0.017496 0.414437
vt 0.024174 0.030067
vt 0.030181 0.030067
vt 0.056108 0.506415
vt 0.176063 0.506415
vn 0.0000 0.0000 -1.0000
vn -0.0000 1.0000 0.0000
vn 0.0000 -1.0000 -0.0000
vn 1.0000 0.0000 0.0000
vn -1.0000 0.0000 0.0000
vn 0.0000 0.0000 1.0000
usemtl UV
s 1
f 1/1/1 2/2/1 3/3/1 4/4/1
f 5/5/2 6/6/2 7/7/2 1/1/2
f 8/8/3 9/9/3 10/10/3 3/11/3
f 2/2/4 11/12/4 8/8/4 3/11/4
f 12/13/3 13/14/3 4/15/3 14/16/3
f 13/14/3 12/13/3 9/9/3 8/8/3
f 15/17/2 11/12/2 2/2/2 16/18/2
f 6/19/1 15/20/1 9/21/1 12/22/1
f 6/6/2 5/5/2 11/12/2 15/17/2
f 5/5/5 1/1/5 4/23/5 13/24/5
f 7/25/4 6/26/4 12/27/4 14/28/4
f 16/29/6 7/25/6 14/28/6 10/30/6
f 10/31/5 9/21/5 15/20/5 16/32/5
f 14/16/3 4/15/3 3/11/3 10/10/3
f 1/1/2 7/7/2 16/18/2 2/2/2
f 11/12/6 5/5/6 13/33/6 8/34/6
