# Blender v3.0.1 OBJ File: 'miscellaneous_uv_03.blend'
# www.blender.org
mtllib brandtrap_segment_03.mtl
o Cube.011_Cube.001
v -0.043875 -1.342392 0.043875
v -0.043875 1.342392 0.043875
v -0.043875 1.342392 -0.043875
v -0.043875 -1.342392 -0.043875
v 0.043875 1.342392 -0.043875
v 0.043875 -1.342392 -0.043875
v 0.043875 1.342392 0.043875
v 0.043875 -1.342392 0.043875
vt 0.093336 0.358407
vt 0.093336 0.278943
vt 0.090739 0.278943
vt 0.090739 0.358407
vt 0.101128 0.358407
vt 0.101128 0.278943
vt 0.098530 0.278943
vt 0.098530 0.358407
vt 0.095933 0.278943
vt 0.095933 0.358407
vn -1.0000 0.0000 0.0000
vn 0.0000 0.0000 -1.0000
vn 1.0000 -0.0000 0.0000
vn 0.0000 -0.0000 1.0000
usemtl UV
s 1
f 1/1/1 2/2/1 3/3/1 4/4/1
f 4/5/2 3/6/2 5/7/2 6/8/2
f 6/8/3 5/7/3 7/9/3 8/10/3
f 8/10/4 7/9/4 2/2/4 1/1/4
