# Blender v3.0.1 OBJ File: 'buildings_parts_modules uv_05.blend'
# www.blender.org
mtllib buildings_parts_cylinder_windowed_and door.mtl
o Hexoganal_module_03.012_Cylinder.010
v -9.436401 0.000000 -4.297413
v -9.436401 5.462761 -4.210441
v -9.436401 6.311871 -3.952868
v -9.436401 7.094414 -3.534590
v -9.436401 7.780319 -2.971683
v -9.436401 8.343227 -2.285779
v -9.436401 8.761507 -1.503236
v -9.436401 9.019081 -0.654128
v -9.436401 0.000000 4.755247
v -9.436401 5.462761 4.668276
v -9.436401 6.311871 4.410703
v -9.436401 7.094414 3.992425
v -9.436401 7.780319 3.429518
v -9.436401 8.343227 2.743614
v -9.436401 8.761507 1.961071
v -9.436401 9.019081 1.111962
v -9.436401 9.106052 0.228917
v -4.878540 2.670868 4.654665
v -3.695374 0.000000 4.755247
v -8.253235 2.670868 4.654665
v -3.695374 5.462761 4.668276
v -8.253235 5.090666 4.603542
v -4.878540 5.090666 4.603542
v -4.824234 5.129607 4.685377
v -8.307537 5.129607 4.685377
v -8.307537 2.631928 4.738146
v -4.824234 2.631928 4.738146
v -2.632019 0.175204 4.743485
v -2.632019 4.944504 4.680037
v -2.632019 0.173359 4.604826
v -2.632019 4.942662 4.541378
v 9.436455 0.000000 -4.297414
v 9.436455 5.462761 -4.210442
v 9.436455 6.311871 -3.952869
v 9.436455 7.094414 -3.534591
v 9.436455 7.780319 -2.971685
v 9.436455 8.343227 -2.285780
v 9.436455 8.761507 -1.503238
v 9.436455 9.019081 -0.654129
v 9.436455 0.000000 4.755246
v 9.436455 5.462761 4.668275
v 9.436455 6.311871 4.410702
v 9.436455 7.094414 3.992424
v 9.436455 7.780319 3.429517
v 9.436455 8.343227 2.743613
v 9.436455 8.761507 1.961069
v 9.436455 9.019081 1.111961
v 9.436455 9.106052 0.228916
v 4.878593 2.670868 4.654664
v 3.695427 0.000000 4.755246
v 8.253288 2.670868 4.654664
v 3.695427 5.462761 4.668275
v 8.253288 5.090666 4.603540
v 4.878593 5.090666 4.603540
v 4.824291 5.129607 4.685376
v 8.307590 5.129607 4.685376
v 8.307590 2.631928 4.738145
v 4.824291 2.631928 4.738145
v 2.632076 0.175204 4.743485
v 2.632076 4.944504 4.680037
v 2.632076 0.173359 4.604826
v 2.632076 4.942662 4.541378
v -9.436401 5.408543 -3.947078
v -9.436401 0.146309 -4.028890
v -9.436401 6.226482 -3.704785
v -9.436401 6.980299 -3.311322
v -9.436401 7.641027 -2.781809
v -9.436401 8.183270 -2.136596
v -9.436401 8.586195 -1.400477
v -9.436401 8.834314 -0.601741
v -9.436401 8.918095 0.228917
v -9.436401 6.980299 3.769157
v -9.436401 6.226482 4.162621
v -9.436401 5.408543 4.404913
v -9.436401 0.146309 4.486725
v -9.436401 7.641027 3.239644
v -9.436401 8.183270 2.594431
v -9.436401 8.586195 1.858312
v -9.436401 8.834314 1.059576
v 9.436455 5.408543 -3.947079
v 9.436455 0.146309 -4.028892
v 9.436455 6.226482 -3.704787
v 9.436455 6.980299 -3.311324
v 9.436455 7.641027 -2.781811
v 9.436455 8.183270 -2.136597
v 9.436455 8.586195 -1.400478
v 9.436455 8.834314 -0.601743
v 9.436455 8.918095 0.228916
v 9.436455 6.226482 4.162620
v 9.436455 5.408543 4.404912
v 9.436455 0.146309 4.486724
v 9.436455 6.980299 3.769156
v 9.436455 7.641027 3.239643
v 9.436455 8.183270 2.594429
v 9.436455 8.586195 1.858310
v 9.436455 8.834314 1.059575
v -9.233536 5.408543 -3.947078
v -9.233536 0.146309 -4.028890
v -9.233536 6.226482 -3.704785
v -9.233536 6.980299 -3.311322
v -9.233536 7.641027 -2.781809
v -9.233536 8.183270 -2.136596
v -9.233536 8.586195 -1.400477
v -9.233536 8.834314 -0.601742
v -9.233536 8.918095 0.228917
v -9.233536 6.980299 3.769157
v -9.233536 6.226482 4.162621
v -9.233536 5.408543 4.404913
v -9.233536 0.146309 4.486725
v -9.233536 7.641027 3.239644
v -9.233536 8.183270 2.594431
v -9.233536 8.586195 1.858312
v -9.233536 8.834314 1.059576
v 9.233589 5.408543 -3.947079
v 9.233589 0.146309 -4.028892
v 9.233589 6.226482 -3.704787
v 9.233589 6.980299 -3.311324
v 9.233589 7.641027 -2.781811
v 9.233589 8.183270 -2.136597
v 9.233589 8.586195 -1.400478
v 9.233589 8.834314 -0.601743
v 9.233589 8.918095 0.228916
v 9.233589 6.226482 4.162620
v 9.233589 5.408543 4.404912
v 9.233589 0.146309 4.486724
v 9.233589 6.980299 3.769156
v 9.233589 7.641027 3.239643
v 9.233589 8.183270 2.594429
v 9.233589 8.586195 1.858310
v 9.233589 8.834314 1.059575
vt 0.982701 0.220556
vt 0.982116 0.226087
vt 0.982169 0.215019
vt 0.724293 0.220111
vt 0.724844 0.214647
vt 0.724844 0.225575
vt 0.980768 0.238610
vt 0.976701 0.243517
vt 0.975706 0.242149
vt 0.979624 0.237533
vt 0.734967 0.246809
vt 0.730102 0.242816
vt 0.731132 0.241427
vt 0.735811 0.245176
vt 0.972016 0.193470
vt 0.976923 0.197537
vt 0.975916 0.198896
vt 0.971188 0.195069
vt 0.734967 0.193413
vt 0.740518 0.190446
vt 0.741147 0.192260
vt 0.735811 0.195046
vt 0.971754 0.247537
vt 0.970942 0.245929
vt 0.827698 0.058561
vt 0.785908 0.058363
vt 0.793646 0.056121
vt 0.819249 0.056121
vt 0.793646 0.037081
vt 0.794385 0.037733
vt 0.794385 0.055439
vt 0.880381 0.058879
vt 0.921698 0.059022
vt 0.921674 0.065440
vt 0.819249 0.037081
vt 0.818499 0.037733
vt 0.827037 0.018362
vt 0.784979 0.018362
vt 0.818499 0.055439
vt 0.785886 0.064783
vt 0.872605 0.019477
vt 0.871575 0.020603
vt 0.835692 0.020603
vt 0.834580 0.019477
vt 0.834580 0.054811
vt 0.835692 0.054045
vt 0.740518 0.249776
vt 0.741148 0.247962
vt 0.826285 0.252419
vt 0.785294 0.187086
vt 0.921082 0.187744
vt 0.879461 0.252677
vt 0.966409 0.190438
vt 0.965787 0.192217
vt 0.746542 0.188619
vt 0.746939 0.190545
vt 0.888239 0.056634
vt 0.913665 0.056634
vt 0.912927 0.055957
vt 0.912927 0.038425
vt 0.913666 0.037776
vt 0.888979 0.038425
vt 0.888239 0.037776
vt 0.785855 0.071167
vt 0.921643 0.071824
vt 0.921613 0.078209
vt 0.785824 0.077551
vt 0.921582 0.084593
vt 0.785793 0.083935
vt 0.879597 0.018362
vt 0.921551 0.090977
vt 0.785762 0.090320
vt 0.921622 0.018362
vt 0.785732 0.096704
vt 0.921520 0.097361
vt 0.921489 0.103745
vt 0.785701 0.103088
vt 0.785484 0.147777
vt 0.921273 0.148435
vt 0.888979 0.055957
vt 0.920767 0.252876
vt 0.785515 0.141393
vt 0.921304 0.142050
vt 0.785546 0.135009
vt 0.921334 0.135666
vt 0.785577 0.128625
vt 0.921365 0.129282
vt 0.785608 0.122240
vt 0.921396 0.122898
vt 0.785639 0.115856
vt 0.921427 0.116514
vt 0.921458 0.110129
vt 0.785669 0.109472
vt 0.872605 0.055117
vt 0.871575 0.054045
vt 0.966119 0.250514
vt 0.965514 0.248729
vt 0.960319 0.188558
vt 0.959920 0.190448
vt 0.784195 0.189965
vt 0.960010 0.252335
vt 0.959630 0.250441
vt 0.746542 0.251603
vt 0.746938 0.249677
vt 0.922124 0.189677
vt 0.921828 0.250846
vt 0.784979 0.252219
vt 0.784195 0.250257
vt 0.732693 0.239915
vt 0.737040 0.243398
vt 0.979789 0.203549
vt 0.977882 0.204772
vt 0.974290 0.200456
vt 0.984354 0.226530
vt 0.982544 0.232259
vt 0.980437 0.231401
vt 0.741998 0.245987
vt 0.969905 0.196907
vt 0.977729 0.236292
vt 0.747379 0.247580
vt 0.964895 0.194261
vt 0.974095 0.240573
vt 0.781993 0.248119
vt 0.959453 0.192620
vt 0.969676 0.244079
vt 0.924397 0.191905
vt 0.964642 0.246677
vt 0.959184 0.248264
vt 0.722091 0.220111
vt 0.722684 0.214230
vt 0.730102 0.197406
vt 0.731132 0.198795
vt 0.980943 0.202483
vt 0.726108 0.237950
vt 0.727293 0.236859
vt 0.983799 0.233003
vt 0.726108 0.202272
vt 0.727293 0.203363
vt 0.983920 0.208119
vt 0.982657 0.208851
vt 0.723141 0.232398
vt 0.724441 0.231647
vt 0.985679 0.226913
vt 0.723141 0.207823
vt 0.724441 0.208575
vt 0.985741 0.214227
vt 0.984412 0.214597
vt 0.721314 0.226375
vt 0.722684 0.225992
vt 0.986335 0.220573
vt 0.984985 0.220567
vt 0.721314 0.213847
vt 0.720697 0.220111
vt 0.729127 0.235671
vt 0.726476 0.230829
vt 0.726476 0.209393
vt 0.729127 0.204551
vt 0.737040 0.196823
vt 0.741998 0.194235
vt 0.732693 0.200307
vt 0.747379 0.192641
vt 0.924123 0.248640
vt 0.980542 0.209689
vt 0.781993 0.192103
vn 1.0000 0.0000 0.0000
vn -1.0000 0.0000 0.0000
vn 0.0041 0.1568 0.9876
vn -0.0074 0.1585 0.9873
vn -0.0070 0.0380 0.9993
vn 0.0070 0.0380 0.9993
vn 0.8357 0.0116 0.5490
vn -0.0041 0.1568 0.9876
vn 0.0074 0.1585 0.9873
vn 0.0000 0.3827 0.9239
vn 0.0000 0.9063 0.4227
vn 0.0034 0.0147 0.9999
vn 0.0104 0.0129 0.9999
vn -0.0046 0.0093 0.9999
vn -0.0104 0.0129 0.9999
vn -0.8357 0.0116 0.5491
vn 0.0000 -0.9030 0.4297
vn 0.0000 0.9999 -0.0133
vn 0.0009 0.0478 0.9989
vn 0.0010 0.0193 0.9998
vn 0.0000 -1.0000 0.0000
vn -0.8357 0.0116 0.5490
vn 0.0000 0.5556 0.8315
vn 0.0000 0.7071 0.7071
vn 0.0000 0.8315 0.5556
vn -0.0034 0.0147 0.9999
vn 0.0000 0.9239 0.3827
vn 0.0046 0.0093 0.9999
vn 0.0000 0.9808 0.1951
vn 0.0000 1.0000 -0.0000
vn -0.0000 0.0159 -0.9999
vn -0.0000 0.1546 -0.9880
vn -0.0000 0.3827 -0.9239
vn -0.0000 0.5556 -0.8315
vn -0.0000 0.7071 -0.7071
vn -0.0000 0.8315 -0.5556
vn -0.0000 0.9239 -0.3827
vn -0.0000 0.9808 -0.1951
vn -0.0010 0.0193 0.9998
vn -0.0009 0.0478 0.9989
vn 0.0000 -0.5466 -0.8374
vn 0.0000 -0.6988 -0.7153
vn 0.0000 -0.6988 0.7153
vn 0.0000 -0.8254 0.5645
vn -0.0000 -0.9799 -0.1995
vn -0.0000 -0.9207 -0.3903
vn 0.0000 -0.3751 -0.9270
vn 0.0000 -0.5466 0.8374
vn 0.0000 -0.8254 -0.5645
vn 0.0000 -0.1512 -0.9885
vn 0.0000 -0.3751 0.9270
vn 0.0000 -0.0155 -0.9999
vn 0.0000 -0.1512 0.9885
vn 0.0000 -0.0155 0.9999
vn 0.0000 -0.9799 0.1995
vn 0.0000 -0.9207 0.3903
vn 0.0000 -0.9999 0.0133
usemtl UV
s off
f 122/1/1 130/2/1 121/3/1
f 105/4/2 104/5/2 113/6/2
s 1
f 45/7/1 44/8/1 93/9/1 94/10/1
f 12/11/2 13/12/2 76/13/2 72/14/2
f 35/15/1 36/16/1 84/17/1 83/18/1
f 4/19/2 3/20/2 65/21/2 66/22/2
f 44/8/1 43/23/1 92/24/1 93/9/1
f 21/25/3 10/26/4 25/27/5 24/28/6
f 25/27/7 26/29/7 20/30/7 22/31/7
f 52/32/8 41/33/9 42/34/10
f 26/29/11 27/35/11 18/36/11 20/30/11
f 19/37/12 21/25/3 24/28/6 27/35/13
f 9/38/14 19/37/12 27/35/13 26/29/15
f 10/26/4 9/38/14 26/29/15 25/27/5
f 27/35/16 24/28/16 23/39/16 18/36/16
f 42/34/10 11/40/10 21/25/3 52/32/8
f 24/28/17 25/27/17 22/31/17 23/39/17
f 59/41/18 61/42/18 30/43/18 28/44/18
f 21/25/3 19/37/12 28/44/19 29/45/20
f 29/45/1 28/44/1 30/43/1 31/46/1
f 11/47/2 12/11/2 72/14/2 73/48/2
f 21/25/3 11/40/10 10/26/4
f 19/49/21 1/50/21 32/51/21 50/52/21
f 34/53/1 35/15/1 83/18/1 82/54/1
f 3/20/2 2/55/2 63/56/2 65/21/2
f 52/32/8 55/57/5 56/58/6 41/33/9
f 56/58/22 53/59/22 51/60/22 57/61/22
f 57/61/11 51/60/11 49/62/11 58/63/11
f 12/64/23 43/65/23 44/66/24 13/67/24
f 13/67/24 44/66/24 45/68/25 14/69/25
f 50/70/26 58/63/15 55/57/5 52/32/8
f 14/69/25 45/68/25 46/71/27 15/72/27
f 40/73/28 57/61/13 58/63/15 50/70/26
f 16/74/29 47/75/29 48/76/30 17/77/30
f 41/33/9 56/58/6 57/61/13 40/73/28
f 16/74/29 15/72/27 46/71/27 47/75/29
f 32/51/31 1/50/31 2/78/32 33/79/32
f 58/63/7 49/62/7 54/80/7 55/57/7
f 40/81/21 50/52/21 32/51/21
f 3/82/33 34/83/33 33/79/32 2/78/32
f 4/84/34 35/85/34 34/83/33 3/82/33
f 35/85/34 4/84/34 5/86/35 36/87/35
f 6/88/36 37/89/36 36/87/35 5/86/35
f 7/90/37 38/91/37 37/89/36 6/88/36
f 17/77/30 48/76/30 39/92/38 8/93/38
f 8/93/38 39/92/38 38/91/37 7/90/37
f 11/40/10 42/34/10 43/65/23 12/64/23
f 55/57/17 54/80/17 53/59/17 56/58/17
f 52/32/8 60/94/39 59/41/40 50/70/26
f 60/94/2 62/95/2 61/42/2 59/41/2
f 43/23/1 42/96/1 89/97/1 92/24/1
f 33/98/1 34/53/1 82/54/1 80/99/1
f 2/55/2 1/50/2 64/100/2 63/56/2
f 42/96/1 41/101/1 90/102/1 89/97/1
f 10/103/2 11/47/2 73/48/2 74/104/2
f 32/51/1 33/98/1 80/99/1 81/105/1
f 41/101/1 40/81/1 91/106/1 90/102/1
f 9/107/2 10/103/2 74/104/2 75/108/2
f 1/50/21 19/49/21 9/107/21
f 50/70/26 59/41/40 28/44/19 19/37/12
f 29/45/20 60/94/39 52/32/8 21/25/3
f 72/14/41 76/13/42 110/109/42 106/110/41
f 84/17/43 85/111/44 119/112/44 118/113/43
f 96/114/45 95/115/46 129/116/46 130/2/45
f 73/48/47 72/14/41 106/110/41 107/117/47
f 83/18/48 84/17/43 118/113/43 117/118/48
f 95/115/46 94/10/49 128/119/49 129/116/46
f 74/104/50 73/48/47 107/117/47 108/120/50
f 82/54/51 83/18/48 117/118/48 116/121/51
f 94/10/49 93/9/42 127/122/42 128/119/49
f 75/108/52 74/104/50 108/120/50 109/123/52
f 80/99/53 82/54/51 116/121/51 114/124/53
f 93/9/42 92/24/41 126/125/41 127/122/42
f 81/105/54 80/99/53 114/124/53 115/126/54
f 92/24/41 89/97/47 123/127/47 126/125/41
f 89/97/47 90/102/50 124/128/50 123/127/47
f 71/129/21 70/130/55 104/5/55 105/4/21
f 5/131/2 4/19/2 66/22/2 67/132/2
f 36/16/1 37/133/1 85/111/1 84/17/1
f 13/12/2 14/134/2 77/135/2 76/13/2
f 46/136/1 45/7/1 94/10/1 95/115/1
f 6/137/2 5/131/2 67/132/2 68/138/2
f 37/133/1 38/139/1 86/140/1 85/111/1
f 14/134/2 15/141/2 78/142/2 77/135/2
f 47/143/1 46/136/1 95/115/1 96/114/1
f 7/144/2 6/137/2 68/138/2 69/145/2
f 40/81/1 32/51/1 81/105/1 91/106/1
f 38/139/1 39/146/1 87/147/1 86/140/1
f 15/141/2 16/148/2 79/149/2 78/142/2
f 48/150/1 47/143/1 96/114/1 88/151/1
f 8/152/2 7/144/2 69/145/2 70/130/2
f 39/146/1 48/150/1 88/151/1 87/147/1
f 16/148/2 17/153/2 71/129/2 79/149/2
f 17/153/2 8/152/2 70/130/2 71/129/2
f 1/50/2 9/107/2 75/108/2 64/100/2
f 111/154/2 112/155/2 103/156/2 102/157/2
f 107/117/2 106/110/2 100/158/2 99/159/2
f 110/109/2 111/154/2 102/157/2 101/160/2
f 108/120/2 107/117/2 99/159/2 97/161/2
f 106/110/2 110/109/2 101/160/2 100/158/2
f 126/125/1 123/127/1 116/121/1 117/118/1
f 123/127/1 124/128/1 114/124/1 116/121/1
f 114/124/1 124/128/1 125/162/1 115/126/1
f 127/122/1 126/125/1 117/118/1 118/113/1
f 128/119/1 127/122/1 118/113/1 119/112/1
f 129/116/1 128/119/1 119/112/1 120/163/1
f 130/2/1 129/116/1 120/163/1 121/3/1
f 112/155/2 113/6/2 104/5/2 103/156/2
f 98/164/2 109/123/2 108/120/2 97/161/2
f 88/151/21 96/114/45 130/2/45 122/1/21
f 63/56/53 64/100/54 98/164/54 97/161/53
f 85/111/44 86/140/56 120/163/56 119/112/44
f 76/13/42 77/135/49 111/154/49 110/109/42
f 91/106/30 81/105/30 115/126/30 125/162/30
f 65/21/51 63/56/53 97/161/53 99/159/51
f 86/140/56 87/147/55 121/3/55 120/163/56
f 77/135/49 78/142/46 112/155/46 111/154/49
f 66/22/48 65/21/51 99/159/51 100/158/48
f 87/147/55 88/151/21 122/1/21 121/3/55
f 78/142/46 79/149/45 113/6/45 112/155/46
f 67/132/43 66/22/48 100/158/48 101/160/43
f 79/149/45 71/129/21 105/4/21 113/6/45
f 68/138/44 67/132/43 101/160/43 102/157/44
f 64/100/30 75/108/30 109/123/30 98/164/30
f 69/145/56 68/138/44 102/157/44 103/156/56
f 70/130/55 69/145/56 103/156/56 104/5/55
f 90/102/50 91/106/52 125/162/52 124/128/50
f 31/46/57 62/95/57 60/94/57 29/45/57
