# Blender v3.0.1 OBJ File: 'buildings_parts_modules uv_05.blend'
# www.blender.org
mtllib buildings_parts_window.mtl
o Hexoganal_module_03.009_Cylinder.007
v 2.245338 0.000000 0.711971
v 0.229118 0.000000 -0.315343
v -1.370964 0.000000 -1.915426
v 2.245338 8.203423 0.711971
v 0.229118 8.203423 -0.315343
v -1.370964 8.203423 -1.915426
v 1.732719 8.203423 1.417534
v 1.732719 0.000000 1.417534
v -0.283501 8.239313 0.390218
v -0.283501 0.035889 0.390218
v -1.883583 8.203423 -1.209864
v -1.883583 0.000000 -1.209864
v 1.612732 7.939379 1.337907
v 1.612732 0.264038 1.337907
v -0.287086 7.975267 0.395159
v -0.287086 0.299931 0.395159
v -1.770775 7.939379 -1.120355
v -1.770775 0.264038 -1.120355
v 1.724586 7.939379 1.183955
v 1.724586 0.264038 1.183955
v -0.175240 7.939379 0.241207
v -0.175240 0.264038 0.241207
v -1.658920 7.939379 -1.274307
v -1.658920 0.264038 -1.274307
vt 0.967006 0.368507
vt 0.967006 0.423503
vt 0.946380 0.423503
vt 0.946380 0.368507
vt 0.716034 0.368507
vt 0.716034 0.313510
vt 0.736661 0.313510
vt 0.736661 0.368507
vt 0.946380 0.313510
vt 0.939558 0.368507
vt 0.939558 0.313510
vt 0.736661 0.423503
vt 0.743483 0.368507
vt 0.743483 0.423503
vt 0.935032 0.457433
vt 0.748009 0.457433
vt 0.748009 0.435545
vt 0.935032 0.435545
vt 0.748009 0.279581
vt 0.935032 0.279581
vt 0.935032 0.301468
vt 0.748009 0.301468
vt 0.967006 0.313510
vt 0.716034 0.423503
vt 0.748009 0.368507
vt 0.748009 0.423503
vt 0.939558 0.423503
vt 0.935032 0.423503
vt 0.935032 0.368507
vt 0.743483 0.313510
vt 0.748009 0.428306
vt 0.935032 0.428306
vt 0.935032 0.308707
vt 0.748009 0.308707
vt 0.748009 0.313510
vt 0.935032 0.313510
vn 0.0121 0.9998 -0.0166
vn 0.0082 0.9998 -0.0194
vn -0.0121 -0.9998 0.0166
vn -0.0159 -0.9998 0.0138
vn -0.4828 -0.0145 0.8756
vn -0.5877 -0.0214 0.8088
vn -0.5876 -0.0214 0.8088
vn -0.5087 -0.0092 0.8609
vn -0.6833 0.0145 0.7300
vn -0.5876 0.0216 0.8088
vn -0.6621 0.0094 0.7493
vn -0.8090 0.0000 -0.5878
vn 0.8090 0.0000 0.5878
vn 0.0160 0.9998 -0.0138
vn -0.0082 -0.9998 0.0194
vn 0.0611 0.9956 -0.0716
vn 0.0552 0.9956 -0.0760
vn -0.0552 -0.9956 0.0760
vn -0.0611 -0.9956 0.0716
vn -0.4831 0.0145 0.8755
vn -0.5081 0.0094 0.8613
vn -0.6835 -0.0145 0.7298
vn -0.6615 -0.0092 0.7499
vn -0.5878 0.0000 0.8090
vn -0.7146 0.0000 0.6996
vn -0.4445 0.0000 0.8958
vn -0.0492 -0.9956 0.0803
vn 0.0492 0.9956 -0.0803
usemtl UV
s 1
f 5/1/1 6/2/2 11/3/2 9/4/1
f 2/5/3 1/6/4 8/7/4 10/8/3
f 7/9/5 9/4/6 15/10/7 13/11/8
f 12/12/9 10/8/10 16/13/10 18/14/11
f 6/15/12 3/16/12 12/17/12 11/18/12
f 1/19/13 4/20/13 7/21/13 8/22/13
f 4/23/14 5/1/1 9/4/1 7/9/14
f 3/24/15 2/5/3 10/8/3 12/12/15
f 18/14/16 16/13/17 22/25/17 24/26/16
f 15/10/18 17/27/19 23/28/19 21/29/18
f 10/8/10 8/7/20 14/30/21 16/13/10
f 11/18/22 12/17/9 18/31/11 17/32/23
f 8/22/20 7/21/5 13/33/8 14/34/21
f 9/4/6 11/3/22 17/27/23 15/10/7
f 22/25/24 21/29/24 23/28/25 24/26/25
f 20/35/26 19/36/26 21/29/24 22/25/24
f 13/11/27 15/10/18 21/29/18 19/36/27
f 16/13/17 14/30/28 20/35/28 22/25/17
f 17/32/13 18/31/13 24/26/13 23/28/13
f 14/34/12 13/33/12 19/36/12 20/35/12
