# Blender v3.0.1 OBJ File: 'buildings_parts_modules uv_05.blend'
# www.blender.org
mtllib buildings_parts_cylinder_windowed_02.mtl
o Hexoganal_module_03.013_Cylinder.011
v 8.746576 0.000000 -3.919602
v -8.735220 0.000000 -3.919601
v 8.746576 5.544819 -3.831324
v -8.735220 5.544819 -3.831323
v 8.746576 6.406685 -3.569882
v -8.735220 6.406685 -3.569880
v 8.746576 7.200981 -3.145321
v -8.735220 7.200981 -3.145320
v 8.746576 7.897186 -2.573959
v -8.735220 7.897190 -2.573957
v 8.746576 8.468552 -1.877751
v -8.735220 8.468555 -1.877750
v 8.746576 8.893112 -1.083453
v -8.735220 8.893116 -1.083452
v 8.746576 9.154560 -0.221590
v -8.735220 9.154560 -0.221588
v 8.746576 0.000000 5.269042
v -8.735220 0.000000 5.269043
v 8.746576 5.544819 5.180764
v -8.735220 5.544819 5.180765
v 8.746576 6.406685 4.919321
v -8.735220 6.406685 4.919322
v 8.746576 7.200981 4.494761
v -8.735220 7.200981 4.494762
v 8.746576 7.897186 3.923398
v -8.735220 7.897190 3.923400
v 8.746576 8.468552 3.227190
v -8.735220 8.468555 3.227192
v 8.746576 8.893112 2.432893
v -8.735220 8.893116 2.432894
v 8.746576 9.154560 1.571030
v -8.735220 9.154560 1.571031
v 8.746576 9.242840 0.674720
v -8.735220 9.242840 0.674721
v 8.309639 0.696396 5.227501
v 8.309639 5.434765 5.152061
v 8.309639 6.171280 4.928643
v 8.309639 6.850052 4.565832
v -8.221666 0.696396 5.227502
v -8.221666 5.434765 5.152062
v -8.221666 6.171280 4.928645
v -8.221666 6.850052 4.565833
v 8.309639 0.639343 5.019217
v 8.309639 5.377708 4.943778
v 8.309639 6.114223 4.720361
v 8.309639 6.792999 4.357549
v -8.221666 0.639343 5.019218
v -8.221666 5.377708 4.943780
v -8.221666 6.114223 4.720362
v -8.221666 6.792999 4.357551
vt 0.730348 0.511755
vt 0.730920 0.505889
vt 0.730932 0.517620
vt 0.965711 0.511521
vt 0.965140 0.517387
vt 0.965128 0.505656
vt 0.905272 0.696675
vt 0.791104 0.696675
vt 0.793930 0.692119
vt 0.901936 0.692115
vt 0.905330 0.613295
vt 0.790933 0.613409
vt 0.790927 0.607516
vt 0.905324 0.607401
vt 0.905335 0.619188
vt 0.790938 0.619303
vt 0.790921 0.601622
vt 0.905318 0.601508
vt 0.790915 0.595729
vt 0.905312 0.595614
vt 0.790909 0.589835
vt 0.905306 0.589721
vt 0.790903 0.583941
vt 0.905300 0.583827
vt 0.790897 0.578048
vt 0.905294 0.577934
vt 0.947125 0.483764
vt 0.952325 0.486537
vt 0.952375 0.536532
vt 0.947180 0.539315
vt 0.956885 0.490271
vt 0.960628 0.494823
vt 0.960661 0.528229
vt 0.956927 0.532788
vt 0.790861 0.541759
vt 0.905258 0.541645
vt 0.905347 0.630975
vt 0.790950 0.631090
vt 0.790944 0.625197
vt 0.905341 0.625082
vt 0.905353 0.636869
vt 0.790956 0.636984
vt 0.905359 0.642763
vt 0.790962 0.642878
vt 0.790823 0.654657
vt 0.790968 0.648771
vt 0.793829 0.651110
vt 0.793724 0.656129
vt 0.905365 0.648656
vt 0.902005 0.650998
vt 0.790845 0.660519
vt 0.793710 0.661177
vt 0.941483 0.482059
vt 0.941542 0.541032
vt 0.968937 0.630519
vt 0.968937 0.633029
vt 0.968030 0.633029
vt 0.968030 0.630519
vt 0.968937 0.563129
vt 0.968937 0.615065
vt 0.968030 0.615066
vt 0.968030 0.563132
vt 0.968937 0.547675
vt 0.968030 0.547678
vt 0.905504 0.654562
vt 0.902100 0.656048
vt 0.905493 0.660435
vt 0.902124 0.661096
vt 0.790802 0.481631
vt 0.905198 0.481517
vt 0.968937 0.545165
vt 0.968030 0.545168
vt 0.968937 0.635539
vt 0.968937 0.687475
vt 0.968030 0.687473
vt 0.968030 0.635539
vt 0.968937 0.542655
vt 0.968030 0.542659
vt 0.963412 0.500018
vt 0.963434 0.523028
vt 0.748880 0.483961
vt 0.754518 0.482244
vt 0.754577 0.541217
vt 0.748935 0.539512
vt 0.743685 0.486744
vt 0.743735 0.536739
vt 0.739133 0.490488
vt 0.739175 0.533005
vt 0.735398 0.495047
vt 0.735432 0.528453
vt 0.732625 0.500247
vt 0.732648 0.523258
vn 1.0000 0.0000 0.0000
vn -1.0000 -0.0000 0.0000
vn 0.0240 0.0419 0.9988
vn -0.0248 0.0440 0.9987
vn -0.0381 0.0357 0.9986
vn 0.0315 0.0364 0.9988
vn 0.0000 0.9808 -0.1951
vn 0.0000 0.9239 -0.3827
vn -0.0000 1.0000 -0.0000
vn 0.0000 0.8315 -0.5556
vn 0.0000 0.7071 -0.7071
vn -0.0000 0.5556 -0.8315
vn -0.0000 0.3827 -0.9239
vn -0.0000 0.1546 -0.9880
vn -0.0000 0.0159 -0.9999
vn 0.0000 0.9239 0.3827
vn 0.0000 0.9808 0.1951
vn 0.0000 0.8315 0.5556
vn 0.0000 0.7071 0.7071
vn -0.1968 0.4007 0.8948
vn -0.0678 0.5011 0.8627
vn -0.1107 0.3278 0.9382
vn -0.1691 0.3504 0.9212
vn 0.0626 0.5075 0.8594
vn 0.0915 0.3245 0.9414
vn -0.1080 0.1736 0.9789
vn -0.0984 0.1333 0.9862
vn -0.0000 0.9645 -0.2642
vn 0.1669 0.3997 0.9013
vn 0.1461 0.3552 0.9233
vn 0.0915 0.1711 0.9810
vn 0.0844 0.1365 0.9870
vn 0.0000 -1.0000 0.0000
vn 0.0000 -0.9645 0.2642
usemtl UV
s off
f 33/1/1 31/2/1 15/3/1
f 34/4/2 16/5/2 32/6/2
s 1
f 18/7/3 17/8/4 35/9/5 39/10/6
f 16/11/7 15/12/7 13/13/8 14/14/8
f 34/15/9 33/16/9 15/12/7 16/11/7
f 14/14/8 13/13/8 11/17/10 12/18/10
f 12/18/10 11/17/10 9/19/11 10/20/11
f 10/20/11 9/19/11 7/21/12 8/22/12
f 8/22/12 7/21/12 5/23/13 6/24/13
f 6/24/13 5/23/13 3/25/14 4/26/14
f 22/27/2 24/28/2 8/29/2 6/30/2
f 26/31/2 28/32/2 12/33/2 10/34/2
f 4/26/14 3/25/14 1/35/15 2/36/15
f 30/37/16 29/38/16 31/39/17 32/40/17
f 32/40/17 31/39/17 33/16/9 34/15/9
f 28/41/18 27/42/18 29/38/16 30/37/16
f 26/43/19 25/44/19 27/42/18 28/41/18
f 21/45/20 23/46/21 38/47/22 37/48/23
f 24/49/24 42/50/25 38/47/22 23/46/21
f 19/51/26 21/45/20 37/48/23 36/52/27
f 20/53/2 22/27/2 6/30/2 4/54/2
f 24/28/2 26/31/2 10/34/2 8/29/2
f 36/55/2 37/56/2 45/57/2 44/58/2
f 39/59/28 35/60/28 43/61/28 47/62/28
f 40/63/1 39/59/1 47/62/1 48/64/1
f 22/65/29 41/66/30 42/50/25 24/49/24
f 17/8/4 19/51/26 36/52/27 35/9/5
f 20/67/31 40/68/32 41/66/30 22/65/29
f 17/69/33 18/70/33 2/36/33 1/35/33
f 41/71/1 40/63/1 48/64/1 49/72/1
f 38/73/34 42/74/34 50/75/34 46/76/34
f 37/56/2 38/73/2 46/76/2 45/57/2
f 35/60/2 36/55/2 44/58/2 43/61/2
f 42/77/1 41/71/1 49/72/1 50/78/1
f 28/32/2 30/79/2 14/80/2 12/33/2
f 21/81/1 19/82/1 3/83/1 5/84/1
f 23/85/1 21/81/1 5/84/1 7/86/1
f 25/87/1 23/85/1 7/86/1 9/88/1
f 27/89/1 25/87/1 9/88/1 11/90/1
f 29/91/1 27/89/1 11/90/1 13/92/1
f 31/2/1 29/91/1 13/92/1 15/3/1
f 19/82/1 17/69/1 1/35/1 3/83/1
f 2/36/2 18/70/2 20/53/2 4/54/2
f 30/79/2 32/6/2 16/5/2 14/80/2
f 24/49/24 23/46/21 25/44/19 26/43/19
f 39/10/6 40/68/32 20/67/31 18/7/3
