# Blender v3.0.1 OBJ File: 'buildings_parts_modules uv_05.blend'
# www.blender.org
mtllib buildings_parts_cylinder_base.mtl
o Hexoganal_module_03.015_Cylinder.013
v 7.232616 33.647667 0.000000
v 6.878628 33.647667 2.234998
v 5.851315 33.647667 4.251219
v 4.251232 33.647667 5.851301
v 2.235012 33.647667 6.878617
v 0.000011 33.647667 7.232606
v -2.234989 33.647667 6.878616
v -4.251202 33.647667 5.851302
v -5.851292 33.647667 4.251220
v -6.878605 33.647667 2.234999
v -7.232594 33.647667 0.000001
v -6.878605 33.647667 -2.234996
v -5.851292 33.647667 -4.251218
v -4.251209 33.647667 -5.851300
v -2.234989 33.647667 -6.878615
v 0.000011 33.647667 -7.232605
v 2.235012 33.647667 -6.878615
v 4.251232 33.647667 -5.851301
v 5.851315 33.647667 -4.251219
v 6.878628 33.647667 -2.234997
v 6.358059 35.236923 2.065854
v 6.685253 35.236923 0.000000
v 5.408489 35.236923 3.929488
v 3.929501 35.236923 5.408477
v 2.065868 35.236923 6.358046
v 0.000011 35.236923 6.685246
v -2.065845 35.236923 6.358046
v -3.929478 35.236923 5.408478
v -5.408466 35.236923 3.929489
v -6.358036 35.236923 2.065856
v -6.685230 35.236923 0.000001
v -6.358036 35.236923 -2.065853
v -5.408466 35.236923 -3.929487
v -3.929478 35.236923 -5.408476
v -2.065845 35.236923 -6.358045
v 0.000011 35.236923 -6.685245
v 2.065868 35.236923 -6.358045
v 3.929501 35.236923 -5.408477
v 5.408489 35.236923 -3.929488
v 6.358059 35.236923 -2.065853
v 5.426243 36.128937 1.763090
v 5.705486 36.128937 0.000000
v 4.615841 36.128937 3.353596
v 3.353603 36.128937 4.615829
v 1.763103 36.128937 5.426232
v 0.000011 36.128937 5.705479
v -1.763081 36.128937 5.426232
v -3.353588 36.128937 4.615829
v -4.615818 36.128937 3.353596
v -5.426220 36.128937 1.763091
v -5.705471 36.128937 0.000001
v -5.426220 36.128937 -1.763088
v -4.615818 36.128937 -3.353596
v -3.353588 36.128937 -4.615829
v -1.763081 36.128937 -5.426231
v 0.000011 36.128937 -5.705477
v 1.763103 36.128937 -5.426231
v 3.353603 36.128937 -4.615829
v 4.615841 36.128937 -3.353596
v 5.426243 36.128937 -1.763089
v 4.442501 36.485901 1.443453
v 4.671124 36.485901 0.000000
v 3.779018 36.485901 2.745609
v 2.745625 36.485901 3.779008
v 1.443462 36.485901 4.442490
v 0.000011 36.485901 4.671110
v -1.443439 36.485901 4.442490
v -2.745594 36.485901 3.779008
v -3.778996 36.485901 2.745609
v -4.442478 36.485901 1.443453
v -4.671101 36.485901 0.000001
v -4.442478 36.485901 -1.443451
v -3.778996 36.485901 -2.745609
v -2.745594 36.485901 -3.779007
v -1.443439 36.485901 -4.442489
v 0.000011 36.485901 -4.671109
v 1.443462 36.485901 -4.442489
v 2.745617 36.485901 -3.779008
v 3.779018 36.485901 -2.745609
v 4.442501 36.485901 -1.443452
v 7.232616 2.838234 0.000000
v 6.878628 2.838234 2.234998
v 5.851315 2.838234 4.251219
v 4.251232 2.838234 5.851301
v 2.235012 2.838234 6.878617
v 0.000011 2.838234 7.232606
v -2.234989 2.838234 6.878616
v -4.251202 2.838234 5.851302
v -5.851292 2.838234 4.251220
v -6.878605 2.838234 2.234999
v -7.232594 2.838234 0.000001
v -6.878605 2.838234 -2.234996
v -5.851292 2.838234 -4.251218
v -4.251209 2.838234 -5.851300
v -2.234989 2.838234 -6.878615
v 0.000011 2.838234 -7.232605
v 2.235012 2.838234 -6.878615
v 4.251232 2.838234 -5.851301
v 5.851315 2.838234 -4.251219
v 6.878628 2.838234 -2.234997
v 6.358059 1.248978 2.065854
v 6.685253 1.248978 0.000000
v 5.408489 1.248978 3.929488
v 3.929501 1.248978 5.408477
v 2.065868 1.248978 6.358046
v 0.000011 1.248978 6.685246
v -2.065845 1.248978 6.358046
v -3.929478 1.248978 5.408478
v -5.408466 1.248978 3.929489
v -6.358036 1.248978 2.065856
v -6.685230 1.248978 0.000001
v -6.358036 1.248978 -2.065853
v -5.408466 1.248978 -3.929487
v -3.929478 1.248978 -5.408476
v -2.065845 1.248978 -6.358045
v 0.000011 1.248978 -6.685245
v 2.065868 1.248978 -6.358045
v 3.929501 1.248978 -5.408477
v 5.408489 1.248978 -3.929488
v 6.358059 1.248978 -2.065853
v 5.426243 0.356964 1.763090
v 5.705486 0.356964 0.000000
v 4.615841 0.356964 3.353596
v 3.353603 0.356964 4.615829
v 1.763103 0.356964 5.426232
v 0.000011 0.356964 5.705479
v -1.763081 0.356964 5.426232
v -3.353588 0.356964 4.615829
v -4.615818 0.356964 3.353596
v -5.426220 0.356964 1.763091
v -5.705471 0.356964 0.000001
v -5.426220 0.356964 -1.763088
v -4.615818 0.356964 -3.353596
v -3.353588 0.356964 -4.615829
v -1.763081 0.356964 -5.426231
v 0.000011 0.356964 -5.705477
v 1.763103 0.356964 -5.426231
v 3.353603 0.356964 -4.615829
v 4.615841 0.356964 -3.353596
v 5.426243 0.356964 -1.763089
v 4.442501 0.000000 1.443453
v 4.671124 0.000000 0.000000
v 3.779018 0.000000 2.745609
v 2.745625 0.000000 3.779008
v 1.443462 0.000000 4.442490
v 0.000011 0.000000 4.671110
v -1.443439 0.000000 4.442490
v -2.745594 0.000000 3.779008
v -3.778996 0.000000 2.745609
v -4.442478 0.000000 1.443453
v -4.671101 0.000000 0.000001
v -4.442478 0.000000 -1.443451
v -3.778996 0.000000 -2.745609
v -2.745594 0.000000 -3.779007
v -1.443439 0.000000 -4.442489
v 0.000011 0.000000 -4.671109
v 1.443462 0.000000 -4.442489
v 2.745617 0.000000 -3.779008
v 3.779018 0.000000 -2.745609
v 4.442501 0.000000 -1.443452
vt 0.032904 0.486516
vt 0.183229 0.486520
vt 0.183229 0.497561
vt 0.032904 0.497556
vt 0.032899 0.696293
vt 0.183224 0.696297
vt 0.183224 0.707337
vt 0.032899 0.707334
vt 0.032899 0.685252
vt 0.183224 0.685256
vt 0.032900 0.674211
vt 0.183224 0.674215
vt 0.032901 0.630048
vt 0.183225 0.630051
vt 0.183225 0.641092
vt 0.032900 0.641088
vt 0.032900 0.652130
vt 0.183225 0.652133
vt 0.183224 0.663174
vt 0.032900 0.663170
vt 0.032901 0.619007
vt 0.183226 0.619010
vt 0.032901 0.607966
vt 0.183226 0.607969
vt 0.032901 0.596925
vt 0.183226 0.596928
vt 0.032902 0.585884
vt 0.183226 0.585888
vt 0.032902 0.574843
vt 0.183227 0.574847
vt 0.032902 0.563802
vt 0.183227 0.563806
vt 0.032902 0.552761
vt 0.183227 0.552765
vt 0.032903 0.541720
vt 0.183228 0.541724
vt 0.032903 0.530679
vt 0.183228 0.530683
vt 0.032903 0.519638
vt 0.183228 0.519642
vt 0.032904 0.508597
vt 0.183228 0.508601
vt 0.025407 0.663171
vt 0.025407 0.652130
vt 0.025403 0.497557
vt 0.025402 0.486516
vt 0.025404 0.530679
vt 0.025403 0.519639
vt 0.025405 0.585884
vt 0.025405 0.574843
vt 0.025406 0.641089
vt 0.025406 0.630048
vt 0.025408 0.696293
vt 0.025408 0.685253
vt 0.025404 0.563802
vt 0.025404 0.552761
vt 0.025406 0.619007
vt 0.025406 0.607966
vt 0.025407 0.674212
vt 0.019499 0.696293
vt 0.019498 0.685253
vt 0.019497 0.619007
vt 0.019496 0.607966
vt 0.025404 0.541720
vt 0.019495 0.541721
vt 0.019495 0.530680
vt 0.025408 0.707334
vt 0.019499 0.707334
vt 0.019497 0.630048
vt 0.019495 0.552761
vt 0.019494 0.497557
vt 0.019494 0.486516
vt 0.019497 0.641089
vt 0.019496 0.563802
vt 0.025405 0.596925
vt 0.025403 0.508598
vt 0.019494 0.519639
vt 0.014615 0.530680
vt 0.014614 0.519639
vt 0.014619 0.696294
vt 0.014618 0.685253
vt 0.014617 0.619007
vt 0.014617 0.607966
vt 0.014615 0.541721
vt 0.014619 0.707335
vt 0.014617 0.630048
vt 0.014615 0.552762
vt 0.014614 0.497557
vt 0.014614 0.486516
vt 0.014618 0.641089
vt 0.019496 0.596925
vt 0.019498 0.674212
vt 0.019494 0.508598
vt 0.019496 0.585884
vt 0.019498 0.663171
vt 0.019496 0.574843
vt 0.019498 0.652130
vt 0.150215 0.288234
vt 0.154406 0.294003
vt 0.117983 0.320466
vt 0.113792 0.314697
vt 0.156610 0.300785
vt 0.123752 0.324657
vt 0.156610 0.307915
vt 0.130534 0.326861
vt 0.154406 0.314697
vt 0.137664 0.326861
vt 0.150215 0.320466
vt 0.144446 0.324657
vt 0.144446 0.284043
vt 0.111589 0.307915
vt 0.111589 0.300785
vt 0.137664 0.281840
vt 0.113792 0.294003
vt 0.130534 0.281840
vt 0.117983 0.288234
vt 0.123752 0.284043
vt 0.014616 0.596925
vt 0.014618 0.674212
vt 0.014614 0.508598
vt 0.014616 0.585884
vt 0.014618 0.663171
vt 0.014616 0.574843
vt 0.014618 0.652130
vt 0.014616 0.563802
vt 0.190814 0.652133
vt 0.190814 0.663174
vt 0.190814 0.486520
vt 0.190814 0.497561
vt 0.190814 0.519642
vt 0.190814 0.530683
vt 0.190814 0.574847
vt 0.190814 0.585888
vt 0.190814 0.630051
vt 0.190814 0.641092
vt 0.190814 0.685256
vt 0.190814 0.696297
vt 0.190814 0.552765
vt 0.190814 0.563806
vt 0.190814 0.607969
vt 0.190814 0.619010
vt 0.190814 0.674215
vt 0.196796 0.685256
vt 0.196796 0.696297
vt 0.196796 0.607969
vt 0.196796 0.619010
vt 0.196796 0.530683
vt 0.196796 0.541724
vt 0.190814 0.541724
vt 0.196796 0.707337
vt 0.190814 0.707337
vt 0.196796 0.630051
vt 0.196796 0.552765
vt 0.196796 0.486520
vt 0.196796 0.497561
vt 0.196796 0.641092
vt 0.196796 0.563806
vt 0.190814 0.596928
vt 0.190814 0.508601
vt 0.196796 0.519642
vt 0.201736 0.519642
vt 0.201736 0.530683
vt 0.201736 0.685256
vt 0.201736 0.696297
vt 0.201736 0.607969
vt 0.201736 0.619010
vt 0.201736 0.541724
vt 0.201736 0.707337
vt 0.201736 0.630051
vt 0.201736 0.552765
vt 0.201736 0.486520
vt 0.201736 0.497561
vt 0.201736 0.641092
vt 0.196796 0.596928
vt 0.196796 0.674215
vt 0.196796 0.508601
vt 0.196796 0.585888
vt 0.196796 0.663174
vt 0.196796 0.574847
vt 0.196796 0.652133
vt 0.074329 0.326369
vt 0.074329 0.281348
vt 0.081459 0.281348
vt 0.081459 0.326369
vt 0.088241 0.283551
vt 0.088241 0.324165
vt 0.094010 0.287743
vt 0.094010 0.319974
vt 0.098201 0.293511
vt 0.098201 0.314205
vt 0.100405 0.300293
vt 0.100405 0.307424
vt 0.067547 0.324165
vt 0.067547 0.283551
vt 0.061778 0.319974
vt 0.061778 0.287743
vt 0.057587 0.314205
vt 0.057587 0.293511
vt 0.055383 0.307424
vt 0.055383 0.300293
vt 0.201736 0.596928
vt 0.201736 0.674215
vt 0.201736 0.508601
vt 0.201736 0.585888
vt 0.201736 0.663174
vt 0.201736 0.574847
vt 0.201736 0.652133
vt 0.201736 0.563806
vn 0.7983 0.1625 0.5800
vn 0.7983 -0.1625 0.5800
vn 0.9384 -0.1625 0.3049
vn 0.9384 0.1625 0.3049
vn 0.5800 0.1625 0.7983
vn 0.5800 -0.1625 0.7983
vn 0.3049 0.1625 0.9384
vn 0.3049 -0.1625 0.9384
vn -0.0000 0.1625 0.9867
vn -0.0000 -0.1625 0.9867
vn -0.9384 0.1625 0.3049
vn -0.9384 -0.1625 0.3049
vn -0.7983 -0.1625 0.5800
vn -0.7983 0.1625 0.5800
vn -0.5800 0.1625 0.7983
vn -0.5800 -0.1625 0.7983
vn -0.3049 -0.1625 0.9384
vn -0.3049 0.1625 0.9384
vn -0.9867 0.1625 -0.0000
vn -0.9867 -0.1625 -0.0000
vn -0.9384 0.1625 -0.3049
vn -0.9384 -0.1625 -0.3049
vn -0.7983 0.1625 -0.5800
vn -0.7983 -0.1625 -0.5800
vn -0.5800 0.1625 -0.7983
vn -0.5800 -0.1625 -0.7983
vn -0.3049 0.1625 -0.9384
vn -0.3049 -0.1625 -0.9384
vn 0.0000 0.1625 -0.9867
vn 0.0000 -0.1625 -0.9867
vn 0.3049 0.1625 -0.9384
vn 0.3049 -0.1625 -0.9384
vn 0.5800 0.1625 -0.7983
vn 0.5800 -0.1625 -0.7983
vn 0.7983 0.1625 -0.5800
vn 0.7983 -0.1625 -0.5800
vn 0.9384 0.1625 -0.3049
vn 0.9384 -0.1625 -0.3049
vn 0.9867 0.1625 -0.0000
vn 0.9867 -0.1625 -0.0000
vn -0.2604 0.5386 0.8013
vn -0.4952 0.5386 0.6816
vn 0.8013 0.5386 0.2604
vn 0.6816 0.5386 0.4952
vn 0.6816 0.5386 -0.4952
vn 0.8013 0.5386 -0.2604
vn -0.4952 0.5386 -0.6816
vn -0.2604 0.5386 -0.8013
vn -0.6816 0.5386 0.4952
vn -0.8013 0.5386 0.2604
vn 0.4952 0.5386 0.6816
vn 0.2604 0.5386 0.8013
vn 0.0000 0.5386 -0.8426
vn 0.2604 0.5386 -0.8013
vn -0.8426 0.5386 -0.0000
vn -0.8013 0.5386 -0.2604
vn -0.0000 0.5386 0.8426
vn 0.3085 0.8512 0.4246
vn 0.1622 0.8512 0.4991
vn -0.5248 0.8512 -0.0000
vn -0.4991 0.8512 -0.1622
vn 0.4952 0.5386 -0.6816
vn 0.3085 0.8512 -0.4246
vn 0.4246 0.8512 -0.3085
vn 0.4246 0.8512 0.3085
vn -0.4991 0.8512 0.1622
vn 0.1622 0.8512 -0.4991
vn 0.4991 0.8512 0.1622
vn -0.4246 0.8512 0.3085
vn 0.0000 0.8512 -0.5248
vn -0.6816 0.5386 -0.4952
vn 0.8426 0.5386 0.0000
vn 0.4991 0.8512 -0.1622
vn 0.1467 0.9834 -0.1066
vn 0.1725 0.9834 -0.0561
vn 0.1066 0.9834 0.1467
vn 0.0561 0.9834 0.1725
vn -0.1814 0.9834 0.0000
vn -0.1725 0.9834 -0.0561
vn 0.1066 0.9834 -0.1467
vn 0.1467 0.9834 0.1066
vn -0.1725 0.9834 0.0561
vn 0.0561 0.9834 -0.1725
vn 0.1725 0.9834 0.0561
vn -0.1467 0.9834 0.1066
vn -0.4246 0.8512 -0.3085
vn -0.0000 0.8512 0.5248
vn 0.5248 0.8512 0.0000
vn -0.3085 0.8512 -0.4246
vn -0.1622 0.8512 0.4991
vn -0.1622 0.8512 -0.4991
vn -0.3085 0.8512 0.4246
vn -0.1467 0.9834 -0.1066
vn 0.0000 0.9834 0.1814
vn -0.1066 0.9834 0.1467
vn -0.0561 0.9834 0.1725
vn -0.1066 0.9834 -0.1467
vn 0.1814 0.9834 0.0000
vn -0.0561 0.9834 -0.1725
vn -0.0000 0.9834 -0.1814
vn -0.4952 -0.5386 0.6816
vn -0.2604 -0.5386 0.8013
vn 0.6816 -0.5386 0.4952
vn 0.8013 -0.5386 0.2604
vn 0.8013 -0.5386 -0.2604
vn 0.6816 -0.5386 -0.4952
vn -0.2604 -0.5386 -0.8013
vn -0.4952 -0.5386 -0.6816
vn -0.8013 -0.5386 0.2604
vn -0.6816 -0.5386 0.4952
vn 0.2604 -0.5386 0.8013
vn 0.4952 -0.5386 0.6816
vn 0.2604 -0.5386 -0.8013
vn 0.0000 -0.5386 -0.8426
vn -0.8013 -0.5386 -0.2604
vn -0.8426 -0.5386 -0.0000
vn -0.0000 -0.5386 0.8426
vn 0.1622 -0.8512 0.4991
vn 0.3085 -0.8512 0.4246
vn -0.4991 -0.8512 -0.1622
vn -0.5248 -0.8512 -0.0000
vn 0.4246 -0.8512 -0.3085
vn 0.3085 -0.8512 -0.4246
vn 0.4952 -0.5386 -0.6816
vn 0.4246 -0.8512 0.3085
vn -0.4991 -0.8512 0.1622
vn 0.1622 -0.8512 -0.4991
vn 0.4991 -0.8512 0.1622
vn -0.4246 -0.8512 0.3085
vn 0.0000 -0.8512 -0.5248
vn -0.6816 -0.5386 -0.4952
vn 0.8426 -0.5386 -0.0000
vn 0.4991 -0.8512 -0.1622
vn 0.1725 -0.9834 -0.0561
vn 0.1467 -0.9834 -0.1066
vn 0.0561 -0.9834 0.1725
vn 0.1066 -0.9834 0.1467
vn -0.1725 -0.9834 -0.0561
vn -0.1814 -0.9834 -0.0000
vn 0.1066 -0.9834 -0.1467
vn 0.1467 -0.9834 0.1066
vn -0.1725 -0.9834 0.0561
vn 0.0561 -0.9834 -0.1725
vn 0.1725 -0.9834 0.0561
vn -0.1467 -0.9834 0.1066
vn -0.4246 -0.8512 -0.3085
vn 0.0000 -0.8512 0.5248
vn 0.5248 -0.8512 -0.0000
vn -0.3085 -0.8512 -0.4246
vn -0.1622 -0.8512 0.4991
vn -0.1622 -0.8512 -0.4991
vn -0.3085 -0.8512 0.4246
vn -0.1467 -0.9834 -0.1066
vn 0.0000 -0.9834 0.1814
vn -0.0561 -0.9834 0.1725
vn -0.1066 -0.9834 0.1467
vn -0.1066 -0.9834 -0.1467
vn 0.1814 -0.9834 -0.0000
vn -0.0561 -0.9834 -0.1725
vn 0.0000 -0.9834 -0.1814
usemtl UV
s 1
f 3/1/1 83/2/2 82/3/3 2/4/4
f 4/5/5 84/6/6 83/7/2 3/8/1
f 5/9/7 85/10/8 84/6/6 4/5/5
f 6/11/9 86/12/10 85/10/8 5/9/7
f 10/13/11 90/14/12 89/15/13 9/16/14
f 8/17/15 88/18/16 87/19/17 7/20/18
f 9/16/14 89/15/13 88/18/16 8/17/15
f 11/21/19 91/22/20 90/14/12 10/13/11
f 12/23/21 92/24/22 91/22/20 11/21/19
f 13/25/23 93/26/24 92/24/22 12/23/21
f 14/27/25 94/28/26 93/26/24 13/25/23
f 15/29/27 95/30/28 94/28/26 14/27/25
f 16/31/29 96/32/30 95/30/28 15/29/27
f 17/33/31 97/34/32 96/32/30 16/31/29
f 18/35/33 98/36/34 97/34/32 17/33/31
f 19/37/35 99/38/36 98/36/34 18/35/33
f 20/39/37 100/40/38 99/38/36 19/37/35
f 1/41/39 81/42/40 100/40/38 20/39/37
f 8/17/15 7/20/18 27/43/41 28/44/42
f 3/1/1 2/4/4 21/45/43 23/46/44
f 20/39/37 19/37/35 39/47/45 40/48/46
f 15/29/27 14/27/25 34/49/47 35/50/48
f 10/13/11 9/16/14 29/51/49 30/52/50
f 5/9/7 4/5/5 24/53/51 25/54/52
f 17/33/31 16/31/29 36/55/53 37/56/54
f 12/23/21 11/21/19 31/57/55 32/58/56
f 7/20/18 6/11/9 26/59/57 27/43/41
f 7/20/18 87/19/17 86/12/10 6/11/9
f 2/4/4 82/3/3 81/42/40 1/41/39
f 25/54/52 24/53/51 44/60/58 45/61/59
f 32/58/56 31/57/55 51/62/60 52/63/61
f 39/47/45 38/64/62 58/65/63 59/66/64
f 24/53/51 23/67/44 43/68/65 44/60/58
f 31/57/55 30/52/50 50/69/66 51/62/60
f 38/64/62 37/56/54 57/70/67 58/65/63
f 23/46/44 21/45/43 41/71/68 43/72/65
f 30/52/50 29/51/49 49/73/69 50/69/66
f 37/56/54 36/55/53 56/74/70 57/70/67
f 13/25/23 12/23/21 32/58/56 33/75/71
f 18/35/33 17/33/31 37/56/54 38/64/62
f 6/11/9 5/9/7 25/54/52 26/59/57
f 11/21/19 10/13/11 30/52/50 31/57/55
f 16/31/29 15/29/27 35/50/48 36/55/53
f 1/41/39 20/39/37 40/48/46 22/76/72
f 4/5/5 3/8/1 23/67/44 24/53/51
f 9/16/14 8/17/15 28/44/42 29/51/49
f 2/4/4 1/41/39 22/76/72 21/45/43
f 14/27/25 13/25/23 33/75/71 34/49/47
f 19/37/35 18/35/33 38/64/62 39/47/45
f 60/77/73 59/66/64 79/78/74 80/79/75
f 45/61/59 44/60/58 64/80/76 65/81/77
f 52/63/61 51/62/60 71/82/78 72/83/79
f 59/66/64 58/65/63 78/84/80 79/78/74
f 44/60/58 43/68/65 63/85/81 64/80/76
f 51/62/60 50/69/66 70/86/82 71/82/78
f 58/65/63 57/70/67 77/87/83 78/84/80
f 43/72/65 41/71/68 61/88/84 63/89/81
f 50/69/66 49/73/69 69/90/85 70/86/82
f 40/48/46 39/47/45 59/66/64 60/77/73
f 33/75/71 32/58/56 52/63/61 53/91/86
f 26/59/57 25/54/52 45/61/59 46/92/87
f 22/76/72 40/48/46 60/77/73 42/93/88
f 34/49/47 33/75/71 53/91/86 54/94/89
f 27/43/41 26/59/57 46/92/87 47/95/90
f 35/50/48 34/49/47 54/94/89 55/96/91
f 28/44/42 27/43/41 47/95/90 48/97/92
f 36/55/53 35/50/48 55/96/91 56/74/70
f 29/51/49 28/44/42 48/97/92 49/73/69
f 21/45/43 22/76/72 42/93/88 41/71/68
f 73/98/93 72/99/79 63/100/81 61/101/84
f 72/99/79 71/102/78 64/103/76 63/100/81
f 71/102/78 70/104/82 65/105/77 64/103/76
f 70/104/82 69/106/85 66/107/94 65/105/77
f 66/107/94 69/106/85 68/108/95 67/109/96
f 74/110/97 73/98/93 61/101/84 62/111/98
f 62/111/98 80/112/75 75/113/99 74/110/97
f 80/112/75 79/114/74 76/115/100 75/113/99
f 76/115/100 79/114/74 78/116/80 77/117/83
f 53/91/86 52/63/61 72/83/79 73/118/93
f 46/92/87 45/61/59 65/81/77 66/119/94
f 42/93/88 60/77/73 80/79/75 62/120/98
f 54/94/89 53/91/86 73/118/93 74/121/97
f 47/95/90 46/92/87 66/119/94 67/122/96
f 55/96/91 54/94/89 74/121/97 75/123/99
f 48/97/92 47/95/90 67/122/96 68/124/95
f 56/74/70 55/96/91 75/123/99 76/125/100
f 49/73/69 48/97/92 68/124/95 69/90/85
f 41/71/68 42/93/88 62/120/98 61/88/84
f 57/70/67 56/74/70 76/125/100 77/87/83
f 88/18/16 108/126/101 107/127/102 87/19/17
f 83/2/2 103/128/103 101/129/104 82/3/3
f 100/40/38 120/130/105 119/131/106 99/38/36
f 95/30/28 115/132/107 114/133/108 94/28/26
f 90/14/12 110/134/109 109/135/110 89/15/13
f 85/10/8 105/136/111 104/137/112 84/6/6
f 97/34/32 117/138/113 116/139/114 96/32/30
f 92/24/22 112/140/115 111/141/116 91/22/20
f 87/19/17 107/127/102 106/142/117 86/12/10
f 105/136/111 125/143/118 124/144/119 104/137/112
f 112/140/115 132/145/120 131/146/121 111/141/116
f 119/131/106 139/147/122 138/148/123 118/149/124
f 104/137/112 124/144/119 123/150/125 103/151/103
f 111/141/116 131/146/121 130/152/126 110/134/109
f 118/149/124 138/148/123 137/153/127 117/138/113
f 103/128/103 123/154/125 121/155/128 101/129/104
f 110/134/109 130/152/126 129/156/129 109/135/110
f 117/138/113 137/153/127 136/157/130 116/139/114
f 93/26/24 113/158/131 112/140/115 92/24/22
f 98/36/34 118/149/124 117/138/113 97/34/32
f 86/12/10 106/142/117 105/136/111 85/10/8
f 91/22/20 111/141/116 110/134/109 90/14/12
f 96/32/30 116/139/114 115/132/107 95/30/28
f 81/42/40 102/159/132 120/130/105 100/40/38
f 84/6/6 104/137/112 103/151/103 83/7/2
f 89/15/13 109/135/110 108/126/101 88/18/16
f 82/3/3 101/129/104 102/159/132 81/42/40
f 94/28/26 114/133/108 113/158/131 93/26/24
f 99/38/36 119/131/106 118/149/124 98/36/34
f 140/160/133 160/161/134 159/162/135 139/147/122
f 125/143/118 145/163/136 144/164/137 124/144/119
f 132/145/120 152/165/138 151/166/139 131/146/121
f 139/147/122 159/162/135 158/167/140 138/148/123
f 124/144/119 144/164/137 143/168/141 123/150/125
f 131/146/121 151/166/139 150/169/142 130/152/126
f 138/148/123 158/167/140 157/170/143 137/153/127
f 123/154/125 143/171/141 141/172/144 121/155/128
f 130/152/126 150/169/142 149/173/145 129/156/129
f 120/130/105 140/160/133 139/147/122 119/131/106
f 113/158/131 133/174/146 132/145/120 112/140/115
f 106/142/117 126/175/147 125/143/118 105/136/111
f 102/159/132 122/176/148 140/160/133 120/130/105
f 114/133/108 134/177/149 133/174/146 113/158/131
f 107/127/102 127/178/150 126/175/147 106/142/117
f 115/132/107 135/179/151 134/177/149 114/133/108
f 108/126/101 128/180/152 127/178/150 107/127/102
f 116/139/114 136/157/130 135/179/151 115/132/107
f 109/135/110 129/156/129 128/180/152 108/126/101
f 101/129/104 121/155/128 122/176/148 102/159/132
f 153/181/153 141/182/144 143/183/141 152/184/138
f 152/184/138 143/183/141 144/185/137 151/186/139
f 151/186/139 144/185/137 145/187/136 150/188/142
f 150/188/142 145/187/136 146/189/154 149/190/145
f 146/189/154 147/191/155 148/192/156 149/190/145
f 154/193/157 142/194/158 141/182/144 153/181/153
f 142/194/158 154/193/157 155/195/159 160/196/134
f 160/196/134 155/195/159 156/197/160 159/198/135
f 156/197/160 157/199/143 158/200/140 159/198/135
f 133/174/146 153/201/153 152/165/138 132/145/120
f 126/175/147 146/202/154 145/163/136 125/143/118
f 122/176/148 142/203/158 160/161/134 140/160/133
f 134/177/149 154/204/157 153/201/153 133/174/146
f 127/178/150 147/205/155 146/202/154 126/175/147
f 135/179/151 155/206/159 154/204/157 134/177/149
f 128/180/152 148/207/156 147/205/155 127/178/150
f 136/157/130 156/208/160 155/206/159 135/179/151
f 129/156/129 149/173/145 148/207/156 128/180/152
f 121/155/128 141/172/144 142/203/158 122/176/148
f 137/153/127 157/170/143 156/208/160 136/157/130
