# Blender v3.0.1 OBJ File: 'buildings_parts_modules uv_05.blend'
# www.blender.org
mtllib buildings_parts_cubic.mtl
o Hexoganal_module_03.001_Cylinder.015
v -13.195803 0.000000 8.546927
v -4.446512 19.145559 5.390254
v -13.195803 0.000000 -8.546927
v -4.446512 19.145559 -5.390254
v 10.277895 0.000000 8.546927
v 9.443097 19.145559 5.390254
v 10.277895 0.000000 -8.546927
v 9.443097 19.145559 -5.390254
vt 0.068336 0.908026
vt 0.079159 0.835853
vt 0.116122 0.835853
vt 0.126945 0.908026
vt 0.182651 0.865851
vt 0.116122 0.788230
vt 0.182651 0.785368
vt 0.126945 0.722525
vt 0.079159 0.788230
vt 0.068336 0.722525
vt 0.012630 0.785368
vt 0.012630 0.865851
vt 0.126945 0.988508
vt 0.068336 0.988508
vn -0.9095 0.4156 0.0000
vn 0.0000 0.1627 -0.9867
vn 0.9991 0.0436 0.0000
vn 0.0000 0.1627 0.9867
vn 0.0000 -1.0000 0.0000
vn 0.0000 1.0000 0.0000
usemtl UV
s 1
f 1/1/1 2/2/1 4/3/1 3/4/1
f 3/5/2 4/3/2 8/6/2 7/7/2
f 7/8/3 8/6/3 6/9/3 5/10/3
f 5/11/4 6/9/4 2/2/4 1/12/4
f 3/4/5 7/13/5 5/14/5 1/1/5
f 8/6/6 4/3/6 2/2/6 6/9/6
