# Blender v3.0.1 OBJ File: 'buildings_parts_modules uv_05.blend'
# www.blender.org
mtllib buildings_parts_cylinder_door_01.mtl
o Hexoganal_module_03.011_Cylinder.009
v 8.740902 0.000000 -4.524231
v -8.740894 0.000000 -4.524230
v 8.740902 6.359612 -4.174510
v -8.740894 6.359612 -4.174510
v 8.740902 7.200983 -3.749950
v -8.740894 7.200983 -3.749949
v 8.740902 7.897188 -3.178588
v -8.740894 7.897194 -3.178586
v 8.740902 8.468552 -2.482380
v -8.740894 8.468555 -2.482379
v 8.740902 8.893114 -1.688082
v -8.740894 8.893118 -1.688081
v 8.740902 9.154562 -0.826219
v -8.740894 9.154562 -0.826218
v 8.740902 0.000000 4.664413
v -8.740894 0.000000 4.664414
v 8.740902 6.359612 4.314692
v -8.740894 6.359612 4.314693
v 8.740902 7.200983 3.890131
v -8.740894 7.200983 3.890133
v 8.740902 7.897188 3.318769
v -8.740894 7.897194 3.318770
v 8.740902 8.468552 2.622561
v -8.740894 8.468555 2.622563
v 8.740902 8.893114 1.828264
v -8.740894 8.893118 1.828265
v 8.740902 9.154562 0.966400
v -8.740894 9.154562 0.966401
v 8.740902 9.242840 0.070091
v -8.740894 9.242840 0.070092
v 1.858612 5.774405 4.473010
v -1.858612 5.774405 4.473010
v 8.740902 5.774405 4.473009
v 8.740902 5.774405 -4.332828
v 1.858612 0.000000 4.664413
v -1.858612 0.000000 4.664413
v -8.740894 5.774405 4.473010
v -8.740894 5.774405 -4.332827
v 1.858612 0.647964 4.642344
v -1.858612 0.647964 4.642344
v 1.858612 0.674501 5.421519
v 1.858612 0.026539 5.443587
v -1.858612 0.026539 5.443587
v -1.858612 0.674501 5.421519
vt 0.488134 0.097300
vt 0.488787 0.090672
vt 0.488787 0.103928
vt 0.754107 0.097293
vt 0.753454 0.103921
vt 0.753454 0.090665
vt 0.685757 0.063321
vt 0.728458 0.064735
vt 0.728459 0.129853
vt 0.685759 0.131269
vt 0.634866 0.263499
vt 0.685762 0.259015
vt 0.685762 0.263498
vt 0.744156 0.073270
vt 0.748381 0.078418
vt 0.748382 0.116169
vt 0.744157 0.121317
vt 0.739007 0.069045
vt 0.739009 0.125542
vt 0.732785 0.065906
vt 0.732787 0.128682
vt 0.685760 0.173994
vt 0.556485 0.173997
vt 0.556484 0.131272
vt 0.751521 0.084292
vt 0.751521 0.110295
vt 0.503232 0.069051
vt 0.509454 0.065911
vt 0.509456 0.128688
vt 0.503234 0.125548
vt 0.498084 0.073277
vt 0.498086 0.121323
vt 0.493859 0.078425
vt 0.493860 0.116175
vt 0.490720 0.084299
vt 0.490721 0.110301
vt 0.685764 0.306224
vt 0.634867 0.301431
vt 0.556487 0.252050
vt 0.685762 0.252045
vt 0.556488 0.259019
vt 0.556486 0.218749
vt 0.556486 0.212089
vt 0.685761 0.212086
vt 0.685761 0.218746
vt 0.556486 0.205429
vt 0.556486 0.198769
vt 0.685760 0.198765
vt 0.685761 0.205426
vt 0.556486 0.192109
vt 0.685760 0.192106
vt 0.556485 0.185449
vt 0.685760 0.185446
vt 0.556485 0.178480
vt 0.685760 0.178476
vt 0.556487 0.232069
vt 0.556486 0.225409
vt 0.685761 0.225406
vt 0.685761 0.232066
vt 0.556487 0.238730
vt 0.685762 0.238726
vt 0.556487 0.245390
vt 0.685762 0.245386
vt 0.556489 0.306226
vt 0.607382 0.301430
vt 0.607382 0.306224
vt 0.607375 0.046998
vt 0.634863 0.046997
vt 0.634864 0.052763
vt 0.607375 0.052763
vt 0.607376 0.063323
vt 0.634864 0.063322
vt 0.513782 0.064741
vt 0.513783 0.129858
vt 0.556482 0.063324
vt 0.634867 0.306226
vt 0.607381 0.263500
vt 0.634864 0.057557
vt 0.607376 0.057558
vt 0.601610 0.057558
vt 0.601610 0.052763
vt 0.640629 0.052762
vt 0.640629 0.057557
vt 0.556488 0.263502
vn 1.0000 0.0000 0.0000
vn -1.0000 0.0000 0.0000
vn 0.0000 0.1862 0.9825
vn 0.0000 0.3577 0.9339
vn 0.0000 0.1481 0.9890
vn -0.0000 0.1481 -0.9890
vn -0.0000 0.0331 -0.9995
vn 0.0000 0.0331 0.9995
vn 0.0000 0.0335 0.9994
vn 0.0000 0.5457 0.8380
vn -0.0000 1.0000 0.0000
vn 0.0000 0.9808 -0.1951
vn 0.0000 0.9239 -0.3827
vn 0.0000 0.8315 -0.5556
vn 0.0000 0.7071 -0.7071
vn -0.0000 0.5457 -0.8380
vn -0.0000 0.3577 -0.9338
vn 0.0000 0.9239 0.3827
vn 0.0000 0.9808 0.1951
vn 0.0000 0.8315 0.5556
vn 0.0000 0.7071 0.7071
vn 0.0000 0.0340 0.9994
vn 0.0000 0.9994 -0.0340
vn 0.0000 -1.0000 0.0000
vn 0.0000 -0.9999 0.0113
vn 0.0000 -0.9994 0.0340
usemtl UV
s off
f 29/1/1 27/2/1 13/3/1
f 30/4/2 14/5/2 28/6/2
s 1
f 16/7/2 37/8/2 38/9/2 2/10/2
f 32/11/3 18/12/4 37/13/5
f 22/14/2 24/15/2 10/16/2 8/17/2
f 20/18/2 22/14/2 8/17/2 6/19/2
f 18/20/2 20/18/2 6/19/2 4/21/2
f 38/22/6 34/23/6 1/24/7 2/10/7
f 24/15/2 26/25/2 12/26/2 10/16/2
f 19/27/1 17/28/1 3/29/1 5/30/1
f 21/31/1 19/27/1 5/30/1 7/32/1
f 23/33/1 21/31/1 7/32/1 9/34/1
f 25/35/1 23/33/1 9/34/1 11/36/1
f 27/2/1 25/35/1 11/36/1 13/3/1
f 32/11/3 37/13/5 16/37/8 40/38/9
f 26/25/2 28/6/2 14/5/2 12/26/2
f 19/39/10 20/40/10 18/12/4 17/41/4
f 29/42/11 13/43/12 14/44/12 30/45/11
f 11/46/13 9/47/14 10/48/14 12/49/13
f 9/47/14 7/50/15 8/51/15 10/48/14
f 7/50/15 5/52/16 6/53/16 8/51/15
f 5/52/16 3/54/17 4/55/17 6/53/16
f 25/56/18 27/57/19 28/58/19 26/59/18
f 27/57/19 29/42/11 30/45/11 28/58/19
f 23/60/20 25/56/18 26/59/18 24/61/20
f 21/62/21 23/60/20 24/61/20 22/63/21
f 19/39/10 21/62/21 22/63/21 20/40/10
f 15/64/8 39/65/9 35/66/22
f 13/43/12 11/46/13 12/49/13 14/44/12
f 39/67/23 40/68/23 44/69/23 41/70/23
f 1/24/24 35/71/25 36/72/25 2/10/24
f 33/73/1 34/74/1 3/29/1 17/28/1
f 15/75/24 35/71/25 1/24/24
f 40/38/9 16/37/8 36/76/22
f 31/77/3 17/41/4 18/12/4 32/11/3
f 38/9/2 37/8/2 18/20/2 4/21/2
f 3/54/17 34/23/6 38/22/6 4/55/17
f 33/73/1 15/75/1 1/24/1 34/74/1
f 41/70/22 44/69/22 43/78/22 42/79/22
f 36/72/25 35/71/25 42/79/26 43/78/26
f 35/80/1 39/81/1 41/70/1 42/79/1
f 40/82/2 36/83/2 43/78/2 44/69/2
f 33/84/5 17/41/4 31/77/3
f 39/65/9 15/64/8 33/84/5 31/77/3
f 2/10/24 36/72/25 16/7/24
