# Blender v3.0.1 OBJ File: 'buildings_parts_modules uv_05.blend'
# www.blender.org
mtllib buildings_parts_window_middle pivit.mtl
o Hexoganal_module_03.002_Cylinder.002
v -2.220133 16.804348 6.854955
v -4.236353 16.804348 5.827641
v -5.836435 16.804348 4.227559
v -2.220133 25.007771 6.854955
v -4.236353 25.007771 5.827641
v -5.836435 25.007771 4.227559
v -2.732752 25.007771 7.560518
v -2.732752 16.804348 7.560518
v -4.748972 25.043661 6.533203
v -4.748972 16.840237 6.533203
v -6.349054 25.007771 4.933120
v -6.349054 16.804348 4.933120
v -2.852739 24.743727 7.480892
v -2.852739 17.068386 7.480892
v -4.752558 24.779615 6.538144
v -4.752558 17.104279 6.538144
v -6.236246 24.743727 5.022629
v -6.236246 17.068386 5.022629
v -2.740885 24.743727 7.326939
v -2.740885 17.068386 7.326939
v -4.640711 24.743727 6.384191
v -4.640711 17.068386 6.384191
v -6.124392 24.743727 4.868678
v -6.124392 17.068386 4.868678
vt 0.967006 0.368507
vt 0.967006 0.423503
vt 0.946380 0.423503
vt 0.946380 0.368507
vt 0.716034 0.368507
vt 0.716034 0.313510
vt 0.736661 0.313510
vt 0.736661 0.368507
vt 0.946380 0.313510
vt 0.939558 0.368507
vt 0.939558 0.313510
vt 0.736661 0.423503
vt 0.743483 0.368507
vt 0.743483 0.423503
vt 0.935032 0.457433
vt 0.748009 0.457433
vt 0.748009 0.435545
vt 0.935032 0.435545
vt 0.748009 0.279581
vt 0.935032 0.279581
vt 0.935032 0.301468
vt 0.748009 0.301468
vt 0.967006 0.313510
vt 0.716034 0.423503
vt 0.748009 0.368507
vt 0.748009 0.423503
vt 0.939558 0.423503
vt 0.935032 0.423503
vt 0.935032 0.368507
vt 0.743483 0.313510
vt 0.748009 0.428306
vt 0.935032 0.428306
vt 0.935032 0.308707
vt 0.748009 0.308707
vt 0.748009 0.313510
vt 0.935032 0.313510
vn 0.0121 0.9998 -0.0166
vn 0.0082 0.9998 -0.0194
vn -0.0121 -0.9998 0.0166
vn -0.0159 -0.9998 0.0138
vn -0.4828 -0.0145 0.8756
vn -0.5877 -0.0214 0.8088
vn -0.5087 -0.0092 0.8609
vn -0.6833 0.0145 0.7300
vn -0.5876 0.0216 0.8088
vn -0.6621 0.0094 0.7493
vn -0.8090 0.0000 -0.5878
vn 0.8090 0.0000 0.5878
vn 0.0160 0.9998 -0.0138
vn -0.0082 -0.9998 0.0194
vn 0.0611 0.9956 -0.0716
vn 0.0552 0.9956 -0.0760
vn -0.0552 -0.9956 0.0759
vn -0.0611 -0.9956 0.0716
vn -0.4831 0.0145 0.8755
vn -0.5081 0.0094 0.8613
vn -0.6835 -0.0145 0.7298
vn -0.6615 -0.0092 0.7499
vn -0.5878 0.0000 0.8090
vn -0.7146 0.0000 0.6996
vn -0.4445 0.0000 0.8958
vn -0.0492 -0.9956 0.0803
vn 0.0492 0.9956 -0.0803
usemtl UV
s 1
f 5/1/1 6/2/2 11/3/2 9/4/1
f 2/5/3 1/6/4 8/7/4 10/8/3
f 7/9/5 9/4/6 15/10/6 13/11/7
f 12/12/8 10/8/9 16/13/9 18/14/10
f 6/15/11 3/16/11 12/17/11 11/18/11
f 1/19/12 4/20/12 7/21/12 8/22/12
f 4/23/13 5/1/1 9/4/1 7/9/13
f 3/24/14 2/5/3 10/8/3 12/12/14
f 18/14/15 16/13/16 22/25/16 24/26/15
f 15/10/17 17/27/18 23/28/18 21/29/17
f 10/8/9 8/7/19 14/30/20 16/13/9
f 11/18/21 12/17/8 18/31/10 17/32/22
f 8/22/19 7/21/5 13/33/7 14/34/20
f 9/4/6 11/3/21 17/27/22 15/10/6
f 22/25/23 21/29/23 23/28/24 24/26/24
f 20/35/25 19/36/25 21/29/23 22/25/23
f 13/11/26 15/10/17 21/29/17 19/36/26
f 16/13/16 14/30/27 20/35/27 22/25/16
f 17/32/12 18/31/12 24/26/12 23/28/12
f 14/34/11 13/33/11 19/36/11 20/35/11
