# Blender v3.0.1 OBJ File: 'miscellaneous_uv_03.blend'
# www.blender.org
mtllib ladder_segment.mtl
o ladder_uv_Cube.001
v -0.843417 0.186844 -0.272199
v 0.843418 0.186844 -0.272199
v 0.843418 0.000000 -0.272199
v -0.843417 0.000000 -0.272199
v -0.724721 0.186844 0.082215
v -0.843417 0.186844 0.082215
v -0.843417 0.186844 0.272199
v 0.843417 0.186844 0.082215
v 0.724722 0.186844 0.082215
v 0.843418 0.186844 0.272199
v -0.843417 0.000000 0.272199
v 0.843418 0.000000 0.272199
v 0.724722 0.186844 -0.082215
v -0.724721 0.186844 -0.082215
v 0.843417 0.186844 -0.082215
v 0.724722 0.854333 -0.082215
v 0.843417 0.854333 -0.082215
v -0.843417 0.186844 -0.082215
v -0.843417 0.854333 -0.082215
v -0.724721 0.854333 -0.082215
v -0.724721 0.854333 0.082215
v 0.724722 0.854333 0.082215
v 0.843417 0.854333 0.082215
v -0.843417 0.854333 0.082215
vt 0.113152 0.396578
vt 0.150844 0.396578
vt 0.150844 0.400753
vt 0.113152 0.400753
vt 0.115804 0.388659
vt 0.113152 0.388659
vt 0.113152 0.384414
vt 0.150844 0.388659
vt 0.148192 0.388659
vt 0.150844 0.384414
vt 0.113152 0.380238
vt 0.150844 0.380238
vt 0.148192 0.392333
vt 0.115804 0.392333
vt 0.150844 0.412918
vt 0.113152 0.412918
vt 0.150844 0.392333
vt 0.155019 0.404998
vt 0.155019 0.402346
vt 0.169934 0.402346
vt 0.169934 0.404998
vt 0.108976 0.402346
vt 0.108976 0.404998
vt 0.094062 0.404998
vt 0.094062 0.402346
vt 0.155019 0.408672
vt 0.108976 0.412918
vt 0.108976 0.408672
vt 0.108976 0.411325
vt 0.108976 0.414999
vt 0.094062 0.414999
vt 0.094062 0.411325
vt 0.155019 0.414999
vt 0.155019 0.411325
vt 0.169934 0.411325
vt 0.169934 0.414999
vt 0.169934 0.408672
vt 0.094062 0.408672
vt 0.113152 0.392333
vt 0.155019 0.400753
vt 0.155019 0.412918
vt 0.108976 0.400753
vn 0.0000 0.0000 -1.0000
vn 0.0000 1.0000 0.0000
vn 0.0000 0.0000 1.0000
vn 0.0000 -1.0000 -0.0000
vn 1.0000 0.0000 0.0000
vn -1.0000 -0.0000 0.0000
usemtl UV
s 1
f 1/1/1 2/2/1 3/3/1 4/4/1
f 5/5/2 6/6/2 7/7/2
f 8/8/2 9/9/2 10/10/2
f 10/10/3 7/7/3 11/11/3 12/12/3
f 13/13/2 2/2/2 1/1/2 14/14/2
f 10/10/2 9/9/2 5/5/2 7/7/2
f 3/3/4 12/15/4 11/16/4 4/4/4
f 13/13/2 14/14/2 5/5/2 9/9/2
f 2/2/2 13/13/2 15/17/2
f 15/18/1 13/19/1 16/20/1 17/21/1
f 14/22/1 18/23/1 19/24/1 20/25/1
f 3/3/5 15/18/5 8/26/5 12/15/5
f 11/16/6 7/27/6 6/28/6
f 11/16/6 6/28/6 18/23/6 4/4/6
f 5/29/5 14/30/5 20/31/5 21/32/5
f 13/33/6 9/34/6 22/35/6 16/36/6
f 8/26/5 15/18/5 17/21/5 23/37/5
f 6/28/3 5/29/3 21/32/3 24/38/3
f 18/23/6 6/28/6 24/38/6 19/24/6
f 9/34/3 8/26/3 23/37/3 22/35/3
f 14/14/2 1/1/2 18/39/2
f 15/18/5 3/3/5 2/40/5
f 12/15/5 8/26/5 10/41/5
f 4/4/6 18/23/6 1/42/6
