# Blender v3.0.1 OBJ File: 'joints_05.blend'
# www.blender.org
mtllib stilts_stilt_03.mtl
o Cylinder.001_Cylinder.009
v 0.000003 0.790953 -1.194679
v 0.369179 0.790953 -1.136208
v 0.702217 0.790953 -0.966516
v 0.966517 0.790953 -0.702215
v 1.136209 0.790953 -0.369177
v 1.194681 0.790953 -0.000001
v 1.136209 0.790953 0.369175
v 0.966517 0.790953 0.702214
v 0.702217 0.790953 0.966515
v 0.369179 0.790953 1.136206
v 0.000003 0.790953 1.194678
v -0.369173 0.790953 1.136206
v -0.702212 0.790953 0.966515
v -0.966513 0.790953 0.702214
v -1.136204 0.790953 0.369175
v -1.194676 0.790953 -0.000001
v -1.136204 0.790953 -0.369177
v -0.966513 0.790953 -0.702215
v -0.702212 0.790953 -0.966516
v -0.369173 0.790953 -1.136208
v 0.000003 0.000000 -2.251462
v 0.000003 0.790953 -2.251462
v 0.695743 0.000000 -2.141267
v 0.695743 0.790953 -2.141267
v 1.323379 0.000000 -1.821471
v 1.323379 0.790953 -1.821471
v 1.821472 0.000000 -1.323376
v 1.821472 0.790953 -1.323376
v 2.141269 0.000000 -0.695740
v 2.141269 0.790953 -0.695740
v 2.251463 0.000000 -0.000001
v 2.251463 0.790953 -0.000001
v 2.141269 0.000000 0.695739
v 2.141269 0.790953 0.695739
v 1.821472 0.000000 1.323375
v 1.821472 0.790953 1.323375
v 1.323379 0.000000 1.821469
v 1.323379 0.790953 1.821469
v 0.695743 0.000000 2.141266
v 0.695743 0.790953 2.141266
v 0.000003 0.000000 2.251460
v 0.000003 0.790953 2.251460
v -0.695737 0.000000 2.141266
v -0.695737 0.790953 2.141266
v -1.323373 0.000000 1.821469
v -1.323373 0.790953 1.821469
v -1.821467 0.000000 1.323374
v -1.821467 0.790953 1.323374
v -2.141264 0.000000 0.695739
v -2.141264 0.790953 0.695739
v -2.251458 0.000000 -0.000001
v -2.251458 0.790953 -0.000001
v -2.141264 0.000000 -0.695741
v -2.141264 0.790953 -0.695741
v -1.821467 0.000000 -1.323376
v -1.821467 0.790953 -1.323376
v -1.323373 0.000000 -1.821470
v -1.323373 0.790953 -1.821470
v -0.695737 0.000000 -2.141267
v -0.695737 0.790953 -2.141267
v 0.000003 9.434798 -1.194679
v 0.369179 9.434798 -1.136208
v 0.702217 9.434798 -0.966516
v 0.966517 9.434798 -0.702215
v 1.136209 9.434798 -0.369177
v 1.194681 9.434798 -0.000001
v 1.136209 9.434798 0.369175
v 0.966517 9.434798 0.702214
v 0.702217 9.434798 0.966515
v 0.369179 9.434798 1.136206
v 0.000003 9.434798 1.194678
v -0.369173 9.434798 1.136206
v -0.702212 9.434798 0.966515
v -0.966513 9.434798 0.702214
v -1.136204 9.434798 0.369175
v -1.194676 9.434798 -0.000001
v -1.136204 9.434798 -0.369177
v -0.966513 9.434798 -0.702215
v -0.702212 9.434798 -0.966516
v -0.369173 9.434798 -1.136208
vt 0.977382 0.235670
vt 0.977382 0.249661
vt 0.603903 0.249661
vt 0.603903 0.235670
vt 0.977382 0.263651
vt 0.603903 0.263651
vt 0.977382 0.277642
vt 0.603903 0.277642
vt 0.977382 0.291632
vt 0.603903 0.291632
vt 0.977382 0.305623
vt 0.603903 0.305623
vt 0.977382 0.319613
vt 0.603903 0.319613
vt 0.977382 0.333604
vt 0.603903 0.333604
vt 0.977382 0.347595
vt 0.603903 0.347595
vt 0.977382 0.361585
vt 0.603903 0.361585
vt 0.977382 0.375576
vt 0.603903 0.375576
vt 0.977382 0.389566
vt 0.603903 0.389566
vt 0.977382 0.403557
vt 0.603903 0.403557
vt 0.977382 0.417547
vt 0.603903 0.417548
vt 0.977382 0.431538
vt 0.603903 0.431538
vt 0.977382 0.445529
vt 0.603903 0.445529
vt 0.977382 0.459519
vt 0.603903 0.459519
vt 0.977382 0.473510
vt 0.603903 0.473509
vt 0.977382 0.487500
vt 0.603903 0.487500
vt 0.977382 0.501491
vt 0.603903 0.501491
vt 0.554749 0.514715
vt 0.578430 0.514715
vt 0.578430 0.530175
vt 0.554749 0.530175
vt 0.554749 0.220977
vt 0.578430 0.220977
vt 0.578430 0.236437
vt 0.554749 0.236437
vt 0.578430 0.251896
vt 0.554749 0.251896
vt 0.578430 0.267357
vt 0.554749 0.267357
vt 0.578430 0.282816
vt 0.554749 0.282816
vt 0.578430 0.298276
vt 0.554749 0.298276
vt 0.578430 0.313736
vt 0.554749 0.313736
vt 0.578430 0.329196
vt 0.554749 0.329196
vt 0.578430 0.344656
vt 0.554750 0.344656
vt 0.578430 0.360116
vt 0.554750 0.360116
vt 0.578430 0.375576
vt 0.554750 0.375576
vt 0.578430 0.391036
vt 0.554750 0.391036
vt 0.578430 0.406496
vt 0.554750 0.406496
vt 0.578430 0.421955
vt 0.554750 0.421955
vt 0.578430 0.437415
vt 0.554750 0.437415
vt 0.578430 0.452875
vt 0.554750 0.452875
vt 0.578430 0.468335
vt 0.554750 0.468335
vt 0.578430 0.483795
vt 0.554749 0.483795
vt 0.578430 0.499255
vt 0.554749 0.499255
vt 0.603903 0.515481
vt 0.977382 0.515481
vn 0.3090 0.0000 -0.9511
vn 0.5878 0.0000 -0.8090
vn 0.8090 0.0000 -0.5878
vn 0.9511 0.0000 -0.3090
vn 1.0000 0.0000 0.0000
vn 0.9511 0.0000 0.3090
vn 0.8090 0.0000 0.5878
vn 0.5878 0.0000 0.8090
vn 0.3090 0.0000 0.9511
vn 0.0000 0.0000 1.0000
vn -0.3090 0.0000 0.9511
vn -0.5878 0.0000 0.8090
vn -0.8090 0.0000 0.5878
vn -0.9511 0.0000 0.3090
vn -1.0000 0.0000 0.0000
vn -0.9511 0.0000 -0.3090
vn -0.8090 0.0000 -0.5878
vn -0.5878 0.0000 -0.8090
vn -0.3090 0.0000 -0.9511
vn 0.0000 0.0000 -1.0000
vn 0.0000 1.0000 -0.0000
usemtl UV
s 1
f 62/1/1 63/2/2 3/3/2 2/4/1
f 63/2/2 64/5/3 4/6/3 3/3/2
f 64/5/3 65/7/4 5/8/4 4/6/3
f 65/7/4 66/9/5 6/10/5 5/8/4
f 66/9/5 67/11/6 7/12/6 6/10/5
f 67/11/6 68/13/7 8/14/7 7/12/6
f 68/13/7 69/15/8 9/16/8 8/14/7
f 69/15/8 70/17/9 10/18/9 9/16/8
f 70/17/9 71/19/10 11/20/10 10/18/9
f 71/19/10 72/21/11 12/22/11 11/20/10
f 72/21/11 73/23/12 13/24/12 12/22/11
f 73/23/12 74/25/13 14/26/13 13/24/12
f 74/25/13 75/27/14 15/28/14 14/26/13
f 75/27/14 76/29/15 16/30/15 15/28/14
f 76/29/15 77/31/16 17/32/16 16/30/15
f 77/31/16 78/33/17 18/34/17 17/32/16
f 78/33/17 79/35/18 19/36/18 18/34/17
f 79/35/18 80/37/19 20/38/19 19/36/18
f 80/37/19 61/39/20 1/40/20 20/38/19
f 21/41/20 22/42/20 24/43/1 23/44/1
f 23/45/1 24/46/1 26/47/2 25/48/2
f 25/48/2 26/47/2 28/49/3 27/50/3
f 27/50/3 28/49/3 30/51/4 29/52/4
f 29/52/4 30/51/4 32/53/5 31/54/5
f 31/54/5 32/53/5 34/55/6 33/56/6
f 33/56/6 34/55/6 36/57/7 35/58/7
f 35/58/7 36/57/7 38/59/8 37/60/8
f 37/60/8 38/59/8 40/61/9 39/62/9
f 39/62/9 40/61/9 42/63/10 41/64/10
f 41/64/10 42/63/10 44/65/11 43/66/11
f 43/66/11 44/65/11 46/67/12 45/68/12
f 45/68/12 46/67/12 48/69/13 47/70/13
f 47/70/13 48/69/13 50/71/14 49/72/14
f 49/72/14 50/71/14 52/73/15 51/74/15
f 51/74/15 52/73/15 54/75/16 53/76/16
f 53/76/16 54/75/16 56/77/17 55/78/17
f 55/78/17 56/77/17 58/79/18 57/80/18
f 57/80/18 58/79/18 60/81/19 59/82/19
f 59/82/19 60/81/19 22/42/20 21/41/20
f 22/42/21 60/81/21 20/38/21 1/40/21
f 60/81/21 58/79/21 19/36/21 20/38/21
f 58/79/21 56/77/21 18/34/21 19/36/21
f 56/77/21 54/75/21 17/32/21 18/34/21
f 54/75/21 52/73/21 16/30/21 17/32/21
f 52/73/21 50/71/21 15/28/21 16/30/21
f 50/71/21 48/69/21 14/26/21 15/28/21
f 48/69/21 46/67/21 13/24/21 14/26/21
f 46/67/21 44/65/21 12/22/21 13/24/21
f 44/65/21 42/63/21 11/20/21 12/22/21
f 42/63/21 40/61/21 10/18/21 11/20/21
f 40/61/21 38/59/21 9/16/21 10/18/21
f 38/59/21 36/57/21 8/14/21 9/16/21
f 36/57/21 34/55/21 7/12/21 8/14/21
f 34/55/21 32/53/21 6/10/21 7/12/21
f 32/53/21 30/51/21 5/8/21 6/10/21
f 30/51/21 28/49/21 4/6/21 5/8/21
f 28/49/21 26/47/21 3/3/21 4/6/21
f 26/47/21 24/46/21 2/4/21 3/3/21
f 24/43/21 22/42/21 1/40/21 2/83/21
f 61/39/20 62/84/1 2/83/1 1/40/20
