# Blender v3.0.1 OBJ File: 'miscellaneous_uv_03.blend'
# www.blender.org
mtllib walkway_segment.mtl
o onderkant_Cube.001
v -3.257335 0.714055 0.919443
v -3.257335 0.714055 -1.228528
v -3.257335 0.000000 -1.228528
v -3.257335 0.000000 0.919443
v 3.257335 0.714055 -1.228528
v 3.257335 0.714055 0.919443
v 3.257335 0.000000 0.919443
v 3.257335 0.000000 -1.228528
v 2.940443 2.259015 0.919443
v 2.940443 2.529264 0.919443
v 3.257335 2.529264 0.919443
v 3.257335 2.259015 0.919443
v 3.029765 2.115981 0.828095
v 3.168014 2.115981 0.828095
v 3.168014 2.115981 0.686706
v 3.257335 2.259015 0.595358
v 2.940443 2.259015 0.595358
v 3.029765 2.115981 0.686706
v 3.257335 2.529265 -1.228528
v 3.257335 2.259015 -1.228528
v 2.940443 2.259015 -1.228528
v 2.940443 2.529265 -1.228528
v 3.257335 0.714055 0.919443
v 3.168014 0.857088 0.828095
v 3.168014 0.857088 0.686706
v 3.257335 0.714055 0.595357
v 2.940443 0.714055 0.595357
v 3.029765 0.857088 0.686706
v 3.029765 0.857088 0.828095
v 2.940443 0.714055 0.919443
v -2.940445 2.259015 0.919443
v -3.257337 2.259015 0.919443
v -3.257337 2.529264 0.919443
v -2.940445 2.529264 0.919443
v -3.029767 2.115981 0.828095
v -3.168015 2.115981 0.828095
v -3.168015 2.115981 0.686706
v -3.029767 2.115981 0.686706
v -2.940445 2.259015 0.595358
v -3.257337 2.259015 0.595358
v -3.257337 2.259015 -1.228528
v -3.257337 2.529265 -1.228528
v -2.940445 2.259015 -1.228528
v -2.940445 2.529265 -1.228528
v -3.257337 0.714055 0.919443
v -3.257337 0.714055 0.595357
v -3.168015 0.857088 0.686706
v -3.168015 0.857088 0.828095
v -2.940445 0.714055 0.595357
v -2.940445 0.714055 0.919443
v -3.029767 0.857088 0.828095
v -3.029767 0.857088 0.686706
vt 0.925258 0.270353
vt 0.996800 0.270353
vt 0.996800 0.246570
vt 0.925258 0.246570
vt 0.996800 0.005805
vt 0.925258 0.005805
vt 0.925258 0.029588
vt 0.996800 0.029588
vt 0.925258 0.487336
vt 0.996800 0.487336
vt 0.354356 0.474036
vt 0.344261 0.474091
vt 0.344284 0.485901
vt 0.354356 0.485881
vt 0.371711 0.474036
vt 0.371711 0.485881
vt 0.371711 0.496593
vt 0.354356 0.496593
vt 0.354356 0.507890
vt 0.371711 0.507890
vt 0.371711 0.463324
vt 0.354356 0.463324
vt 0.332451 0.474114
vt 0.332292 0.394063
vt 0.322220 0.394083
vt 0.322356 0.462056
vt 0.322379 0.474134
vt 0.310411 0.394107
vt 0.310545 0.462079
vt 0.354309 0.461993
vt 0.354174 0.394020
vt 0.344102 0.394040
vt 0.502987 0.485881
vt 0.485632 0.485881
vt 0.485632 0.496593
vt 0.502987 0.496593
vt 0.502987 0.463324
vt 0.485632 0.463324
vt 0.485632 0.474036
vt 0.502987 0.474036
vt 0.485632 0.507890
vt 0.502987 0.507890
vt 0.354356 0.474036
vt 0.354356 0.485881
vt 0.344284 0.485901
vt 0.344261 0.474091
vt 0.371711 0.474036
vt 0.371711 0.485881
vt 0.371711 0.496593
vt 0.371711 0.507890
vt 0.354356 0.507890
vt 0.354356 0.496593
vt 0.371711 0.463324
vt 0.354356 0.463324
vt 0.332451 0.474114
vt 0.322356 0.462056
vt 0.322220 0.394083
vt 0.332292 0.394063
vt 0.322379 0.474134
vt 0.310545 0.462079
vt 0.310411 0.394107
vt 0.354309 0.461993
vt 0.344102 0.394040
vt 0.354174 0.394020
vt 0.502987 0.485881
vt 0.502987 0.496593
vt 0.485632 0.496593
vt 0.485632 0.485881
vt 0.502987 0.463324
vt 0.502987 0.474036
vt 0.485632 0.474036
vt 0.485632 0.463324
vt 0.502987 0.507890
vt 0.485632 0.507890
vn -1.0000 0.0000 0.0000
vn 1.0000 0.0000 0.0000
vn 0.0000 1.0000 0.0000
vn 0.0000 -1.0000 -0.0000
vn 0.0000 0.0000 -1.0000
vn 0.0000 0.5382 -0.8428
vn 0.0000 0.5382 0.8428
vn 0.8482 0.5297 0.0000
vn -0.8482 0.5297 0.0000
vn -0.8482 -0.5297 0.0000
vn 0.8482 -0.5297 0.0000
vn 0.0000 -0.5382 0.8428
vn 0.0000 -0.0000 1.0000
vn 0.0000 -0.5382 -0.8428
usemtl UV
s 1
f 1/1/1 2/2/1 3/3/1 4/4/1
f 5/5/2 6/6/2 7/7/2 8/8/2
f 2/2/3 1/1/3 6/9/3 5/10/3
f 8/8/4 7/7/4 4/4/4 3/3/4
f 9/11/5 10/12/5 11/13/5 12/14/5
f 13/15/6 9/11/6 12/14/6 14/16/6
f 15/17/7 16/18/7 17/19/7 18/20/7
f 18/21/8 17/22/8 9/11/8 13/15/8
f 14/16/9 12/14/9 16/18/9 15/17/9
f 11/23/1 19/24/1 20/25/1 16/26/1
f 12/27/1 11/23/1 16/26/1
f 16/26/3 20/25/3 21/28/3 17/29/3
f 17/30/2 21/31/2 22/32/2 10/12/2
f 23/33/10 24/34/10 25/35/10 26/36/10
f 24/34/1 14/16/1 15/17/1 25/35/1
f 27/37/11 28/38/11 29/39/11 30/40/11
f 28/38/2 18/21/2 13/15/2 29/39/2
f 26/36/12 25/35/12 28/41/12 27/42/12
f 25/35/13 15/17/13 18/20/13 28/41/13
f 30/40/14 29/39/14 24/34/14 23/33/14
f 29/39/5 13/15/5 14/16/5 24/34/5
f 11/23/4 10/12/4 22/32/4 19/24/4
f 10/12/2 9/11/2 17/30/2
f 31/43/5 32/44/5 33/45/5 34/46/5
f 35/47/6 36/48/6 32/44/6 31/43/6
f 37/49/7 38/50/7 39/51/7 40/52/7
f 38/53/9 35/47/9 31/43/9 39/54/9
f 36/48/8 37/49/8 40/52/8 32/44/8
f 33/55/2 40/56/2 41/57/2 42/58/2
f 32/59/2 40/56/2 33/55/2
f 40/56/3 39/60/3 43/61/3 41/57/3
f 39/62/1 34/46/1 44/63/1 43/64/1
f 45/65/11 46/66/11 47/67/11 48/68/11
f 48/68/2 47/67/2 37/49/2 36/48/2
f 49/69/10 50/70/10 51/71/10 52/72/10
f 52/72/1 51/71/1 35/47/1 38/53/1
f 46/66/12 49/73/12 52/74/12 47/67/12
f 47/67/13 52/74/13 38/50/13 37/49/13
f 50/70/14 45/65/14 48/68/14 51/71/14
f 51/71/5 48/68/5 36/48/5 35/47/5
f 33/55/4 42/58/4 44/63/4 34/46/4
f 34/46/1 39/62/1 31/43/1
