# Blender v3.0.1 OBJ File: 'miscellaneous_uv_02.blend'
# www.blender.org
mtllib window_01.mtl
o Plane.002
v 1.680313 -1.212743 0.080144
v 1.680313 -1.212743 -0.000000
v 1.680313 1.207054 0.000000
v 1.680313 1.207054 0.080144
v -1.694382 1.207054 0.000000
v -1.694382 1.207054 0.080144
v 1.614638 -0.132178 0.017541
v 1.614638 -0.132178 0.080144
v 0.105249 -0.132178 0.080144
v 0.105249 -0.132178 0.017541
v -1.694382 -1.212743 -0.000000
v -1.694382 -1.212743 0.080144
v -1.628710 -0.132178 0.080144
v -1.628710 -1.146266 0.080144
v -1.628710 1.140577 0.080144
v -1.628710 0.126489 0.080144
v 0.105249 1.140577 0.080144
v -0.119320 1.140577 0.080144
v 1.614638 -1.146266 0.017541
v 1.614638 -1.146266 0.080144
v 1.614638 1.140577 0.080144
v 1.614638 0.126489 0.080144
v 0.105249 0.126489 0.080144
v -0.119320 0.126489 0.080144
v -0.119320 0.126489 0.017541
v -1.628710 0.126489 0.017541
v -1.628710 -1.146266 0.017541
v -1.628710 -0.132178 0.017541
v -0.119320 -1.146266 0.080144
v -0.119320 -0.132178 0.080144
v -0.119320 -0.132178 0.017541
v -0.119320 -1.146266 0.017541
v 0.105249 -1.146266 0.080144
v 0.105249 -1.146266 0.017541
v -1.628710 1.140577 0.017541
v 1.614638 0.126489 0.017541
v 0.105249 0.126489 0.017541
v 0.105249 1.140577 0.017541
v 1.614638 1.140577 0.017541
v -0.119320 1.140577 0.017541
vt 0.203003 0.270265
vt 0.203003 0.264984
vt 0.276760 0.264495
vt 0.276760 0.270265
vt 0.282530 0.373128
vt 0.276760 0.373128
vt 0.282530 0.270265
vt 0.110222 0.355925
vt 0.108082 0.355925
vt 0.108082 0.309109
vt 0.110222 0.309109
vt 0.197233 0.373128
vt 0.196959 0.270265
vt 0.203003 0.373128
vt 0.235939 0.371126
vt 0.205029 0.371126
vt 0.274734 0.371126
vt 0.243823 0.371126
vt 0.274734 0.318274
vt 0.274734 0.325119
vt 0.110222 0.358774
vt 0.144895 0.355925
vt 0.144895 0.358774
vt 0.235939 0.272267
vt 0.274734 0.272267
vt 0.243824 0.272267
vt 0.243824 0.318274
vt 0.235939 0.318274
vt 0.108082 0.355925
vt 0.108082 0.309109
vt 0.110222 0.309109
vt 0.110222 0.355925
vt 0.144895 0.358774
vt 0.110222 0.358774
vt 0.110222 0.355925
vt 0.144895 0.355925
vt 0.110222 0.306259
vt 0.144895 0.306259
vt 0.144895 0.309109
vt 0.110222 0.309109
vt 0.147036 0.309109
vt 0.147036 0.355925
vt 0.144895 0.309109
vt 0.243823 0.325119
vt 0.235939 0.325119
vt 0.144895 0.358775
vt 0.110222 0.358774
vt 0.144895 0.355925
vt 0.110222 0.306259
vt 0.144895 0.306259
vt 0.147036 0.309109
vt 0.147036 0.355925
vt 0.144895 0.355925
vt 0.144895 0.309109
vt 0.110222 0.306259
vt 0.144895 0.306259
vt 0.110222 0.309109
vt 0.108082 0.355925
vt 0.108082 0.309109
vt 0.205029 0.325119
vt 0.205029 0.318274
vt 0.147036 0.309109
vt 0.147036 0.355925
vt 0.144895 0.358774
vt 0.110222 0.358774
vt 0.110222 0.355925
vt 0.147036 0.309109
vt 0.147036 0.355925
vt 0.144895 0.309109
vt 0.110222 0.306259
vt 0.144895 0.306259
vt 0.203003 0.378291
vt 0.276760 0.378410
vt 0.108082 0.355925
vt 0.108082 0.309109
vt 0.205029 0.272267
vn 1.0000 0.0000 0.0000
vn 0.0000 1.0000 0.0000
vn 0.0000 -1.0000 0.0000
vn 0.0000 -0.0000 1.0000
vn -1.0000 0.0000 0.0000
usemtl UV
s 1
f 1/1/1 2/2/1 3/3/1 4/4/1
f 5/5/2 6/6/2 4/4/2 3/7/2
f 7/8/3 8/9/3 9/10/3 10/11/3
f 11/12/3 2/13/3 1/1/3 12/14/3
f 13/15/4 12/14/4 14/16/4
f 15/17/4 6/6/4 16/18/4
f 17/19/4 4/4/4 6/6/4 18/20/4
f 8/21/5 7/8/5 19/22/5 20/23/5
f 16/18/4 6/6/4 12/14/4 13/15/4
f 8/24/4 1/1/4 4/4/4 21/25/4 22/26/4
f 23/27/4 9/28/4 8/24/4 22/26/4
f 16/29/2 24/30/2 25/31/2 26/32/2
f 13/33/1 14/34/1 27/35/1 28/36/1
f 29/37/5 30/38/5 31/39/5 32/40/5
f 33/41/2 20/42/2 19/22/2 34/43/2
f 24/44/4 30/45/4 9/28/4 23/27/4
f 23/27/4 17/19/4 18/20/4 24/44/4
f 15/46/1 16/47/1 26/32/1 35/48/1
f 9/49/1 33/50/1 34/43/1 10/11/1
f 23/51/2 22/52/2 36/53/2 37/54/2
f 17/55/1 23/56/1 37/54/1 38/57/1
f 14/58/2 29/59/2 32/40/2 27/35/2
f 9/28/4 30/45/4 29/60/4 33/61/4
f 30/62/3 13/63/3 28/36/3 31/39/3
f 22/64/5 21/65/5 39/66/5 36/53/5
f 18/67/3 15/68/3 35/48/3 40/69/3
f 24/70/5 18/71/5 40/69/5 25/31/5
f 11/72/5 12/14/5 6/6/5 5/73/5
f 21/74/3 17/75/3 38/57/3 39/66/3
f 37/54/4 36/53/4 39/66/4 38/57/4
f 26/32/4 25/31/4 40/69/4 35/48/4
f 24/44/4 16/18/4 13/15/4 30/45/4
f 27/35/4 32/40/4 31/39/4 28/36/4
f 1/1/4 33/61/4 29/60/4 12/14/4
f 34/43/4 19/22/4 7/8/4 10/11/4
f 21/25/4 4/4/4 17/19/4
f 1/1/4 8/24/4 20/76/4
f 33/61/4 1/1/4 20/76/4
f 29/60/4 14/16/4 12/14/4
f 18/20/4 6/6/4 15/17/4
