# Blender v3.0.1 OBJ File: 'miscellaneous_uv_03.blend'
# www.blender.org
mtllib zonnenpaneel_whole.mtl
o sunpannel.001_Cylinder.001
v -0.361674 0.400606 -0.174386
v 0.219436 1.994304 -0.174386
v -0.263446 0.400606 -0.148066
v 0.317664 1.994304 -0.148066
v -0.191538 0.400606 -0.076158
v 0.389572 1.994304 -0.076158
v -0.165218 0.400606 0.022070
v 0.415892 1.994304 0.022070
v -0.191538 0.400606 0.120297
v 0.389572 1.994304 0.120297
v -0.263446 0.400606 0.192205
v 0.317664 1.994304 0.192205
v -0.361674 0.400606 0.218525
v 0.219436 1.994304 0.218525
v -0.459902 0.400606 0.192205
v 0.121208 1.994304 0.192205
v -0.531810 0.400606 0.120297
v 0.049300 1.994304 0.120297
v -0.558130 0.400606 0.022070
v 0.022980 1.994304 0.022070
v -0.531810 0.400606 -0.076158
v 0.049300 1.994304 -0.076158
v -0.459902 0.400606 -0.148066
v 0.121208 1.994304 -0.148066
v 0.219436 4.309951 -0.133208
v 0.297075 4.309951 -0.112405
v 0.353911 4.309951 -0.055569
v 0.374714 4.309951 0.022070
v 0.353911 4.309951 0.099708
v 0.297075 4.309951 0.156544
v 0.219436 4.309951 0.177347
v 0.141797 4.309951 0.156544
v 0.084961 4.309951 0.099708
v 0.064158 4.309951 0.022070
v 0.084961 4.309951 -0.055569
v 0.141797 4.309951 -0.112405
v 0.274666 4.624910 -0.073592
v 0.219436 4.624910 -0.088391
v 0.315098 4.624910 -0.033161
v 0.329896 4.624910 0.022070
v 0.315098 4.624910 0.077300
v 0.274666 4.624910 0.117731
v 0.219436 4.624910 0.132530
v 0.164206 4.624910 0.117731
v 0.123775 4.624910 0.077300
v 0.108976 4.624910 0.022070
v 0.123775 4.624910 -0.033161
v 0.164206 4.624910 -0.073592
v 0.200581 4.632125 -0.114835
v 0.997430 4.632125 -0.114835
v 0.200581 4.563673 -0.096493
v 1.020290 4.566133 -0.096493
v 0.200581 4.513563 -0.046383
v 1.037025 4.517823 -0.046383
v 0.200581 4.495221 0.022070
v 1.043151 4.500141 0.022070
v 0.200581 4.513563 0.090522
v 1.037025 4.517823 0.090522
v 0.200581 4.563673 0.140632
v 1.020290 4.566133 0.140632
v 0.200581 4.632125 0.158974
v 0.997430 4.632125 0.158974
v 0.200581 4.700577 0.140632
v 0.974569 4.698117 0.140632
v 0.200581 4.750687 0.090522
v 0.957834 4.746427 0.090522
v 0.200581 4.769029 0.022070
v 0.951709 4.764109 0.022070
v 0.200581 4.750687 -0.046383
v 0.957834 4.746427 -0.046383
v 0.200581 4.700577 -0.096493
v 0.974569 4.698117 -0.096493
v 1.330220 4.769831 -0.096493
v 1.322600 4.838014 -0.114835
v 1.335799 4.719918 -0.046383
v 1.337841 4.701648 0.022070
v 1.335799 4.719918 0.090522
v 1.330220 4.769831 0.140632
v 1.322600 4.838014 0.158974
v 1.314979 4.906198 0.140632
v 1.309400 4.956111 0.090522
v 1.307358 4.974380 0.022069
v 1.309400 4.956111 -0.046383
v 1.314979 4.906198 -0.096493
v 3.315405 4.858372 -0.096493
v 3.307785 4.926555 -0.114835
v 3.320984 4.808459 -0.046383
v 3.323026 4.790189 0.022069
v 3.320984 4.808459 0.090522
v 3.315405 4.858372 0.140632
v 3.307785 4.926556 0.158974
v 3.300164 4.994739 0.140632
v 3.294585 5.044652 0.090522
v 3.292543 5.062922 0.022069
v 3.294585 5.044652 -0.046383
v 3.300164 4.994739 -0.096493
v -0.596269 4.632125 -0.114835
v -0.619129 4.566133 -0.096493
v -0.635864 4.517823 -0.046383
v -0.641990 4.500141 0.022070
v -0.635864 4.517823 0.090522
v -0.619129 4.566133 0.140632
v -0.596269 4.632125 0.158974
v -0.573408 4.698117 0.140632
v -0.556673 4.746427 0.090522
v -0.550548 4.764109 0.022070
v -0.556673 4.746427 -0.046383
v -0.573408 4.698117 -0.096493
v -0.929059 4.769831 -0.096493
v -0.921438 4.838014 -0.114835
v -0.934638 4.719918 -0.046383
v -0.936680 4.701648 0.022070
v -0.934638 4.719918 0.090522
v -0.929059 4.769831 0.140632
v -0.921438 4.838014 0.158974
v -0.913818 4.906198 0.140632
v -0.908239 4.956111 0.090522
v -0.906197 4.974380 0.022069
v -0.908239 4.956111 -0.046383
v -0.913818 4.906198 -0.096493
v -2.914244 4.858372 -0.096493
v -2.906623 4.926555 -0.114835
v -2.919823 4.808459 -0.046383
v -2.921865 4.790189 0.022069
v -2.919823 4.808459 0.090522
v -2.914244 4.858372 0.140632
v -2.906623 4.926556 0.158974
v -2.899003 4.994739 0.140632
v -2.893424 5.044652 0.090522
v -2.891382 5.062922 0.022069
v -2.893424 5.044652 -0.046383
v -2.899003 4.994739 -0.096493
v 2.217747 4.867376 0.161510
v 2.217747 4.867376 2.161510
v 2.213140 4.918827 0.161510
v 2.213140 4.918827 2.161510
v 3.200785 4.955393 0.161510
v 3.200785 4.955393 2.161510
v 3.196178 5.006844 0.161510
v 3.196178 5.006844 2.161510
v -2.036622 4.867376 0.161510
v -2.036622 4.867376 2.161510
v -2.032015 4.918827 0.161510
v -2.032015 4.918827 2.161510
v -3.019659 4.955393 0.161510
v -3.019659 4.955393 2.161510
v -3.015052 5.006844 0.161510
v -3.015052 5.006844 2.161510
v 2.217747 4.867376 -0.117371
v 2.217747 4.867376 -2.117371
v 2.213140 4.918827 -0.117371
v 2.213140 4.918827 -2.117371
v 3.200785 4.955393 -0.117371
v 3.200785 4.955393 -2.117371
v 3.196178 5.006844 -0.117371
v 3.196178 5.006844 -2.117371
v -2.036622 4.867376 -0.117371
v -2.036622 4.867376 -2.117371
v -2.032015 4.918827 -0.117371
v -2.032015 4.918827 -2.117371
v -3.019659 4.955393 -0.117371
v -3.019659 4.955393 -2.117371
v -3.015052 5.006844 -0.117371
v -3.015052 5.006844 -2.117371
v 0.942921 4.800160 0.174057
v 0.942921 4.800160 2.174057
v 0.944134 4.851802 0.174057
v 0.944134 4.851802 2.174057
v 1.929618 4.776973 0.174057
v 1.929618 4.776973 2.174057
v 1.930832 4.828616 0.174057
v 1.930832 4.828616 2.174057
v -0.761795 4.800160 0.174057
v -0.761795 4.800160 2.174057
v -0.763009 4.851802 0.174057
v -0.763008 4.851802 2.174057
v -1.748493 4.776973 0.174057
v -1.748493 4.776973 2.174057
v -1.749706 4.828616 0.174057
v -1.749707 4.828616 2.174057
v 0.942921 4.800160 -0.129918
v 0.942921 4.800160 -2.129918
v 0.944134 4.851802 -0.129918
v 0.944134 4.851802 -2.129918
v 1.929618 4.776973 -0.129918
v 1.929618 4.776973 -2.129918
v 1.930832 4.828616 -0.129918
v 1.930832 4.828616 -2.129918
v -0.761795 4.800160 -0.129918
v -0.761795 4.800160 -2.129918
v -0.763009 4.851803 -0.129918
v -0.763009 4.851802 -2.129918
v -1.748493 4.776973 -0.129918
v -1.748493 4.776973 -2.129918
v -1.749706 4.828616 -0.129918
v -1.749706 4.828616 -2.129918
vt 0.790113 0.196913
vt 0.619836 0.196913
vt 0.619836 0.192515
vt 0.790113 0.192515
vt 0.619835 0.108486
vt 0.790112 0.108486
vt 0.619835 0.104088
vt 0.790112 0.104088
vt 0.445160 0.108486
vt 0.615437 0.108486
vt 0.615438 0.192515
vt 0.445161 0.192516
vt 0.794510 0.108486
vt 0.794510 0.192515
vt 0.790113 0.196913
vt 0.790113 0.192515
vt 0.619836 0.192515
vt 0.619836 0.196913
vt 0.790112 0.108486
vt 0.619835 0.108486
vt 0.790112 0.104088
vt 0.619835 0.104088
vt 0.445160 0.108486
vt 0.445161 0.192516
vt 0.615438 0.192515
vt 0.615437 0.108486
vt 0.794510 0.192515
vt 0.794510 0.108486
vt 0.790113 0.196913
vt 0.790113 0.192515
vt 0.619836 0.192515
vt 0.619836 0.196913
vt 0.790112 0.108486
vt 0.619835 0.108486
vt 0.790112 0.104088
vt 0.619835 0.104088
vt 0.445160 0.108486
vt 0.445161 0.192516
vt 0.615438 0.192515
vt 0.615437 0.108486
vt 0.794510 0.192515
vt 0.794510 0.108486
vt 0.790113 0.196913
vt 0.619836 0.196913
vt 0.619836 0.192515
vt 0.790113 0.192515
vt 0.619835 0.108486
vt 0.790112 0.108486
vt 0.619835 0.104088
vt 0.790112 0.104088
vt 0.445160 0.108486
vt 0.615437 0.108486
vt 0.615438 0.192515
vt 0.445161 0.192516
vt 0.794510 0.108486
vt 0.794510 0.192515
vt 0.790113 0.196913
vt 0.619836 0.196913
vt 0.619836 0.192515
vt 0.790113 0.192515
vt 0.619835 0.108486
vt 0.790112 0.108486
vt 0.619835 0.104088
vt 0.790112 0.104088
vt 0.445160 0.108486
vt 0.615437 0.108486
vt 0.615438 0.192515
vt 0.445161 0.192516
vt 0.794510 0.108486
vt 0.794510 0.192515
vt 0.790113 0.196913
vt 0.790113 0.192515
vt 0.619836 0.192515
vt 0.619836 0.196913
vt 0.790112 0.108486
vt 0.619835 0.108486
vt 0.790112 0.104088
vt 0.619835 0.104088
vt 0.445160 0.108486
vt 0.445161 0.192516
vt 0.615438 0.192515
vt 0.615437 0.108486
vt 0.794510 0.192515
vt 0.794510 0.108486
vt 0.790113 0.196913
vt 0.790113 0.192515
vt 0.619836 0.192515
vt 0.619836 0.196913
vt 0.790112 0.108486
vt 0.619835 0.108486
vt 0.790112 0.104088
vt 0.619835 0.104088
vt 0.445160 0.108486
vt 0.445161 0.192516
vt 0.615438 0.192515
vt 0.615437 0.108486
vt 0.794510 0.192515
vt 0.794510 0.108486
vt 0.790113 0.196913
vt 0.619836 0.196913
vt 0.619836 0.192515
vt 0.790113 0.192515
vt 0.619835 0.108486
vt 0.790112 0.108486
vt 0.619835 0.104088
vt 0.790112 0.104088
vt 0.445160 0.108486
vt 0.615437 0.108486
vt 0.615438 0.192515
vt 0.445161 0.192516
vt 0.794510 0.108486
vt 0.794510 0.192515
vt 0.786089 0.081985
vt 0.687333 0.081985
vt 0.687333 0.077486
vt 0.786089 0.077486
vt 0.687333 0.072987
vt 0.786089 0.072987
vt 0.687333 0.068489
vt 0.786089 0.068489
vt 0.687333 0.062239
vt 0.786089 0.062239
vt 0.687333 0.057740
vt 0.786089 0.057740
vt 0.687333 0.053242
vt 0.786089 0.053242
vt 0.687333 0.048743
vt 0.786089 0.048743
vt 0.687333 0.044245
vt 0.786089 0.044245
vt 0.687333 0.039746
vt 0.786089 0.039746
vt 0.786089 0.097231
vt 0.687333 0.097231
vt 0.687333 0.090981
vt 0.786089 0.090981
vt 0.687333 0.086483
vt 0.786089 0.086483
vt 0.548294 0.087893
vt 0.548294 0.084012
vt 0.548294 0.072370
vt 0.548294 0.068489
vt 0.548294 0.080131
vt 0.548294 0.076250
vt 0.548294 0.063097
vt 0.548294 0.047574
vt 0.548294 0.051455
vt 0.523379 0.051420
vt 0.523379 0.047531
vt 0.523379 0.080155
vt 0.523379 0.076266
vt 0.523379 0.087932
vt 0.523379 0.084044
vt 0.523379 0.068489
vt 0.523379 0.063086
vt 0.548294 0.055336
vt 0.523379 0.055309
vt 0.548294 0.093285
vt 0.548294 0.043694
vt 0.548294 0.059217
vt 0.516020 0.100754
vt 0.510611 0.100777
vt 0.510528 0.080590
vt 0.515937 0.080568
vt 0.505916 0.098092
vt 0.505855 0.083314
vt 0.520633 0.083253
vt 0.520693 0.098031
vt 0.523379 0.093335
vt 0.503170 0.088009
vt 0.503192 0.093418
vt 0.523379 0.059197
vt 0.523379 0.072378
vt 0.523379 0.043643
vt 0.675372 0.939838
vt 0.632068 0.939838
vt 0.632068 0.934262
vt 0.675372 0.934262
vt 0.632068 0.928678
vt 0.675372 0.928678
vt 0.632068 0.923085
vt 0.675372 0.923085
vt 0.675372 0.990097
vt 0.632068 0.990097
vt 0.632068 0.984504
vt 0.675372 0.984504
vt 0.632068 0.978919
vt 0.675372 0.978919
vt 0.632068 0.973344
vt 0.675372 0.973344
vt 0.632068 0.967769
vt 0.675372 0.967769
vt 0.632068 0.962184
vt 0.675372 0.962184
vt 0.632068 0.956591
vt 0.675372 0.956591
vt 0.632068 0.950997
vt 0.675372 0.950997
vt 0.632068 0.945413
vt 0.675372 0.945413
vt 0.605018 0.934262
vt 0.605018 0.928678
vt 0.605018 0.950997
vt 0.605018 0.945413
vt 0.605018 0.923085
vt 0.605018 0.939838
vt 0.605018 0.978919
vt 0.605018 0.984504
vt 0.479078 0.984504
vt 0.479078 0.978919
vt 0.605018 0.962184
vt 0.605018 0.967769
vt 0.479078 0.967769
vt 0.479078 0.962184
vt 0.479078 0.939838
vt 0.479078 0.934263
vt 0.479078 0.950997
vt 0.479078 0.945413
vt 0.605018 0.990097
vt 0.479078 0.990097
vt 0.605018 0.956591
vt 0.605018 0.973344
vt 0.466087 0.977008
vt 0.471594 0.977014
vt 0.471531 0.997636
vt 0.466023 0.997630
vt 0.476356 0.979783
vt 0.476309 0.994879
vt 0.461262 0.994861
vt 0.461308 0.979765
vt 0.458523 0.990072
vt 0.458540 0.984547
vt 0.479095 0.984571
vt 0.479078 0.928678
vt 0.479078 0.956591
vt 0.479078 0.973344
vt 0.479078 0.923085
vt 0.632068 0.934262
vt 0.632068 0.939838
vt 0.632068 0.928678
vt 0.632068 0.923085
vt 0.632068 0.984504
vt 0.632068 0.990097
vt 0.632068 0.978919
vt 0.632068 0.973344
vt 0.632068 0.967769
vt 0.632068 0.962184
vt 0.632068 0.956591
vt 0.632068 0.950997
vt 0.632068 0.945413
vt 0.605018 0.928678
vt 0.605018 0.934262
vt 0.605018 0.945413
vt 0.605018 0.950997
vt 0.605018 0.923085
vt 0.605018 0.939838
vt 0.605018 0.978919
vt 0.479078 0.978919
vt 0.479078 0.984504
vt 0.605018 0.984504
vt 0.605018 0.962184
vt 0.479078 0.962184
vt 0.479078 0.967769
vt 0.605018 0.967769
vt 0.479078 0.934263
vt 0.479078 0.939838
vt 0.479078 0.945413
vt 0.479078 0.950997
vt 0.479078 0.990097
vt 0.605018 0.990097
vt 0.605018 0.956591
vt 0.605018 0.973344
vt 0.466087 0.977008
vt 0.466023 0.997630
vt 0.471531 0.997636
vt 0.471594 0.977014
vt 0.476309 0.994879
vt 0.476356 0.979783
vt 0.461308 0.979765
vt 0.461262 0.994861
vt 0.458540 0.984547
vt 0.458523 0.990072
vt 0.479095 0.984571
vt 0.479078 0.928678
vt 0.479078 0.956591
vt 0.479078 0.973344
vt 0.479078 0.923085
vn -0.9960 -0.0892 0.0000
vn -0.0892 0.9960 0.0000
vn 0.9960 0.0892 0.0000
vn 0.0892 -0.9960 0.0000
vn -0.0000 0.0000 -1.0000
vn 0.0000 0.0000 1.0000
vn 0.9960 -0.0892 0.0000
vn 0.0892 0.9960 0.0000
vn -0.9960 0.0892 0.0000
vn -0.0892 -0.9960 0.0000
vn -0.9997 0.0235 -0.0000
vn 0.0235 0.9997 0.0000
vn 0.9997 -0.0235 0.0000
vn -0.0235 -0.9997 -0.0000
vn 0.9997 0.0235 -0.0000
vn -0.0235 0.9997 -0.0000
vn -0.9997 -0.0235 -0.0000
vn 0.0235 -0.9997 0.0000
vn -0.0574 0.0209 -0.9981
vn 0.0287 -0.0016 -0.9996
vn 0.5180 -0.0869 -0.8510
vn 0.4484 -0.1635 -0.8787
vn 0.8634 -0.1420 -0.4841
vn 0.8122 -0.2962 -0.5026
vn 0.9870 -0.1605 -0.0000
vn 0.9395 -0.3426 0.0000
vn 0.8634 -0.1420 0.4841
vn 0.8122 -0.2962 0.5026
vn 0.5180 -0.0869 0.8510
vn 0.4484 -0.1635 0.8787
vn 0.0287 -0.0016 0.9996
vn -0.0574 0.0209 0.9981
vn -0.4752 0.0921 0.8751
vn -0.5304 0.1934 0.8254
vn -0.8469 0.1623 0.5064
vn -0.8370 0.3052 0.4542
vn -0.9822 0.1878 0.0000
vn -0.9395 0.3426 0.0000
vn -0.8469 0.1623 -0.5064
vn -0.8370 0.3052 -0.4542
vn -0.4752 0.0921 -0.8751
vn -0.5304 0.1934 -0.8254
vn -0.8633 0.0787 -0.4984
vn -0.4984 0.0787 -0.8633
vn 0.8633 0.0787 -0.4984
vn 0.9969 0.0787 0.0000
vn 0.0000 0.0787 -0.9969
vn 0.4984 0.0787 -0.8633
vn 0.8633 0.0787 0.4984
vn -0.8633 0.0787 0.4984
vn -0.4984 0.0787 0.8633
vn -0.4950 0.1409 0.8574
vn -0.8574 0.1409 0.4950
vn 0.0000 0.1409 -0.9900
vn 0.4950 0.1409 -0.8574
vn -0.8574 0.1409 -0.4950
vn -0.4950 0.1409 -0.8574
vn 0.9900 0.1409 0.0000
vn 0.8574 0.1409 0.4950
vn -0.0000 0.0787 0.9969
vn 0.0000 0.1409 0.9900
vn -0.9969 0.0787 0.0000
vn 0.4984 0.0787 0.8633
vn 0.0000 1.0000 -0.0000
vn 0.4950 0.1409 0.8574
vn 0.8574 0.1409 -0.4950
vn -0.9900 0.1409 0.0000
vn -0.0000 0.0001 -1.0000
vn 0.0121 -0.0446 -0.9989
vn 0.1554 -0.5098 -0.8461
vn -0.0000 -0.5061 -0.8625
vn 0.2607 -0.8371 -0.4810
vn 0.0000 -0.8695 -0.4940
vn 0.2988 -0.9543 0.0000
vn 0.0000 -1.0000 0.0000
vn 0.2607 -0.8371 0.4810
vn -0.0000 -0.8695 0.4940
vn 0.1554 -0.5098 0.8461
vn -0.0000 -0.5061 0.8625
vn 0.0121 -0.0446 0.9989
vn -0.0000 0.0001 1.0000
vn -0.1268 0.4452 0.8864
vn -0.0000 0.5065 0.8623
vn -0.2243 0.8228 0.5221
vn 0.0000 0.8698 0.4934
vn -0.2591 0.9658 0.0000
vn -0.2243 0.8228 -0.5221
vn 0.0000 0.8698 -0.4934
vn -0.1268 0.4452 -0.8864
vn 0.0000 0.5065 -0.8623
vn 0.1412 -0.4415 -0.8861
vn 0.2735 -0.8080 -0.5218
vn -0.2485 0.8377 -0.4863
vn -0.1588 0.5028 -0.8497
vn 0.3246 -0.9459 0.0000
vn -0.0200 0.0389 -0.9990
vn 0.1412 -0.4415 0.8861
vn 0.2735 -0.8080 0.5218
vn 0.0387 -0.8679 0.4952
vn 0.0226 -0.5078 0.8612
vn -0.2485 0.8377 0.4863
vn -0.1588 0.5028 0.8497
vn -0.0219 0.4913 0.8707
vn -0.0385 0.8624 0.5047
vn 0.0005 -0.0110 -0.9999
vn 0.0226 -0.5078 -0.8612
vn -0.0385 0.8624 -0.5047
vn -0.0219 0.4913 -0.8707
vn 0.0446 -0.9990 0.0000
vn -0.2794 0.9602 -0.0000
vn -0.0200 0.0389 0.9990
vn 0.9938 0.1111 -0.0000
vn 0.0387 -0.8679 -0.4952
vn -0.0446 0.9990 0.0000
vn 0.0005 -0.0110 0.9999
vn -0.1554 -0.5098 -0.8461
vn -0.0121 -0.0446 -0.9989
vn -0.2607 -0.8371 -0.4810
vn -0.2988 -0.9543 0.0000
vn -0.2607 -0.8371 0.4810
vn -0.1554 -0.5098 0.8461
vn -0.0121 -0.0446 0.9989
vn 0.1268 0.4452 0.8864
vn 0.2243 0.8228 0.5221
vn 0.2591 0.9658 -0.0000
vn 0.2243 0.8228 -0.5221
vn 0.1268 0.4452 -0.8864
vn -0.2735 -0.8080 -0.5218
vn -0.1412 -0.4415 -0.8861
vn 0.1588 0.5028 -0.8497
vn 0.2485 0.8377 -0.4863
vn -0.3246 -0.9459 -0.0000
vn 0.0200 0.0389 -0.9990
vn -0.1412 -0.4415 0.8861
vn -0.0226 -0.5078 0.8612
vn -0.0387 -0.8679 0.4952
vn -0.2735 -0.8080 0.5218
vn 0.2485 0.8377 0.4863
vn 0.0385 0.8624 0.5047
vn 0.0219 0.4913 0.8707
vn 0.1588 0.5028 0.8497
vn -0.0226 -0.5078 -0.8612
vn -0.0005 -0.0110 -0.9999
vn 0.0219 0.4913 -0.8707
vn 0.0385 0.8624 -0.5047
vn -0.0446 -0.9990 -0.0000
vn 0.2794 0.9602 -0.0000
vn 0.0200 0.0389 0.9990
vn -0.9938 0.1111 -0.0000
vn -0.0387 -0.8679 -0.4952
vn 0.0446 0.9990 0.0000
vn -0.0005 -0.0110 0.9999
usemtl UV
s off
f 133/1/1 134/2/1 136/3/1 135/4/1
f 135/4/2 136/3/2 140/5/2 139/6/2
f 139/6/3 140/5/3 138/7/3 137/8/3
f 137/9/4 138/10/4 134/11/4 133/12/4
f 135/4/5 139/6/5 137/13/5 133/14/5
f 140/5/6 136/3/6 134/11/6 138/10/6
f 141/15/7 143/16/7 144/17/7 142/18/7
f 143/16/8 147/19/8 148/20/8 144/17/8
f 147/19/9 145/21/9 146/22/9 148/20/9
f 145/23/10 141/24/10 142/25/10 146/26/10
f 143/16/5 141/27/5 145/28/5 147/19/5
f 148/20/6 146/26/6 142/25/6 144/17/6
f 149/29/1 151/30/1 152/31/1 150/32/1
f 151/30/2 155/33/2 156/34/2 152/31/2
f 155/33/3 153/35/3 154/36/3 156/34/3
f 153/37/4 149/38/4 150/39/4 154/40/4
f 151/30/6 149/41/6 153/42/6 155/33/6
f 156/34/5 154/40/5 150/39/5 152/31/5
f 157/43/7 158/44/7 160/45/7 159/46/7
f 159/46/8 160/45/8 164/47/8 163/48/8
f 163/48/9 164/47/9 162/49/9 161/50/9
f 161/51/10 162/52/10 158/53/10 157/54/10
f 159/46/6 163/48/6 161/55/6 157/56/6
f 164/47/5 160/45/5 158/53/5 162/52/5
f 165/57/11 166/58/11 168/59/11 167/60/11
f 167/60/12 168/59/12 172/61/12 171/62/12
f 171/62/13 172/61/13 170/63/13 169/64/13
f 169/65/14 170/66/14 166/67/14 165/68/14
f 167/60/5 171/62/5 169/69/5 165/70/5
f 172/61/6 168/59/6 166/67/6 170/66/6
f 173/71/15 175/72/15 176/73/15 174/74/15
f 175/72/16 179/75/16 180/76/16 176/73/16
f 179/75/17 177/77/17 178/78/17 180/76/17
f 177/79/18 173/80/18 174/81/18 178/82/18
f 175/72/5 173/83/5 177/84/5 179/75/5
f 180/76/6 178/82/6 174/81/6 176/73/6
f 181/85/11 183/86/11 184/87/11 182/88/11
f 183/86/12 187/89/12 188/90/12 184/87/12
f 187/89/13 185/91/13 186/92/13 188/90/13
f 185/93/14 181/94/14 182/95/14 186/96/14
f 183/86/6 181/97/6 185/98/6 187/89/6
f 188/90/5 186/96/5 182/95/5 184/87/5
f 189/99/15 190/100/15 192/101/15 191/102/15
f 191/102/16 192/101/16 196/103/16 195/104/16
f 195/104/17 196/103/17 194/105/17 193/106/17
f 193/107/18 194/108/18 190/109/18 189/110/18
f 191/102/6 195/104/6 193/111/6 189/112/6
f 196/103/5 192/101/5 190/109/5 194/108/5
s 1
f 1/113/19 2/114/20 4/115/21 3/116/22
f 3/116/22 4/115/21 6/117/23 5/118/24
f 5/118/24 6/117/23 8/119/25 7/120/26
f 7/120/26 8/119/25 10/121/27 9/122/28
f 9/122/28 10/121/27 12/123/29 11/124/30
f 11/124/30 12/123/29 14/125/31 13/126/32
f 13/126/32 14/125/31 16/127/33 15/128/34
f 15/128/34 16/127/33 18/129/35 17/130/36
f 17/130/36 18/129/35 20/131/37 19/132/38
f 19/133/38 20/134/37 22/135/39 21/136/40
f 21/136/40 22/135/39 24/137/41 23/138/42
f 23/138/42 24/137/41 2/114/20 1/113/19
f 24/137/41 22/135/39 35/139/43 36/140/44
f 8/119/25 6/117/23 27/141/45 28/142/46
f 4/115/21 2/114/20 25/143/47 26/144/48
f 2/114/20 24/137/41 36/140/44 25/143/47
f 10/121/27 8/119/25 28/142/46 29/145/49
f 33/146/50 32/147/51 44/148/52 45/149/53
f 26/144/48 25/143/47 38/150/54 37/151/55
f 36/140/44 35/139/43 47/152/56 48/153/57
f 29/145/49 28/142/46 40/154/58 41/155/59
f 32/147/51 31/156/60 43/157/61 44/148/52
f 6/117/23 4/115/21 26/144/48 27/141/45
f 22/135/39 20/134/37 34/158/62 35/139/43
f 20/131/37 18/129/35 33/146/50 34/159/62
f 18/129/35 16/127/33 32/147/51 33/146/50
f 16/127/33 14/125/31 31/156/60 32/147/51
f 14/125/31 12/123/29 30/160/63 31/156/60
f 12/123/29 10/121/27 29/145/49 30/160/63
f 44/161/64 43/162/64 37/163/64 38/164/64
f 43/162/64 42/165/64 39/166/64 37/163/64
f 38/164/64 48/167/64 45/168/64 44/161/64
f 45/168/64 48/167/64 47/152/64 46/169/64
f 40/170/64 39/166/64 42/165/64 41/171/64
f 30/160/63 29/145/49 41/155/59 42/172/65
f 25/143/47 36/140/44 48/153/57 38/150/54
f 27/141/45 26/144/48 37/151/55 39/173/66
f 34/159/62 33/146/50 45/149/53 46/174/67
f 31/156/60 30/160/63 42/172/65 43/157/61
f 28/142/46 27/141/45 39/173/66 40/154/58
f 35/139/43 34/158/62 46/169/67 47/152/56
f 49/175/68 50/176/69 52/177/70 51/178/71
f 51/178/71 52/177/70 54/179/72 53/180/73
f 53/180/73 54/179/72 56/181/74 55/182/75
f 55/183/75 56/184/74 58/185/76 57/186/77
f 57/186/77 58/185/76 60/187/78 59/188/79
f 59/188/79 60/187/78 62/189/80 61/190/81
f 61/190/81 62/189/80 64/191/82 63/192/83
f 63/192/83 64/191/82 66/193/84 65/194/85
f 65/194/85 66/193/84 68/195/86 67/196/64
f 67/196/64 68/195/86 70/197/87 69/198/88
f 69/198/88 70/197/87 72/199/89 71/200/90
f 71/200/90 72/199/89 50/176/69 49/175/68
f 54/179/72 52/177/70 73/201/91 75/202/92
f 72/199/89 70/197/87 83/203/93 84/204/94
f 56/181/74 54/179/72 75/202/92 76/205/95
f 52/177/70 50/176/69 74/206/96 73/201/91
f 50/176/69 72/199/89 84/204/94 74/206/96
f 78/207/97 77/208/98 89/209/99 90/210/100
f 81/211/101 80/212/102 92/213/103 93/214/104
f 73/201/91 74/206/96 86/215/105 85/216/106
f 84/204/94 83/203/93 95/217/107 96/218/108
f 77/208/98 76/219/95 88/220/109 89/209/99
f 70/197/87 68/195/86 82/221/110 83/203/93
f 68/195/86 66/193/84 81/211/101 82/221/110
f 66/193/84 64/191/82 80/212/102 81/211/101
f 64/191/82 62/189/80 79/222/111 80/212/102
f 62/189/80 60/187/78 78/207/97 79/222/111
f 60/187/78 58/185/76 77/208/98 78/207/97
f 58/185/76 56/184/74 76/219/95 77/208/98
f 92/223/112 91/224/112 85/225/112 86/226/112
f 91/224/112 90/227/112 87/228/112 85/225/112
f 86/226/112 96/229/112 93/230/112 92/223/112
f 93/230/112 96/229/112 95/231/112 94/232/112
f 88/220/112 87/228/112 90/227/112 89/233/112
f 74/206/96 84/204/94 96/218/108 86/215/105
f 75/202/92 73/201/91 85/216/106 87/234/113
f 82/221/110 81/211/101 93/214/104 94/235/114
f 79/222/111 78/207/97 90/210/100 91/236/115
f 76/205/95 75/202/92 87/234/113 88/237/109
f 83/203/93 82/221/110 94/235/114 95/217/107
f 80/212/102 79/222/111 91/236/115 92/213/103
f 49/175/68 51/178/71 98/238/116 97/239/117
f 51/178/71 53/180/73 99/240/118 98/238/116
f 53/180/73 55/182/75 100/241/119 99/240/118
f 55/183/75 57/186/77 101/242/120 100/243/119
f 57/186/77 59/188/79 102/244/121 101/242/120
f 59/188/79 61/190/81 103/245/122 102/244/121
f 61/190/81 63/192/83 104/246/123 103/245/122
f 63/192/83 65/194/85 105/247/124 104/246/123
f 65/194/85 67/196/64 106/248/125 105/247/124
f 67/196/64 69/198/88 107/249/126 106/248/125
f 69/198/88 71/200/90 108/250/127 107/249/126
f 71/200/90 49/175/68 97/239/117 108/250/127
f 99/240/118 111/251/128 109/252/129 98/238/116
f 108/250/127 120/253/130 119/254/131 107/249/126
f 100/241/119 112/255/132 111/251/128 99/240/118
f 98/238/116 109/252/129 110/256/133 97/239/117
f 97/239/117 110/256/133 120/253/130 108/250/127
f 114/257/134 126/258/135 125/259/136 113/260/137
f 117/261/138 129/262/139 128/263/140 116/264/141
f 109/252/129 121/265/142 122/266/143 110/256/133
f 120/253/130 132/267/144 131/268/145 119/254/131
f 113/260/137 125/259/136 124/269/146 112/270/132
f 107/249/126 119/254/131 118/271/147 106/248/125
f 106/248/125 118/271/147 117/261/138 105/247/124
f 105/247/124 117/261/138 116/264/141 104/246/123
f 104/246/123 116/264/141 115/272/148 103/245/122
f 103/245/122 115/272/148 114/257/134 102/244/121
f 102/244/121 114/257/134 113/260/137 101/242/120
f 101/242/120 113/260/137 112/270/132 100/243/119
f 128/273/149 122/274/149 121/275/149 127/276/149
f 127/276/149 121/275/149 123/277/149 126/278/149
f 122/274/149 128/273/149 129/279/149 132/280/149
f 129/279/149 130/281/149 131/282/149 132/280/149
f 124/269/149 125/283/149 126/278/149 123/277/149
f 110/256/133 122/266/143 132/267/144 120/253/130
f 111/251/128 123/284/150 121/265/142 109/252/129
f 118/271/147 130/285/151 129/262/139 117/261/138
f 115/272/148 127/286/152 126/258/135 114/257/134
f 112/255/132 124/287/146 123/284/150 111/251/128
f 119/254/131 131/268/145 130/285/151 118/271/147
f 116/264/141 128/263/140 127/286/152 115/272/148
