# Blender v2.92.0 OBJ File: ''
# www.blender.org
mtllib steel pannestoel obj.mtl
o Plane
v 0.000000 5.091239 0.169444
v -0.000000 -0.010825 0.169444
v 0.000000 5.091239 -0.169444
v -0.000000 -0.010825 -0.169444
vt 0.499900 0.499900
vt 0.000100 0.499900
vt 0.000100 0.000100
vt 0.499900 0.000100
vn 1.0000 -0.0000 0.0000
usemtl None
s off
f 1/1/1 2/2/1 4/3/1 3/4/1
o Plane.001
v -0.169444 5.091239 -0.000000
v -0.169444 -0.010825 -0.000000
v 0.169444 5.091239 0.000000
v 0.169444 -0.010825 0.000000
vt 0.999900 0.499900
vt 0.500100 0.499900
vt 0.500100 0.000100
vt 0.999900 0.000100
vn -0.0000 0.0000 1.0000
usemtl None
s off
f 5/5/2 6/6/2 8/7/2 7/8/2
