# Blender v3.1.2 OBJ File: 'sword_mesh_ihsan3.blend'
# www.blender.org
mtllib sword_mesh_ayman1.mtl
o ayman's_sword1_Cube.004
v 0.000000 1.991587 -0.060926
v -0.017092 1.974748 -0.041528
v -0.017092 2.094630 -0.061832
v 0.000000 2.126310 -0.089663
v 0.017092 1.974748 0.005021
v 0.017092 0.427263 0.005230
v 0.017092 0.451009 -0.041528
v 0.017092 1.974748 -0.041528
v -0.000065 0.460333 -0.060926
v -0.017092 0.451009 -0.041528
v -0.017092 1.974748 0.051981
v -0.017092 0.451009 0.051981
v 0.000065 0.460333 0.071421
v -0.000045 1.991587 0.071421
v 0.017092 0.451009 0.051981
v 0.017092 1.974748 0.051981
v 0.017092 2.231115 0.004587
v 0.017092 2.094630 0.072271
v -0.017092 0.427263 0.005668
v -0.017092 1.974748 0.005257
v 0.017092 2.094630 -0.061832
v -0.000022 2.285329 0.004348
v -0.000045 2.126310 0.100137
v -0.017092 2.231115 0.004595
v -0.017092 2.094630 0.072271
v 0.017092 0.427263 0.005230
v 0.017092 0.451009 0.051981
v 0.031914 0.467580 0.086840
v 0.031914 0.423242 0.005167
v -0.017092 0.451009 0.051981
v -0.017092 0.427263 0.005668
v -0.031914 0.423242 0.005932
v -0.031914 0.467580 0.086840
v 0.000065 0.460333 0.071421
v 0.000121 0.484990 0.120800
v -0.000065 0.460333 -0.060926
v 0.017092 0.451009 -0.041528
v 0.031914 0.467580 -0.076516
v -0.000121 0.484990 -0.110403
v -0.017092 0.451009 -0.041528
v -0.031914 0.387330 0.006007
v -0.031914 0.431667 0.086914
v 0.000122 0.449077 0.120874
v 0.031915 0.431667 0.086914
v 0.031915 0.431667 -0.076442
v -0.000121 0.449077 -0.110329
v -0.031914 0.467580 -0.076516
v -0.031914 0.431667 -0.076442
v 0.000245 0.510019 0.238276
v 0.064364 0.474908 0.169787
v 0.064364 0.474908 -0.159663
v -0.000244 0.510019 -0.228005
v -0.064363 0.474908 -0.159663
v -0.064363 0.385489 0.006616
v 0.031915 0.387330 0.005242
v -0.064363 0.474908 0.169787
v 0.064364 0.385489 0.005073
v -0.064362 0.263676 0.006783
v -0.064362 0.353094 0.169954
v 0.000246 0.388205 0.238442
v 0.064365 0.353094 0.169954
v 0.064365 0.353094 -0.159496
v -0.000243 0.388205 -0.227838
v -0.064362 0.353094 -0.159496
v -0.028156 0.296912 0.077501
v 0.000109 0.312273 0.107463
v 0.064365 0.263676 0.005239
v 0.028159 0.296912 0.077501
v 0.028159 0.257793 0.005441
v -0.028156 0.257793 0.006116
v -0.028156 0.194411 0.006225
v -0.028156 0.233530 0.077610
v 0.000109 0.248891 0.107573
v 0.028160 0.233530 0.077610
v -0.000105 0.312273 -0.096526
v 0.028159 0.296912 -0.066628
v 0.028160 0.233530 -0.066519
v -0.000105 0.248891 -0.096417
v -0.028156 0.296912 -0.066628
v -0.028156 0.233530 -0.066519
v 0.020156 0.210787 -0.028962
v -0.000075 0.218160 -0.043313
v -0.020152 0.210787 -0.028962
v -0.020152 0.192009 0.005956
v 0.028160 0.194411 0.005550
v 0.020156 0.192009 0.005632
v 0.020158 -0.301635 0.005908
v 0.020158 -0.282858 -0.028685
v 0.000079 0.218160 0.054604
v -0.020152 0.210787 0.040221
v -0.020150 -0.282858 0.040498
v 0.000081 -0.275485 0.054880
v 0.020156 0.210787 0.040221
v 0.020158 -0.282858 0.040498
v -0.020150 -0.301635 0.006233
v 0.054971 -0.244170 0.098358
v 0.054971 -0.298057 0.005780
v -0.054964 -0.298057 0.006648
v -0.054964 -0.244170 0.098358
v 0.000212 -0.223010 0.136851
v -0.000072 -0.275485 -0.043037
v 0.054971 -0.244170 -0.086809
v -0.000205 -0.223010 -0.125220
v -0.020150 -0.282858 -0.028685
v -0.041729 -0.372434 0.006769
v -0.054963 -0.318547 0.098479
v 0.000213 -0.297387 0.136973
v 0.054972 -0.318547 0.098479
v 0.054972 -0.318547 -0.086687
v -0.000204 -0.297387 -0.125098
v -0.054964 -0.244170 -0.086809
v -0.054963 -0.318547 -0.086687
v -0.035845 -0.376340 -0.031407
v -0.035845 -0.396700 0.006453
v -0.000132 -0.368345 -0.046968
v 0.041738 -0.372434 0.005902
v 0.035854 -0.396700 0.006102
v 0.035854 -0.376340 -0.031407
v -0.035845 -0.376340 0.043606
v 0.000141 -0.368345 0.059201
v 0.024522 -0.471978 0.006275
v 0.023017 -0.421869 -0.031234
v -0.023004 -0.421869 0.043780
v 0.000091 -0.413874 0.059374
v 0.035854 -0.376340 0.043606
v 0.023056 -0.421869 0.043780
v -0.024510 -0.471978 0.006627
v -0.023046 -0.421869 -0.031234
v -0.000079 -0.413874 -0.046795
v 0.000006 -0.472570 0.006609
vt 0.863226 0.840374
vt 0.851596 0.794482
vt 0.897884 0.800117
vt 0.927023 0.836108
vt 0.850000 0.915354
vt 0.005944 0.914564
vt 0.013747 0.882347
vt 0.851586 0.886264
vt 0.020763 0.840106
vt 0.014046 0.799688
vt 0.851518 0.736023
vt 0.013650 0.734055
vt 0.020611 0.691860
vt 0.863053 0.690197
vt 0.863076 0.990751
vt 0.020867 0.988310
vt 0.014208 0.947952
vt 0.851525 0.944711
vt 0.948458 0.915381
vt 0.897778 0.950444
vt 0.005813 0.766135
vt 0.850003 0.765237
vt 0.897871 0.880635
vt 0.927023 0.844659
vt 0.994644 0.915318
vt 0.926861 0.694318
vt 0.994644 0.765447
vt 0.948515 0.765376
vt 0.897797 0.730275
vt 0.926922 0.986551
vt 0.265822 0.490737
vt 0.270220 0.524179
vt 0.238887 0.538020
vt 0.226021 0.493797
vt 0.270204 0.154302
vt 0.265984 0.187494
vt 0.226208 0.184418
vt 0.238900 0.140590
vt 0.300227 0.556793
vt 0.281957 0.586181
vt 0.288829 0.419979
vt 0.264571 0.457029
vt 0.231363 0.448198
vt 0.265992 0.393692
vt 0.005225 0.766140
vt 0.012964 0.733921
vt 0.020063 0.840229
vt 0.013412 0.799823
vt 0.020168 0.988432
vt 0.013576 0.948086
vt 0.005356 0.914570
vt 0.013059 0.882214
vt 0.020068 0.839996
vt 0.012964 0.737967
vt 0.019917 0.697397
vt 0.020611 0.697502
vt 0.013650 0.738096
vt 0.210112 0.183228
vt 0.222377 0.138847
vt 0.259625 0.598224
vt 0.222335 0.539823
vt 0.214752 0.449003
vt 0.241928 0.385265
vt 0.231654 0.230382
vt 0.215023 0.229633
vt 0.300227 0.121413
vt 0.282049 0.092049
vt 0.264872 0.221437
vt 0.289131 0.258172
vt 0.266224 0.284438
vt 0.211122 0.652378
vt 0.164588 0.557456
vt 0.154887 0.440393
vt 0.185270 0.339047
vt 0.155076 0.238286
vt 0.155525 0.178922
vt 0.242202 0.292909
vt 0.209923 0.495078
vt 0.259696 0.080052
vt 0.164768 0.121288
vt 0.155291 0.499219
vt 0.211529 0.025924
vt 0.107652 0.175222
vt 0.133645 0.126191
vt 0.133301 0.664408
vt 0.133350 0.552531
vt 0.124941 0.450007
vt 0.106495 0.338997
vt 0.125054 0.228644
vt 0.133811 0.013804
vt 0.048717 0.116775
vt 0.044088 0.046367
vt 0.107387 0.502897
vt 0.048126 0.561665
vt 0.035152 0.508435
vt 0.035474 0.169492
vt 0.043222 0.631817
vt 0.955865 0.636421
vt 0.907928 0.647989
vt 0.894076 0.615923
vt 0.930434 0.614675
vt 0.708705 0.542581
vt 0.713529 0.478251
vt 0.748292 0.485600
vt 0.742110 0.543164
vt 0.803705 0.665308
vt 0.750412 0.631070
vt 0.770915 0.604846
vt 0.815403 0.634460
vt 0.865887 0.674912
vt 0.867926 0.641710
vt 0.039319 0.453899
vt 0.022784 0.292939
vt 0.039281 0.224431
vt 0.023037 0.385019
vt 0.787916 0.584032
vt 0.826416 0.605344
vt 0.869056 0.614870
vt 0.887830 0.601773
vt 0.768592 0.568481
vt 0.782593 0.561921
vt 0.736982 0.583311
vt 0.995157 0.584625
vt 0.964236 0.567063
vt 0.575079 0.050441
vt 0.602801 0.070142
vt 0.602801 0.657702
vt 0.575079 0.638000
vt 0.326161 0.042754
vt 0.390811 0.050474
vt 0.390811 0.638034
vt 0.326162 0.630313
vt 0.630533 0.050476
vt 0.630533 0.638036
vt 0.418283 0.070140
vt 0.418283 0.657699
vt 0.779365 0.499888
vt 0.769089 0.543600
vt 0.909961 0.597051
vt 0.931455 0.557206
vt 0.814864 0.184297
vt 0.809388 0.162597
vt 0.870631 0.135018
vt 0.888400 0.164567
vt 0.809008 0.421787
vt 0.814393 0.400219
vt 0.888030 0.420058
vt 0.870242 0.449412
vt 0.768183 0.124364
vt 0.803856 0.066421
vt 0.804616 0.259867
vt 0.821026 0.205814
vt 0.887772 0.199009
vt 0.864311 0.292461
vt 0.446264 0.050438
vt 0.510435 0.042703
vt 0.510435 0.630262
vt 0.446264 0.637998
vt 0.694709 0.042753
vt 0.694709 0.630313
vt 0.940867 0.434665
vt 0.887624 0.453907
vt 0.849295 0.040009
vt 0.888007 0.130552
vt 0.905013 0.194171
vt 0.916859 0.292524
vt 0.887515 0.385344
vt 0.904796 0.390220
vt 0.767528 0.460353
vt 0.802739 0.518602
vt 0.820560 0.378470
vt 0.804166 0.324662
vt 0.957665 0.407649
vt 0.963889 0.440694
vt 0.981369 0.317965
vt 0.941268 0.150421
vt 0.964180 0.144136
vt 0.957894 0.176899
vt 0.848264 0.545218
vt 0.942054 0.465720
vt 0.916685 0.555754
vt 0.728643 0.206624
vt 0.743187 0.207352
vt 0.746794 0.227748
vt 0.734721 0.225766
vt 0.779023 0.274039
vt 0.744657 0.298570
vt 0.750646 0.279166
vt 0.769963 0.263981
vt 0.756568 0.201557
vt 0.757674 0.221789
vt 0.733179 0.289759
vt 0.741538 0.270801
vt 0.981250 0.267188
vt 0.917642 0.029532
vt 0.942327 0.118919
vt 0.729301 0.269830
vt 0.728083 0.247376
vt 0.750518 0.250049
vt 0.772674 0.241078
vt 0.718780 0.286898
vt 0.715160 0.245847
vt 0.783837 0.233407
vn -0.7363 -0.1280 -0.6644
vn 1.0000 -0.0000 0.0000
vn -0.7509 0.0000 -0.6604
vn -0.7508 -0.0000 0.6605
vn 0.7497 -0.0000 -0.6618
vn 0.7512 0.0000 0.6601
vn -1.0000 0.0000 0.0000
vn 0.8869 0.2205 -0.4060
vn -0.8876 0.2230 0.4030
vn 0.7363 -0.1280 -0.6644
vn -0.7380 -0.1276 0.6627
vn 0.7362 -0.1279 0.6646
vn 0.8869 0.2236 0.4043
vn -0.8871 0.2202 -0.4057
vn 0.1731 0.8702 -0.4613
vn -0.1827 0.8668 -0.4639
vn 0.0092 0.8975 -0.4409
vn 0.0111 0.8978 0.4402
vn 0.0000 0.0000 1.0000
vn 0.7304 0.0014 0.6830
vn 0.7263 -0.0014 -0.6874
vn -0.0092 0.8975 -0.4409
vn 0.1769 0.8696 0.4610
vn -0.0112 0.8978 0.4402
vn -0.1674 0.8728 0.4584
vn -0.0061 0.8875 -0.4607
vn -0.0000 0.8875 -0.4607
vn 0.0000 0.8880 0.4599
vn -0.0039 0.8880 0.4599
vn -0.0410 0.8800 0.4732
vn 0.0039 0.8880 0.4599
vn -0.7278 0.0014 0.6858
vn -0.7289 -0.0014 -0.6846
vn -0.0587 0.8754 -0.4797
vn 0.0473 0.8779 -0.4766
vn 0.0061 0.8875 -0.4607
vn 0.0523 0.8777 0.4764
vn 0.7303 0.0009 0.6832
vn 0.7264 -0.0009 -0.6872
vn -0.0615 -0.8635 0.5006
vn 0.1439 -0.8697 0.4721
vn -0.1325 -0.8692 0.4763
vn 0.0618 -0.8635 0.5005
vn -0.7277 0.0009 0.6859
vn -0.7290 -0.0009 -0.6845
vn 0.7303 0.0012 0.6831
vn 0.7264 -0.0012 -0.6873
vn 0.1388 -0.8704 -0.4724
vn -0.0593 -0.8642 -0.4997
vn -0.1501 -0.8707 -0.4683
vn 0.0590 -0.8641 -0.4998
vn 0.0554 -0.8621 -0.5036
vn -0.2698 -0.8481 -0.4561
vn -0.0557 -0.8622 -0.5036
vn 0.2506 -0.8508 -0.4618
vn -0.7277 0.0012 0.6859
vn -0.7290 -0.0012 -0.6845
vn -0.5795 0.0005 0.8150
vn 0.0581 -0.8614 0.5046
vn -0.2398 -0.8514 0.4666
vn 0.2594 -0.8488 0.4608
vn -0.0577 -0.8614 0.5047
vn -0.1149 0.8625 -0.4928
vn 0.1070 0.8613 -0.4968
vn -0.0568 0.8428 -0.5352
vn -0.0548 0.8434 0.5345
vn -0.5814 -0.0005 -0.8136
vn 0.5785 -0.0005 -0.8157
vn 0.5825 0.0005 0.8129
vn -0.9959 -0.0886 -0.0198
vn 0.5754 0.0013 0.8178
vn 0.5710 -0.0013 -0.8210
vn -0.9959 -0.0886 0.0194
vn 0.0565 0.8427 -0.5354
vn -0.1113 0.8629 0.4930
vn 0.0551 0.8435 0.5343
vn 0.1191 0.8641 0.4891
vn -0.9289 -0.3546 -0.1069
vn -0.1684 -0.7213 -0.6719
vn 0.9279 -0.3564 -0.1090
vn -0.1697 -0.7192 0.6737
vn 0.9959 -0.0886 -0.0196
vn -0.5725 0.0013 0.8199
vn 0.9959 -0.0886 0.0196
vn -0.5739 -0.0014 -0.8189
vn 0.9606 -0.1928 -0.2003
vn -0.4532 -0.0603 0.8894
vn 0.9612 -0.1914 0.1986
vn -0.9606 -0.1917 0.2012
vn 0.1673 -0.7212 -0.6722
vn 0.1708 -0.7193 0.6734
vn -0.9276 -0.3568 0.1103
vn 0.9286 -0.3550 0.1081
vn -0.1500 -0.6343 -0.7584
vn 0.1572 -0.6294 0.7610
vn -0.1519 -0.6283 0.7630
vn 0.1447 -0.6332 -0.7603
vn -0.4531 -0.0673 -0.8889
vn -0.9611 -0.1926 -0.1978
vn 0.4508 -0.0667 -0.8901
vn 0.4555 -0.0609 0.8882
usemtl Material.003
s 1
f 1/1/1 2/2/1 3/3/1 4/4/1
f 5/5/2 6/6/2 7/7/2 8/8/2
f 1/1/3 9/9/3 10/10/3 2/2/3
f 11/11/4 12/12/4 13/13/4 14/14/4
f 1/1/5 8/8/5 7/7/5 9/9/5
f 14/15/6 13/16/6 15/17/6 16/18/6
f 16/18/2 5/5/2 17/19/2 18/20/2
f 2/2/7 10/10/7 19/21/7 20/22/7
f 21/23/8 4/24/8 22/25/8 17/19/8
f 23/26/9 22/27/9 24/28/9 25/29/9
f 8/8/10 1/1/10 4/24/10 21/23/10
f 11/11/11 14/14/11 23/26/11 25/29/11
f 14/15/12 16/18/12 18/20/12 23/30/12
f 2/2/7 20/22/7 24/28/7 3/3/7
f 16/18/2 15/17/2 6/6/2 5/5/2
f 24/28/7 20/22/7 11/11/7 25/29/7
f 17/19/13 22/25/13 23/30/13 18/20/13
f 24/28/14 22/27/14 4/4/14 3/3/14
f 17/19/2 5/5/2 8/8/2 21/23/2
f 26/31/15 27/32/15 28/33/15 29/34/15
f 30/35/16 31/36/16 32/37/16 33/38/16
f 27/32/17 34/39/17 35/40/17 28/33/17
f 36/41/18 37/42/18 38/43/18 39/44/18
f 31/45/19 30/46/19 12/12/19 19/21/19
f 36/47/19 40/48/19 10/10/19 9/9/19
f 34/49/19 27/50/19 15/17/19 13/16/19
f 26/51/19 37/52/19 7/7/19 6/6/19
f 37/52/19 36/53/19 9/9/19 7/7/19
f 30/54/19 34/55/19 13/56/19 12/57/19
f 40/48/19 31/45/19 19/21/19 10/10/19
f 27/50/19 26/51/19 6/6/19 15/17/19
f 33/38/7 32/37/7 41/58/7 42/59/7
f 28/33/20 35/40/20 43/60/20 44/61/20
f 39/44/21 38/43/21 45/62/21 46/63/21
f 32/37/7 47/64/7 48/65/7 41/58/7
f 34/66/22 30/35/22 33/38/22 35/67/22
f 37/42/23 26/31/23 29/34/23 38/43/23
f 40/68/24 36/69/24 39/70/24 47/64/24
f 31/36/25 40/68/25 47/64/25 32/37/25
f 44/61/26 43/60/27 49/71/27 50/72/26
f 46/63/28 45/62/29 51/73/29 52/74/28
f 41/58/30 48/65/30 53/75/30 54/76/30
f 48/65/31 46/77/28 52/74/28 53/75/31
f 29/34/2 28/33/2 44/61/2 55/78/2
f 35/67/32 33/38/32 42/59/32 43/79/32
f 38/43/2 29/34/2 55/78/2 45/62/2
f 47/64/33 39/70/33 46/77/33 48/65/33
f 42/59/34 41/58/34 54/76/34 56/80/34
f 55/78/35 44/61/35 50/72/35 57/81/35
f 43/79/27 42/59/36 56/80/36 49/82/27
f 45/62/37 55/78/37 57/81/37 51/73/37
f 54/76/7 58/83/7 59/84/7 56/80/7
f 49/71/38 60/85/38 61/86/38 50/72/38
f 51/73/39 62/87/39 63/88/39 52/74/39
f 53/75/7 64/89/7 58/83/7 54/76/7
f 20/22/7 19/21/7 12/12/7 11/11/7
f 60/90/40 59/84/40 65/91/40 66/92/40
f 67/93/41 61/86/41 68/94/41 69/95/41
f 59/84/42 58/83/42 70/96/42 65/91/42
f 61/86/43 60/85/43 66/97/43 68/94/43
f 57/81/2 50/72/2 61/86/2 67/93/2
f 56/80/44 59/84/44 60/90/44 49/82/44
f 57/81/2 67/93/2 62/87/2 51/73/2
f 52/74/45 63/88/45 64/89/45 53/75/45
f 65/98/7 70/99/7 71/100/7 72/101/7
f 68/102/46 66/103/46 73/104/46 74/105/46
f 75/106/47 76/107/47 77/108/47 78/109/47
f 70/99/7 79/110/7 80/111/7 71/100/7
f 62/87/48 67/93/48 69/95/48 76/112/48
f 64/89/49 63/88/49 75/113/49 79/114/49
f 58/83/50 64/89/50 79/114/50 70/96/50
f 63/88/51 62/87/51 76/112/51 75/115/51
f 78/109/52 77/108/52 81/116/52 82/117/52
f 71/100/53 80/111/53 83/118/53 84/119/53
f 80/111/54 78/109/54 82/117/54 83/118/54
f 77/108/55 85/120/55 86/121/55 81/116/55
f 69/122/2 68/102/2 74/105/2 85/120/2
f 66/123/56 65/98/56 72/101/56 73/124/56
f 76/107/2 69/122/2 85/120/2 77/108/2
f 79/110/57 75/106/57 78/109/57 80/111/57
f 81/125/2 86/126/2 87/127/2 88/128/2
f 89/129/58 90/130/58 91/131/58 92/132/58
f 86/126/2 93/133/2 94/134/2 87/127/2
f 90/130/7 84/135/7 95/136/7 91/131/7
f 74/105/59 73/104/59 89/137/59 93/138/59
f 72/101/60 71/100/60 84/119/60 90/139/60
f 85/120/61 74/105/61 93/138/61 86/121/61
f 73/124/62 72/101/62 90/139/62 89/140/62
f 87/141/63 94/142/63 96/143/63 97/144/63
f 91/145/64 95/146/64 98/147/64 99/148/64
f 94/142/65 92/149/65 100/150/65 96/143/65
f 101/151/66 88/152/66 102/153/66 103/154/66
f 83/155/67 82/156/67 101/157/67 104/158/67
f 84/135/7 83/155/7 104/158/7 95/136/7
f 82/156/68 81/125/68 88/128/68 101/157/68
f 93/133/69 89/159/69 92/160/69 94/134/69
f 99/148/70 98/147/70 105/161/70 106/162/70
f 96/143/71 100/150/71 107/163/71 108/164/71
f 103/154/72 102/153/72 109/165/72 110/166/72
f 98/147/73 111/167/73 112/168/73 105/161/73
f 92/169/74 91/145/74 99/148/74 100/170/74
f 88/152/75 87/141/75 97/144/75 102/153/75
f 104/171/76 101/172/76 103/154/76 111/167/76
f 95/146/77 104/171/77 111/167/77 98/147/77
f 105/161/78 112/168/78 113/173/78 114/174/78
f 112/168/79 110/166/79 115/175/79 113/173/79
f 109/165/80 116/176/80 117/177/80 118/178/80
f 107/179/81 106/162/81 119/180/81 120/181/81
f 97/144/82 96/143/82 108/164/82 116/176/82
f 100/170/83 99/148/83 106/162/83 107/179/83
f 102/153/84 97/144/84 116/176/84 109/165/84
f 111/167/85 103/154/85 110/166/85 112/168/85
f 118/182/86 117/183/86 121/184/86 122/185/86
f 120/186/87 119/187/87 123/188/87 124/189/87
f 117/183/88 125/190/88 126/191/88 121/184/88
f 119/187/89 114/192/89 127/193/89 123/188/89
f 110/166/90 109/165/90 118/178/90 115/194/90
f 108/164/91 107/163/91 120/195/91 125/196/91
f 106/162/92 105/161/92 114/174/92 119/180/92
f 116/176/93 108/164/93 125/196/93 117/177/93
f 128/197/94 129/198/94 130/199/94 127/193/94
f 124/200/95 130/199/95 121/184/95 126/191/95
f 127/193/96 130/199/96 124/189/96 123/188/96
f 121/184/97 130/199/97 129/198/97 122/185/97
f 113/201/98 115/202/98 129/198/98 128/197/98
f 114/192/99 113/201/99 128/197/99 127/193/99
f 115/202/100 118/182/100 122/185/100 129/198/100
f 125/190/101 120/203/101 124/200/101 126/191/101
