# Blender v2.92.0 OBJ File: 'rockwall_purple_chunks_small.blend'
# www.blender.org
mtllib rockwall_purple_stone2.mtl
o Stone_3_low_Cube.025
v -1.014813 0.004520 0.089769
v -0.818121 0.000676 0.452362
v -0.688236 -0.031249 0.602108
v -0.782377 -0.136571 0.014264
v -0.546941 -0.047528 0.776498
v -0.559406 -0.132995 0.510679
v -0.395266 -0.153907 0.338615
v -0.537436 -0.105229 0.198880
v -0.110988 -0.108907 0.121700
v -0.252740 -0.147172 0.791073
v -0.152052 -0.175208 0.492210
v 0.032805 -0.204682 0.322004
v -0.132144 -0.113396 -0.093277
v -0.253900 -0.060709 0.950620
v -0.056706 0.006113 1.065603
v -0.035646 0.149635 1.056890
v -0.986079 0.172625 0.156541
v -0.921522 0.241849 0.194092
v -0.901498 0.324639 0.146353
v -0.837378 0.274469 0.410316
v -0.759075 0.137876 0.539770
v -0.548700 0.390972 0.624435
v -0.781232 0.387655 0.013581
v -0.388128 0.455686 -0.109212
v -0.638217 0.407128 0.272606
v -0.605950 0.267930 0.741600
v -0.658800 0.327421 0.660333
v -0.288341 0.417820 0.413585
v -0.262545 0.043867 0.953274
v -0.180331 0.461123 0.263435
v -0.231563 0.305731 0.960347
v -0.054217 0.472102 -0.124630
v -0.085326 0.264009 1.051917
v -0.118162 0.380729 0.768231
v -0.926374 -0.137684 -0.085975
v -0.955857 -0.024209 -0.276758
v -0.836963 -0.143043 -0.316531
v -0.778380 -0.070338 -0.590578
v -0.797090 0.143339 -0.552895
v -0.477624 -0.125452 -0.174604
v -0.587746 -0.167480 -0.755057
v -0.625740 -0.041572 -0.825249
v -0.394481 -0.044517 -0.962881
v -0.471732 0.246586 -0.860429
v -0.486013 0.185063 -0.904117
v -0.437120 -0.186979 -0.522861
v -0.139756 -0.151809 -0.957141
v -0.095582 -0.176228 -0.490118
v 0.063469 -0.132047 -1.049024
v -0.153319 0.055304 -1.085168
v 0.142261 -0.047212 -1.120688
v 0.226220 -0.128598 -0.244167
v -0.025151 -0.188487 -0.696949
v -0.981685 0.149015 -0.237471
v -0.850805 0.271585 -0.416459
v -0.738269 0.354902 -0.392903
v -0.649292 0.337897 -0.576014
v -0.589613 0.160511 -0.812822
v -0.520649 0.371653 -0.437421
v -0.199326 0.240447 -1.066326
v -0.140741 0.429805 -0.360802
v -0.041221 0.360879 -0.967790
v -0.184508 0.379257 -0.595554
v 0.062631 0.315403 -1.054749
v 0.116905 -0.075853 1.026662
v 0.124627 -0.144137 0.874430
v 0.035578 -0.194985 0.559684
v 0.332048 -0.118168 0.859759
v 0.163934 0.085810 1.064089
v 0.445464 -0.202793 0.248543
v 0.332191 -0.121976 0.002391
v 0.774108 -0.014477 0.697738
v 0.603865 -0.189943 0.551903
v 0.829681 -0.072780 0.582564
v 0.732706 -0.177000 0.265180
v 0.945031 -0.139997 -0.088217
v 0.941868 0.063810 0.419776
v 1.028077 -0.107758 0.022637
v 1.116491 -0.014364 0.050013
v 1.115054 0.184644 -0.017551
v 0.053167 0.400499 0.394217
v -0.025269 0.474385 0.094478
v 0.332359 0.202192 0.960895
v 0.070932 0.329028 1.024987
v 0.207866 0.380003 0.774242
v 0.323013 0.366447 0.308904
v 0.175401 0.463908 -0.049041
v 0.479275 0.364860 0.535668
v 0.517597 0.346084 0.757540
v 0.687416 0.226425 0.727555
v 0.550990 0.360735 -0.112513
v 0.662327 0.335344 0.252949
v 0.675796 0.374177 0.598681
v 0.851345 0.287203 0.546538
v 0.912780 0.349575 0.106483
v 0.923614 0.317501 0.350320
v 1.011952 0.253215 0.245334
v 0.993016 0.349772 -0.070388
v 0.470971 -0.119827 -0.864676
v 0.422566 -0.134593 -0.557363
v 0.410611 -0.013279 -1.016872
v 0.559641 -0.193264 0.001030
v 0.514995 0.254161 -0.941170
v 0.793325 -0.036047 -0.761690
v 0.668352 -0.147940 -0.297141
v 0.743815 0.273276 -0.755997
v 0.649724 -0.133203 -0.691527
v 0.918030 0.225092 -0.552007
v 0.989516 0.200211 -0.423628
v 0.925910 0.049196 -0.517719
v 1.099619 -0.027098 -0.155850
v 0.107737 0.432687 -0.512650
v 0.259226 0.363579 -0.966329
v 0.232043 0.301588 -1.060922
v 0.286176 0.208606 -1.072447
v 0.784030 0.346582 -0.325845
v 0.421799 0.435150 -0.384983
v 0.601990 0.407954 -0.702986
v 0.855552 0.373604 -0.375287
v 0.685801 0.345155 -0.752725
v 1.011114 0.334924 -0.151193
v 1.085122 0.234192 -0.110808
vt 0.285860 0.940052
vt 0.281135 0.946607
vt 0.259312 0.953179
vt 0.288809 0.932109
vt 0.297862 0.936194
vt 0.279669 0.935393
vt 0.272464 0.930397
vt 0.262521 0.946725
vt 0.267276 0.935807
vt 0.286097 0.923431
vt 0.290941 0.922999
vt 0.276999 0.921273
vt 0.255571 0.921838
vt 0.263447 0.920763
vt 0.253220 0.935402
vt 0.293807 0.918354
vt 0.293574 0.923814
vt 0.292028 0.914432
vt 0.271185 0.915243
vt 0.278971 0.915293
vt 0.296880 0.918432
vt 0.296201 0.913957
vt 0.294842 0.959980
vt 0.297642 0.957949
vt 0.295836 0.972366
vt 0.297803 0.949923
vt 0.292616 0.944445
vt 0.299833 0.939373
vt 0.324702 0.952938
vt 0.316534 0.945082
vt 0.332921 0.939546
vt 0.300290 0.923628
vt 0.304085 0.937853
vt 0.315183 0.931324
vt 0.321540 0.929031
vt 0.328636 0.924948
vt 0.299140 0.919763
vt 0.336174 0.927587
vt 0.301306 0.916776
vt 0.306450 0.922692
vt 0.307539 0.913371
vt 0.318740 0.919948
vt 0.335050 0.918809
vt 0.284555 0.969048
vt 0.289982 0.962837
vt 0.290208 0.974886
vt 0.291259 0.987681
vt 0.285234 0.978690
vt 0.288596 0.997642
vt 0.249060 0.950644
vt 0.291676 0.793325
vt 0.296998 0.792830
vt 0.297781 0.802058
vt 0.239931 0.920910
vt 0.239152 0.934712
vt 0.229798 0.941379
vt 0.220836 0.922921
vt 0.231574 0.918149
vt 0.293274 0.810274
vt 0.294540 0.817953
vt 0.249761 0.908216
vt 0.301535 0.810872
vt 0.298340 0.820358
vt 0.300953 0.959057
vt 0.301752 0.978291
vt 0.306661 0.978018
vt 0.298474 0.984433
vt 0.302472 0.995975
vt 0.307653 0.985715
vt 0.294644 0.997932
vt 0.340582 0.955736
vt 0.348591 0.953878
vt 0.344215 0.947670
vt 0.305033 0.797939
vt 0.307583 0.797037
vt 0.308161 0.809132
vt 0.352666 0.936119
vt 0.344174 0.932545
vt 0.371449 0.940869
vt 0.367605 0.933449
vt 0.372090 0.930458
vt 0.351557 0.924492
vt 0.269091 0.900495
vt 0.290240 0.907084
vt 0.288484 0.913411
vt 0.259370 0.904505
vt 0.294872 0.893720
vt 0.299905 0.909696
vt 0.280780 0.895684
vt 0.270738 0.889698
vt 0.260078 0.895427
vt 0.284329 0.886874
vt 0.257828 0.879773
vt 0.292638 0.889841
vt 0.297767 0.883465
vt 0.262743 0.876736
vt 0.296735 0.870853
vt 0.297165 0.864496
vt 0.303011 0.869612
vt 0.322968 0.910881
vt 0.307286 0.902806
vt 0.315461 0.904340
vt 0.339563 0.904963
vt 0.326536 0.898680
vt 0.302729 0.896743
vt 0.313188 0.896802
vt 0.309424 0.893982
vt 0.304482 0.888821
vt 0.306127 0.882536
vt 0.333390 0.889778
vt 0.304115 0.878202
vt 0.310221 0.868888
vt 0.216947 0.914423
vt 0.237555 0.899860
vt 0.224891 0.897465
vt 0.293637 0.832876
vt 0.232417 0.890266
vt 0.248579 0.890456
vt 0.298885 0.828932
vt 0.298282 0.843445
vt 0.306350 0.851216
vt 0.300536 0.852093
vt 0.292388 0.869866
vt 0.290089 0.864825
vt 0.305164 0.866783
vt 0.305342 0.856003
vt 0.349060 0.911948
vt 0.308656 0.823606
vt 0.309785 0.818424
vt 0.311777 0.825363
vt 0.362058 0.907599
vt 0.311128 0.841229
vt 0.307041 0.832989
vt 0.365219 0.904412
vt 0.369764 0.922199
vt 0.340699 0.887577
vt 0.348935 0.897481
vt 0.351706 0.895257
vt 0.313216 0.855937
vt 0.308144 0.842522
vt 0.344060 0.887444
vt 0.309705 0.865772
vt 0.286925 0.948766
vt 0.318298 0.956929
vt 0.307458 0.999240
vt 0.361676 0.949902
vt 0.310118 0.875496
vt 0.305613 0.825073
vt 0.292492 0.841777
vn -0.6858 -0.5185 0.5106
vn -0.7723 -0.4106 0.4847
vn -0.5374 -0.8433 -0.0074
vn -0.5767 -0.5066 0.6409
vn -0.6351 0.2181 0.7410
vn -0.2776 -0.9431 0.1827
vn -0.0849 -0.9929 -0.0832
vn 0.0315 -0.9995 -0.0056
vn 0.3249 -0.8421 -0.4304
vn -0.1743 -0.9411 0.2898
vn -0.3793 -0.5419 0.7500
vn -0.1140 -0.9923 0.0470
vn 0.0050 -0.9969 0.0777
vn -0.0432 -0.9834 -0.1763
vn 0.0117 -0.9945 0.1040
vn -0.2246 -0.2694 0.9365
vn -0.4952 -0.0144 0.8686
vn 0.1388 -0.6453 0.7512
vn -0.0627 -0.9850 -0.1604
vn -0.0440 -0.9949 0.0905
vn -0.1853 0.0166 0.9825
vn 0.2840 -0.0370 0.9581
vn -0.9157 0.3458 0.2043
vn -0.8513 0.4968 0.1687
vn -0.9359 0.2546 -0.2433
vn -0.8086 0.3988 0.4327
vn -0.8049 -0.0090 0.5933
vn -0.6492 0.5599 0.5148
vn -0.3724 0.9272 -0.0389
vn -0.2252 0.9698 0.0932
vn -0.1159 0.9904 -0.0753
vn -0.3767 0.5934 0.7113
vn -0.2308 0.9368 0.2627
vn -0.0239 0.9878 0.1535
vn -0.0018 0.9850 0.1721
vn 0.0650 0.9936 0.0920
vn -0.2454 0.3227 0.9141
vn -0.0187 0.9975 -0.0680
vn 0.1067 0.6988 0.7073
vn -0.0372 0.9814 0.1881
vn 0.0600 0.9874 0.1465
vn 0.0990 0.9879 0.1195
vn 0.1573 0.9851 0.0694
vn -0.9278 -0.3160 0.1981
vn -0.8908 -0.3211 -0.3215
vn -0.8051 -0.3660 -0.4667
vn -0.4171 -0.8982 -0.1389
vn -0.3756 -0.8386 -0.3945
vn -0.6709 -0.1981 -0.7145
vn -0.4095 -0.3601 -0.8382
vn 0.0287 -0.9952 0.0935
vn -0.0135 -0.9995 0.0269
vn -0.1378 -0.8831 -0.4485
vn 0.0405 -0.9987 -0.0294
vn -0.0261 -0.8175 -0.5753
vn 0.0219 -0.9979 0.0608
vn -0.2586 -0.1592 -0.9528
vn 0.1156 -0.3553 -0.9275
vn -0.7337 0.6711 0.1060
vn -0.7439 0.5522 -0.3763
vn -0.3739 0.9065 -0.1961
vn -0.8178 0.1577 -0.5534
vn -0.6254 0.3044 -0.7185
vn -0.4049 0.8308 -0.3819
vn -0.1117 0.9796 -0.1668
vn -0.6739 0.3303 -0.6608
vn -0.5081 0.6512 -0.5637
vn -0.3203 0.4372 -0.8404
vn -0.1011 0.9868 -0.1263
vn -0.0942 0.9808 -0.1705
vn -0.1476 0.9131 -0.3802
vn -0.0378 0.6085 -0.7926
vn -0.0421 0.9914 -0.1237
vn -0.0208 -0.9963 -0.0832
vn 0.2778 -0.8083 0.5191
vn 0.0243 -0.9492 0.3135
vn -0.1536 -0.9828 -0.1025
vn 0.6426 -0.3043 0.7032
vn 0.4717 0.2677 0.8401
vn 0.2280 -0.9428 0.2430
vn 0.1906 -0.9813 0.0256
vn -0.0433 -0.9974 -0.0577
vn 0.6751 -0.5849 0.4495
vn 0.3341 -0.9368 -0.1038
vn 0.8830 -0.0376 0.4678
vn 0.5433 -0.8365 0.0716
vn 0.9254 -0.3287 0.1884
vn 0.8701 -0.4258 -0.2480
vn 0.9557 0.2894 0.0542
vn 0.1452 0.9885 0.0420
vn 0.3325 0.7640 0.5530
vn 0.0300 0.9975 -0.0644
vn 0.1856 0.9777 0.0979
vn -0.0046 0.9991 -0.0404
vn 0.5770 0.3339 0.7453
vn 0.2846 0.9124 0.2940
vn 0.7158 0.4706 0.5159
vn 0.5986 0.7613 0.2491
vn 0.0929 0.9951 0.0347
vn 0.8636 0.3939 0.3148
vn 0.4323 0.9009 0.0385
vn 0.0281 -0.9995 -0.0150
vn 0.2411 -0.8936 -0.3785
vn 0.2268 -0.9499 -0.2151
vn 0.0668 -0.9945 -0.0807
vn 0.4461 -0.3452 -0.8257
vn 0.6767 -0.4260 -0.6004
vn 0.8177 0.3451 -0.4606
vn 0.8852 -0.0807 -0.4581
vn 0.9070 0.3920 -0.1539
vn 0.8734 0.2723 -0.4036
vn 0.1225 0.9921 0.0260
vn 0.1616 0.5308 -0.8319
vn 0.1315 0.9013 -0.4127
vn 0.2324 0.9366 -0.2622
vn 0.5102 0.6895 -0.5140
vn 0.5007 0.3441 -0.7942
vn 0.0460 0.9510 0.3056
vn 0.3742 0.9267 -0.0332
vn 0.6810 0.3518 -0.6423
vn 0.5898 0.7929 -0.1527
vn 0.3058 0.1634 -0.9379
usemtl Material.002
s 1
f 3/1/1 2/2/2 35/3/3
f 5/4/4 26/5/5 3/1/1
f 6/6/6 3/1/1 35/3/3
f 7/7/7 6/6/6 4/8/8
f 7/7/7 4/8/8 8/9/9
f 10/10/10 5/4/4 6/6/6
f 10/10/10 14/11/11 5/4/4
f 11/12/12 10/10/10 6/6/6
f 13/13/13 9/14/14 40/15/15
f 14/11/11 15/16/16 29/17/17
f 65/18/18 14/11/11 10/10/10
f 12/19/19 11/12/12 7/7/7
f 65/18/18 15/16/16 14/11/11
f 67/20/20 10/10/10 11/12/12
f 16/21/21 15/16/16 69/22/22
f 17/23/23 18/24/24 54/25/25
f 20/26/26 18/24/24 17/23/23
f 21/27/27 27/28/28 20/26/26
f 26/5/5 27/28/28 21/27/27
f 23/29/29 25/30/30 24/31/31
f 26/5/5 5/4/4 29/17/17
f 26/5/5 31/32/32 27/28/28
f 25/30/30 22/33/33 28/34/34
f 25/30/30 28/34/34 30/35/35
f 24/31/31 30/35/35 82/36/36
f 29/17/17 16/21/21 33/37/37
f 24/31/31 82/36/36 32/38/38
f 33/37/37 84/39/39 31/32/32
f 34/40/40 84/39/39 85/41/41
f 28/34/34 81/42/42 30/35/35
f 82/36/36 87/43/43 32/38/38
f 35/44/3 1/45/44 36/46/45
f 36/46/45 1/45/44 54/25/25
f 36/46/45 54/25/25 38/47/46
f 37/48/47 38/47/46 41/49/48
f 40/15/15 4/8/8 35/3/3
f 40/15/15 35/3/3 37/50/47
f 41/51/48 42/52/49 43/53/50
f 48/54/51 46/55/52 41/56/48
f 47/57/53 53/58/54 41/56/48
f 13/13/13 40/15/15 46/55/52
f 48/54/51 13/13/13 46/55/52
f 47/59/53 43/53/50 49/60/55
f 52/61/56 13/13/13 48/54/51
f 50/62/57 51/63/58 49/60/55
f 18/24/24 19/64/59 54/25/25
f 54/25/25 19/64/59 55/65/60
f 55/65/60 19/64/59 56/66/61
f 39/67/62 55/65/60 58/68/63
f 58/68/63 55/65/60 57/69/64
f 58/68/63 42/70/49 39/67/62
f 56/71/61 23/29/29 24/31/31
f 57/72/64 56/71/61 59/73/65
f 56/71/61 24/31/31 59/73/65
f 45/74/66 44/75/67 60/76/68
f 60/76/68 43/53/50 45/74/66
f 59/73/65 24/31/31 63/77/69
f 61/78/70 24/31/31 32/38/38
f 24/31/31 61/78/70 63/77/69
f 43/53/50 60/76/68 50/62/57
f 60/79/68 62/80/71 64/81/72
f 63/77/69 61/78/70 112/82/73
f 61/78/70 32/38/38 112/82/73
f 63/77/69 112/82/73 62/80/71
f 15/16/16 65/18/18 69/22/22
f 70/83/74 12/19/19 9/14/14
f 68/84/75 65/18/18 66/85/76
f 71/86/77 70/83/74 9/14/14
f 69/22/22 72/87/78 83/88/79
f 66/85/76 67/20/20 73/89/80
f 68/84/75 66/85/76 73/89/80
f 75/90/81 73/89/80 70/83/74
f 102/91/82 70/83/74 71/86/77
f 74/92/83 68/84/75 73/89/80
f 76/93/84 70/83/74 102/91/82
f 72/87/78 74/94/83 77/95/85
f 74/92/83 73/89/80 78/96/86
f 75/90/81 76/93/84 78/96/86
f 77/95/85 74/94/83 79/97/87
f 79/97/87 111/98/88 80/99/89
f 33/37/37 16/21/21 69/22/22
f 69/22/22 83/88/79 84/39/39
f 34/40/40 85/41/41 81/42/42
f 82/36/36 81/42/42 86/100/90
f 82/36/36 86/100/90 87/43/43
f 84/39/39 83/88/79 89/101/91
f 81/42/42 88/102/92 86/100/90
f 87/43/43 86/100/90 91/103/93
f 86/100/90 92/104/94 91/103/93
f 72/87/78 90/105/95 83/88/79
f 83/88/79 90/105/95 89/101/91
f 88/102/92 85/41/41 93/106/96
f 85/41/41 89/101/91 93/106/96
f 89/101/91 90/105/95 93/107/96
f 90/105/95 72/87/78 94/108/97
f 93/107/96 94/108/97 96/109/98
f 92/104/94 93/106/96 95/110/99
f 94/108/97 72/87/78 77/95/85
f 97/111/100 94/108/97 77/95/85
f 96/109/98 94/108/97 97/111/100
f 96/109/98 97/111/100 98/112/101
f 97/111/100 79/97/87 80/99/89
f 98/112/101 97/111/100 80/99/89
f 49/113/55 53/58/54 47/57/53
f 100/114/102 48/54/51 53/58/54
f 99/115/103 53/58/54 49/113/55
f 100/114/102 52/61/56 48/54/51
f 102/91/82 71/86/77 100/114/102
f 99/116/103 49/60/55 51/63/58
f 107/117/104 100/114/102 99/115/103
f 105/118/105 102/91/82 100/114/102
f 107/117/104 105/118/105 100/114/102
f 99/116/103 101/119/106 104/120/107
f 108/121/108 110/122/109 104/120/107
f 110/122/109 111/98/88 104/120/107
f 111/98/88 78/123/86 76/124/84
f 122/125/110 111/98/88 109/126/111
f 122/125/110 80/99/89 111/98/88
f 32/38/38 87/43/43 117/127/112
f 114/128/113 60/76/68 64/129/72
f 113/130/114 114/128/113 64/129/72
f 112/82/73 117/127/112 118/131/115
f 120/132/116 103/133/117 114/128/113
f 118/131/115 120/134/116 113/135/114
f 92/104/94 98/136/101 116/137/118
f 117/127/112 116/137/118 119/138/119
f 118/131/115 119/138/119 120/134/116
f 119/139/119 108/121/108 120/132/116
f 108/121/108 106/140/120 120/132/116
f 116/137/118 121/141/121 119/138/119
f 121/142/121 109/126/111 119/139/119
f 17/23/23 1/45/44 2/143/2
f 35/44/3 2/143/2 1/45/44
f 21/27/27 2/143/2 3/1/1
f 4/8/8 6/6/6 35/3/3
f 6/6/6 5/4/4 3/1/1
f 40/15/15 8/9/9 4/8/8
f 14/11/11 29/17/17 5/4/4
f 7/7/7 11/12/12 6/6/6
f 9/14/14 8/9/9 40/15/15
f 7/7/7 8/9/9 12/19/19
f 9/14/14 12/19/19 8/9/9
f 29/17/17 15/16/16 16/21/21
f 65/18/18 10/10/10 66/85/76
f 67/20/20 66/85/76 10/10/10
f 12/19/19 67/20/20 11/12/12
f 54/25/25 1/45/44 17/23/23
f 17/23/23 2/143/2 20/26/26
f 20/26/26 27/28/28 19/64/59
f 18/24/24 20/26/26 19/64/59
f 19/64/59 27/28/28 22/33/33
f 20/26/26 2/143/2 21/27/27
f 19/144/59 22/33/33 25/30/30
f 19/144/59 25/30/30 23/29/29
f 21/27/27 3/1/1 26/5/5
f 22/33/33 27/28/28 31/32/32
f 29/17/17 31/32/32 26/5/5
f 29/17/17 33/37/37 31/32/32
f 22/33/33 31/32/32 34/40/40
f 24/31/31 25/30/30 30/35/35
f 31/32/32 84/39/39 34/40/40
f 28/34/34 22/33/33 34/40/40
f 28/34/34 34/40/40 81/42/42
f 82/36/36 30/35/35 81/42/42
f 37/48/47 35/44/3 36/46/45
f 38/47/46 54/25/25 39/67/62
f 37/48/47 36/46/45 38/47/46
f 39/67/62 42/70/49 38/47/46
f 46/55/52 37/50/47 41/56/48
f 46/55/52 40/15/15 37/50/47
f 41/49/48 38/47/46 42/70/49
f 42/70/49 58/68/63 44/145/67
f 45/74/66 42/52/49 44/75/67
f 45/74/66 43/53/50 42/52/49
f 47/59/53 41/51/48 43/53/50
f 53/58/54 48/54/51 41/56/48
f 50/62/57 49/60/55 43/53/50
f 60/76/68 51/63/58 50/62/57
f 39/67/62 54/25/25 55/65/60
f 19/144/59 23/29/29 56/71/61
f 55/65/60 56/66/61 57/69/64
f 58/68/63 57/69/64 44/145/67
f 62/80/71 57/72/64 59/73/65
f 62/80/71 59/73/65 63/77/69
f 44/146/67 57/72/64 62/80/71
f 60/79/68 44/146/67 62/80/71
f 73/89/80 67/20/20 12/19/19
f 73/89/80 12/19/19 70/83/74
f 65/18/18 72/87/78 69/22/22
f 65/18/18 68/84/75 72/87/78
f 72/87/78 68/84/75 74/94/83
f 75/90/81 70/83/74 76/93/84
f 78/96/86 73/89/80 75/90/81
f 79/97/87 74/94/83 78/123/86
f 79/97/87 78/123/86 111/98/88
f 33/37/37 69/22/22 84/39/39
f 85/41/41 84/39/39 89/101/91
f 81/42/42 85/41/41 88/102/92
f 86/100/90 88/102/92 92/104/94
f 92/104/94 88/102/92 93/106/96
f 93/107/96 90/105/95 94/108/97
f 98/136/101 92/104/94 95/110/99
f 95/147/99 93/107/96 96/109/98
f 98/112/101 95/147/99 96/109/98
f 77/95/85 79/97/87 97/111/100
f 52/61/56 9/14/14 13/13/13
f 52/61/56 71/86/77 9/14/14
f 99/115/103 100/114/102 53/58/54
f 100/114/102 71/86/77 52/61/56
f 115/148/122 101/119/106 51/63/58
f 99/116/103 51/63/58 101/119/106
f 101/119/106 115/148/122 103/133/117
f 104/120/107 107/149/104 99/116/103
f 103/133/117 104/120/107 101/119/106
f 106/140/120 104/120/107 103/133/117
f 76/93/84 102/91/82 105/118/105
f 107/117/104 76/93/84 105/118/105
f 76/124/84 107/149/104 104/120/107
f 111/98/88 76/124/84 104/120/107
f 109/126/111 111/98/88 110/122/109
f 64/81/72 62/80/71 113/135/114
f 112/82/73 32/38/38 117/127/112
f 114/128/113 51/63/58 60/76/68
f 62/80/71 112/82/73 118/131/115
f 62/80/71 118/131/115 113/135/114
f 114/128/113 115/148/122 51/63/58
f 117/127/112 87/43/43 91/103/93
f 113/130/114 120/132/116 114/128/113
f 114/128/113 103/133/117 115/148/122
f 117/127/112 91/103/93 116/137/118
f 116/137/118 91/103/93 92/104/94
f 120/132/116 106/140/120 103/133/117
f 117/127/112 119/138/119 118/131/115
f 106/140/120 108/121/108 104/120/107
f 116/137/118 98/136/101 121/141/121
f 108/121/108 109/126/111 110/122/109
f 119/139/119 109/126/111 108/121/108
f 98/112/101 80/99/89 121/142/121
f 109/126/111 121/142/121 122/125/110
f 80/99/89 122/125/110 121/142/121
