# Blender v2.92.0 OBJ File: 'ivy.blend'
# www.blender.org
mtllib ivy_3.mtl
o Ivy_3_Plane.076
v 0.199101 -0.014682 0.120157
v -0.170074 -0.571541 0.440838
v -0.373825 -0.450206 0.409329
v -0.025853 0.113963 0.087955
v -0.591449 -0.283748 0.428761
v -0.084618 0.018184 0.405223
v -0.321677 -0.935845 0.479596
v 0.176351 -0.470573 0.443325
v 0.144688 -0.427582 -0.078070
v -0.084564 -1.052403 0.247910
v -0.310852 -0.979905 0.220209
v -0.103911 -0.352718 -0.106079
v -0.147848 -0.549318 0.219049
v 0.426992 -1.250974 0.273749
v -0.118093 -1.687441 0.307775
v -0.575448 -0.950657 0.250336
v 0.021305 -0.755788 0.235146
v -0.012160 -0.514024 0.005930
v 0.163535 -1.183486 0.270828
v 0.376661 -1.158071 0.184380
v 0.221705 -0.490863 -0.086628
v 0.638500 -0.989971 0.253351
v 0.287080 -0.516961 0.216476
v 0.137971 -1.488522 0.292217
v -0.142327 -0.868103 0.243850
v 0.049230 0.115491 0.206067
v 0.268384 -0.375049 0.426341
v 0.427068 -0.336416 0.347616
v 0.223959 0.154306 0.121634
v 0.070340 -0.081289 0.389749
v 0.477686 0.009524 0.359649
v 0.262959 -0.801965 0.472904
v 0.616266 -0.728194 0.447434
v -0.316936 -0.667795 -0.082189
v -0.872003 -0.680148 -0.015350
v -0.879686 -0.571021 -0.081050
v -0.329123 -0.548751 -0.153453
v -0.486741 -0.605570 -0.025721
v -1.077692 -0.320495 -0.047945
v -1.275925 -0.828352 -0.008354
v -0.662872 -1.063551 0.009982
v -0.389571 -1.766305 0.488967
v 0.434071 -1.435427 0.463172
v -0.605128 -1.112484 0.437997
v 0.139363 -0.758032 0.410365
v 0.052243 -0.586635 0.030147
v -0.091772 -1.184924 0.443099
v 0.073001 -1.245577 0.406457
v 0.231132 -0.656944 -0.007026
v -0.565676 -1.832918 0.195629
v -1.486744 -2.064850 0.213710
v -1.107956 -2.361047 0.236800
v -1.138194 -2.337403 0.234957
v -0.955900 -1.482567 0.168316
v -0.836023 -1.369143 -0.118843
v -1.124878 -1.983110 0.179196
v -0.968228 -2.066006 0.151618
v -0.666993 -1.463841 -0.146908
v -0.719056 -1.278408 -0.027075
v -0.647352 -1.938715 0.301672
v -0.409944 -1.920892 0.278232
v -0.459397 -1.263473 -0.050412
v -0.468290 -1.464206 0.275038
v -1.191445 -2.012815 0.317807
v -0.763522 -2.564009 0.360776
v -0.146392 -1.953917 0.313215
v -0.681086 -1.625640 0.287624
v -0.828556 -0.924513 -0.170235
v -0.547034 -1.528466 0.154118
v -0.327594 -1.437759 0.124996
v -0.587075 -0.829627 -0.199805
v -0.088502 -1.304355 0.147005
v -0.546280 -0.932610 0.118024
v -0.449911 -1.910772 0.194279
v -0.875317 -1.378666 0.152798
v -0.326166 -1.333063 -0.212183
v -0.395728 -1.993577 0.116605
v -0.218402 -2.015891 0.101469
v -0.133063 -1.361945 -0.226456
v -0.613889 -2.067222 0.158553
v -0.282798 -1.525491 0.116321
v -0.336630 -2.305432 0.177123
v 0.027204 -1.769551 0.135348
v -0.749149 -1.543291 -0.017701
v -1.438742 -1.737697 0.171742
v -1.517428 -1.545725 0.069283
v -0.839769 -1.335056 -0.128254
v -0.964425 -1.570132 0.182345
v -0.941290 -1.542573 0.177012
v -1.688614 -0.986694 -0.056411
v -0.938821 -1.539631 0.176443
v -1.468069 -2.170084 0.298437
v -2.198138 -1.599864 0.062779
v -0.650679 -1.063138 -0.079176
v -1.279619 -1.375331 0.157870
v -1.398365 -1.202558 0.059935
v -0.784616 -0.876668 -0.184465
v -1.452940 -0.893966 0.117953
v -0.865200 -0.837958 0.113587
v -1.489799 -1.598393 0.172869
v -0.839736 -1.391069 0.156706
v 0.117206 -0.747831 -0.180283
v -0.515340 -1.053070 0.056221
v -0.632090 -0.879000 -0.041815
v -0.014576 -0.559896 -0.285686
v -0.408647 -0.487417 -0.009161
v -0.699123 -1.389175 0.061137
v -0.971645 -0.993540 0.030294
v -0.949890 -1.025123 0.032757
v -0.082640 -0.897860 0.022836
v -0.495339 -1.115668 0.062397
v -0.910807 -1.471708 0.256817
v -1.035239 -1.363016 0.182161
v -0.634021 -0.999451 -0.017771
v -0.603424 -1.293141 0.234815
v -0.929111 -1.031236 0.214398
v -1.093957 -1.859549 0.278970
v -1.378639 -1.636902 0.261614
v 1.440351 -1.503422 0.642854
v 0.578784 -1.717789 0.659566
v 1.229732 -0.848003 0.591760
v 0.418347 -0.996952 0.603371
v 0.371169 -0.812631 0.222146
v 0.856848 -1.207184 0.619215
v 0.757312 -1.353354 0.589240
v 0.265836 -0.974900 0.192142
v 0.595106 -0.514925 0.002286
v 1.167632 -0.857575 0.324814
v 1.043116 -1.061812 0.321265
v 0.463097 -0.740228 0.000621
v 0.662792 -0.802333 0.320864
v 1.480642 -0.407106 0.294943
v 1.779943 -1.035166 0.363789
v 0.955085 -1.308574 0.377239
v 0.903453 -0.686033 0.313236
v 0.510732 -1.024218 0.221130
v 1.069947 -0.634166 0.511574
v 0.979344 -0.442130 0.419621
v 0.415654 -0.811909 0.122737
v 0.730598 -0.250902 0.475575
v 0.403750 -0.740016 0.425256
v 1.364701 -0.556535 0.546945
v 0.875927 -1.027761 0.477141
v 0.599523 -0.952330 0.092702
v 0.100339 -1.402300 0.405051
v -0.067275 -1.235253 0.369979
v 0.413128 -0.773052 0.056553
v 0.273294 -0.925541 0.378242
v 0.464819 -1.811152 0.447283
v -0.219793 -1.952448 0.458298
v -0.290670 -1.088870 0.390975
v 0.329652 -1.186142 0.398558
v -0.258558 -2.659849 0.703822
v -0.668440 -1.874495 0.642598
v 0.331664 -2.302905 0.675996
v -0.002713 -1.550960 0.617376
v 0.193809 -1.484066 0.245306
v -0.105545 -2.025123 0.653795
v -0.268191 -1.965143 0.607749
v 0.014206 -1.422294 0.197835
v -0.241595 -2.120644 0.363256
v 0.306840 -2.893993 0.423544
v -0.174118 -2.873430 0.421941
v -0.135724 -2.875072 0.422069
v 0.283375 -2.107483 0.362230
v 0.280355 -1.948780 0.071541
v 0.086677 -2.597813 0.372313
v -0.084677 -2.559861 0.335314
v 0.091969 -1.911793 0.033210
v 0.231815 -1.341898 0.007500
v -0.390006 -1.613027 0.305907
v -0.496431 -1.402260 0.267426
v 0.111379 -1.113669 -0.032465
v -0.592687 -1.145303 0.279802
v -0.002444 -1.159686 0.280924
v -0.713678 -1.840297 0.333982
v -0.043430 -1.711870 0.323970
v 0.560455 -1.464223 -0.056761
v 0.168452 -2.005937 0.262766
v 0.020039 -1.908238 0.238274
v 0.395755 -1.361277 -0.081311
v 0.284318 -2.202650 0.314308
v 0.386150 -1.576451 0.265491
v -0.081686 -2.203858 0.314402
v -0.008546 -1.560876 0.264277
v 0.217290 -0.891063 0.076650
v 0.605546 -1.482587 0.297051
v 0.794962 -1.389393 0.202293
v 0.426725 -0.793378 -0.025285
v 0.353319 -1.047336 0.286786
v 0.353881 -1.011461 0.280805
v 1.293798 -1.077222 0.095843
v 0.353940 -1.007632 0.280167
v 0.341093 -1.828346 0.416993
v 1.277313 -1.872046 0.229195
v 0.640432 -1.755211 0.147780
v 1.050720 -2.123235 0.242347
v 1.130627 -2.046380 0.179162
v 0.730472 -1.673831 0.079452
v 0.806919 -1.816888 0.213907
v 1.441798 -1.983453 0.226892
v 1.261132 -2.497782 0.266987
v 0.641995 -2.278999 0.249932
v 0.452546 -2.031917 0.141544
v 0.715955 -2.672882 0.404220
v 0.923127 -2.620190 0.315647
v 0.680511 -1.978784 0.046650
v 1.161724 -2.419613 0.382086
v 0.751762 -1.996015 0.349063
v 0.730249 -2.978649 0.425666
v 0.371639 -2.399694 0.380533
v 0.139045 -1.504419 0.023896
v 0.409729 -2.142440 0.286343
v 0.616231 -2.087468 0.197591
v 0.366328 -1.448776 -0.071194
v 0.698710 -1.643950 0.226196
v 0.331190 -2.517322 0.294281
v 0.796280 -2.393450 0.284625
v 0.759153 -2.403338 0.285396
v 0.183330 -1.744395 0.234026
v 0.562724 -1.359227 0.226581
v 0.637689 -1.895961 0.435088
v 0.806459 -1.895295 0.368854
v 0.747476 -1.362175 0.155704
v 0.521059 -1.561171 0.400907
v 0.939309 -1.573359 0.401857
v 0.524256 -2.309487 0.459243
v 0.885749 -2.324914 0.460446
v 0.474850 -2.485423 0.003394
v 0.741794 -2.965823 0.106721
v 0.843802 -2.919154 0.045890
v 0.588035 -2.437765 -0.062305
v 0.610779 -2.597281 0.073432
v 1.157316 -2.959885 0.101700
v 0.819292 -3.388145 0.135086
v 0.304612 -2.981221 0.103363
v -0.469768 -3.087432 0.535844
v -0.602401 -2.212057 0.467602
v 0.204602 -2.940330 0.524376
v 0.132549 -2.120943 0.460499
v 0.349445 -2.122651 0.093776
v -0.118775 -2.536339 0.492337
v -0.252125 -2.427244 0.442462
v 0.200667 -2.006388 0.042058
v -0.417853 -3.283878 0.252627
v -0.150236 -4.192639 0.323472
v -0.598585 -4.017871 0.309847
v -0.562794 -4.031822 0.310935
v 0.083091 -3.440952 0.264872
v 0.138801 -3.290992 -0.025135
v -0.261597 -3.841448 0.267952
v -0.410526 -3.750348 0.226810
v -0.026520 -3.195312 -0.068041
v 0.151142 -3.140684 0.061989
v -0.474300 -3.404040 0.359790
v -0.578052 -3.191962 0.321207
v 0.033599 -2.910972 0.021908
v -0.156038 -3.008791 0.339335
v -0.262561 -3.908506 0.409475
v -0.956171 -3.821107 0.402662
v -0.742662 -2.981196 0.337184
v -0.187383 -3.273542 0.359974
v 0.520251 -3.059305 -0.059927
v -0.163114 -3.113858 0.221596
v -0.194771 -2.880177 0.181329
v 0.481014 -2.804581 -0.101958
v -0.203171 -2.605854 0.192351
v 0.350579 -2.810066 0.208271
v -0.543435 -3.224309 0.240564
v 0.132405 -3.319246 0.247965
v -0.083023 -2.838298 -0.150954
v -0.636870 -3.223063 0.156338
v -0.745116 -3.082774 0.128526
v -0.204982 -2.687785 -0.179211
v -0.592071 -3.446435 0.209958
v -0.292285 -2.886879 0.166337
v -0.938737 -3.329387 0.200834
v -0.660642 -2.744686 0.155252
v -0.061650 -3.301540 0.063252
v 0.109110 -3.985824 0.290885
v 0.320793 -3.959187 0.201316
v 0.170605 -3.277146 -0.032968
v 0.011291 -3.492488 0.276092
v 0.023558 -3.458742 0.270277
v 0.896225 -3.825275 0.108762
v 0.024868 -3.455140 0.269656
v -0.255761 -4.227156 0.402686
v 0.620603 -4.571627 0.238335
v 0.304740 -2.973938 0.013670
v 0.340352 -3.664521 0.280214
v 0.555601 -3.681924 0.197105
v 0.539962 -2.997664 -0.075232
v 0.844434 -3.568866 0.270366
v 0.594194 -3.035717 0.228804
v 0.254596 -3.958430 0.300736
v 0.103414 -3.294883 0.249008
v 0.192106 -2.157268 -0.126522
v 0.235557 -2.847416 0.139989
v 0.450913 -2.862445 0.056695
v 0.427498 -2.178401 -0.215626
v 0.671448 -2.469208 0.089219
v 0.039994 -3.176814 0.144382
v 0.520256 -3.209809 0.146954
v 0.481917 -3.207175 0.146749
v 0.151220 -2.397808 0.083653
v 0.171229 -2.861998 0.142422
v 0.063579 -3.393308 0.350505
v 0.225133 -3.447455 0.288544
v 0.346853 -2.924745 0.076206
v 0.062208 -3.038938 0.314798
v 0.453951 -3.185533 0.326226
v -0.177885 -3.747944 0.370070
v 0.159108 -3.879275 0.380308
vt 0.486569 0.710380
vt 0.486486 0.874496
vt 0.469348 0.873680
vt 0.467860 0.710614
vt 0.124449 0.873675
vt 0.129913 0.799827
vt 0.219280 0.782651
vt 0.203148 0.875598
vt 0.486569 0.710380
vt 0.486486 0.874496
vt 0.469348 0.873680
vt 0.467860 0.710614
vt 0.020174 0.871126
vt 0.037138 0.756495
vt 0.115327 0.752258
vt 0.114749 0.787907
vt 0.113363 0.873404
vt 0.486569 0.710380
vt 0.486486 0.874496
vt 0.469348 0.873680
vt 0.467860 0.710614
vt 0.124449 0.873675
vt 0.129913 0.799827
vt 0.219280 0.782651
vt 0.203148 0.875598
vt 0.486569 0.710380
vt 0.486486 0.874496
vt 0.469348 0.873680
vt 0.467860 0.710614
vt 0.335609 0.870403
vt 0.279842 0.868773
vt 0.286983 0.768261
vt 0.335182 0.770325
vt 0.486569 0.710380
vt 0.486486 0.874496
vt 0.469348 0.873680
vt 0.467860 0.710614
vt 0.235342 0.765057
vt 0.238311 0.692236
vt 0.325808 0.696134
vt 0.322809 0.761663
vt 0.011380 0.747626
vt 0.011038 0.629228
vt 0.109759 0.631530
vt 0.103208 0.741338
vt 0.486569 0.710380
vt 0.486486 0.874496
vt 0.469348 0.873680
vt 0.467860 0.710614
vt 0.228200 0.770437
vt 0.127380 0.777647
vt 0.126861 0.707631
vt 0.232087 0.706368
vt 0.228510 0.765322
vt 0.486569 0.710380
vt 0.486486 0.874496
vt 0.469348 0.873680
vt 0.467860 0.710614
vt 0.486569 0.710380
vt 0.486486 0.874496
vt 0.469348 0.873680
vt 0.467860 0.710614
vt 0.020174 0.871126
vt 0.037138 0.756495
vt 0.115327 0.752258
vt 0.114749 0.787907
vt 0.113363 0.873404
vt 0.486569 0.710380
vt 0.486486 0.874496
vt 0.469348 0.873680
vt 0.467860 0.710614
vt 0.124449 0.873675
vt 0.129913 0.799827
vt 0.219280 0.782651
vt 0.203148 0.875598
vt 0.486569 0.710380
vt 0.486486 0.874496
vt 0.469348 0.873680
vt 0.467860 0.710614
vt 0.282406 0.783810
vt 0.272654 0.869802
vt 0.220028 0.867719
vt 0.233606 0.783972
vt 0.486569 0.710380
vt 0.486486 0.874496
vt 0.469348 0.873680
vt 0.467860 0.710614
vt 0.465060 0.870699
vt 0.337613 0.871540
vt 0.337163 0.765957
vt 0.337143 0.761107
vt 0.337140 0.760589
vt 0.465152 0.763219
vt 0.486569 0.710380
vt 0.486486 0.874496
vt 0.469348 0.873680
vt 0.467860 0.710614
vt 0.124449 0.873675
vt 0.129913 0.799827
vt 0.219280 0.782651
vt 0.203148 0.875598
vt 0.486569 0.710380
vt 0.486486 0.874496
vt 0.469348 0.873680
vt 0.467860 0.710614
vt 0.228200 0.770437
vt 0.127380 0.777647
vt 0.126861 0.707631
vt 0.232087 0.706368
vt 0.228510 0.765322
vt 0.486569 0.710380
vt 0.486486 0.874496
vt 0.469348 0.873680
vt 0.467860 0.710614
vt 0.335609 0.870403
vt 0.279842 0.868773
vt 0.286983 0.768261
vt 0.335182 0.770325
vt 0.011380 0.747626
vt 0.011038 0.629228
vt 0.109759 0.631530
vt 0.103208 0.741338
vt 0.486569 0.710380
vt 0.486486 0.874496
vt 0.469348 0.873680
vt 0.467860 0.710614
vt 0.486569 0.710380
vt 0.486486 0.874496
vt 0.469348 0.873680
vt 0.467860 0.710614
vt 0.020174 0.871126
vt 0.037138 0.756495
vt 0.115327 0.752258
vt 0.114749 0.787907
vt 0.113363 0.873404
vt 0.486569 0.710380
vt 0.486486 0.874496
vt 0.469348 0.873680
vt 0.467860 0.710614
vt 0.124449 0.873675
vt 0.129913 0.799827
vt 0.219280 0.782651
vt 0.203148 0.875598
vt 0.486569 0.710380
vt 0.486486 0.874496
vt 0.469348 0.873680
vt 0.467860 0.710614
vt 0.020174 0.871126
vt 0.037138 0.756495
vt 0.115327 0.752258
vt 0.114749 0.787907
vt 0.113363 0.873404
vt 0.011380 0.747626
vt 0.011038 0.629228
vt 0.109759 0.631530
vt 0.103208 0.741338
vt 0.486569 0.710380
vt 0.486486 0.874496
vt 0.469348 0.873680
vt 0.467860 0.710614
vt 0.228200 0.770437
vt 0.127380 0.777647
vt 0.126861 0.707631
vt 0.232087 0.706368
vt 0.228510 0.765322
vt 0.486569 0.710380
vt 0.486486 0.874496
vt 0.469348 0.873680
vt 0.467860 0.710614
vt 0.486569 0.710380
vt 0.486486 0.874496
vt 0.469348 0.873680
vt 0.467860 0.710614
vt 0.124449 0.873675
vt 0.129913 0.799827
vt 0.219280 0.782651
vt 0.203148 0.875598
vt 0.486569 0.710380
vt 0.486486 0.874496
vt 0.469348 0.873680
vt 0.467860 0.710614
vt 0.282406 0.783810
vt 0.272654 0.869802
vt 0.220028 0.867719
vt 0.233606 0.783972
vt 0.486569 0.710380
vt 0.486486 0.874496
vt 0.469348 0.873680
vt 0.467860 0.710614
vt 0.465060 0.870699
vt 0.337613 0.871540
vt 0.337163 0.765957
vt 0.337143 0.761107
vt 0.337140 0.760589
vt 0.465152 0.763219
vt 0.486569 0.710380
vt 0.486486 0.874496
vt 0.469348 0.873680
vt 0.467860 0.710614
vt 0.235342 0.765057
vt 0.238311 0.692236
vt 0.325808 0.696134
vt 0.322809 0.761663
vt 0.486569 0.710380
vt 0.486486 0.874496
vt 0.469348 0.873680
vt 0.467860 0.710614
vt 0.124449 0.873675
vt 0.129913 0.799827
vt 0.219280 0.782651
vt 0.203148 0.875598
vt 0.486569 0.710380
vt 0.486486 0.874496
vt 0.469348 0.873680
vt 0.467860 0.710614
vt 0.228200 0.770437
vt 0.127380 0.777647
vt 0.126861 0.707631
vt 0.232087 0.706368
vt 0.228510 0.765322
vt 0.486569 0.710380
vt 0.486486 0.874496
vt 0.469348 0.873680
vt 0.467860 0.710614
vt 0.335609 0.870403
vt 0.279842 0.868773
vt 0.286983 0.768261
vt 0.335182 0.770325
vt 0.486569 0.710380
vt 0.486486 0.874496
vt 0.469348 0.873680
vt 0.467860 0.710614
vt 0.235342 0.765057
vt 0.238311 0.692236
vt 0.325808 0.696134
vt 0.322809 0.761663
vt 0.011380 0.747626
vt 0.011038 0.629228
vt 0.109759 0.631530
vt 0.103208 0.741338
vt 0.486569 0.710380
vt 0.486486 0.874496
vt 0.469348 0.873680
vt 0.467860 0.710614
vt 0.228200 0.770437
vt 0.127380 0.777647
vt 0.126861 0.707631
vt 0.232087 0.706368
vt 0.228510 0.765322
vt 0.486569 0.710380
vt 0.486486 0.874496
vt 0.469348 0.873680
vt 0.467860 0.710614
vt 0.486569 0.710380
vt 0.486486 0.874496
vt 0.469348 0.873680
vt 0.467860 0.710614
vt 0.020174 0.871126
vt 0.037138 0.756495
vt 0.115327 0.752258
vt 0.114749 0.787907
vt 0.113363 0.873404
vt 0.486569 0.710380
vt 0.486486 0.874496
vt 0.469348 0.873680
vt 0.467860 0.710614
vt 0.124449 0.873675
vt 0.129913 0.799827
vt 0.219280 0.782651
vt 0.203148 0.875598
vt 0.486569 0.710380
vt 0.486486 0.874496
vt 0.469348 0.873680
vt 0.467860 0.710614
vt 0.282406 0.783810
vt 0.272654 0.869802
vt 0.220028 0.867719
vt 0.233606 0.783972
vt 0.486569 0.710380
vt 0.486486 0.874496
vt 0.469348 0.873680
vt 0.467860 0.710614
vt 0.465060 0.870699
vt 0.337613 0.871540
vt 0.337163 0.765957
vt 0.337143 0.761107
vt 0.337140 0.760589
vt 0.465152 0.763219
vt 0.486569 0.710380
vt 0.486486 0.874496
vt 0.469348 0.873680
vt 0.467860 0.710614
vt 0.124449 0.873675
vt 0.129913 0.799827
vt 0.219280 0.782651
vt 0.203148 0.875598
vt 0.486569 0.710380
vt 0.486486 0.874496
vt 0.469348 0.873680
vt 0.467860 0.710614
vt 0.228200 0.770437
vt 0.127380 0.777647
vt 0.126861 0.707631
vt 0.232087 0.706368
vt 0.228510 0.765322
vt 0.486569 0.710380
vt 0.486486 0.874496
vt 0.469348 0.873680
vt 0.467860 0.710614
vt 0.335609 0.870403
vt 0.279842 0.868773
vt 0.286983 0.768261
vt 0.335182 0.770325
vn -0.1205 -0.4342 -0.8927
vn 0.0000 -0.0777 -0.9970
vn -0.0357 -0.4519 -0.8913
vn 0.2983 0.4178 0.8582
vn 0.0000 0.0777 0.9970
vn 0.2860 0.4960 0.8199
vn -0.0450 -0.1264 -0.9910
vn -0.0909 -0.5183 -0.8503
vn 0.3534 0.4723 0.8075
vn 0.3133 0.2914 0.9039
vn 0.0543 0.4497 0.8915
vn -0.0668 0.4478 0.8917
vn 0.1304 0.4308 0.8930
vn -0.0959 -0.4990 -0.8613
vn -0.0993 0.2688 0.9581
vn -0.0605 -0.5234 -0.8499
vn -0.0656 -0.5227 -0.8500
vn 0.0518 -0.5245 -0.8499
vn 0.5257 -0.1878 -0.8297
vn 0.3784 -0.2151 -0.9003
vn 0.0172 -0.1008 -0.9948
vn -0.5345 0.1464 0.8324
vn -0.1217 -0.0208 0.9923
vn -0.2053 -0.3941 -0.8958
vn 0.0031 -0.6036 -0.7973
vn 0.0948 -0.4417 -0.8921
vn -0.2959 -0.3141 -0.9021
vn -0.1351 -0.4291 -0.8931
vn 0.2071 0.4580 0.8645
vn -0.2013 -0.1580 -0.9667
vn 0.2241 0.4693 0.8542
vn 0.2504 0.4534 0.8554
vn 0.2461 0.4562 0.8552
vn 0.3364 0.3815 0.8610
vn 0.3420 0.3753 0.8615
vn -0.1719 -0.5756 -0.7994
vn -0.0305 -0.4524 -0.8913
vn -0.2989 -0.3104 -0.9024
vn -0.3587 -0.2055 -0.9105
vn -0.2439 -0.3662 -0.8980
vn 0.3221 0.3702 0.8713
vn -0.2171 -0.0886 -0.9721
vn 0.3618 0.3519 0.8633
vn 0.3586 0.3558 0.8630
vn 0.4198 0.2560 0.8708
usemtl material_ivy_redhills
s off
f 1/1/1 2/2/1 3/3/1 4/4/1
f 6/5/2 8/6/2 7/7/2 5/8/2
f 9/9/3 10/10/3 11/11/3 12/12/3
f 15/13/2 16/14/2 13/15/2 17/16/2 14/17/2
f 18/18/4 19/19/4 20/20/4 21/21/4
f 23/22/5 25/23/5 24/24/5 22/25/5
f 26/26/6 27/27/6 28/28/6 29/29/6
f 30/30/7 31/31/7 33/32/7 32/33/7
f 34/34/8 35/35/8 36/36/8 37/37/8
f 39/38/5 40/39/5 41/40/5 38/41/5
f 42/42/5 43/43/5 45/44/5 44/45/5
f 46/46/9 47/47/9 48/48/9 49/49/9
f 52/50/5 50/51/5 54/52/5 51/53/5 53/54/5
f 55/55/10 56/56/10 57/57/10 58/58/10
f 59/59/11 60/60/11 61/61/11 62/62/11
f 65/63/5 66/64/5 63/65/5 67/66/5 64/67/5
f 68/68/12 69/69/12 70/70/12 71/71/12
f 73/72/5 75/73/5 74/74/5 72/75/5
f 76/76/13 77/77/13 78/78/13 79/79/13
f 82/80/5 83/81/5 81/82/5 80/83/5
f 84/84/14 85/85/14 86/86/14 87/87/14
f 93/88/15 92/89/15 88/90/15 89/91/15 91/92/15 90/93/15
f 94/94/16 95/95/16 96/96/16 97/97/16
f 99/98/2 101/99/2 100/100/2 98/101/2
f 102/102/17 103/103/17 104/104/17 105/105/17
f 108/106/2 106/107/2 110/108/2 107/109/2 109/110/2
f 111/111/18 112/112/18 113/113/18 114/114/18
f 115/115/5 116/116/5 118/117/5 117/118/5
f 119/119/2 120/120/2 122/121/2 121/122/2
f 123/123/19 124/124/19 125/125/19 126/126/19
f 127/127/20 128/128/20 129/129/20 130/130/20
f 133/131/21 134/132/21 131/133/21 135/134/21 132/135/21
f 136/136/22 137/137/22 138/138/22 139/139/22
f 141/140/23 143/141/23 142/142/23 140/143/23
f 144/144/24 145/145/24 146/146/24 147/147/24
f 150/148/2 151/149/2 148/150/2 152/151/2 149/152/2
f 153/153/2 154/154/2 156/155/2 155/156/2
f 157/157/25 158/158/25 159/159/25 160/160/25
f 163/161/2 161/162/2 165/163/2 162/164/2 164/165/2
f 166/166/26 167/167/26 168/168/26 169/169/26
f 170/170/27 171/171/27 172/172/27 173/173/27
f 175/174/2 177/175/2 176/176/2 174/177/2
f 178/178/28 179/179/28 180/180/28 181/181/28
f 184/182/2 185/183/2 183/184/2 182/185/2
f 186/186/29 187/187/29 188/188/29 189/189/29
f 195/190/30 194/191/30 190/192/30 191/193/30 193/194/30 192/195/30
f 196/196/31 197/197/31 198/198/31 199/199/31
f 201/200/2 202/201/2 203/202/2 200/203/2
f 204/204/32 205/205/32 206/206/32 207/207/32
f 209/208/5 211/209/5 210/210/5 208/211/5
f 212/212/33 213/213/33 214/214/33 215/215/33
f 218/216/5 216/217/5 220/218/5 217/219/5 219/220/5
f 221/221/34 222/222/34 223/223/34 224/224/34
f 225/225/2 226/226/2 228/227/2 227/228/2
f 229/229/35 230/230/35 231/231/35 232/232/35
f 234/233/2 235/234/2 236/235/2 233/236/2
f 237/237/2 238/238/2 240/239/2 239/240/2
f 241/241/36 242/242/36 243/243/36 244/244/36
f 247/245/2 245/246/2 249/247/2 246/248/2 248/249/2
f 250/250/37 251/251/37 252/252/37 253/253/37
f 254/254/38 255/255/38 256/256/38 257/257/38
f 260/258/2 261/259/2 258/260/2 262/261/2 259/262/2
f 263/263/39 264/264/39 265/265/39 266/266/39
f 268/267/2 270/268/2 269/269/2 267/270/2
f 271/271/40 272/272/40 273/273/40 274/274/40
f 277/275/2 278/276/2 276/277/2 275/278/2
f 279/279/41 280/280/41 281/281/41 282/282/41
f 288/283/42 287/284/42 283/285/42 284/286/42 286/287/42 285/288/42
f 289/289/43 290/290/43 291/291/43 292/292/43
f 294/293/5 296/294/5 295/295/5 293/296/5
f 297/297/44 298/298/44 299/299/44 300/300/44
f 303/301/5 301/302/5 305/303/5 302/304/5 304/305/5
f 306/306/45 307/307/45 308/308/45 309/309/45
f 310/310/2 311/311/2 313/312/2 312/313/2
