# Blender v2.92.0 OBJ File: 'ivy.blend'
# www.blender.org
mtllib ivy_1.mtl
o Ivy_1_Plane.062
v -0.171103 0.002214 0.157803
v 0.328081 -0.470672 0.434235
v 0.495696 -0.301403 0.412251
v 0.015293 0.183759 0.135697
v 0.155127 0.006728 0.444561
v -0.036399 -0.881569 0.444562
v 0.648214 -1.023294 0.444562
v 0.719091 -0.157096 0.444561
v 0.098768 -0.254662 0.444561
v 0.686979 -1.747637 0.634363
v 1.096861 -0.959902 0.634363
v 0.096757 -1.389611 0.634363
v 0.431133 -0.635384 0.634363
v 0.234611 -0.539776 0.268617
v 0.533966 -1.110943 0.633820
v 0.696612 -1.047567 0.592575
v 0.414214 -0.474501 0.226092
v 0.670015 -1.183595 0.336736
v 0.121580 -1.959290 0.336736
v 0.602539 -1.938665 0.336736
v 0.564145 -1.940311 0.336736
v 0.145046 -1.170393 0.336736
v 0.148065 -0.989579 0.059260
v 0.341743 -1.660025 0.308679
v 0.513098 -1.619311 0.274742
v 0.336451 -0.949724 0.023920
v 0.196605 -0.379555 0.042580
v 0.818426 -0.673057 0.319013
v 0.924851 -0.459935 0.297029
v 0.317042 -0.148910 0.020475
v 1.021108 -0.204717 0.329339
v 0.430865 -0.219144 0.329339
v 1.142098 -0.901820 0.329339
v 0.471850 -0.773004 0.329339
v -0.132035 -0.496514 -0.030993
v 0.259969 -1.061424 0.245465
v 0.408381 -0.962116 0.228640
v 0.032665 -0.391972 -0.047468
v 0.144102 -1.261548 0.281562
v 0.042271 -0.633449 0.281562
v 0.510107 -1.262760 0.281562
v 0.436966 -0.617826 0.281562
v 0.211130 0.064543 0.146561
v -0.177126 -0.542321 0.320321
v -0.366541 -0.442045 0.233093
v 0.001696 0.169854 0.052527
v 0.075101 -0.107590 0.343916
v 0.074540 -0.071358 0.340741
v -0.865378 -0.122546 0.151228
v 0.074480 -0.067491 0.340402
v 0.087328 -0.896357 0.413028
v -0.848892 -0.925329 0.222401
v -0.212012 -0.802521 0.150313
v -0.622300 -1.176781 0.215991
v -0.702206 -1.095247 0.158970
v -0.302052 -0.716076 0.088517
v -0.378498 -0.869150 0.211446
v -1.013377 -1.036221 0.211446
v -0.832712 -1.552110 0.211446
v -0.213574 -1.332663 0.211446
v -0.024126 -1.077904 0.122590
v -0.287535 -1.737346 0.334655
v -0.494707 -1.677929 0.250445
v -0.252090 -1.017556 0.032113
v -0.733303 -1.483122 0.332272
v -0.323341 -1.058240 0.332272
v -0.301829 -2.043855 0.332272
v 0.056781 -1.463143 0.332272
v 0.289376 -0.542858 0.046295
v 0.018692 -1.199347 0.258361
v -0.187811 -1.137644 0.174150
v 0.062093 -0.479994 -0.044182
v -0.270289 -0.697690 0.237139
v 0.097231 -1.573711 0.237139
v -0.367860 -1.449463 0.237139
v -0.330732 -1.459382 0.237139
v 0.245090 -0.798439 0.237139
v -0.134304 -0.413858 0.259653
v -0.209269 -0.965174 0.425813
v -0.378039 -0.959362 0.359830
v -0.319056 -0.411288 0.188760
v -0.092638 -0.628739 0.417755
v -0.510889 -0.640966 0.417755
v -0.095835 -1.379327 0.417755
v -0.457329 -1.394801 0.417755
v 0.510971 -3.403205 0.112974
v 0.141796 -4.213472 0.389406
v -0.061955 -4.041085 0.367423
v 0.286017 -3.220566 0.090868
v -0.279579 -3.811394 0.399733
v 0.227252 -3.388384 0.399733
v -0.009808 -4.724990 0.399733
v 0.488221 -4.073138 0.399733
v 0.456558 -3.956669 -0.116744
v 0.227306 -4.862150 0.159688
v 0.001017 -4.758186 0.137705
v 0.207959 -3.849376 -0.138850
v 0.164022 -4.158448 0.170015
v 0.738863 -5.141476 0.170016
v 0.193777 -5.752972 0.170016
v -0.263578 -4.720727 0.170015
v 0.333175 -4.447714 0.170016
v 0.299710 -4.086163 -0.039717
v 0.475405 -5.047178 0.172348
v 0.688532 -5.002402 0.088138
v 0.533575 -4.043861 -0.130194
v 0.950370 -4.775802 0.169965
v 0.598950 -4.113109 0.169965
v 0.449841 -5.474277 0.169966
v 0.169543 -4.605063 0.169965
v 0.361100 -3.231260 0.208742
v 0.580254 -3.938272 0.390224
v 0.738938 -3.875928 0.314740
v 0.535829 -3.168041 0.127581
v 0.382210 -3.525224 0.376575
v 0.789556 -3.395497 0.353624
v 0.574829 -4.537827 0.403466
v 0.928136 -4.432333 0.383807
v 0.347218 -1.997148 0.031372
v 0.614162 -2.575983 0.097049
v 0.716170 -2.515058 0.040029
v 0.460403 -1.934603 -0.030425
v 0.483148 -2.136173 0.092504
v 1.029685 -2.568481 0.092504
v 0.691660 -3.079067 0.092504
v 0.176981 -2.593919 0.092504
v -0.597399 -2.759736 0.515422
v -0.730032 -1.716085 0.515422
v 0.076971 -2.584355 0.515422
v 0.004918 -1.607456 0.515422
v 0.221814 -1.575602 0.149676
v -0.246407 -2.102655 0.514878
v -0.379756 -1.968765 0.473633
v 0.073036 -1.433049 0.107150
v -0.545485 -2.966366 0.217794
v -0.277867 -4.049820 0.217794
v -0.726217 -3.841455 0.217794
v -0.690426 -3.858089 0.217794
v -0.044541 -3.153634 0.217794
v 0.011170 -2.949137 -0.059681
v -0.389228 -3.628518 0.189737
v -0.538157 -3.516762 0.155800
v -0.154151 -2.831789 -0.095021
v 0.023511 -2.779065 0.038861
v -0.601932 -3.118661 0.315293
v -0.705683 -2.863779 0.293310
v -0.094032 -2.503147 0.016755
v -0.283669 -2.648390 0.325620
v -0.390193 -3.721059 0.325621
v -1.083802 -3.616859 0.325621
v -0.870293 -2.615490 0.325620
v -0.315014 -2.964034 0.325620
v 0.392619 -2.671366 -0.076361
v -0.290746 -2.762020 0.200071
v -0.322402 -2.481382 0.178087
v 0.353383 -2.365627 -0.098467
v -0.330803 -2.157319 0.210397
v 0.222947 -2.400786 0.210397
v -0.671066 -2.894661 0.210397
v 0.004773 -3.007848 0.210397
v -0.210654 -2.401057 -0.149935
v -0.764502 -2.885403 0.126523
v -0.872747 -2.716588 0.109698
v -0.332613 -2.220084 -0.166409
v -0.719702 -3.155060 0.162620
v -0.419916 -2.487939 0.162620
v -1.066369 -3.015510 0.162620
v -0.788274 -2.318412 0.162620
v -0.189281 -2.969801 0.027619
v -0.018522 -3.801727 0.201380
v 0.193162 -3.761887 0.114152
v 0.042974 -2.932005 -0.066415
v -0.116340 -3.215743 0.224974
v -0.104073 -3.175215 0.221799
v 0.768593 -3.594647 0.032286
v -0.102764 -3.170889 0.221461
v -0.383393 -4.098042 0.294086
v 0.492972 -4.491068 0.103459
v 0.177109 -2.577003 0.003648
v 0.212721 -3.419989 0.215713
v 0.427970 -3.432934 0.131503
v 0.412331 -2.596906 -0.086829
v 0.716802 -3.305724 0.213330
v 0.466563 -2.670087 0.213330
v 0.126965 -3.770175 0.213330
v -0.024217 -2.979073 0.213330
v 0.064474 -1.596273 -0.072646
v 0.107926 -2.438740 0.139419
v 0.323282 -2.448855 0.055208
v 0.299867 -1.613083 -0.163124
v 0.543817 -1.985861 0.118197
v -0.087637 -2.829492 0.118197
v 0.392624 -2.868830 0.118197
v 0.354286 -2.865690 0.118197
v 0.023588 -1.900737 0.118197
v 0.043597 -2.456244 0.140711
v -0.064053 -3.105086 0.306871
v 0.097501 -3.163527 0.240889
v 0.219222 -2.524484 0.069818
v -0.065423 -2.681848 0.298814
v 0.326320 -2.856623 0.298814
v -0.305517 -3.527148 0.298814
v 0.031476 -3.683725 0.298814
v 0.729881 -1.244412 0.157803
v 1.298951 -1.741169 0.434235
v 1.438574 -1.518047 0.412251
v 0.886197 -1.004240 0.135697
v 1.052598 -1.196362 0.444561
v 1.002059 -2.277247 0.444562
v 1.703017 -2.356128 0.444562
v 1.637412 -1.317295 0.444561
v 1.037727 -1.514423 0.444561
v 1.855070 -3.212007 0.634363
v 2.137864 -2.222080 0.634363
v 1.213761 -2.863682 0.634363
v 1.426955 -1.923462 0.634363
v 1.217124 -1.835535 0.268617
v 1.603500 -2.475256 0.633820
v 1.754806 -2.378646 0.592575
v 1.384945 -1.734450 0.226092
v 1.749776 -2.543808 0.336736
v 1.327731 -3.537552 0.336736
v 1.801320 -3.450109 0.336736
v 1.763515 -3.457089 0.336736
v 1.227248 -2.596803 0.336736
v 1.201879 -2.381491 0.059260
v 1.499059 -3.153040 0.308679
v 1.662554 -3.082229 0.274742
v 1.382394 -2.309472 0.023920
v 1.154313 -1.650069 0.042580
v 1.816828 -1.917567 0.319013
v 1.888908 -1.650328 0.297029
v 1.237535 -1.360168 0.020475
v 1.944303 -1.334383 0.329339
v 1.361397 -1.428756 0.329339
v 2.173602 -2.147126 0.329339
v 1.488909 -2.081709 0.329339
v 0.846844 -1.832086 -0.030993
v 1.324090 -2.452247 0.245465
v 1.455650 -2.314792 0.228640
v 0.993730 -1.686278 -0.047468
v 1.240612 -2.705272 0.281562
v 1.041131 -1.972041 0.281562
v 1.603660 -2.658825 0.281562
v 1.429983 -1.901830 0.281562
v 1.099052 -1.120317 0.146561
v 0.809326 -1.892432 0.320321
v 0.605810 -1.798026 0.233093
v 0.874898 -1.022545 0.052527
v 0.991193 -1.342710 0.343916
v 0.984953 -1.299720 0.340741
v 0.061145 -1.483536 0.151228
v 0.984287 -1.295130 0.340402
v 1.127041 -2.278636 0.413028
v 0.203413 -2.435564 0.222401
v 0.815555 -2.206267 0.150313
v 0.467501 -2.704792 0.215991
v 0.375492 -2.618336 0.158970
v 0.712730 -2.115300 0.088517
v 0.660952 -2.307245 0.211446
v 0.057737 -2.588890 0.211446
v 0.317772 -3.178436 0.211446
v 0.897165 -2.836596 0.211446
v 1.045023 -2.509004 0.122590
v 0.887319 -3.327277 0.334655
v 0.672608 -3.283761 0.250445
v 0.809552 -2.467101 0.032113
v 0.405505 -3.083432 0.332272
v 0.745295 -2.524779 0.332272
v 0.921227 -3.693463 0.332272
v 1.185664 -2.956313 0.332272
v 1.271902 -1.832033 0.046295
v 1.106523 -2.647749 0.258361
v 0.892116 -2.601426 0.174150
v 1.036712 -1.787050 -0.044182
v 0.741335 -2.089291 0.237139
v 1.243109 -3.082441 0.237139
v 0.762527 -2.995611 0.237139
v 0.800891 -3.002543 0.237139
v 1.268088 -2.141610 0.237139
v 0.831630 -1.734138 0.259653
v 0.843789 -2.399237 0.425813
v 0.675558 -2.414411 0.359830
v 0.648062 -1.755255 0.188760
v 0.906643 -1.984093 0.417755
v 0.493906 -2.053347 0.417755
v 1.021211 -2.876656 0.417755
v 0.665253 -2.942345 0.417755
vt 0.486569 0.710380
vt 0.486486 0.874496
vt 0.469348 0.873680
vt 0.467860 0.710614
vt 0.020174 0.871126
vt 0.037138 0.756495
vt 0.115327 0.752258
vt 0.114749 0.787907
vt 0.113363 0.873404
vt 0.011380 0.747626
vt 0.011038 0.629228
vt 0.109759 0.631530
vt 0.103208 0.741338
vt 0.486569 0.710380
vt 0.486486 0.874496
vt 0.469348 0.873680
vt 0.467860 0.710614
vt 0.228200 0.770437
vt 0.127380 0.777647
vt 0.126861 0.707631
vt 0.232087 0.706368
vt 0.228510 0.765322
vt 0.486569 0.710380
vt 0.486486 0.874496
vt 0.469348 0.873680
vt 0.467860 0.710614
vt 0.486569 0.710380
vt 0.486486 0.874496
vt 0.469348 0.873680
vt 0.467860 0.710614
vt 0.124449 0.873675
vt 0.129913 0.799827
vt 0.219280 0.782651
vt 0.203148 0.875598
vt 0.486569 0.710380
vt 0.486486 0.874496
vt 0.469348 0.873680
vt 0.467860 0.710614
vt 0.282406 0.783810
vt 0.272654 0.869802
vt 0.220028 0.867719
vt 0.233606 0.783972
vt 0.486569 0.710380
vt 0.486486 0.874496
vt 0.469348 0.873680
vt 0.467860 0.710614
vt 0.465060 0.870699
vt 0.337613 0.871540
vt 0.337163 0.765957
vt 0.337143 0.761107
vt 0.337140 0.760589
vt 0.465152 0.763219
vt 0.486569 0.710380
vt 0.486486 0.874496
vt 0.469348 0.873680
vt 0.467860 0.710614
vt 0.235342 0.765057
vt 0.238311 0.692236
vt 0.325808 0.696134
vt 0.322809 0.761663
vt 0.486569 0.710380
vt 0.486486 0.874496
vt 0.469348 0.873680
vt 0.467860 0.710614
vt 0.124449 0.873675
vt 0.129913 0.799827
vt 0.219280 0.782651
vt 0.203148 0.875598
vt 0.486569 0.710380
vt 0.486486 0.874496
vt 0.469348 0.873680
vt 0.467860 0.710614
vt 0.228200 0.770437
vt 0.127380 0.777647
vt 0.126861 0.707631
vt 0.232087 0.706368
vt 0.228510 0.765322
vt 0.486569 0.710380
vt 0.486486 0.874496
vt 0.469348 0.873680
vt 0.467860 0.710614
vt 0.335609 0.870403
vt 0.279842 0.868773
vt 0.286983 0.768261
vt 0.335182 0.770325
vt 0.486569 0.710380
vt 0.486486 0.874496
vt 0.469348 0.873680
vt 0.467860 0.710614
vt 0.124449 0.873675
vt 0.129913 0.799827
vt 0.219280 0.782651
vt 0.203148 0.875598
vt 0.486569 0.710380
vt 0.486486 0.874496
vt 0.469348 0.873680
vt 0.467860 0.710614
vt 0.020174 0.871126
vt 0.037138 0.756495
vt 0.115327 0.752258
vt 0.114749 0.787907
vt 0.113363 0.873404
vt 0.486569 0.710380
vt 0.486486 0.874496
vt 0.469348 0.873680
vt 0.467860 0.710614
vt 0.124449 0.873675
vt 0.129913 0.799827
vt 0.219280 0.782651
vt 0.203148 0.875598
vt 0.486569 0.710380
vt 0.486486 0.874496
vt 0.469348 0.873680
vt 0.467860 0.710614
vt 0.335609 0.870403
vt 0.279842 0.868773
vt 0.286983 0.768261
vt 0.335182 0.770325
vt 0.486569 0.710380
vt 0.486486 0.874496
vt 0.469348 0.873680
vt 0.467860 0.710614
vt 0.235342 0.765057
vt 0.238311 0.692236
vt 0.325808 0.696134
vt 0.322809 0.761663
vt 0.011380 0.747626
vt 0.011038 0.629228
vt 0.109759 0.631530
vt 0.103208 0.741338
vt 0.486569 0.710380
vt 0.486486 0.874496
vt 0.469348 0.873680
vt 0.467860 0.710614
vt 0.228200 0.770437
vt 0.127380 0.777647
vt 0.126861 0.707631
vt 0.232087 0.706368
vt 0.228510 0.765322
vt 0.486569 0.710380
vt 0.486486 0.874496
vt 0.469348 0.873680
vt 0.467860 0.710614
vt 0.486569 0.710380
vt 0.486486 0.874496
vt 0.469348 0.873680
vt 0.467860 0.710614
vt 0.020174 0.871126
vt 0.037138 0.756495
vt 0.115327 0.752258
vt 0.114749 0.787907
vt 0.113363 0.873404
vt 0.486569 0.710380
vt 0.486486 0.874496
vt 0.469348 0.873680
vt 0.467860 0.710614
vt 0.124449 0.873675
vt 0.129913 0.799827
vt 0.219280 0.782651
vt 0.203148 0.875598
vt 0.486569 0.710380
vt 0.486486 0.874496
vt 0.469348 0.873680
vt 0.467860 0.710614
vt 0.282406 0.783810
vt 0.272654 0.869802
vt 0.220028 0.867719
vt 0.233606 0.783972
vt 0.486569 0.710380
vt 0.486486 0.874496
vt 0.469348 0.873680
vt 0.467860 0.710614
vt 0.465060 0.870699
vt 0.337613 0.871540
vt 0.337163 0.765957
vt 0.337143 0.761107
vt 0.337140 0.760589
vt 0.465152 0.763219
vt 0.486569 0.710380
vt 0.486486 0.874496
vt 0.469348 0.873680
vt 0.467860 0.710614
vt 0.124449 0.873675
vt 0.129913 0.799827
vt 0.219280 0.782651
vt 0.203148 0.875598
vt 0.486569 0.710380
vt 0.486486 0.874496
vt 0.469348 0.873680
vt 0.467860 0.710614
vt 0.228200 0.770437
vt 0.127380 0.777647
vt 0.126861 0.707631
vt 0.232087 0.706368
vt 0.228510 0.765322
vt 0.486569 0.710380
vt 0.486486 0.874496
vt 0.469348 0.873680
vt 0.467860 0.710614
vt 0.335609 0.870403
vt 0.279842 0.868773
vt 0.286983 0.768261
vt 0.335182 0.770325
vt 0.486569 0.710380
vt 0.486486 0.874496
vt 0.469348 0.873680
vt 0.467860 0.710614
vt 0.020174 0.871126
vt 0.037138 0.756495
vt 0.115327 0.752258
vt 0.114749 0.787907
vt 0.113363 0.873404
vt 0.011380 0.747626
vt 0.011038 0.629228
vt 0.109759 0.631530
vt 0.103208 0.741338
vt 0.486569 0.710380
vt 0.486486 0.874496
vt 0.469348 0.873680
vt 0.467860 0.710614
vt 0.228200 0.770437
vt 0.127380 0.777647
vt 0.126861 0.707631
vt 0.232087 0.706368
vt 0.228510 0.765322
vt 0.486569 0.710380
vt 0.486486 0.874496
vt 0.469348 0.873680
vt 0.467860 0.710614
vt 0.486569 0.710380
vt 0.486486 0.874496
vt 0.469348 0.873680
vt 0.467860 0.710614
vt 0.124449 0.873675
vt 0.129913 0.799827
vt 0.219280 0.782651
vt 0.203148 0.875598
vt 0.486569 0.710380
vt 0.486486 0.874496
vt 0.469348 0.873680
vt 0.467860 0.710614
vt 0.282406 0.783810
vt 0.272654 0.869802
vt 0.220028 0.867719
vt 0.233606 0.783972
vt 0.486569 0.710380
vt 0.486486 0.874496
vt 0.469348 0.873680
vt 0.467860 0.710614
vt 0.465060 0.870699
vt 0.337613 0.871540
vt 0.337163 0.765957
vt 0.337143 0.761107
vt 0.337140 0.760589
vt 0.465152 0.763219
vt 0.486569 0.710380
vt 0.486486 0.874496
vt 0.469348 0.873680
vt 0.467860 0.710614
vt 0.235342 0.765057
vt 0.238311 0.692236
vt 0.325808 0.696134
vt 0.322809 0.761663
vt 0.486569 0.710380
vt 0.486486 0.874496
vt 0.469348 0.873680
vt 0.467860 0.710614
vt 0.124449 0.873675
vt 0.129913 0.799827
vt 0.219280 0.782651
vt 0.203148 0.875598
vt 0.486569 0.710380
vt 0.486486 0.874496
vt 0.469348 0.873680
vt 0.467860 0.710614
vt 0.228200 0.770437
vt 0.127380 0.777647
vt 0.126861 0.707631
vt 0.232087 0.706368
vt 0.228510 0.765322
vt 0.486569 0.710380
vt 0.486486 0.874496
vt 0.469348 0.873680
vt 0.467860 0.710614
vt 0.335609 0.870403
vt 0.279842 0.868773
vt 0.286983 0.768261
vt 0.335182 0.770325
vn -0.2053 0.3233 0.9238
vn 0.0000 0.0000 1.0000
vn 0.0031 0.5398 0.8418
vn 0.0948 0.3710 0.9238
vn -0.2959 0.2431 0.9238
vn -0.1351 0.3584 0.9238
vn 0.2071 -0.3895 -0.8975
vn -0.2013 0.0824 0.9761
vn 0.2241 -0.4015 -0.8880
vn 0.2504 -0.3856 -0.8880
vn 0.0000 0.0000 -1.0000
vn 0.2461 -0.3883 -0.8880
vn 0.3364 -0.3134 -0.8880
vn -0.1246 -0.2691 -0.9550
vn -0.0370 -0.2832 -0.9583
vn 0.3076 0.2583 0.9158
vn 0.2999 0.3233 0.8975
vn -0.0451 -0.0351 -0.9984
vn 0.3468 0.2621 0.9006
vn -0.1789 -0.4480 -0.8759
vn -0.0312 -0.3282 -0.9441
vn -0.3015 -0.2031 -0.9316
vn -0.3597 -0.1131 -0.9262
vn -0.2470 -0.2517 -0.9358
vn 0.3265 0.2570 0.9096
vn -0.2171 -0.0107 -0.9761
vn 0.3661 0.2415 0.8987
vn 0.3630 0.2450 0.8990
vn 0.4219 0.1586 0.8926
vn -0.2427 0.2444 0.9388
vn -0.0585 0.4681 0.8818
vn 0.0546 0.3261 0.9437
vn -0.3228 0.1638 0.9322
vn -0.1765 0.2843 0.9424
vn 0.2538 -0.3020 -0.9189
vn -0.2088 0.0418 0.9771
vn 0.2727 -0.3104 -0.9107
vn 0.2971 -0.2928 -0.9088
vn 0.2932 -0.2958 -0.9092
vn 0.3733 -0.2184 -0.9016
usemtl material_ivy_redhills
s off
f 1/1/1 2/2/1 3/3/1 4/4/1
f 7/5/2 8/6/2 5/7/2 9/8/2 6/9/2
f 10/10/2 11/11/2 13/12/2 12/13/2
f 14/14/3 15/15/3 16/16/3 17/17/3
f 20/18/2 18/19/2 22/20/2 19/21/2 21/22/2
f 23/23/4 24/24/4 25/25/4 26/26/4
f 27/27/5 28/28/5 29/29/5 30/30/5
f 32/31/2 34/32/2 33/33/2 31/34/2
f 35/35/6 36/36/6 37/37/6 38/38/6
f 41/39/2 42/40/2 40/41/2 39/42/2
f 43/43/7 44/44/7 45/45/7 46/46/7
f 52/47/8 51/48/8 47/49/8 48/50/8 50/51/8 49/52/8
f 53/53/9 54/54/9 55/55/9 56/56/9
f 58/57/2 59/58/2 60/59/2 57/60/2
f 61/61/10 62/62/10 63/63/10 64/64/10
f 66/65/11 68/66/11 67/67/11 65/68/11
f 69/69/12 70/70/12 71/71/12 72/72/12
f 75/73/11 73/74/11 77/75/11 74/76/11 76/77/11
f 78/78/13 79/79/13 80/80/13 81/81/13
f 82/82/2 83/83/2 85/84/2 84/85/2
f 86/86/14 87/87/14 88/88/14 89/89/14
f 91/90/11 93/91/11 92/92/11 90/93/11
f 94/94/15 95/95/15 96/96/15 97/97/15
f 100/98/11 101/99/11 98/100/11 102/101/11 99/102/11
f 103/103/16 104/104/16 105/105/16 106/106/16
f 108/107/2 110/108/2 109/109/2 107/110/2
f 111/111/17 112/112/17 113/113/17 114/114/17
f 115/115/18 116/116/18 118/117/18 117/118/18
f 119/119/19 120/120/19 121/121/19 122/122/19
f 124/123/11 125/124/11 126/125/11 123/126/11
f 127/127/11 128/128/11 130/129/11 129/130/11
f 131/131/20 132/132/20 133/133/20 134/134/20
f 137/135/11 135/136/11 139/137/11 136/138/11 138/139/11
f 140/140/21 141/141/21 142/142/21 143/143/21
f 144/144/22 145/145/22 146/146/22 147/147/22
f 150/148/11 151/149/11 148/150/11 152/151/11 149/152/11
f 153/153/23 154/154/23 155/155/23 156/156/23
f 158/157/11 160/158/11 159/159/11 157/160/11
f 161/161/24 162/162/24 163/163/24 164/164/24
f 167/165/11 168/166/11 166/167/11 165/168/11
f 169/169/25 170/170/25 171/171/25 172/172/25
f 178/173/26 177/174/26 173/175/26 174/176/26 176/177/26 175/178/26
f 179/179/27 180/180/27 181/181/27 182/182/27
f 184/183/2 186/184/2 185/185/2 183/186/2
f 187/187/28 188/188/28 189/189/28 190/190/28
f 193/191/2 191/192/2 195/193/2 192/194/2 194/195/2
f 196/196/29 197/197/29 198/198/29 199/199/29
f 200/200/11 201/201/11 203/202/11 202/203/11
f 204/204/30 205/205/30 206/206/30 207/207/30
f 210/208/2 211/209/2 208/210/2 212/211/2 209/212/2
f 213/213/2 214/214/2 216/215/2 215/216/2
f 217/217/31 218/218/31 219/219/31 220/220/31
f 223/221/2 221/222/2 225/223/2 222/224/2 224/225/2
f 226/226/32 227/227/32 228/228/32 229/229/32
f 230/230/33 231/231/33 232/232/33 233/233/33
f 235/234/2 237/235/2 236/236/2 234/237/2
f 238/238/34 239/239/34 240/240/34 241/241/34
f 244/242/2 245/243/2 243/244/2 242/245/2
f 246/246/35 247/247/35 248/248/35 249/249/35
f 255/250/36 254/251/36 250/252/36 251/253/36 253/254/36 252/255/36
f 256/256/37 257/257/37 258/258/37 259/259/37
f 261/260/2 262/261/2 263/262/2 260/263/2
f 264/264/38 265/265/38 266/266/38 267/267/38
f 269/268/11 271/269/11 270/270/11 268/271/11
f 272/272/39 273/273/39 274/274/39 275/275/39
f 278/276/11 276/277/11 280/278/11 277/279/11 279/280/11
f 281/281/40 282/282/40 283/283/40 284/284/40
f 285/285/2 286/286/2 288/287/2 287/288/2
