# Blender v2.92.0 OBJ File: 'ivy.blend'
# www.blender.org
mtllib ivy_4.mtl
o Ivy_4_Plane.083
v 0.176627 0.132915 0.227558
v -0.495484 0.278073 0.503990
v -0.550915 0.046397 0.482007
v 0.111515 -0.119002 0.205452
v -0.586913 -0.223984 0.514317
v -0.015250 -0.076350 0.514317
v -0.862531 0.427649 0.514317
v -0.180520 0.453863 0.514317
v -0.143466 0.372731 -0.002160
v -0.765712 0.665329 0.274272
v -0.871827 0.452054 0.252289
v -0.263567 0.141911 -0.024265
v -0.451841 0.266193 0.284599
v -0.548385 1.169760 0.284600
v -1.242922 1.089766 0.284600
v -1.038735 0.244999 0.284599
v -0.480250 0.532077 0.284599
v -0.319656 0.326331 0.074867
v -0.685548 0.934911 0.286932
v -0.512941 1.063974 0.202722
v -0.133732 0.471390 -0.015610
v -0.213502 1.136186 0.284549
v -0.123044 0.552738 0.284549
v -0.921013 1.131656 0.284549
v -0.675395 0.494869 0.284549
v 0.158845 -0.060215 0.323326
v -0.047151 0.451457 0.504808
v 0.096135 0.532954 0.429324
v 0.313855 0.032256 0.242166
v 0.023985 0.102732 0.491159
v 0.376369 0.327192 0.468208
v -0.356282 0.749311 0.518049
v -0.054222 0.947528 0.498391
v -0.139170 -0.540013 0.023912
v -0.549458 -0.914274 0.089588
v -0.629365 -0.832740 0.032569
v -0.229210 -0.453569 -0.037885
v -0.305656 -0.606643 0.085044
v -0.940536 -0.773713 0.085044
v -0.759871 -1.289603 0.085044
v -0.140733 -1.070156 0.085044
v 0.546714 -1.452963 0.507962
v 0.956596 -0.665228 0.507962
v -0.043508 -1.094937 0.507962
v 0.290869 -0.340710 0.507962
v 0.094346 -0.245101 0.142216
v 0.393700 -0.816269 0.507418
v 0.556347 -0.752893 0.466173
v 0.273950 -0.179826 0.099690
v 0.441291 -1.600615 0.210334
v -0.107144 -2.376311 0.210334
v 0.373815 -2.355685 0.210334
v 0.335421 -2.357332 0.210334
v -0.083678 -1.587414 0.210334
v -0.080659 -1.406599 -0.067141
v 0.113020 -2.077045 0.182277
v 0.284374 -2.036332 0.148340
v 0.107727 -1.366744 -0.102481
v -0.045990 -1.267233 0.031401
v 0.453194 -1.740118 0.307833
v 0.620808 -1.570850 0.285850
v 0.140406 -1.085688 0.009295
v 0.280239 -1.262718 0.318160
v 0.088715 -2.151015 0.318161
v 0.773326 -2.292741 0.318161
v 0.844203 -1.426542 0.318160
v 0.223881 -1.524109 0.318161
v -0.365851 -1.061953 -0.083821
v 0.255970 -1.355455 0.192611
v 0.362395 -1.142334 0.170627
v -0.245415 -0.831308 -0.105927
v 0.458651 -0.887115 0.202937
v -0.131592 -0.901542 0.202937
v 0.579642 -1.584219 0.202937
v -0.090606 -1.455402 0.202937
v 0.278560 -1.042203 -0.157395
v 0.670563 -1.607113 0.119063
v 0.818976 -1.507805 0.102238
v 0.443260 -0.937661 -0.173869
v 0.554697 -1.807236 0.155160
v 0.452866 -1.179138 0.155160
v 0.920702 -1.808449 0.155160
v 0.847561 -1.163515 0.155160
v 0.103354 -1.487973 0.020159
v -0.284902 -2.094837 0.193920
v -0.474317 -1.994561 0.106692
v -0.106080 -1.382661 -0.073875
v -0.032674 -1.660106 0.217514
v -0.033236 -1.623874 0.214339
v -0.973153 -1.675062 0.024826
v -0.033296 -1.620007 0.214001
v -0.020448 -2.448873 0.286626
v -0.956668 -2.477845 0.095999
v -0.136244 -1.056649 -0.003812
v -0.399653 -1.716091 0.208253
v -0.606826 -1.656674 0.124043
v -0.364209 -0.996302 -0.094289
v -0.845422 -1.461868 0.205870
v -0.435460 -1.036985 0.205870
v -0.413947 -2.022600 0.205871
v -0.055338 -1.441889 0.205870
v 0.237570 -0.312518 -0.080106
v -0.033114 -0.969007 0.131959
v -0.239616 -0.907304 0.047748
v 0.010287 -0.249654 -0.170584
v -0.322095 -0.467350 0.110737
v 0.045425 -1.343372 0.110737
v -0.419665 -1.219124 0.110737
v -0.382538 -1.229042 0.110737
v 0.193285 -0.568100 0.110737
v 0.022977 -1.003776 0.133251
v -0.051988 -1.555092 0.299411
v -0.220759 -1.549280 0.233429
v -0.161776 -1.001206 0.062358
v 0.064642 -1.218658 0.291354
v -0.353609 -1.230883 0.291354
v 0.061444 -1.969245 0.291354
v -0.300048 -1.984719 0.291354
v 0.092953 0.006724 0.341451
v 0.590186 -0.468212 0.617883
v 0.429502 -0.644073 0.595900
v -0.079054 -0.188508 0.319345
v 0.225877 -0.825563 0.628210
v 0.027371 -0.269515 0.628210
v 0.919927 -0.688137 0.628210
v 0.559002 -0.108862 0.628210
v 0.471052 -0.123706 0.111733
v 1.062360 -0.474646 0.388165
v 0.945345 -0.682141 0.366182
v 0.347359 -0.352621 0.089627
v 0.555867 -0.438749 0.398492
v 1.358002 -0.011745 0.398493
v 1.681435 -0.631560 0.398493
v 0.867584 -0.936470 0.398492
v 0.791903 -0.313099 0.398493
v 0.531489 -0.295588 0.188760
v 1.240546 -0.257045 0.400825
v 1.250547 -0.041752 0.316615
v 0.547261 -0.060299 0.098283
v 1.142332 0.246635 0.398442
v 0.608605 -0.005813 0.398442
v 1.535513 -0.341583 0.398443
v 0.870583 -0.495514 0.398442
v -0.056943 -0.116347 0.437218
v 0.482187 0.000190 0.618701
v 0.469263 0.164525 0.543217
v -0.067361 0.063848 0.356058
v 0.153604 -0.136566 0.605051
v 0.141715 0.281064 0.582101
v 0.902181 -0.088604 0.631943
v 0.896801 0.272645 0.612284
v -1.035628 -0.920277 0.537057
v -0.162032 -1.079529 0.537057
v -0.867656 -0.250702 0.537057
v -0.048352 -0.347695 0.537057
v -0.014974 -0.131713 0.171311
v -0.472410 -0.586244 0.536513
v -0.363872 -0.722955 0.495268
v 0.100380 -0.284066 0.128785
v -0.258604 0.167154 -0.024746
v -0.806404 -0.235533 0.270174
v -0.669088 -0.430462 0.250763
v -0.112453 -0.048399 -0.043918
v -0.306161 -0.147849 0.270530
v -1.147754 0.194864 0.275405
v -1.405888 -0.454562 0.295229
v -0.565162 -0.674658 0.287388
v -0.553809 -0.047002 0.271964
v -0.140709 -0.351107 0.153852
v -0.722290 -0.021473 0.473733
v -0.644627 0.182538 0.396984
v -0.059909 -0.126141 0.072258
v -0.408356 0.384426 0.467631
v -0.051122 -0.077312 0.379449
v -1.021229 0.034095 0.515031
v -0.503646 -0.397938 0.408814
vt 0.486569 0.710380
vt 0.486486 0.874496
vt 0.469348 0.873680
vt 0.467860 0.710614
vt 0.124449 0.873675
vt 0.129913 0.799827
vt 0.219280 0.782651
vt 0.203148 0.875598
vt 0.486569 0.710380
vt 0.486486 0.874496
vt 0.469348 0.873680
vt 0.467860 0.710614
vt 0.020174 0.871126
vt 0.037138 0.756495
vt 0.115327 0.752258
vt 0.114749 0.787907
vt 0.113363 0.873404
vt 0.486569 0.710380
vt 0.486486 0.874496
vt 0.469348 0.873680
vt 0.467860 0.710614
vt 0.124449 0.873675
vt 0.129913 0.799827
vt 0.219280 0.782651
vt 0.203148 0.875598
vt 0.486569 0.710380
vt 0.486486 0.874496
vt 0.469348 0.873680
vt 0.467860 0.710614
vt 0.335609 0.870403
vt 0.279842 0.868773
vt 0.286983 0.768261
vt 0.335182 0.770325
vt 0.486569 0.710380
vt 0.486486 0.874496
vt 0.469348 0.873680
vt 0.467860 0.710614
vt 0.235342 0.765057
vt 0.238311 0.692236
vt 0.325808 0.696134
vt 0.322809 0.761663
vt 0.011380 0.747626
vt 0.011038 0.629228
vt 0.109759 0.631530
vt 0.103208 0.741338
vt 0.486569 0.710380
vt 0.486486 0.874496
vt 0.469348 0.873680
vt 0.467860 0.710614
vt 0.228200 0.770437
vt 0.127380 0.777647
vt 0.126861 0.707631
vt 0.232087 0.706368
vt 0.228510 0.765322
vt 0.486569 0.710380
vt 0.486486 0.874496
vt 0.469348 0.873680
vt 0.467860 0.710614
vt 0.486569 0.710380
vt 0.486486 0.874496
vt 0.469348 0.873680
vt 0.467860 0.710614
vt 0.020174 0.871126
vt 0.037138 0.756495
vt 0.115327 0.752258
vt 0.114749 0.787907
vt 0.113363 0.873404
vt 0.486569 0.710380
vt 0.486486 0.874496
vt 0.469348 0.873680
vt 0.467860 0.710614
vt 0.124449 0.873675
vt 0.129913 0.799827
vt 0.219280 0.782651
vt 0.203148 0.875598
vt 0.486569 0.710380
vt 0.486486 0.874496
vt 0.469348 0.873680
vt 0.467860 0.710614
vt 0.282406 0.783810
vt 0.272654 0.869802
vt 0.220028 0.867719
vt 0.233606 0.783972
vt 0.486569 0.710380
vt 0.486486 0.874496
vt 0.469348 0.873680
vt 0.467860 0.710614
vt 0.465060 0.870699
vt 0.337613 0.871540
vt 0.337163 0.765957
vt 0.337143 0.761107
vt 0.337140 0.760589
vt 0.465152 0.763219
vt 0.486569 0.710380
vt 0.486486 0.874496
vt 0.469348 0.873680
vt 0.467860 0.710614
vt 0.124449 0.873675
vt 0.129913 0.799827
vt 0.219280 0.782651
vt 0.203148 0.875598
vt 0.486569 0.710380
vt 0.486486 0.874496
vt 0.469348 0.873680
vt 0.467860 0.710614
vt 0.228200 0.770437
vt 0.127380 0.777647
vt 0.126861 0.707631
vt 0.232087 0.706368
vt 0.228510 0.765322
vt 0.486569 0.710380
vt 0.486486 0.874496
vt 0.469348 0.873680
vt 0.467860 0.710614
vt 0.335609 0.870403
vt 0.279842 0.868773
vt 0.286983 0.768261
vt 0.335182 0.770325
vt 0.486569 0.710380
vt 0.486486 0.874496
vt 0.469348 0.873680
vt 0.467860 0.710614
vt 0.124449 0.873675
vt 0.129913 0.799827
vt 0.219280 0.782651
vt 0.203148 0.875598
vt 0.486569 0.710380
vt 0.486486 0.874496
vt 0.469348 0.873680
vt 0.467860 0.710614
vt 0.020174 0.871126
vt 0.037138 0.756495
vt 0.115327 0.752258
vt 0.114749 0.787907
vt 0.113363 0.873404
vt 0.486569 0.710380
vt 0.486486 0.874496
vt 0.469348 0.873680
vt 0.467860 0.710614
vt 0.124449 0.873675
vt 0.129913 0.799827
vt 0.219280 0.782651
vt 0.203148 0.875598
vt 0.486569 0.710380
vt 0.486486 0.874496
vt 0.469348 0.873680
vt 0.467860 0.710614
vt 0.335609 0.870403
vt 0.279842 0.868773
vt 0.286983 0.768261
vt 0.335182 0.770325
vt 0.011380 0.747626
vt 0.011038 0.629228
vt 0.109759 0.631530
vt 0.103208 0.741338
vt 0.486569 0.710380
vt 0.486486 0.874496
vt 0.469348 0.873680
vt 0.467860 0.710614
vt 0.486569 0.710380
vt 0.486486 0.874496
vt 0.469348 0.873680
vt 0.467860 0.710614
vt 0.020174 0.871126
vt 0.037138 0.756495
vt 0.115327 0.752258
vt 0.114749 0.787907
vt 0.113363 0.873404
vt 0.486569 0.710380
vt 0.486486 0.874496
vt 0.469348 0.873680
vt 0.467860 0.710614
vt 0.124449 0.873675
vt 0.129913 0.799827
vt 0.219280 0.782651
vt 0.203148 0.875598
vn 0.3433 -0.1698 0.9238
vn 0.0000 0.0000 1.0000
vn 0.2963 -0.2426 0.9238
vn -0.4585 0.0338 -0.8880
vn 0.0000 0.0000 -1.0000
vn -0.5074 0.0993 -0.8560
vn 0.0665 -0.0024 0.9978
vn 0.2241 -0.4015 -0.8880
vn 0.0031 0.5398 0.8418
vn 0.0948 0.3710 0.9238
vn -0.2053 0.3233 0.9238
vn -0.2959 0.2431 0.9238
vn -0.1351 0.3584 0.9238
vn 0.2071 -0.3895 -0.8975
vn -0.2013 0.0824 0.9761
vn 0.2504 -0.3856 -0.8880
vn 0.2461 -0.3883 -0.8880
vn 0.3364 -0.3134 -0.8880
vn 0.3331 -0.1889 -0.9238
vn 0.3671 -0.1091 -0.9238
vn -0.2852 0.3606 0.8880
vn -0.3669 0.3643 0.8560
vn 0.0393 -0.0537 -0.9978
vn 0.5167 0.1563 0.8418
vn 0.3684 0.1685 0.9143
vn 0.0157 0.0243 0.9996
vn -0.5281 -0.1154 -0.8413
vn -0.1277 0.0898 -0.9877
usemtl material_ivy_redhills
s off
f 1/1/1 2/2/1 3/3/1 4/4/1
f 6/5/2 8/6/2 7/7/2 5/8/2
f 9/9/3 10/10/3 11/11/3 12/12/3
f 15/13/2 16/14/2 13/15/2 17/16/2 14/17/2
f 18/18/4 19/19/4 20/20/4 21/21/4
f 23/22/5 25/23/5 24/24/5 22/25/5
f 26/26/6 27/27/6 28/28/6 29/29/6
f 30/30/7 31/31/7 33/32/7 32/33/7
f 34/34/8 35/35/8 36/36/8 37/37/8
f 39/38/2 40/39/2 41/40/2 38/41/2
f 42/42/2 43/43/2 45/44/2 44/45/2
f 46/46/9 47/47/9 48/48/9 49/49/9
f 52/50/2 50/51/2 54/52/2 51/53/2 53/54/2
f 55/55/10 56/56/10 57/57/10 58/58/10
f 59/59/11 60/60/11 61/61/11 62/62/11
f 65/63/2 66/64/2 63/65/2 67/66/2 64/67/2
f 68/68/12 69/69/12 70/70/12 71/71/12
f 73/72/2 75/73/2 74/74/2 72/75/2
f 76/76/13 77/77/13 78/78/13 79/79/13
f 82/80/2 83/81/2 81/82/2 80/83/2
f 84/84/14 85/85/14 86/86/14 87/87/14
f 93/88/15 92/89/15 88/90/15 89/91/15 91/92/15 90/93/15
f 94/94/16 95/95/16 96/96/16 97/97/16
f 99/98/5 101/99/5 100/100/5 98/101/5
f 102/102/17 103/103/17 104/104/17 105/105/17
f 108/106/5 106/107/5 110/108/5 107/109/5 109/110/5
f 111/111/18 112/112/18 113/113/18 114/114/18
f 115/115/2 116/116/2 118/117/2 117/118/2
f 119/119/19 120/120/19 121/121/19 122/122/19
f 124/123/5 126/124/5 125/125/5 123/126/5
f 127/127/20 128/128/20 129/129/20 130/130/20
f 133/131/5 134/132/5 131/133/5 135/134/5 132/135/5
f 136/136/21 137/137/21 138/138/21 139/139/21
f 141/140/2 143/141/2 142/142/2 140/143/2
f 144/144/22 145/145/22 146/146/22 147/147/22
f 148/148/23 149/149/23 151/150/23 150/151/23
f 152/152/2 153/153/2 155/154/2 154/155/2
f 156/156/24 157/157/24 158/158/24 159/159/24
f 160/160/25 161/161/25 162/162/25 163/163/25
f 166/164/26 167/165/26 164/166/26 168/167/26 165/168/26
f 169/169/27 170/170/27 171/171/27 172/172/27
f 174/173/28 176/174/28 175/175/28 173/176/28
